<?xml version="1.0" encoding="UTF-8"?>
<svg width="619px" height="94px" viewBox="0 0 619 94" version="1.1" xmlns="http://www.w3.org/2000/svg" xmlns:xlink="http://www.w3.org/1999/xlink">
    <!-- Generator: Sketch 48.2 (47327) - http://www.bohemiancoding.com/sketch -->
    <title>logo</title>
    <desc>Created with Sketch.</desc>
    <defs></defs>
    <g id="Page-1" stroke="none" stroke-width="1" fill="none" fill-rule="evenodd">
        <g id="logo" fill="#FFFFFF">
            <path d="M61.6,64.3 C58.599985,67.900018 54.8166895,70.5833245 50.25,72.35 C45.6833105,74.1166755 41.033357,75 36.3,75 C30.96664,75 26.100022,74.066676 21.7,72.2 C17.299978,70.333324 13.500016,67.7500165 10.3,64.45 C7.099984,61.1499835 4.6166755,57.200023 2.85,52.6 C1.0833245,47.999977 0.2,43.000027 0.2,37.6 C0.2,32.199973 1.0833245,27.200023 2.85,22.6 C4.6166755,17.999977 7.099984,14.0500165 10.3,10.75 C13.500016,7.4499835 17.3166445,4.866676 21.75,3 C26.1833555,1.133324 31.033307,0.2 36.3,0.2 C40.700022,0.2 44.9833125,0.9499925 49.15,2.45 C53.3166875,3.9500075 56.866652,6.233318 59.8,9.3 L58.4,10.9 C56.999993,9.433326 55.4166755,8.1500055 53.65,7.05 C51.8833245,5.9499945 50.0166765,5.033337 48.05,4.3 C46.0833235,3.566663 44.10001,3.033335 42.1,2.7 C40.09999,2.366665 38.166676,2.2 36.3,2.2 C31.233308,2.2 26.6166875,3.1166575 22.45,4.95 C18.2833125,6.7833425 14.7166815,9.299984 11.75,12.5 C8.7833185,15.700016 6.4833415,19.4499785 4.85,23.75 C3.2166585,28.0500215 2.4,32.666642 2.4,37.6 C2.4,42.533358 3.199992,47.1499785 4.8,51.45 C6.400008,55.7500215 8.6833185,59.499984 11.65,62.7 C14.6166815,65.900016 18.1833125,68.4166575 22.35,70.25 C26.5166875,72.0833425 31.166641,73 36.3,73 C40.700022,73 45.0499785,72.1500085 49.35,70.45 C53.6500215,68.7499915 57.199986,66.200017 60,62.8 L61.6,64.3 Z M144.2,37.6 C144.2,43.066694 143.283343,48.0833105 141.45,52.65 C139.616657,57.2166895 137.083349,61.1499835 133.85,64.45 C130.61665,67.7500165 126.766689,70.333324 122.3,72.2 C117.833311,74.066676 113.000026,75 107.8,75 C102.599974,75 97.766689,74.066676 93.3,72.2 C88.833311,70.333324 84.9833495,67.7500165 81.75,64.45 C78.5166505,61.1499835 75.9833425,57.2166895 74.15,52.65 C72.3166575,48.0833105 71.4,43.066694 71.4,37.6 C71.4,32.133306 72.3166575,27.1166895 74.15,22.55 C75.9833425,17.9833105 78.5166505,14.0500165 81.75,10.75 C84.9833495,7.4499835 88.8166445,4.866676 93.25,3 C97.6833555,1.133324 102.533307,0.2 107.8,0.2 C113.066693,0.2 117.916645,1.133324 122.35,3 C126.783355,4.866676 130.61665,7.4499835 133.85,10.75 C137.083349,14.0500165 139.616657,17.9833105 141.45,22.55 C143.283343,27.1166895 144.2,32.133306 144.2,37.6 Z M142,37.6 C142,32.666642 141.166675,28.0500215 139.5,23.75 C137.833325,19.4499785 135.483348,15.700016 132.45,12.5 C129.416652,9.299984 125.800021,6.7833425 121.6,4.95 C117.399979,3.1166575 112.800025,2.2 107.8,2.2 C102.799975,2.2 98.200021,3.1166575 94,4.95 C89.799979,6.7833425 86.1833485,9.299984 83.15,12.5 C80.1166515,15.700016 77.766675,19.4499785 76.1,23.75 C74.433325,28.0500215 73.6,32.666642 73.6,37.6 C73.6,42.533358 74.4166585,47.1499785 76.05,51.45 C77.6833415,55.7500215 79.999985,59.499984 83,62.7 C86.000015,65.900016 89.599979,68.4166575 93.8,70.25 C98.000021,72.0833425 102.666641,73 107.8,73 C112.933359,73 117.599979,72.0833425 121.8,70.25 C126.000021,68.4166575 129.599985,65.900016 132.6,62.7 C135.600015,59.499984 137.916659,55.7500215 139.55,51.45 C141.183341,47.1499785 142,42.533358 142,37.6 Z M203.1,19.8 C203.1,22.800015 202.550005,25.4499885 201.45,27.75 C200.349994,30.0500115 198.866676,31.966659 197,33.5 C195.133324,35.033341 192.950013,36.199996 190.45,37 C187.949988,37.800004 185.300014,38.2 182.5,38.2 L164.2,38.2 L164.2,73 L162,73 L162,2.2 L181.2,2.2 C183.733346,2.2 186.299987,2.4833305 188.9,3.05 C191.500013,3.6166695 193.849989,4.56666 195.95,5.9 C198.05001,7.23334 199.76666,9.033322 201.1,11.3 C202.43334,13.566678 203.1,16.399983 203.1,19.8 Z M200.9,19.8 C200.9,16.799985 200.333339,14.30001 199.2,12.3 C198.066661,10.29999 196.600009,8.700006 194.8,7.5 C192.999991,6.299994 190.983345,5.433336 188.75,4.9 C186.516656,4.366664 184.300011,4.1 182.1,4.1 L164.2,4.1 L164.2,36.3 L182.6,36.3 C184.800011,36.3 186.999989,36.000003 189.2,35.4 C191.400011,34.799997 193.366658,33.83334 195.1,32.5 C196.833342,31.16666 198.233328,29.4500105 199.3,27.35 C200.366672,25.2499895 200.9,22.733348 200.9,19.8 Z M234.8,42 L234.8,73 L232.6,73 L232.6,42 L208.3,2.2 L210.9,2.2 L233.8,39.8 L256.6,2.2 L259.1,2.2 L234.8,42 Z" id="Copy"></path>
            <path d="M301.3,68.2 L301.3,91 L277.6,91 L277.6,20.2 L308,20.2 C311.600018,20.2 315.133316,20.5833295 318.6,21.35 C322.066684,22.1166705 325.166653,23.4166575 327.9,25.25 C330.633347,27.0833425 332.833325,29.5166515 334.5,32.55 C336.166675,35.5833485 337,39.399977 337,44 C337,48.400022 336.183341,52.133318 334.55,55.2 C332.916659,58.266682 330.750014,60.766657 328.05,62.7 C325.349986,64.633343 322.250018,66.033329 318.75,66.9 C315.249982,67.766671 311.666685,68.2 308,68.2 L301.3,68.2 Z M301.3,38.7 L301.3,50.1 L306.3,50.1 C308.100009,50.1 309.749993,49.6500045 311.25,48.75 C312.750007,47.8499955 313.5,46.333344 313.5,44.2 C313.5,43.066661 313.300002,42.1500035 312.9,41.45 C312.499998,40.7499965 311.950003,40.200002 311.25,39.8 C310.549997,39.399998 309.766671,39.1166675 308.9,38.95 C308.033329,38.7833325 307.166671,38.7 306.3,38.7 L301.3,38.7 Z M365.7,20.2 L391,20.2 L418.6,91 L392.7,91 L389,80.6 L366.5,80.6 L363,91 L337.8,91 L365.7,20.2 Z M378,44.9 L372.2,62.4 L383.7,62.4 L378,44.9 Z M446.8,93 C443.933319,93 441.116681,92.7500025 438.35,92.25 C435.58332,91.7499975 432.916679,91.0166715 430.35,90.05 C427.78332,89.0833285 425.366678,87.9500065 423.1,86.65 C420.833322,85.3499935 418.800009,83.900008 417,82.3 L431.5,66.5 C433.166675,68.300009 435.383319,69.899993 438.15,71.3 C440.91668,72.700007 443.766652,73.4 446.7,73.4 C448.03334,73.4 449.249994,73.166669 450.35,72.7 C451.450005,72.233331 452,71.366673 452,70.1 C452,69.43333 451.816668,68.866669 451.45,68.4 C451.083331,67.933331 450.433338,67.4500025 449.5,66.95 C448.566662,66.4499975 447.283342,65.900003 445.65,65.3 C444.016658,64.699997 441.966679,64.000004 439.5,63.2 C437.099988,62.399996 434.800011,61.4500055 432.6,60.35 C430.399989,59.2499945 428.450008,57.900008 426.75,56.3 C425.049992,54.699992 423.700005,52.7833445 422.7,50.55 C421.699995,48.3166555 421.2,45.633349 421.2,42.5 C421.2,38.099978 422.099991,34.366682 423.9,31.3 C425.700009,28.233318 428.016652,25.7166765 430.85,23.75 C433.683347,21.7833235 436.866649,20.366671 440.4,19.5 C443.933351,18.633329 447.433316,18.2 450.9,18.2 C455.56669,18.2 460.316642,19.099991 465.15,20.9 C469.983358,22.700009 474.233315,25.299983 477.9,28.7 L463.1,43.8 C461.499992,41.79999 459.533345,40.2833385 457.2,39.25 C454.866655,38.2166615 452.766676,37.7 450.9,37.7 C449.166658,37.7 447.766672,37.9499975 446.7,38.45 C445.633328,38.9500025 445.1,39.766661 445.1,40.9 C445.1,41.966672 445.649995,42.766664 446.75,43.3 C447.850005,43.833336 449.633321,44.499996 452.1,45.3 C454.633346,46.100004 457.299986,47.033328 460.1,48.1 C462.900014,49.166672 465.483321,50.5499915 467.85,52.25 C470.216678,53.9500085 472.166659,56.033321 473.7,58.5 C475.233341,60.966679 476,64.033315 476,67.7 C476,71.966688 475.150009,75.6833175 473.45,78.85 C471.749992,82.0166825 469.516681,84.6499895 466.75,86.75 C463.983319,88.8500105 460.866684,90.4166615 457.4,91.45 C453.933316,92.4833385 450.400018,93 446.8,93 Z M520.6,91 L496.8,91 L496.8,40.3 L479.4,40.3 L479.4,20.2 L538,20.2 L538,40.3 L520.6,40.3 L520.6,91 Z M565,20.2 L590.3,20.2 L617.9,91 L592,91 L588.3,80.6 L565.8,80.6 L562.3,91 L537.1,91 L565,20.2 Z M577.3,44.9 L571.5,62.4 L583,62.4 L577.3,44.9 Z" id="Pasta"></path>
        </g>
    </g>
</svg>