<?xml version="1.0" standalone="no"?><!DOCTYPE svg PUBLIC "-//W3C//DTD SVG 1.1//EN" "http://www.w3.org/Graphics/SVG/1.1/DTD/svg11.dtd"><svg t="1756392931857" class="icon" viewBox="0 0 1024 1024" version="1.1" xmlns="http://www.w3.org/2000/svg" p-id="4558" xmlns:xlink="http://www.w3.org/1999/xlink" width="256" height="256"><path d="M64 388.256c0-113.504 0-170.24 22.08-213.6A202.656 202.656 0 0 1 174.656 86.08C218.016 64 274.752 64 388.256 64h247.488c113.504 0 170.24 0 213.6 22.08a202.656 202.656 0 0 1 88.576 88.576c22.08 43.36 22.08 100.096 22.08 213.6v247.488c0 113.504 0 170.24-22.08 213.6a202.656 202.656 0 0 1-88.576 88.576c-43.36 22.08-100.096 22.08-213.6 22.08h-247.488c-113.504 0-170.24 0-213.6-22.08a202.656 202.656 0 0 1-88.576-88.576C64 805.984 64 749.248 64 635.744v-247.488z" fill="#00005B" p-id="4559"></path><path d="M441.28 626.048H302.4l-28.224 90.176a7.168 7.168 0 0 1-7.232 5.536H196.64c-4.032 0-5.44-2.24-4.224-6.784l120.224-353.6c1.184-3.712 2.4-7.328 3.584-12.064a135.36 135.36 0 0 0 2.432-24.96c-0.352-2.464 1.792-4.672 4.192-4.32h95.584c2.784 0 4.384 1.024 4.8 3.104l136.448 392.48c1.184 4.096 0 6.144-3.616 6.144h-78.144a5.632 5.632 0 0 1-6.016-4.32l-30.656-91.392z m-117.216-76.032h94.944c-15.584-53.312-33.184-105.92-47.456-159.68-16.192 55.744-31.136 107.424-47.488 159.68zM661.12 591.232c5.568 45.76 44 67.616 86.592 66.688 24-0.48 49.664-4.192 72.096-13.28 1.984-1.632 3.008-0.64 3.008 3.072v58.56a7.968 7.968 0 0 1-3.616 7.392c-27.872 12.672-59.904 16.512-90.144 16-90.176 0-152.096-63.52-152.064-155.936-0.224-87.616 56.608-161.504 144.864-161.504 74.816-1.92 126.624 57.952 126.816 132.512 0 13.568-0.768 27.2-2.4 40.672a5.568 5.568 0 0 1-5.408 4.96c-59.744 0-119.808 0.864-179.712 0.864z m0-56.16c33.312 0 66.816 1.184 100.096-0.32 5.024-0.512 8.736-1.472 8.736-6.656-0.704-27.648-24.032-50.368-51.104-49.312-32.704-2.048-53.632 25.6-57.696 56.288z" fill="#9999FF" p-id="4560"></path></svg>