<?xml version="1.0" encoding="utf-8"?><svg xmlns="http://www.w3.org/2000/svg" xmlns:xlink="http://www.w3.org/1999/xlink"><symbol viewBox="0 0 68 68" id="shapes-Circle" xmlns="http://www.w3.org/2000/svg"><circle cx="34" cy="34" r="32" stroke="#A3A3A3" fill="#a3a3a3"/></symbol><symbol viewBox="0 0 68 68" id="shapes-Decagon" xmlns="http://www.w3.org/2000/svg"><path d="M43.9 3.6l16 11.6L66 34l-6.1 18.8-16 11.6H24.1l-16-11.6L2 34l6.1-18.8 16-11.6z" stroke="#A3A3A3" fill="#a3a3a3"/></symbol><symbol viewBox="0 0 68 68" id="shapes-Equilateral-Triangle" xmlns="http://www.w3.org/2000/svg"><path d="M34 6.3L2 61.7h64L34 6.3z" stroke="#A3A3A3" fill="#a3a3a3"/></symbol><symbol viewBox="0 0 68 68" id="shapes-Heptagon" xmlns="http://www.w3.org/2000/svg"><path d="M19.8 65.2h28.4L66 42.9l-6.3-27.7L34 2.8 8.3 15.2 2 42.9l17.8 22.3z" stroke="#A3A3A3" fill="#a3a3a3"/></symbol><symbol viewBox="0 0 68 68" id="shapes-Hexagon" xmlns="http://www.w3.org/2000/svg"><path d="M50 61.7H18L2 34 18 6.3h32L66 34z" stroke="#A3A3A3" fill="#a3a3a3"/></symbol><symbol viewBox="0 0 68 68" id="shapes-Isoceles-Triangle" xmlns="http://www.w3.org/2000/svg"><path d="M10.2 66L34 2l23.8 64H10.2z" stroke="#A3A3A3" fill="#a3a3a3"/></symbol><symbol viewBox="0 0 68 68" id="shapes-Nonagon" xmlns="http://www.w3.org/2000/svg"><path d="M34 2.5l20.9 7.6L66 29.3l-3.9 21.9-17 14.3H22.9l-17-14.3L2 29.3l11.1-19.2z" stroke="#A3A3A3" fill="#a3a3a3"/></symbol><symbol viewBox="0 0 68 68" id="shapes-Octagon" xmlns="http://www.w3.org/2000/svg"><path d="M20.7 66L2 47.3V20.7L20.7 2h26.6L66 20.7v26.6L47.3 66z" stroke="#A3A3A3" fill="#a3a3a3"/></symbol><symbol viewBox="0 0 68 68" id="shapes-Parallelogram" xmlns="http://www.w3.org/2000/svg"><path d="M2 19.8h42.7L66 48.2H23.3L2 19.8z" stroke="#A3A3A3" fill="#a3a3a3"/></symbol><symbol viewBox="0 0 68 68" id="shapes-Pentagon" xmlns="http://www.w3.org/2000/svg"><path d="M14.2 64.4L2 26.8 34 3.6l32 23.2-12.2 37.6z" stroke="#A3A3A3" fill="#a3a3a3"/></symbol><symbol viewBox="0 0 68 68" id="shapes-Rectangle-16-9" xmlns="http://www.w3.org/2000/svg"><path d="M2 16h64v36H2z" stroke="#A3A3A3" fill="#a3a3a3"/></symbol><symbol viewBox="0 0 68 68" id="shapes-Rectangle-5-3" xmlns="http://www.w3.org/2000/svg"><path d="M2 14.8h64v38.4H2z" stroke="#A3A3A3" fill="#a3a3a3"/></symbol><symbol viewBox="0 0 68 68" id="shapes-Right-Triangle" xmlns="http://www.w3.org/2000/svg"><path d="M2 2v64h64l-2.2-2.2L4.2 4.2 2 2z" stroke="#A3A3A3" fill="#a3a3a3"/></symbol><symbol viewBox="0 0 68 68" id="shapes-Scalene-Triangle" xmlns="http://www.w3.org/2000/svg"><path d="M6.293 33.93l4.462 13.015h55.22L2.016 20.915 6.293 33.93z" stroke="#A3A3A3" fill="#a3a3a3" stroke-width="1.85926"/></symbol><symbol viewBox="0 0 68 68" id="shapes-Square" xmlns="http://www.w3.org/2000/svg"><path d="M2 2h64v64H2z" stroke="#A3A3A3" fill="#a3a3a3"/></symbol></svg>