<svg width="256" height="144" viewBox="0 0 256 144" fill="none" xmlns="http://www.w3.org/2000/svg">
<mask id="mask0_2534_5087" style="mask-type:alpha" maskUnits="userSpaceOnUse" x="0" y="12" width="256" height="132">
<rect y="12" width="256" height="132" fill="url(#paint0_radial_2534_5087)"/>
</mask>
<g mask="url(#mask0_2534_5087)">
<mask id="mask1_2534_5087" style="mask-type:alpha" maskUnits="userSpaceOnUse" x="0" y="0" width="62" height="144">
<path d="M0 0H62V144H0V0Z" fill="url(#paint1_linear_2534_5087)"/>
</mask>
<g mask="url(#mask1_2534_5087)">
<path d="M-45 28C-45 25.1832 -44.9992 23.1308 -44.8671 21.5135C-44.7359 19.9078 -44.4802 18.8192 -44.0191 17.9141C-43.1562 16.2206 -41.7794 14.8438 -40.0859 13.9809C-39.1808 13.5198 -38.0922 13.2641 -36.4865 13.1329C-34.8692 13.0008 -32.8168 13 -30 13H46C48.8168 13 50.8692 13.0008 52.4865 13.1329C54.0922 13.2641 55.1808 13.5198 56.0859 13.9809L56.5399 13.0899L56.0859 13.9809C57.7794 14.8438 59.1562 16.2206 60.0191 17.9141C60.4802 18.8192 60.7359 19.9078 60.8671 21.5135C60.9992 23.1308 61 25.1832 61 28V140C61 142.817 60.9992 144.869 60.8671 146.487C60.7359 148.092 60.4802 149.181 60.0191 150.086C59.1562 151.779 57.7794 153.156 56.0859 154.019C55.1808 154.48 54.0922 154.736 52.4865 154.867C50.8692 154.999 48.8168 155 46 155H-30C-32.8168 155 -34.8692 154.999 -36.4865 154.867C-38.0922 154.736 -39.1808 154.48 -40.0859 154.019C-41.7794 153.156 -43.1562 151.779 -44.0191 150.086C-44.4802 149.181 -44.7359 148.092 -44.8671 146.487C-44.9992 144.869 -45 142.817 -45 140V28Z" fill="url(#paint2_linear_2534_5087)" stroke="url(#paint3_linear_2534_5087)" stroke-width="2"/>
<path d="M-45.5 28C-45.5 25.1915 -45.4996 23.1152 -45.3654 21.4727C-45.2317 19.8361 -44.9676 18.6744 -44.4646 17.6871C-43.5538 15.8996 -42.1004 14.4462 -40.3129 13.5354C-39.3256 13.0324 -38.1639 12.7683 -36.5273 12.6346C-34.8848 12.5004 -32.8085 12.5 -30 12.5H46C48.8085 12.5 50.8848 12.5004 52.5273 12.6346C54.1639 12.7683 55.3256 13.0324 56.3129 13.5354C58.1004 14.4462 59.5538 15.8996 60.4646 17.6871C60.9676 18.6744 61.2317 19.8361 61.3654 21.4727C61.4996 23.1152 61.5 25.1915 61.5 28V140C61.5 142.809 61.4996 144.885 61.3654 146.527C61.2317 148.164 60.9676 149.326 60.4646 150.313C59.5538 152.1 58.1004 153.554 56.3129 154.465C55.3256 154.968 54.1639 155.232 52.5273 155.365C50.8848 155.5 48.8085 155.5 46 155.5H-30C-32.8085 155.5 -34.8848 155.5 -36.5273 155.365C-38.1639 155.232 -39.3256 154.968 -40.3129 154.465C-42.1005 153.554 -43.5538 152.1 -44.4646 150.313C-44.9676 149.326 -45.2317 148.164 -45.3654 146.527C-45.4996 144.885 -45.5 142.809 -45.5 140V28Z" stroke="url(#paint4_linear_2534_5087)"/>
</g>
<mask id="mask2_2534_5087" style="mask-type:alpha" maskUnits="userSpaceOnUse" x="194" y="0" width="62" height="144">
<path fill-rule="evenodd" clip-rule="evenodd" d="M256 0H194V41.007C205.794 46.3429 214 58.2132 214 72C214 85.7868 205.794 97.6571 194 102.993V144H256V0Z" fill="url(#paint5_linear_2534_5087)"/>
</mask>
<g mask="url(#mask2_2534_5087)">
<path d="M195 28C195 25.1832 195.001 23.1308 195.133 21.5135C195.264 19.9078 195.52 18.8192 195.981 17.9141C196.844 16.2206 198.221 14.8438 199.914 13.9809C200.819 13.5198 201.908 13.2641 203.513 13.1329C205.131 13.0008 207.183 13 210 13H286C288.817 13 290.869 13.0008 292.487 13.1329C294.092 13.2641 295.181 13.5198 296.086 13.9809L296.54 13.0899L296.086 13.9809C297.779 14.8438 299.156 16.2206 300.019 17.9141C300.48 18.8192 300.736 19.9078 300.867 21.5135C300.999 23.1308 301 25.1832 301 28V140C301 142.817 300.999 144.869 300.867 146.487C300.736 148.092 300.48 149.181 300.019 150.086C299.156 151.779 297.779 153.156 296.086 154.019C295.181 154.48 294.092 154.736 292.487 154.867C290.869 154.999 288.817 155 286 155H210C207.183 155 205.131 154.999 203.513 154.867C201.908 154.736 200.819 154.48 199.914 154.019C198.221 153.156 196.844 151.779 195.981 150.086C195.52 149.181 195.264 148.092 195.133 146.487C195.001 144.869 195 142.817 195 140V28Z" fill="url(#paint6_linear_2534_5087)" stroke="url(#paint7_linear_2534_5087)" stroke-width="2"/>
<path d="M194.5 28C194.5 25.1915 194.5 23.1152 194.635 21.4727C194.768 19.8361 195.032 18.6744 195.535 17.6871C196.446 15.8996 197.9 14.4462 199.687 13.5354C200.674 13.0324 201.836 12.7683 203.473 12.6346C205.115 12.5004 207.191 12.5 210 12.5H286C288.809 12.5 290.885 12.5004 292.527 12.6346C294.164 12.7683 295.326 13.0324 296.313 13.5354C298.1 14.4462 299.554 15.8996 300.465 17.6871C300.968 18.6744 301.232 19.8361 301.365 21.4727C301.5 23.1152 301.5 25.1915 301.5 28V140C301.5 142.809 301.5 144.885 301.365 146.527C301.232 148.164 300.968 149.326 300.465 150.313C299.554 152.1 298.1 153.554 296.313 154.465C295.326 154.968 294.164 155.232 292.527 155.365C290.885 155.5 288.809 155.5 286 155.5H210C207.191 155.5 205.115 155.5 203.473 155.365C201.836 155.232 200.674 154.968 199.687 154.465C197.9 153.554 196.446 152.1 195.535 150.313C195.032 149.326 194.768 148.164 194.635 146.527C194.5 144.885 194.5 142.809 194.5 140V28Z" stroke="url(#paint8_linear_2534_5087)"/>
</g>
</g>
<mask id="mask3_2534_5087" style="mask-type:alpha" maskUnits="userSpaceOnUse" x="74" y="0" width="108" height="144">
<path fill-rule="evenodd" clip-rule="evenodd" d="M182 0H74V144H182V105.942C181.338 105.981 180.671 106 180 106C161.222 106 146 90.7777 146 72C146 53.2223 161.222 38 180 38C180.671 38 181.338 38.0195 182 38.0578V0Z" fill="url(#paint9_linear_2534_5087)"/>
</mask>
<g mask="url(#mask3_2534_5087)">
<path d="M76 16C76 13.1667 76.0016 11.1621 76.1296 9.59488C76.2557 8.05104 76.4946 7.1087 76.8719 6.36808C77.6389 4.86278 78.8628 3.63893 80.3681 2.87195C81.1087 2.49458 82.051 2.25574 83.5949 2.1296C85.1621 2.00156 87.1667 2 90 2H166C168.833 2 170.838 2.00156 172.405 2.1296C173.949 2.25574 174.891 2.49458 175.632 2.87195C177.137 3.63894 178.361 4.86278 179.128 6.36807C179.505 7.1087 179.744 8.05104 179.87 9.59488C179.998 11.1621 180 13.1667 180 16V128C180 130.833 179.998 132.838 179.87 134.405C179.744 135.949 179.505 136.891 179.128 137.632C178.361 139.137 177.137 140.361 175.632 141.128C174.891 141.505 173.949 141.744 172.405 141.87C170.838 141.998 168.833 142 166 142H90C87.1667 142 85.1621 141.998 83.5949 141.87C82.051 141.744 81.1087 141.505 80.3681 141.128C78.8628 140.361 77.6389 139.137 76.8719 137.632L75.0899 138.54L76.8719 137.632C76.4946 136.891 76.2557 135.949 76.1296 134.405C76.0016 132.838 76 130.833 76 128V16Z" stroke="url(#paint10_linear_2534_5087)" stroke-width="4"/>
<path d="M74.0011 129.604C74.0004 129.259 74.0001 128.903 74 128.534L74.5 128.534L74.5 128V127.5H74V126.5H74.5V125.5H74V124.5H74.5V123.5H74V122.5H74.5V121.5H74V120.5H74.5V119.5H74V118.5H74.5V117.5H74V116.5H74.5V115.5H74V114.5H74.5V113.5H74V112.5H74.5V111.5H74V110.5H74.5V109.5H74V108.5H74.5V107.5H74V106.5H74.5V105.5H74V104.5H74.5V103.5H74V102.5H74.5V101.5H74V100.5H74.5V99.5H74V98.5H74.5V97.5H74V96.5H74.5V95.5H74V94.5H74.5V93.5H74V92.5H74.5V91.5H74V90.5H74.5V89.5H74V88.5H74.5V87.5H74V86.5H74.5V85.5H74V84.5H74.5V83.5H74V82.5H74.5V81.5H74V80.5H74.5V79.5H74V78.5H74.5V77.5H74V76.5H74.5V75.5H74V74.5H74.5V73.5H74V72.5H74.5V71.5H74V70.5H74.5V69.5H74V68.5H74.5V67.5H74V66.5H74.5V65.5H74V64.5H74.5V63.5H74V62.5H74.5V61.5H74V60.5H74.5V59.5H74V58.5H74.5V57.5H74V56.5H74.5V55.5H74V54.5H74.5V53.5H74V52.5H74.5V51.5H74V50.5H74.5V49.5H74V48.5H74.5V47.5H74V46.5H74.5V45.5H74V44.5H74.5V43.5H74V42.5H74.5V41.5H74V40.5H74.5V39.5H74V38.5H74.5V37.5H74V36.5H74.5V35.5H74V34.5H74.5V33.5H74V32.5H74.5V31.5H74V30.5H74.5V29.5H74V28.5H74.5V27.5H74V26.5H74.5V25.5H74V24.5H74.5V23.5H74V22.5H74.5V21.5H74V20.5H74.5V19.5H74V18.5H74.5V17.5H74V16.5H74.5V16L74.5 15.4657L74 15.4656C74.0001 15.0968 74.0004 14.7406 74.0011 14.3964L74.5011 14.3975C74.5019 14.0282 74.5033 13.6731 74.5057 13.3312L74.0057 13.3277C74.0083 12.9573 74.012 12.602 74.0175 12.2608L74.5174 12.2688C74.5234 11.8984 74.5314 11.5454 74.542 11.2083L74.0423 11.1925C74.0541 10.8188 74.0692 10.4637 74.0885 10.1254L74.5877 10.154C74.6088 9.78469 74.635 9.43736 74.6672 9.10918L74.1696 9.06025C74.2064 8.68599 74.2512 8.3342 74.3057 8.00147L74.7991 8.0823C74.8576 7.72565 74.927 7.39502 75.0094 7.08506L74.5262 6.95661C74.6213 6.59878 74.7336 6.26352 74.8663 5.94472L75.3279 6.13676C75.392 5.98271 75.461 5.83312 75.5354 5.68709C75.6109 5.53905 75.69 5.3933 75.7728 5.24997L75.3398 4.99997C75.5148 4.69678 75.7052 4.40383 75.9098 4.12214L76.3143 4.41603C76.5096 4.14734 76.7185 3.88942 76.9401 3.64326L76.5686 3.30869C76.8022 3.04923 77.0492 2.80218 77.3087 2.56855L77.6433 2.94012C77.8894 2.71847 78.1473 2.50955 78.416 2.31433L78.1221 1.90982C78.4038 1.70516 78.6968 1.5148 79 1.33976L79.25 1.77277C79.3933 1.69002 79.539 1.61087 79.6871 1.53544C79.8331 1.46103 79.9827 1.39199 80.1368 1.32791L79.9447 0.866259C80.2635 0.733647 80.5988 0.621337 80.9566 0.526219L81.0851 1.00944C81.395 0.927045 81.7256 0.857561 82.0823 0.799138L82.0015 0.305715C82.3342 0.251211 82.686 0.206425 83.0602 0.169623L83.1092 0.667223C83.4374 0.634953 83.7847 0.608828 84.154 0.587719L84.1254 0.0885337C84.4637 0.0691956 84.8188 0.0540815 85.1925 0.0422686L85.2083 0.542019C85.5454 0.53136 85.8984 0.523395 86.2688 0.517449L86.2608 0.0175137C86.602 0.0120366 86.9573 0.00827234 87.3277 0.00568531L87.3312 0.505673C87.6731 0.503285 88.0282 0.501901 88.3975 0.5011L88.3964 0.00110143C88.7406 0.000354779 89.0968 0.000114277 89.4656 3.68094e-05L89.4657 0.500037L90 0.5H90.5V0H91.5V0.5H92.5V0H93.5V0.5H94.5V0H95.5V0.5H96.5V0H97.5V0.5H98.5V0H99.5V0.5H100.5V0H101.5V0.5H102.5V0H103.5V0.5H104.5V0H105.5V0.5H106.5V0H107.5V0.5H108.5V0H109.5V0.5H110.5V0H111.5V0.5H112.5V0H113.5V0.5H114.5V0H115.5V0.5H116.5V0H117.5V0.5H118.5V0H119.5V0.5H120.5V0H121.5V0.5H122.5V0H123.5V0.5H124.5V0H125.5V0.5H126.5V0H127.5V0.5H128.5V0H129.5V0.5H130.5V0H131.5V0.5H132.5V0H133.5V0.5H134.5V0H135.5V0.5H136.5V0H137.5V0.5H138.5V0H139.5V0.5H140.5V0H141.5V0.5H142.5V0H143.5V0.5H144.5V0H145.5V0.5H146.5V0H147.5V0.5H148.5V0H149.5V0.5H150.5V0H151.5V0.5H152.5V0H153.5V0.5H154.5V0H155.5V0.5H156.5V0H157.5V0.5H158.5V0H159.5V0.5H160.5V0H161.5V0.5H162.5V0H163.5V0.5H164.5V0H165.5V0.5H166L166.534 0.500037L166.534 3.68094e-05C166.903 0.000114277 167.259 0.000354778 167.604 0.00110143L167.603 0.5011C167.972 0.501901 168.327 0.503285 168.669 0.505673L168.672 0.0056853C169.043 0.00827233 169.398 0.0120366 169.739 0.0175136L169.731 0.517449C170.102 0.523395 170.455 0.53136 170.792 0.542019L170.808 0.0422687C171.181 0.0540815 171.536 0.0691956 171.875 0.0885337L171.846 0.587719C172.215 0.608828 172.563 0.634953 172.891 0.667223L172.94 0.169623C173.314 0.206424 173.666 0.251211 173.999 0.305714L173.918 0.799138C174.274 0.857561 174.605 0.927045 174.915 1.00944L175.043 0.52622C175.401 0.621337 175.736 0.733647 176.055 0.866258L175.863 1.32791C176.017 1.39199 176.167 1.46103 176.313 1.53544C176.461 1.61087 176.607 1.69002 176.75 1.77277L177 1.33976C177.303 1.5148 177.596 1.70516 177.878 1.90982L177.584 2.31433C177.853 2.50955 178.111 2.71847 178.357 2.94012L178.691 2.56855C178.951 2.80218 179.198 3.04923 179.431 3.30869L179.06 3.64326C179.282 3.88942 179.49 4.14734 179.686 4.41603L180.09 4.12214C180.295 4.40383 180.485 4.69678 180.66 4.99997L180.227 5.24997C180.31 5.3933 180.389 5.53905 180.465 5.68709C180.539 5.83312 180.608 5.98271 180.672 6.13676L181.134 5.94472C181.266 6.26352 181.379 6.59878 181.474 6.95661L180.991 7.08506C181.073 7.39502 181.142 7.72565 181.201 8.0823L181.694 8.00147C181.749 8.3342 181.794 8.68599 181.83 9.06025L181.333 9.10918C181.365 9.43736 181.391 9.78469 181.412 10.154L181.911 10.1254C181.931 10.4637 181.946 10.8188 181.958 11.1925L181.458 11.2083C181.469 11.5454 181.477 11.8984 181.483 12.2688L181.982 12.2608C181.988 12.602 181.992 12.9573 181.994 13.3277L181.494 13.3312C181.497 13.6731 181.498 14.0282 181.499 14.3975L181.999 14.3964C182 14.7406 182 15.0968 182 15.4656L181.5 15.4657L181.5 16V16.5H182V17.5H181.5V18.5H182V19.5H181.5V20.5H182V21.5H181.5V22.5H182V23.5H181.5V24.5H182V25.5H181.5V26.5H182V27.5H181.5V28.5H182V29.5H181.5V30.5H182V31.5H181.5V32.5H182V33.5H181.5V34.5H182V35.5H181.5V36.5H182V37.5H181.5V38.5H182V39.5H181.5V40.5H182V41.5H181.5V42.5H182V43.5H181.5V44.5H182V45.5H181.5V46.5H182V47.5H181.5V48.5H182V49.5H181.5V50.5H182V51.5H181.5V52.5H182V53.5H181.5V54.5H182V55.5H181.5V56.5H182V57.5H181.5V58.5H182V59.5H181.5V60.5H182V61.5H181.5V62.5H182V63.5H181.5V64.5H182V65.5H181.5V66.5H182V67.5H181.5V68.5H182V69.5H181.5V70.5H182V71.5H181.5V72.5H182V73.5H181.5V74.5H182V75.5H181.5V76.5H182V77.5H181.5V78.5H182V79.5H181.5V80.5H182V81.5H181.5V82.5H182V83.5H181.5V84.5H182V85.5H181.5V86.5H182V87.5H181.5V88.5H182V89.5H181.5V90.5H182V91.5H181.5V92.5H182V93.5H181.5V94.5H182V95.5H181.5V96.5H182V97.5H181.5V98.5H182V99.5H181.5V100.5H182V101.5H181.5V102.5H182V103.5H181.5V104.5H182V105.5H181.5V106.5H182V107.5H181.5V108.5H182V109.5H181.5V110.5H182V111.5H181.5V112.5H182V113.5H181.5V114.5H182V115.5H181.5V116.5H182V117.5H181.5V118.5H182V119.5H181.5V120.5H182V121.5H181.5V122.5H182V123.5H181.5V124.5H182V125.5H181.5V126.5H182V127.5H181.5V128L181.5 128.534L182 128.534C182 128.903 182 129.259 181.999 129.604L181.499 129.603C181.498 129.972 181.497 130.327 181.494 130.669L181.994 130.672C181.992 131.043 181.988 131.398 181.982 131.739L181.483 131.731C181.477 132.102 181.469 132.455 181.458 132.792L181.958 132.808C181.946 133.181 181.931 133.536 181.911 133.875L181.412 133.846C181.391 134.215 181.365 134.563 181.333 134.891L181.83 134.94C181.794 135.314 181.749 135.666 181.694 135.999L181.201 135.918C181.142 136.274 181.073 136.605 180.991 136.915L181.474 137.043C181.379 137.401 181.266 137.736 181.134 138.055L180.672 137.863C180.608 138.017 180.539 138.167 180.465 138.313C180.389 138.461 180.31 138.607 180.227 138.75L180.66 139C180.485 139.303 180.295 139.596 180.09 139.878L179.686 139.584C179.49 139.853 179.282 140.111 179.06 140.357L179.431 140.691C179.198 140.951 178.951 141.198 178.691 141.431L178.357 141.06C178.111 141.282 177.853 141.49 177.584 141.686L177.878 142.09C177.596 142.295 177.303 142.485 177 142.66L176.75 142.227C176.607 142.31 176.461 142.389 176.313 142.465C176.167 142.539 176.017 142.608 175.863 142.672L176.055 143.134C175.736 143.266 175.401 143.379 175.043 143.474L174.915 142.991C174.605 143.073 174.274 143.142 173.918 143.201L173.999 143.694C173.666 143.749 173.314 143.794 172.94 143.83L172.891 143.333C172.563 143.365 172.215 143.391 171.846 143.412L171.875 143.911C171.536 143.931 171.181 143.946 170.808 143.958L170.792 143.458C170.455 143.469 170.102 143.477 169.731 143.483L169.739 143.982C169.398 143.988 169.043 143.992 168.672 143.994L168.669 143.494C168.327 143.497 167.972 143.498 167.603 143.499L167.604 143.999C167.259 144 166.903 144 166.534 144L166.534 143.5L166 143.5H165.5V144H164.5V143.5H163.5V144H162.5V143.5H161.5V144H160.5V143.5H159.5V144H158.5V143.5H157.5V144H156.5V143.5H155.5V144H154.5V143.5H153.5V144H152.5V143.5H151.5V144H150.5V143.5H149.5V144H148.5V143.5H147.5V144H146.5V143.5H145.5V144H144.5V143.5H143.5V144H142.5V143.5H141.5V144H140.5V143.5H139.5V144H138.5V143.5H137.5V144H136.5V143.5H135.5V144H134.5V143.5H133.5V144H132.5V143.5H131.5V144H130.5V143.5H129.5V144H128.5V143.5H127.5V144H126.5V143.5H125.5V144H124.5V143.5H123.5V144H122.5V143.5H121.5V144H120.5V143.5H119.5V144H118.5V143.5H117.5V144H116.5V143.5H115.5V144H114.5V143.5H113.5V144H112.5V143.5H111.5V144H110.5V143.5H109.5V144H108.5V143.5H107.5V144H106.5V143.5H105.5V144H104.5V143.5H103.5V144H102.5V143.5H101.5V144H100.5V143.5H99.5V144H98.5V143.5H97.5V144H96.5V143.5H95.5V144H94.5V143.5H93.5V144H92.5V143.5H91.5V144H90.5V143.5H90L89.4657 143.5L89.4656 144C89.0968 144 88.7406 144 88.3964 143.999L88.3975 143.499C88.0282 143.498 87.6731 143.497 87.3311 143.494L87.3277 143.994C86.9573 143.992 86.602 143.988 86.2608 143.982L86.2688 143.483C85.8984 143.477 85.5454 143.469 85.2083 143.458L85.1925 143.958C84.8188 143.946 84.4637 143.931 84.1254 143.911L84.154 143.412C83.7847 143.391 83.4374 143.365 83.1092 143.333L83.0602 143.83C82.686 143.794 82.3342 143.749 82.0015 143.694L82.0823 143.201C81.7256 143.142 81.395 143.073 81.0851 142.991L80.9566 143.474C80.5988 143.379 80.2635 143.266 79.9447 143.134L80.1368 142.672C79.9827 142.608 79.8331 142.539 79.6871 142.465C79.539 142.389 79.3933 142.31 79.25 142.227L79 142.66C78.6968 142.485 78.4038 142.295 78.1221 142.09L78.416 141.686C78.1473 141.49 77.8894 141.282 77.6433 141.06L77.3087 141.431C77.0492 141.198 76.8022 140.951 76.5686 140.691L76.9401 140.357C76.7185 140.111 76.5096 139.853 76.3143 139.584L75.9098 139.878C75.7052 139.596 75.5148 139.303 75.3398 139L75.7728 138.75C75.69 138.607 75.6109 138.461 75.5354 138.313C75.461 138.167 75.392 138.017 75.3279 137.863L74.8663 138.055C74.7336 137.736 74.6213 137.401 74.5262 137.043L75.0094 136.915C74.927 136.605 74.8576 136.274 74.7991 135.918L74.3057 135.999C74.2512 135.666 74.2064 135.314 74.1696 134.94L74.6672 134.891C74.635 134.563 74.6088 134.215 74.5877 133.846L74.0885 133.875C74.0692 133.536 74.0541 133.181 74.0423 132.808L74.542 132.792C74.5314 132.455 74.5234 132.102 74.5174 131.731L74.0175 131.739C74.012 131.398 74.0083 131.043 74.0057 130.672L74.5057 130.669C74.5033 130.327 74.5019 129.972 74.5011 129.603L74.0011 129.604Z" stroke="url(#paint11_linear_2534_5087)" stroke-dasharray="1 1"/>
<path d="M80.0089 135.203C80.0027 134.881 80.0008 134.527 80.0002 134.135L80.5002 134.134C80.5 133.985 80.5 133.83 80.5 133.669C80.5 133.646 80.5 133.623 80.5 133.6V133.103H80V132.11H80.5V131.117H80V130.123H80.5V129.13H80V128.136H80.5V127.143H80V126.149H80.5V125.156H80V124.162H80.5V123.169H80V122.176H80.5V121.182H80V120.189H80.5V119.195H80V118.202H80.5V117.208H80V116.215H80.5V115.221H80V114.228H80.5V113.235H80V112.241H80.5V111.248H80V110.254H80.5V109.261H80V108.267H80.5V107.274H80V106.28H80.5V105.287H80V104.294H80.5V103.3H80V102.307H80.5V101.313H80V100.32H80.5V99.3263H80V98.3329H80.5V97.3394H80V96.346H80.5V95.3525H80V94.3591H80.5V93.3656H80V92.3722H80.5V91.3787H80V90.3853H80.5V89.3919H80V88.3984H80.5V87.405H80V86.4115H80.5V85.4181H80V84.4246H80.5V83.4312H80V82.4377H80.5V81.4443H80V80.4508H80.5V79.4574H80V78.4639H80.5V77.4705H80V76.4771H80.5V75.4836H80V74.4902H80.5V73.4967H80V72.5033H80.5V71.5098H80V70.5164H80.5V69.5229H80V68.5295H80.5V67.5361H80V66.5426H80.5V65.5492H80V64.5557H80.5V63.5623H80V62.5689H80.5V61.5754H80V60.582H80.5V59.5885H80V58.5951H80.5V57.6016H80V56.6082H80.5V55.6148H80V54.6213H80.5V53.6279H80V52.6344H80.5V51.641H80V50.6475H80.5V49.6541H80V48.6607H80.5V47.6672H80V46.6738H80.5V45.6803H80V44.6869H80.5V43.6934H80V42.7H80.5V41.7066H80V40.7131H80.5V39.7197H80V38.7262H80.5V37.7328H80V36.7393H80.5V35.7459H80V34.7525H80.5V33.759H80V32.7656H80.5V31.7721H80V30.7787H80.5V29.7852H80V28.7918H80.5V27.7984H80V26.8049H80.5V25.8115H80V24.818H80.5V23.8246H80V22.8311H80.5V21.8377H80V20.8443H80.5V19.8508H80V18.8574H80.5V17.8639H80V16.8705H80.5V15.8771H80V14.8836H80.5V13.8902H80V12.8967H80.5V12.4C80.5 12.2141 80.5 12.0364 80.5002 11.8659L80.0002 11.8652C80.0008 11.4732 80.0027 11.1191 80.0089 10.7972L80.5088 10.8068C80.5164 10.4104 80.5306 10.0709 80.5562 9.77328L80.0581 9.73035C80.0931 9.32358 80.1493 8.98175 80.2395 8.67978L80.7186 8.82282C80.7636 8.67212 80.8173 8.53692 80.8815 8.41103C80.9651 8.24688 81.0612 8.0904 81.1684 7.94275L80.7639 7.64886C81.0106 7.3093 81.3093 7.01063 81.6489 6.76393L81.9428 7.16844C82.0904 7.06116 82.2469 6.96512 82.411 6.88148C82.5369 6.81734 82.6721 6.76358 82.8228 6.71859L82.6798 6.23949C82.9817 6.14933 83.3236 6.09311 83.7303 6.05806L83.7733 6.55621C84.0709 6.53057 84.4104 6.51642 84.8068 6.5088L84.7972 6.00889C85.1191 6.0027 85.4732 6.00082 85.8652 6.00025L85.8659 6.50025C86.0364 6.5 86.2141 6.5 86.4 6.5H86.8952V6H87.8857V6.5H88.8762V6H89.8667V6.5H90.8571V6H91.8476V6.5H92.8381V6H93.8286V6.5H94.8191V6H95.8095V6.5H96.8V6H97.7905V6.5H98.781V6H99.7715V6.5H100.762V6H101.752V6.5H102.743V6H103.733V6.5H104.724V6H105.714V6.5H106.705V6H107.695V6.5H108.686V6H109.676V6.5H110.667V6H111.657V6.5H112.648V6H113.638V6.5H114.629V6H115.619V6.5H116.61V6H117.6V6.5H118.59V6H119.581V6.5H120.571V6H121.562V6.5H122.552V6H123.543V6.5H124.533V6H125.524V6.5H126.514V6H127.505V6.5H128.495V6H129.486V6.5H130.476V6H131.467V6.5H132.457V6H133.448V6.5H134.438V6H135.429V6.5H136.419V6H137.41V6.5H138.4V6H139.39V6.5H140.381V6H141.371V6.5H142.362V6H143.352V6.5H144.343V6H145.333V6.5H146.324V6H147.314V6.5H148.305V6H149.295V6.5H150.286V6H151.276V6.5H152.267V6H153.257V6.5H154.248V6H155.238V6.5H156.229V6H157.219V6.5H158.21V6H159.2V6.5H160.19V6H161.181V6.5H162.171V6H163.162V6.5H164.152V6H165.143V6.5H166.133V6H167.124V6.5H168.114V6H169.105V6.5H169.6C169.786 6.5 169.964 6.5 170.134 6.50025L170.135 6.00025C170.527 6.00082 170.881 6.0027 171.203 6.00889L171.193 6.5088C171.59 6.51642 171.929 6.53057 172.227 6.55621L172.27 6.05806C172.676 6.09311 173.018 6.14933 173.32 6.23949L173.177 6.71859C173.328 6.76358 173.463 6.81734 173.589 6.88148C173.753 6.96511 173.91 7.06116 174.057 7.16844L174.351 6.76393C174.691 7.01064 174.989 7.3093 175.236 7.64886L174.832 7.94275C174.939 8.0904 175.035 8.24688 175.119 8.41103C175.183 8.53692 175.236 8.67212 175.281 8.82282L175.761 8.67978C175.851 8.98175 175.907 9.32358 175.942 9.73035L175.444 9.77327C175.469 10.0709 175.484 10.4104 175.491 10.8068L175.991 10.7972C175.997 11.1191 175.999 11.4732 176 11.8652L175.5 11.8659C175.5 12.0364 175.5 12.2141 175.5 12.4V12.8965H176V13.89H175.5V14.8834H176V15.8769H175.5V16.8703H176V17.8637H175.5V18.8572H176V19.8506H175.5V20.8441H176V21.8375H175.5V22.831H176V23.8244H175.5V24.8179H176V25.8113H175.5V26.8048H176V27.7982H175.5V28.7917H176V29.7851H175.5V30.7785H176V31.772H175.5V32.7654H176V33.7589H175.5V34.7523H176V35.7458H175.5V36.7392H176V37.7327H175.5V38.7261H176V39.7196H175.5V40.713H176V41.7065H175.5V42.6999H176V43.6933H175.5V44.6868H176V45.6802H175.5V46.6737H176V47.6671H175.5V48.6606H176V49.654H175.5V50.6475H176V51.6409H175.5V52.6344H176V53.6278H175.5V54.6213H176V55.6147H175.5V56.6082H176V57.6016H175.5V58.595H176V59.5885H175.5V60.5819H176V61.5754H175.5V62.5688H176V63.5623H175.5V64.5557H176V65.5492H175.5V66.5426H176V67.5361H175.5V68.5295H176V69.523H175.5V70.5164H176V71.5098H175.5V72.5033H176V73.4967H175.5V74.4902H176V75.4836H175.5V76.4771H176V77.4705H175.5V78.4639H176V79.4574H175.5V80.4508H176V81.4443H175.5V82.4377H176V83.4312H175.5V84.4246H176V85.418H175.5V86.4115H176V87.4049H175.5V88.3984H176V89.3918H175.5V90.3853H176V91.3787H175.5V92.3721H176V93.3656H175.5V94.359H176V95.3525H175.5V96.3459H176V97.3394H175.5V98.3328H176V99.3262H175.5V100.32H176V101.313H175.5V102.307H176V103.3H175.5V104.293H176V105.287H175.5V106.28H176V107.274H175.5V108.267H176V109.261H175.5V110.254H176V111.248H175.5V112.241H176V113.234H175.5V114.228H176V115.221H175.5V116.215H176V117.208H175.5V118.202H176V119.195H175.5V120.189H176V121.182H175.5V122.175H176V123.169H175.5V124.162H176V125.156H175.5V126.149H176V127.143H175.5V128.136H176V129.13H175.5V130.123H176V131.116H175.5V132.11H176V133.103H175.5V133.6C175.5 133.68 175.5 133.758 175.5 133.835C175.5 133.937 175.5 134.037 175.5 134.134L176 134.135C175.999 134.527 175.997 134.881 175.991 135.203L175.491 135.193C175.484 135.59 175.469 135.929 175.444 136.227L175.942 136.27C175.907 136.676 175.851 137.018 175.761 137.32L175.281 137.177C175.236 137.328 175.183 137.463 175.119 137.589C175.035 137.753 174.939 137.91 174.832 138.057L175.236 138.351C174.989 138.691 174.691 138.989 174.351 139.236L174.057 138.832C173.91 138.939 173.753 139.035 173.589 139.119C173.463 139.183 173.328 139.236 173.177 139.281L173.32 139.761C173.018 139.851 172.676 139.907 172.27 139.942L172.227 139.444C171.929 139.469 171.59 139.484 171.193 139.491L171.203 139.991C170.881 139.997 170.527 139.999 170.135 140L170.134 139.5C170.08 139.5 170.025 139.5 169.97 139.5C169.951 139.5 169.933 139.5 169.914 139.5C169.812 139.5 169.707 139.5 169.6 139.5H169.105V140H168.114V139.5H167.124V140H166.133V139.5H165.143V140H164.152V139.5H163.162V140H162.171V139.5H161.181V140H160.19V139.5H159.2V140H158.21V139.5H157.219V140H156.229V139.5H155.238V140H154.248V139.5H153.257V140H152.267V139.5H151.276V140H150.286V139.5H149.295V140H148.305V139.5H147.314V140H146.324V139.5H145.333V140H144.343V139.5H143.352V140H142.362V139.5H141.371V140H140.381V139.5H139.39V140H138.4V139.5H137.41V140H136.419V139.5H135.429V140H134.438V139.5H133.448V140H132.457V139.5H131.467V140H130.476V139.5H129.486V140H128.495V139.5H127.505V140H126.514V139.5H125.524V140H124.533V139.5H123.543V140H122.552V139.5H121.562V140H120.571V139.5H119.581V140H118.59V139.5H117.6V140H116.61V139.5H115.619V140H114.629V139.5H113.638V140H112.648V139.5H111.657V140H110.667V139.5H109.676V140H108.686V139.5H107.695V140H106.705V139.5H105.714V140H104.724V139.5H103.733V140H102.743V139.5H101.752V140H100.762V139.5H99.7714V140H98.781V139.5H97.7905V140H96.8V139.5H95.8095V140H94.819V139.5H93.8286V140H92.8381V139.5H91.8476V140H90.8571V139.5H89.8667V140H88.8762V139.5H87.8857V140H86.8952V139.5H86.4C86.2141 139.5 86.0364 139.5 85.8659 139.5L85.8652 140C85.4732 139.999 85.1191 139.997 84.7972 139.991L84.8068 139.491C84.4104 139.484 84.0709 139.469 83.7733 139.444L83.7303 139.942C83.3236 139.907 82.9818 139.851 82.6798 139.761L82.8228 139.281C82.6721 139.236 82.5369 139.183 82.411 139.119L82.184 139.564L82.411 139.119C82.2469 139.035 82.0904 138.939 81.9427 138.832L81.6489 139.236C81.3093 138.989 81.0106 138.691 80.7639 138.351L81.1684 138.057C81.0612 137.91 80.9651 137.753 80.8815 137.589C80.8173 137.463 80.7636 137.328 80.7186 137.177L80.2395 137.32C80.1493 137.018 80.0931 136.676 80.0581 136.27L80.5562 136.227C80.5306 135.929 80.5164 135.59 80.5088 135.193L80.0089 135.203Z" fill="url(#paint12_linear_2534_5087)" stroke="url(#paint13_linear_2534_5087)" stroke-dasharray="1 1"/>
</g>
<mask id="mask4_2534_5087" style="mask-type:alpha" maskUnits="userSpaceOnUse" x="156" y="48" width="48" height="48">
<circle cx="180" cy="72" r="24" fill="#F7F8F8" fill-opacity="0.5"/>
</mask>
<g mask="url(#mask4_2534_5087)">
<path d="M86.0133 132.804C86.004 132.321 86.0012 131.79 86.0004 131.202L87.0004 131.201C87 130.945 87 130.679 87 130.4V129.393H86V127.379H87V125.366H86V123.352H87V121.338H86V119.324H87V117.31H86V115.297H87V113.283H86V111.269H87V109.255H86V107.241H87V105.228H86V103.214H87V101.2H86V99.1862H87V97.1724H86V95.1586H87V93.1449H86V91.1311H87V89.1173H86V87.1035H87V85.0897H86V83.0759H87V81.0621H86V79.0483H87V77.0345H86V75.0207H87V73.0069H86V70.9931H87V68.9793H86V66.9655H87V64.9517H86V62.9379H87V60.9241H86V58.9104H87V56.8966H86V54.8828H87V52.869H86V50.8552H87V48.8414H86V46.8276H87V44.8138H86V42.8H87V40.7862H86V38.7724H87V36.7586H86V34.7448H87V32.731H86V30.7172H87V28.7034H86V26.6897H87V24.6759H86V22.6621H87V20.6483H86V18.6345H87V16.6207H86V14.6069H87V13.6C87 13.3211 87 13.0547 87.0004 12.7992L86.0004 12.7978C86.0012 12.2098 86.004 11.6787 86.0133 11.1958L87.0132 11.215C87.0245 10.623 87.0456 10.12 87.0834 9.68138L86.0871 9.59552C86.1397 8.98537 86.224 8.47262 86.3592 8.01967L87.3174 8.30575C87.381 8.09301 87.4561 7.90437 87.545 7.73005C87.6645 7.49554 87.8017 7.27199 87.9549 7.06107L87.1459 6.47328C87.516 5.96395 87.9639 5.51595 88.4733 5.14589L89.0611 5.95491C89.272 5.80166 89.4955 5.66445 89.73 5.54497C89.9044 5.45615 90.093 5.38095 90.3058 5.31743L90.0197 4.35923C90.4726 4.22399 90.9854 4.13967 91.5955 4.08709L91.6814 5.0834C92.12 5.0456 92.623 5.02454 93.215 5.01315L93.1958 4.01334C93.6787 4.00405 94.2098 4.00123 94.7978 4.00037L94.7992 5.00037C95.0547 5 95.3211 5 95.6 5H96.61V4H98.63V5H100.65V4H102.67V5H104.69V4H106.71V5H108.73V4H110.75V5H112.77V4H114.79V5H116.81V4H118.83V5H120.85V4H122.87V5H124.89V4H126.91V5H128.93V4H130.95V5H132.97V4H134.99V5H137.01V4H139.03V5H141.05V4H143.07V5H145.09V4H147.11V5H149.13V4H151.15V5H153.17V4H155.19V5H157.21V4H159.23V5H161.25V4H163.27V5H165.29V4H167.31V5H169.33V4H171.35V5H173.37V4H175.39V5H176.4C176.435 5 176.47 5 176.504 5C176.504 5 176.504 5 176.504 5C176.745 5.00001 176.977 5.00005 177.201 5.00037L177.202 4.00037C177.79 4.00123 178.321 4.00405 178.804 4.01334L178.785 5.01315C179.377 5.02454 179.88 5.0456 180.319 5.0834L180.404 4.08709C181.015 4.13967 181.527 4.22399 181.98 4.35923L181.694 5.31743C181.907 5.38095 182.096 5.45615 182.27 5.54497C182.504 5.66445 182.728 5.80166 182.939 5.95491L183.527 5.14589C184.036 5.51595 184.484 5.96395 184.854 6.47328L184.045 7.06107C184.198 7.27199 184.336 7.49555 184.455 7.73005C184.544 7.90437 184.619 8.09301 184.683 8.30575L185.641 8.01967C185.776 8.47262 185.86 8.98537 185.913 9.59552L184.917 9.68138C184.954 10.12 184.975 10.623 184.987 11.215L185.987 11.1958C185.996 11.6787 185.999 12.2098 186 12.7978L185 12.7992C185 13.0547 185 13.3211 185 13.6V14.6069H186V16.6206H185V18.6344H186V20.6482H185V22.662H186V24.6758H185V26.6896H186V28.7034H185V30.7172H186V32.731H185V34.7448H186V36.7586H185V38.7724H186V40.7862H185V42.8H186V44.8138H185V46.8276H186V48.8414H185V50.8551H186V52.8689H185V54.8827H186V56.8965H185V58.9103H186V60.9241H185V62.9379H186V64.9517H185V66.9655H186V68.9793H185V70.9931H186V73.0069H185V75.0207H186V77.0345H185V79.0483H186V81.062H185V83.0758H186V85.0896H185V87.1034H186V89.1172H185V91.131H186V93.1448H185V95.1586H186V97.1724H185V99.1862H186V101.2H185V103.214H186V105.228H185V107.241H186V109.255H185V111.269H186V113.283H185V115.297H186V117.31H185V119.324H186V121.338H185V123.352H186V125.366H185V127.379H186V129.393H185V130.4C185 130.587 185 130.769 185 130.946C185 131.032 185 131.117 185 131.201L186 131.202C185.999 131.79 185.996 132.321 185.987 132.804L184.987 132.785C184.975 133.377 184.954 133.88 184.917 134.319L185.913 134.404C185.86 135.015 185.776 135.527 185.641 135.98L184.683 135.694C184.619 135.907 184.544 136.096 184.455 136.27C184.336 136.504 184.198 136.728 184.045 136.939L184.854 137.527C184.484 138.036 184.036 138.484 183.527 138.854L182.939 138.045C182.728 138.198 182.504 138.336 182.27 138.455C182.096 138.544 181.907 138.619 181.694 138.683L181.98 139.641C181.527 139.776 181.015 139.86 180.404 139.913L180.319 138.917C179.88 138.954 179.377 138.975 178.785 138.987L178.804 139.987C178.321 139.996 177.79 139.999 177.202 140L177.201 139C177.05 139 176.896 139 176.738 139C176.669 139 176.599 139 176.528 139C176.486 139 176.443 139 176.4 139H175.39V140H173.37V139H171.35V140H169.33V139H167.31V140H165.29V139H163.27V140H161.25V139H159.23V140H157.21V139H155.19V140H153.17V139H151.15V140H149.13V139H147.11V140H145.09V139H143.07V140H141.05V139H139.03V140H137.01V139H134.99V140H132.97V139H130.95V140H128.93V139H126.91V140H124.89V139H122.87V140H120.85V139H118.83V140H116.81V139H114.79V140H112.77V139H110.75V140H108.73V139H106.71V140H104.69V139H102.67V140H100.65V139H98.63V140H96.61V139H95.6C95.5651 139 95.5305 139 95.496 139C95.4959 139 95.4959 139 95.4958 139C95.2546 139 95.0227 139 94.7992 139L94.7978 140C94.2098 139.999 93.6787 139.996 93.1958 139.987L93.215 138.987C92.623 138.975 92.12 138.954 91.6814 138.917L91.5955 139.913C90.9854 139.86 90.4726 139.776 90.0197 139.641L90.3058 138.683C90.093 138.619 89.9044 138.544 89.73 138.455C89.4955 138.336 89.272 138.198 89.0611 138.045L88.4733 138.854C87.9639 138.484 87.516 138.036 87.1459 137.527L87.9549 136.939C87.8017 136.728 87.6645 136.504 87.545 136.27C87.4561 136.096 87.3809 135.907 87.3174 135.694L86.3592 135.98C86.224 135.527 86.1397 135.015 86.0871 134.404L87.0834 134.319C87.0456 133.88 87.0245 133.377 87.0132 132.785L86.0133 132.804Z" fill="url(#paint14_linear_2534_5087)" stroke="url(#paint15_linear_2534_5087)" stroke-width="2" stroke-dasharray="2 2"/>
</g>
<g opacity="0.8">
<mask id="path-14-inside-1_2534_5087" fill="white">
<path d="M210.667 111.417C209.307 110.058 208.628 109.378 208.314 108.62C207.895 107.609 207.895 106.474 208.314 105.463C208.628 104.705 209.307 104.026 210.667 102.667C212.026 101.307 212.705 100.628 213.463 100.314C214.474 99.8953 215.609 99.8953 216.62 100.314C217.378 100.628 218.058 101.307 219.417 102.667L225.333 108.583C226.693 109.942 227.372 110.622 227.686 111.38C228.105 112.391 228.105 113.526 227.686 114.537C227.372 115.295 226.693 115.974 225.333 117.333C223.974 118.693 223.295 119.372 222.537 119.686C221.526 120.105 220.391 120.105 219.38 119.686C218.622 119.372 217.942 118.693 216.583 117.333L210.667 111.417Z"/>
</mask>
<path d="M210.667 111.417C209.307 110.058 208.628 109.378 208.314 108.62C207.895 107.609 207.895 106.474 208.314 105.463C208.628 104.705 209.307 104.026 210.667 102.667C212.026 101.307 212.705 100.628 213.463 100.314C214.474 99.8953 215.609 99.8953 216.62 100.314C217.378 100.628 218.058 101.307 219.417 102.667L225.333 108.583C226.693 109.942 227.372 110.622 227.686 111.38C228.105 112.391 228.105 113.526 227.686 114.537C227.372 115.295 226.693 115.974 225.333 117.333C223.974 118.693 223.295 119.372 222.537 119.686C221.526 120.105 220.391 120.105 219.38 119.686C218.622 119.372 217.942 118.693 216.583 117.333L210.667 111.417Z" fill="url(#paint16_linear_2534_5087)"/>
<path d="M216.583 117.333L217.29 116.626L216.583 117.333ZM225.333 108.583L224.626 109.29L225.333 108.583ZM219.417 102.667L220.124 101.959V101.959L219.417 102.667ZM216.62 100.314L216.237 101.238L216.62 100.314ZM210.667 111.417L209.959 112.124H209.959L210.667 111.417ZM208.314 108.62L207.39 109.003L208.314 108.62ZM218.71 103.374L224.626 109.29L226.041 107.876L220.124 101.959L218.71 103.374ZM217.29 116.626L211.374 110.71L209.959 112.124L215.876 118.041L217.29 116.626ZM224.626 116.626C223.937 117.316 223.455 117.797 223.052 118.148C222.656 118.493 222.391 118.664 222.154 118.762L222.92 120.61C223.441 120.394 223.894 120.068 224.367 119.655C224.833 119.249 225.371 118.71 226.041 118.041L224.626 116.626ZM215.876 118.041C216.546 118.71 217.083 119.249 217.55 119.655C218.023 120.068 218.476 120.394 218.997 120.61L219.763 118.762C219.526 118.664 219.26 118.493 218.864 118.148C218.461 117.797 217.98 117.316 217.29 116.626L215.876 118.041ZM222.154 118.762C221.389 119.079 220.528 119.079 219.763 118.762L218.997 120.61C220.253 121.13 221.664 121.13 222.92 120.61L222.154 118.762ZM224.626 109.29C225.316 109.98 225.797 110.461 226.148 110.864C226.493 111.26 226.664 111.526 226.762 111.763L228.61 110.997C228.394 110.476 228.068 110.023 227.655 109.55C227.249 109.083 226.71 108.546 226.041 107.876L224.626 109.29ZM226.041 118.041C226.71 117.371 227.249 116.833 227.655 116.367C228.068 115.894 228.394 115.441 228.61 114.92L226.762 114.154C226.664 114.391 226.493 114.656 226.148 115.052C225.797 115.455 225.316 115.937 224.626 116.626L226.041 118.041ZM226.762 111.763C227.079 112.528 227.079 113.389 226.762 114.154L228.61 114.92C229.13 113.664 229.13 112.253 228.61 110.997L226.762 111.763ZM211.374 103.374C212.063 102.684 212.545 102.203 212.948 101.852C213.344 101.507 213.609 101.336 213.846 101.238L213.08 99.3901C212.559 99.606 212.106 99.9322 211.633 100.345C211.167 100.751 210.629 101.29 209.959 101.959L211.374 103.374ZM220.124 101.959C219.454 101.29 218.917 100.751 218.45 100.345C217.977 99.9322 217.524 99.606 217.003 99.3901L216.237 101.238C216.474 101.336 216.74 101.507 217.136 101.852C217.539 102.203 218.02 102.684 218.71 103.374L220.124 101.959ZM213.846 101.238C214.611 100.921 215.472 100.921 216.237 101.238L217.003 99.3901C215.747 98.87 214.336 98.87 213.08 99.3901L213.846 101.238ZM209.959 101.959C209.29 102.629 208.751 103.167 208.345 103.633C207.932 104.106 207.606 104.559 207.39 105.08L209.238 105.846C209.336 105.609 209.507 105.344 209.852 104.948C210.203 104.545 210.684 104.063 211.374 103.374L209.959 101.959ZM211.374 110.71C210.684 110.02 210.203 109.539 209.852 109.136C209.507 108.74 209.336 108.474 209.238 108.237L207.39 109.003C207.606 109.524 207.932 109.977 208.345 110.45C208.751 110.917 209.29 111.454 209.959 112.124L211.374 110.71ZM207.39 105.08C206.87 106.336 206.87 107.747 207.39 109.003L209.238 108.237C208.921 107.472 208.921 106.611 209.238 105.846L207.39 105.08Z" fill="url(#paint17_linear_2534_5087)" mask="url(#path-14-inside-1_2534_5087)"/>
</g>
<mask id="path-16-inside-2_2534_5087" fill="white">
<path d="M210.667 111.417C209.307 110.058 208.628 109.378 208.314 108.62C207.895 107.609 207.895 106.474 208.314 105.463C208.628 104.705 209.307 104.026 210.667 102.667C212.026 101.307 212.705 100.628 213.463 100.314C214.474 99.8953 215.609 99.8953 216.62 100.314C217.378 100.628 218.058 101.307 219.417 102.667L225.333 108.583C226.693 109.942 227.372 110.622 227.686 111.38C228.105 112.391 228.105 113.526 227.686 114.537C227.372 115.295 226.693 115.974 225.333 117.333C223.974 118.693 223.295 119.372 222.537 119.686C221.526 120.105 220.391 120.105 219.38 119.686C218.622 119.372 217.942 118.693 216.583 117.333L210.667 111.417Z"/>
</mask>
<path d="M216.583 117.333L216.937 116.98L216.583 117.333ZM225.333 108.583L224.98 108.937L225.333 108.583ZM219.417 102.667L219.77 102.313H219.77L219.417 102.667ZM216.62 100.314L216.429 100.776L216.62 100.314ZM210.667 111.417L210.313 111.77L210.667 111.417ZM208.314 108.62L207.852 108.812L208.314 108.62ZM219.063 103.02L224.98 108.937L225.687 108.23L219.77 102.313L219.063 103.02ZM216.937 116.98L211.02 111.063L210.313 111.77L216.23 117.687L216.937 116.98ZM224.98 116.98C224.296 117.664 223.8 118.16 223.381 118.525C222.966 118.887 222.653 119.097 222.346 119.224L222.728 120.148C223.178 119.962 223.585 119.674 224.038 119.278C224.489 118.886 225.012 118.362 225.687 117.687L224.98 116.98ZM216.23 117.687C216.904 118.362 217.428 118.886 217.878 119.278C218.332 119.674 218.738 119.962 219.188 120.148L219.571 119.224C219.263 119.097 218.951 118.887 218.536 118.525C218.117 118.16 217.621 117.664 216.937 116.98L216.23 117.687ZM222.346 119.224C221.457 119.592 220.459 119.592 219.571 119.224L219.188 120.148C220.322 120.617 221.595 120.617 222.728 120.148L222.346 119.224ZM224.98 108.937C225.664 109.621 226.16 110.117 226.525 110.536C226.887 110.951 227.097 111.263 227.224 111.571L228.148 111.188C227.962 110.738 227.674 110.332 227.278 109.878C226.886 109.428 226.362 108.904 225.687 108.23L224.98 108.937ZM225.687 117.687C226.362 117.012 226.886 116.489 227.278 116.038C227.674 115.585 227.962 115.178 228.148 114.728L227.224 114.346C227.097 114.653 226.887 114.966 226.525 115.381C226.16 115.8 225.664 116.296 224.98 116.98L225.687 117.687ZM227.224 111.571C227.592 112.459 227.592 113.457 227.224 114.346L228.148 114.728C228.617 113.595 228.617 112.322 228.148 111.188L227.224 111.571ZM211.02 103.02C211.704 102.336 212.2 101.84 212.619 101.475C213.034 101.113 213.347 100.903 213.654 100.776L213.272 99.852C212.822 100.038 212.415 100.326 211.962 100.722C211.511 101.114 210.988 101.638 210.313 102.313L211.02 103.02ZM219.77 102.313C219.096 101.638 218.572 101.114 218.122 100.722C217.668 100.326 217.262 100.038 216.811 99.852L216.429 100.776C216.737 100.903 217.049 101.113 217.464 101.475C217.883 101.84 218.379 102.336 219.063 103.02L219.77 102.313ZM213.654 100.776C214.543 100.408 215.541 100.408 216.429 100.776L216.811 99.852C215.678 99.3827 214.405 99.3827 213.272 99.852L213.654 100.776ZM210.313 102.313C209.638 102.988 209.114 103.511 208.722 103.962C208.326 104.415 208.038 104.822 207.852 105.272L208.776 105.654C208.903 105.347 209.113 105.034 209.475 104.619C209.84 104.2 210.336 103.704 211.02 103.02L210.313 102.313ZM211.02 111.063C210.336 110.379 209.84 109.883 209.475 109.464C209.113 109.049 208.903 108.737 208.776 108.429L207.852 108.812C208.038 109.262 208.326 109.668 208.722 110.122C209.114 110.572 209.638 111.096 210.313 111.77L211.02 111.063ZM207.852 105.272C207.383 106.405 207.383 107.678 207.852 108.812L208.776 108.429C208.408 107.541 208.408 106.543 208.776 105.654L207.852 105.272Z" fill="#F7F8F8" fill-opacity="0.25" mask="url(#path-16-inside-2_2534_5087)"/>
<mask id="mask5_2534_5087" style="mask-type:alpha" maskUnits="userSpaceOnUse" x="200" y="92" width="12" height="12">
<path fill-rule="evenodd" clip-rule="evenodd" d="M200 99.4984V104H212V92H207.498C205.405 94.8729 202.873 97.4053 200 99.4984Z" fill="#D9D9D9"/>
</mask>
<g mask="url(#mask5_2534_5087)">
<path opacity="0.8" d="M200.707 96.2386L204.239 92.7071L211.293 99.7614L207.761 103.293L200.707 96.2386Z" fill="url(#paint18_linear_2534_5087)" stroke="url(#paint19_linear_2534_5087)"/>
</g>
<circle cx="180" cy="72" r="30" fill="#F7F8F8" fill-opacity="0.01" stroke="url(#paint20_linear_2534_5087)" stroke-width="4"/>
<circle cx="180" cy="72" r="31.5" stroke="url(#paint21_angular_2534_5087)"/>
<circle cx="180" cy="72" r="28.5" stroke="url(#paint22_angular_2534_5087)"/>
<circle cx="180" cy="72" r="26" fill="url(#paint23_linear_2534_5087)"/>
<circle cx="180" cy="72" r="25.5" stroke="url(#paint24_angular_2534_5087)"/>
<g filter="url(#filter0_f_2534_5087)">
<circle cx="180" cy="72" r="25.5" stroke="url(#paint25_angular_2534_5087)"/>
</g>
<defs>
<filter id="filter0_f_2534_5087" x="150" y="42" width="60" height="60" filterUnits="userSpaceOnUse" color-interpolation-filters="sRGB">
<feFlood flood-opacity="0" result="BackgroundImageFix"/>
<feBlend mode="normal" in="SourceGraphic" in2="BackgroundImageFix" result="shape"/>
<feGaussianBlur stdDeviation="2" result="effect1_foregroundBlur_2534_5087"/>
</filter>
<radialGradient id="paint0_radial_2534_5087" cx="0" cy="0" r="1" gradientUnits="userSpaceOnUse" gradientTransform="translate(128 12) rotate(-180) scale(128)">
<stop stop-color="#D9D9D9"/>
<stop offset="1" stop-color="#D9D9D9" stop-opacity="0"/>
</radialGradient>
<linearGradient id="paint1_linear_2534_5087" x1="8" y1="0" x2="8" y2="144" gradientUnits="userSpaceOnUse">
<stop stop-color="#D9D9D9"/>
<stop offset="0.5" stop-color="#D9D9D9"/>
<stop offset="1" stop-color="#D9D9D9" stop-opacity="0"/>
</linearGradient>
<linearGradient id="paint2_linear_2534_5087" x1="8" y1="12" x2="8" y2="156" gradientUnits="userSpaceOnUse">
<stop stop-color="#F7F8F8" stop-opacity="0.05"/>
<stop offset="1" stop-color="#F7F8F8" stop-opacity="0"/>
</linearGradient>
<linearGradient id="paint3_linear_2534_5087" x1="8" y1="12" x2="8" y2="156" gradientUnits="userSpaceOnUse">
<stop stop-color="#F7F8F8" stop-opacity="0.15"/>
<stop offset="1" stop-color="#F7F8F8" stop-opacity="0"/>
</linearGradient>
<linearGradient id="paint4_linear_2534_5087" x1="62" y1="12" x2="-46" y2="156" gradientUnits="userSpaceOnUse">
<stop stop-color="#F7F8F8" stop-opacity="0.5"/>
<stop offset="1" stop-color="#F7F8F8" stop-opacity="0"/>
</linearGradient>
<linearGradient id="paint5_linear_2534_5087" x1="202" y1="0" x2="202" y2="144" gradientUnits="userSpaceOnUse">
<stop stop-color="#D9D9D9"/>
<stop offset="0.5" stop-color="#D9D9D9"/>
<stop offset="1" stop-color="#D9D9D9" stop-opacity="0"/>
</linearGradient>
<linearGradient id="paint6_linear_2534_5087" x1="248" y1="12" x2="248" y2="156" gradientUnits="userSpaceOnUse">
<stop stop-color="#F7F8F8" stop-opacity="0.05"/>
<stop offset="1" stop-color="#F7F8F8" stop-opacity="0"/>
</linearGradient>
<linearGradient id="paint7_linear_2534_5087" x1="248" y1="12" x2="248" y2="156" gradientUnits="userSpaceOnUse">
<stop stop-color="#F7F8F8" stop-opacity="0.15"/>
<stop offset="1" stop-color="#F7F8F8" stop-opacity="0"/>
</linearGradient>
<linearGradient id="paint8_linear_2534_5087" x1="194" y1="12" x2="302" y2="156" gradientUnits="userSpaceOnUse">
<stop stop-color="#F7F8F8" stop-opacity="0.5"/>
<stop offset="1" stop-color="#F7F8F8" stop-opacity="0"/>
</linearGradient>
<linearGradient id="paint9_linear_2534_5087" x1="128" y1="0" x2="128" y2="144" gradientUnits="userSpaceOnUse">
<stop stop-color="#D9D9D9"/>
<stop offset="0.5" stop-color="#D9D9D9"/>
<stop offset="1" stop-color="#D9D9D9" stop-opacity="0"/>
</linearGradient>
<linearGradient id="paint10_linear_2534_5087" x1="128" y1="-4.47035e-07" x2="128" y2="144" gradientUnits="userSpaceOnUse">
<stop stop-color="#F7F8F8" stop-opacity="0.25"/>
<stop offset="1" stop-color="#F7F8F8" stop-opacity="0"/>
</linearGradient>
<linearGradient id="paint11_linear_2534_5087" x1="128" y1="0" x2="128" y2="144" gradientUnits="userSpaceOnUse">
<stop stop-color="#F7F8F8" stop-opacity="0.8"/>
<stop offset="0.5" stop-color="#F7F8F8" stop-opacity="0.2"/>
<stop offset="1" stop-color="#F7F8F8" stop-opacity="0"/>
</linearGradient>
<linearGradient id="paint12_linear_2534_5087" x1="128" y1="6" x2="128" y2="140" gradientUnits="userSpaceOnUse">
<stop stop-color="#F7F8F8" stop-opacity="0.1"/>
<stop offset="1" stop-color="#F7F8F8" stop-opacity="0"/>
</linearGradient>
<linearGradient id="paint13_linear_2534_5087" x1="128" y1="6" x2="128" y2="140" gradientUnits="userSpaceOnUse">
<stop stop-color="#F7F8F8" stop-opacity="0.25"/>
<stop offset="1" stop-color="#F7F8F8" stop-opacity="0"/>
</linearGradient>
<linearGradient id="paint14_linear_2534_5087" x1="136" y1="4" x2="136" y2="140" gradientUnits="userSpaceOnUse">
<stop stop-color="#F7F8F8" stop-opacity="0.1"/>
<stop offset="1" stop-color="#F7F8F8" stop-opacity="0"/>
</linearGradient>
<linearGradient id="paint15_linear_2534_5087" x1="136" y1="4" x2="136" y2="140" gradientUnits="userSpaceOnUse">
<stop stop-color="#F7F8F8" stop-opacity="0.25"/>
<stop offset="1" stop-color="#F7F8F8" stop-opacity="0"/>
</linearGradient>
<linearGradient id="paint16_linear_2534_5087" x1="225.12" y1="100.74" x2="208.453" y2="117.406" gradientUnits="userSpaceOnUse">
<stop stop-color="#F7F8F8" stop-opacity="0"/>
<stop offset="0.142857" stop-color="#F7F8F8" stop-opacity="0"/>
<stop offset="0.285714" stop-color="#F7F8F8" stop-opacity="0.3"/>
<stop offset="0.428571" stop-color="#F7F8F8" stop-opacity="0.6"/>
<stop offset="0.571429" stop-color="#F7F8F8" stop-opacity="0.25"/>
<stop offset="0.714286" stop-color="#F7F8F8" stop-opacity="0.4"/>
<stop offset="0.857143" stop-color="#F7F8F8" stop-opacity="0"/>
<stop offset="1" stop-color="#F7F8F8" stop-opacity="0"/>
</linearGradient>
<linearGradient id="paint17_linear_2534_5087" x1="208" y1="100" x2="228" y2="120" gradientUnits="userSpaceOnUse">
<stop stop-color="#F7F8F8" stop-opacity="0"/>
<stop offset="0.25" stop-color="#F7F8F8" stop-opacity="0"/>
<stop offset="0.5" stop-color="#F7F8F8" stop-opacity="0.2"/>
<stop offset="0.75" stop-color="#F7F8F8" stop-opacity="0"/>
<stop offset="1" stop-color="#F7F8F8" stop-opacity="0.25"/>
</linearGradient>
<linearGradient id="paint18_linear_2534_5087" x1="210.272" y1="92.4437" x2="200.272" y2="102.444" gradientUnits="userSpaceOnUse">
<stop stop-color="#F7F8F8" stop-opacity="0"/>
<stop offset="0.142857" stop-color="#F7F8F8" stop-opacity="0"/>
<stop offset="0.285714" stop-color="#F7F8F8" stop-opacity="0.25"/>
<stop offset="0.428571" stop-color="#F7F8F8" stop-opacity="0.4"/>
<stop offset="0.571429" stop-color="#F7F8F8" stop-opacity="0.15"/>
<stop offset="0.714286" stop-color="#F7F8F8" stop-opacity="0.25"/>
<stop offset="0.857143" stop-color="#F7F8F8" stop-opacity="0"/>
<stop offset="1" stop-color="#F7F8F8" stop-opacity="0"/>
</linearGradient>
<linearGradient id="paint19_linear_2534_5087" x1="200" y1="92" x2="212" y2="104" gradientUnits="userSpaceOnUse">
<stop stop-color="#F7F8F8"/>
<stop offset="0.5" stop-color="#F7F8F8" stop-opacity="0.2"/>
<stop offset="0.75" stop-color="#F7F8F8" stop-opacity="0"/>
<stop offset="1" stop-color="#F7F8F8" stop-opacity="0"/>
</linearGradient>
<linearGradient id="paint20_linear_2534_5087" x1="148" y1="40" x2="212" y2="104" gradientUnits="userSpaceOnUse">
<stop stop-color="#F7F8F8" stop-opacity="0.4"/>
<stop offset="1" stop-color="#F7F8F8" stop-opacity="0.15"/>
</linearGradient>
<radialGradient id="paint21_angular_2534_5087" cx="0" cy="0" r="1" gradientUnits="userSpaceOnUse" gradientTransform="translate(180 72) rotate(45) scale(45.2548)">
<stop stop-color="#F7F8F8" stop-opacity="0.1"/>
<stop offset="0.25" stop-color="#F7F8F8" stop-opacity="0"/>
<stop offset="0.5" stop-color="#F7F8F8" stop-opacity="0.8"/>
<stop offset="0.75" stop-color="#F7F8F8" stop-opacity="0"/>
<stop offset="1" stop-color="#F7F8F8" stop-opacity="0.1"/>
</radialGradient>
<radialGradient id="paint22_angular_2534_5087" cx="0" cy="0" r="1" gradientUnits="userSpaceOnUse" gradientTransform="translate(180 72) rotate(45) scale(39.598)">
<stop stop-color="#F7F8F8" stop-opacity="0.25"/>
<stop offset="0.25" stop-color="#F7F8F8" stop-opacity="0"/>
<stop offset="0.5" stop-color="#F7F8F8" stop-opacity="0.2"/>
<stop offset="0.75" stop-color="#F7F8F8" stop-opacity="0"/>
<stop offset="1" stop-color="#F7F8F8" stop-opacity="0.25"/>
</radialGradient>
<linearGradient id="paint23_linear_2534_5087" x1="154" y1="46" x2="206" y2="98" gradientUnits="userSpaceOnUse">
<stop stop-color="#F7F8F8" stop-opacity="0.1"/>
<stop offset="0.5" stop-color="#F7F8F8" stop-opacity="0"/>
<stop offset="1" stop-color="#F7F8F8" stop-opacity="0"/>
</linearGradient>
<radialGradient id="paint24_angular_2534_5087" cx="0" cy="0" r="1" gradientUnits="userSpaceOnUse" gradientTransform="translate(180 72) rotate(45) scale(36.7696)">
<stop stop-color="#F7F8F8" stop-opacity="0.05"/>
<stop offset="0.25" stop-color="#F7F8F8" stop-opacity="0"/>
<stop offset="0.5" stop-color="#F7F8F8" stop-opacity="0.2"/>
<stop offset="0.75" stop-color="#F7F8F8" stop-opacity="0"/>
<stop offset="1" stop-color="#F7F8F8" stop-opacity="0.05"/>
</radialGradient>
<radialGradient id="paint25_angular_2534_5087" cx="0" cy="0" r="1" gradientUnits="userSpaceOnUse" gradientTransform="translate(180 72) rotate(45) scale(36.7696)">
<stop stop-color="#F7F8F8" stop-opacity="0"/>
<stop offset="0.25" stop-color="#F7F8F8" stop-opacity="0"/>
<stop offset="0.5" stop-color="#F7F8F8" stop-opacity="0.4"/>
<stop offset="0.75" stop-color="#F7F8F8" stop-opacity="0"/>
<stop offset="1" stop-color="#F7F8F8" stop-opacity="0"/>
</radialGradient>
</defs>
</svg>
