<svg width="16" height="16" viewBox="0 0 16 16" fill="none" xmlns="http://www.w3.org/2000/svg">
<path fill-rule="evenodd" clip-rule="evenodd" d="M4.8 1H9.2C10.0566 1 10.6389 1.00078 11.089 1.03755C11.5274 1.07337 11.7516 1.1383 11.908 1.21799C12.2843 1.40973 12.5903 1.71569 12.782 2.09202C12.8617 2.24842 12.9266 2.47262 12.9624 2.91104C12.9992 3.36113 13 3.94342 13 4.8V9.2C13 10.0566 12.9992 10.6389 12.9624 11.089C12.9266 11.5274 12.8617 11.7516 12.782 11.908C12.5903 12.2843 12.2843 12.5903 11.908 12.782C11.7516 12.8617 11.5274 12.9266 11.089 12.9624C10.6389 12.9992 10.0566 13 9.2 13H4.8C3.94342 13 3.36113 12.9992 2.91104 12.9624C2.47262 12.9266 2.24842 12.8617 2.09202 12.782C1.71569 12.5903 1.40973 12.2843 1.21799 11.908C1.1383 11.7516 1.07337 11.5274 1.03755 11.089C1.00078 10.6389 1 10.0566 1 9.2V4.8C1 3.94342 1.00078 3.36113 1.03755 2.91104C1.07337 2.47262 1.1383 2.24842 1.21799 2.09202C1.40973 1.71569 1.71569 1.40973 2.09202 1.21799C2.24842 1.1383 2.47262 1.07337 2.91104 1.03755C3.36113 1.00078 3.94342 1 4.8 1ZM0 4.8C0 3.11984 0 2.27976 0.32698 1.63803C0.614601 1.07354 1.07354 0.614601 1.63803 0.32698C2.27976 0 3.11984 0 4.8 0H9.2C10.8802 0 11.7202 0 12.362 0.32698C12.9265 0.614601 13.3854 1.07354 13.673 1.63803C14 2.27976 14 3.11984 14 4.8V9.2C14 10.8802 14 11.7202 13.673 12.362C13.3854 12.9265 12.9265 13.3854 12.362 13.673C11.7202 14 10.8802 14 9.2 14H4.8C3.11984 14 2.27976 14 1.63803 13.673C1.07354 13.3854 0.614601 12.9265 0.32698 12.362C0 11.7202 0 10.8802 0 9.2V4.8ZM3.64979 7.35L5.64693 9.35C5.7368 9.45 5.86662 9.5 5.99643 9.5C6.11626 9.5 6.24608 9.45 6.34593 9.35L10.3502 5.36C10.5499 5.16 10.5499 4.85 10.3502 4.65C10.1505 4.45 9.84094 4.45 9.64123 4.65L6.00642 8.29L4.35877 6.64C4.15906 6.44 3.8495 6.44 3.64979 6.64C3.45007 6.84 3.45007 7.15 3.64979 7.35Z" fill="#2C2F32"/>
<path fill-rule="evenodd" clip-rule="evenodd" d="M2.14343 13.8565C2.18877 14.0424 2.24843 14.2079 2.32694 14.362C2.61456 14.9264 3.0735 15.3854 3.63799 15.673C4.27972 16 5.1198 16 6.79996 16H11.2C12.8801 16 13.7202 16 14.3619 15.673C14.9264 15.3854 15.3854 14.9264 15.673 14.362C16 13.7202 16 12.8801 16 11.2V6.79999C16 5.11983 16 4.27975 15.673 3.63802C15.3854 3.07353 14.9264 2.61459 14.3619 2.32697C14.2078 2.24846 14.0423 2.1888 13.8565 2.14346C13.9307 2.44775 13.9665 2.80651 13.9838 3.25873C14.3254 3.45173 14.6033 3.74131 14.782 4.09201C14.8617 4.24841 14.9266 4.47261 14.9624 4.91103C14.9992 5.36112 15 5.94341 15 6.79999V11.2C15 12.0566 14.9992 12.6389 14.9624 13.089C14.9266 13.5274 14.8617 13.7516 14.782 13.908C14.5902 14.2843 14.2843 14.5903 13.9079 14.782C13.7515 14.8617 13.5273 14.9266 13.0889 14.9624C12.6388 14.9992 12.0565 15 11.2 15H6.79996C5.94338 15 5.36109 14.9992 4.911 14.9624C4.47258 14.9266 4.24838 14.8617 4.09198 14.782C3.74128 14.6033 3.45169 14.3254 3.2587 13.9839C2.80647 13.9666 2.44772 13.9307 2.14343 13.8565Z" fill="#2C2F32"/>
</svg>
