<?xml version="1.0" encoding="UTF-8"?>
<svg width="14px" height="14px" viewBox="0 0 14 14" version="1.1" xmlns="http://www.w3.org/2000/svg" xmlns:xlink="http://www.w3.org/1999/xlink">
    <title>ic_search</title>
    <g id="⭐️_相关图标更新" stroke="none" stroke-width="1" fill="none" fill-rule="evenodd">
        <g id="LightVersion" transform="translate(-314.000000, -80.000000)" fill="#2C2F32">
            <g id="icon" transform="translate(314.000000, 80.000000)">
                <path d="M6.495,11 C4.007,11 1.999,8.99 1.999,6.5 C1.999,4.01 4.007,2 6.495,2 C8.983,2 10.991,4.01 10.991,6.5 C10.991,8.99 8.983,11 6.495,11 L6.495,11 Z M12.84,11.44 L11.021,9.62 C11.631,8.73 11.99,7.66 11.99,6.5 C11.99,3.46 9.532,1 6.495,1 C3.458,1 1,3.46 1,6.5 C1,9.54 3.458,12 6.495,12 C7.654,12 8.723,11.64 9.612,11.03 L11.431,12.85 C11.631,13.05 11.94,13.05 12.14,12.85 L12.85,12.14 C13.05,11.94 13.05,11.63 12.85,11.43 L12.84,11.44 Z" id="Fill-1"></path>
            </g>
        </g>
    </g>
</svg>