<svg width="16" height="16" viewBox="0 0 16 16" fill="none" xmlns="http://www.w3.org/2000/svg">
<g opacity="0.8">
<rect x="5.5" y="5.5" width="5" height="5" rx="0.5" stroke="#2C2F32"/>
<path fill-rule="evenodd" clip-rule="evenodd" d="M1.10222 3.22354C1 3.60504 1 4.07003 1 5H2.00005C2.00082 4.01165 2.01338 3.49359 2.21799 3.09202C2.40973 2.71569 2.71569 2.40973 3.09202 2.21799C3.49359 2.01338 4.01165 2.00082 5 2.00005V1C4.07003 1 3.60504 1 3.22354 1.10222C2.18827 1.37962 1.37962 2.18827 1.10222 3.22354Z" fill="#2C2F32"/>
<path fill-rule="evenodd" clip-rule="evenodd" d="M14.8978 3.22354C15 3.60504 15 4.07003 15 5H13.9999C13.9992 4.01165 13.9866 3.49359 13.782 3.09202C13.5903 2.71569 13.2843 2.40973 12.908 2.21799C12.5064 2.01338 11.9884 2.00082 11 2.00005V1C11.93 1 12.395 1 12.7765 1.10222C13.8117 1.37962 14.6204 2.18827 14.8978 3.22354Z" fill="#2C2F32"/>
<path fill-rule="evenodd" clip-rule="evenodd" d="M1.10222 12.7765C1 12.395 1 11.93 1 11H2.00005C2.00082 11.9884 2.01338 12.5064 2.21799 12.908C2.40973 13.2843 2.71569 13.5903 3.09202 13.782C3.49359 13.9866 4.01165 13.9992 5 13.9999V15C4.07003 15 3.60504 15 3.22354 14.8978C2.18827 14.6204 1.37962 13.8117 1.10222 12.7765Z" fill="#2C2F32"/>
<path fill-rule="evenodd" clip-rule="evenodd" d="M14.8978 12.7765C15 12.395 15 11.93 15 11H13.9999C13.9992 11.9884 13.9866 12.5064 13.782 12.908C13.5903 13.2843 13.2843 13.5903 12.908 13.782C12.5064 13.9866 11.9884 13.9992 11 13.9999V15C11.93 15 12.395 15 12.7765 14.8978C13.8117 14.6204 14.6204 13.8117 14.8978 12.7765Z" fill="#2C2F32"/>
<rect x="7" y="1" width="2" height="1" fill="#2C2F32"/>
<rect x="1" y="7" width="1" height="2" fill="#2C2F32"/>
<rect x="14" y="7" width="1" height="2" fill="#2C2F32"/>
<rect x="7" y="14" width="2" height="1" fill="#2C2F32"/>
</g>
</svg>
