<svg width="24" height="24" viewBox="0 0 24 24" fill="none" xmlns="http://www.w3.org/2000/svg">
<path fill-rule="evenodd" clip-rule="evenodd" d="M17 6H16V7V8V9H17V8H18.5C18.7761 8 19 7.77614 19 7.5C19 7.22386 18.7761 7 18.5 7H17V6ZM5.5 7H15V8H5.5C5.22386 8 5 7.77614 5 7.5C5 7.22386 5.22386 7 5.5 7Z" fill="#2C2F32"/>
<path fill-rule="evenodd" clip-rule="evenodd" d="M8 10H7V11H5.5C5.22386 11 5 11.2239 5 11.5C5 11.7761 5.22386 12 5.5 12H7V13H8V12V11V10ZM18.5 12H9V11H18.5C18.7761 11 19 11.2239 19 11.5C19 11.7761 18.7761 12 18.5 12Z" fill="#2C2F32"/>
<path fill-rule="evenodd" clip-rule="evenodd" d="M13 14H12V15V16V17H13V16H18.5C18.7761 16 19 15.7761 19 15.5C19 15.2239 18.7761 15 18.5 15H13V14ZM5.5 15H11V16H5.5C5.22386 16 5 15.7761 5 15.5C5 15.2239 5.22386 15 5.5 15Z" fill="#2C2F32"/>
</svg>
