<svg width="20" height="20" viewBox="0 0 20 20" fill="none" xmlns="http://www.w3.org/2000/svg">
<g clip-path="url(#clip0_5_1707)">
<path opacity="0.15" d="M16.99 6.28C16.99 6.99 16.71 7.67 16.22 8.18C15.71 8.7 15 9 14.27 9H12.99V3H14.16C14.93 3 15.67 3.33 16.18 3.9L16.29 4.02C16.74 4.52 16.99 5.17 16.99 5.84V6.28Z" fill="black"/>
<path d="M16.85 15.16C16.65 14.96 16.34 14.96 16.14 15.16C15.94 15.36 15.94 15.67 16.14 15.87L16.27 16H5.99C5.99 14.9 5.09 14 3.99 14V3.71999L4.12 3.84999C4.22 3.94999 4.35 3.99999 4.47 3.99999C4.59 3.99999 4.73 3.94999 4.82 3.84999C5.02 3.65999 5.02 3.33999 4.82 3.13999L3.84 2.15999C3.75 2.06999 3.62 2.00999 3.49 2.00999C3.36 2.00999 3.23 2.05999 3.14 2.15999L2.16 3.13999C1.96 3.33999 1.96 3.64999 2.16 3.84999C2.36 4.04999 2.67 4.04999 2.87 3.84999L3 3.71999V14.28C2.41 14.63 2 15.26 2 16C2 17.1 2.9 18 4 18C4.74 18 5.37 17.59 5.72 17H16.28L16.15 17.13C15.95 17.33 15.95 17.64 16.15 17.84C16.25 17.94 16.38 17.99 16.5 17.99C16.62 17.99 16.76 17.94 16.85 17.84L17.83 16.86C17.92 16.77 17.98 16.64 17.98 16.51C17.98 16.38 17.93 16.25 17.83 16.16L16.85 15.16ZM3.99 17C3.44 17 2.99 16.55 2.99 16C2.99 15.45 3.44 15 3.99 15C4.54 15 4.99 15.45 4.99 16C4.99 16.55 4.54 17 3.99 17Z" fill="black"/>
<path d="M17.03 3.35L16.92 3.23C16.22 2.45 15.21 2 14.16 2H12.49C12.21 2 11.99 2.22 11.99 2.5V9.5C11.99 9.78 12.21 10 12.49 10H14.27C15.27 10 16.23 9.59 16.93 8.88C17.61 8.18 17.99 7.26 17.99 6.28V5.84C17.99 4.92 17.65 4.04 17.03 3.35ZM16.99 6.28C16.99 6.99 16.71 7.67 16.22 8.18C15.71 8.7 15 9 14.27 9H12.99V3H14.16C14.93 3 15.67 3.33 16.18 3.9L16.29 4.02C16.74 4.52 16.99 5.17 16.99 5.84V6.28Z" fill="black"/>
<path d="M6.48999 10H10.49C10.77 10 10.99 9.78 10.99 9.5C10.99 9.22 10.77 9 10.49 9H6.98999V6.5H10.49C10.77 6.5 10.99 6.28 10.99 6V2.5C10.99 2.22 10.77 2 10.49 2H6.48999C6.20999 2 5.98999 2.22 5.98999 2.5C5.98999 2.78 6.20999 3 6.48999 3H9.98999V5.5H6.48999C6.20999 5.5 5.98999 5.72 5.98999 6V9.5C5.98999 9.77 6.20999 10 6.48999 10Z" fill="black"/>
</g>
<defs>
<clipPath id="clip0_5_1707">
<rect width="16" height="16" fill="white" transform="translate(2 2)"/>
</clipPath>
</defs>
</svg>
