<svg width="20" height="20" viewBox="0 0 20 20" fill="none" xmlns="http://www.w3.org/2000/svg">
<g clip-path="url(#clip0_5_1708)">
<path opacity="0.15" d="M16.98 6.28C16.98 6.99 16.7 7.67 16.21 8.18C15.7 8.7 14.99 9 14.26 9H12.98V3H14.15C14.92 3 15.66 3.33 16.17 3.9L16.28 4.02C16.73 4.52 16.98 5.17 16.98 5.84V6.28Z" fill="black"/>
<path d="M16.8586 15.1482C16.6583 14.9481 16.3479 14.9481 16.1477 15.1482C15.9474 15.3483 15.9474 15.6585 16.1477 15.8587L16.2778 15.9887H5.98498C5.98498 15.8186 5.95494 15.6485 5.91489 15.4884L10.6308 12.7667C10.8711 12.6266 10.9512 12.3265 10.811 12.0863C10.6708 11.8462 10.3705 11.7661 10.1302 11.9062L5.43429 14.6179C5.07384 14.2376 4.55319 13.9975 3.99249 13.9975V3.71107L4.12265 3.84115C4.22278 3.94121 4.35294 3.99124 4.47309 3.99124C4.59324 3.99124 4.73342 3.94121 4.82353 3.84115C5.02378 3.64103 5.02378 3.33083 4.82353 3.13071L3.8423 2.15009C3.75219 2.06004 3.62203 2 3.49186 2C3.3617 2 3.23154 2.05003 3.14143 2.15009L2.1602 3.13071C1.95995 3.33083 1.95995 3.64103 2.1602 3.84115C2.36045 4.04128 2.67084 4.04128 2.87109 3.84115L3.00125 3.71107V14.2777C2.41051 14.6279 2 15.2583 2 15.9987C2 17.0994 2.90113 18 4.0025 18C4.74343 18 5.37422 17.5897 5.72466 16.9994H16.2979L16.1677 17.1295C15.9675 17.3296 15.9675 17.6398 16.1677 17.8399C16.2678 17.94 16.398 17.99 16.5181 17.99C16.6383 17.99 16.7785 17.94 16.8686 17.8399L17.8498 16.8593C17.9399 16.7692 18 16.6391 18 16.5091C18 16.379 17.9499 16.2489 17.8498 16.1588L16.8586 15.1482ZM3.98248 16.9794C3.43179 16.9794 2.98123 16.5291 2.98123 15.9787C2.98123 15.4284 3.43179 14.9781 3.98248 14.9781C4.53317 14.9781 4.98373 15.4284 4.98373 15.9787C4.98373 16.5291 4.53317 16.9794 3.98248 16.9794Z" fill="black"/>
<path d="M17.02 3.35999L16.91 3.23999C16.21 2.45999 15.2 2.00999 14.15 2.00999H12.48C12.2 2.00999 11.98 2.22999 11.98 2.50999V9.50999C11.98 9.78999 12.2 10.01 12.48 10.01H14.26C15.26 10.01 16.22 9.59999 16.92 8.88999C17.6 8.18999 17.98 7.26999 17.98 6.28999V5.84999C17.98 4.91999 17.64 4.03999 17.02 3.35999ZM16.98 6.27999C16.98 6.98999 16.7 7.66999 16.21 8.17999C15.7 8.69999 14.99 8.99999 14.26 8.99999H12.98V2.99999H14.15C14.92 2.99999 15.66 3.32999 16.17 3.89999L16.28 4.01999C16.73 4.51999 16.98 5.16999 16.98 5.83999V6.27999Z" fill="black"/>
<path d="M6.47998 9C6.19998 9 5.97998 9.22 5.97998 9.5C5.97998 9.78 6.19998 10 6.47998 10H10.48C10.76 10 10.98 9.78 10.98 9.5V6V4.93V2.5C10.98 2.22 10.76 2 10.48 2H6.47998C6.19998 2 5.97998 2.22 5.97998 2.5C5.97998 2.78 6.19998 3 6.47998 3H9.97998V4.93V5.5H6.81998C6.53998 5.5 6.31998 5.72 6.31998 6C6.31998 6.28 6.53998 6.5 6.81998 6.5H9.97998V9H6.47998Z" fill="black"/>
</g>
<defs>
<clipPath id="clip0_5_1708">
<rect width="16" height="16" fill="white" transform="translate(2 2)"/>
</clipPath>
</defs>
</svg>
