<svg width="20" height="20" viewBox="0 0 20 20" fill="none" xmlns="http://www.w3.org/2000/svg">
<g clip-path="url(#clip0_5_1717)">
<path opacity="0.1" d="M9.99988 5.58591L10.7719 7.23191L12.4999 7.49491L11.2499 8.77591L11.5449 10.5859L9.99988 9.73191L8.45488 10.5859L8.74988 8.77591L7.49988 7.49491L9.22788 7.23191L9.99988 5.58591Z" fill="black"/>
<path opacity="0.15" d="M9.99988 14.4717C6.69088 14.4717 3.99988 11.7807 3.99988 8.47169C3.99988 5.16269 6.69088 2.47169 9.99988 2.47169C13.3089 2.47169 15.9999 5.16269 15.9999 8.47169C15.9999 11.7807 13.3089 14.4717 9.99988 14.4717Z" fill="black"/>
<path opacity="0.15" d="M12.0559 18.1297L10.2559 17.0587C10.0979 16.9647 9.9019 16.9647 9.7439 17.0587L7.94189 18.1297V15.1617C8.59389 15.3627 9.28389 15.4717 9.99989 15.4717C10.7149 15.4717 11.4049 15.3637 12.0559 15.1617V18.1297Z" fill="black"/>
<path fill-rule="evenodd" clip-rule="evenodd" d="M9.99991 4.58591C9.61191 4.58591 9.25991 4.80991 9.09491 5.16091L8.54891 6.32391L7.34991 6.50691C6.97891 6.56391 6.67091 6.82191 6.55191 7.17791C6.43291 7.53291 6.52191 7.92591 6.78391 8.19391L7.68191 9.11291L7.46791 10.4249C7.40591 10.8029 7.56591 11.1829 7.87891 11.4029C8.05091 11.5239 8.25291 11.5859 8.45491 11.5859C8.62091 11.5859 8.78791 11.5439 8.93891 11.4609L9.99991 10.8739L11.0619 11.4609C11.2119 11.5439 11.3789 11.5859 11.5449 11.5859C11.7469 11.5859 11.9489 11.5239 12.1209 11.4029C12.4349 11.1829 12.5939 10.8029 12.5319 10.4249L12.3179 9.11291L13.2159 8.19391C13.4779 7.92591 13.5669 7.53291 13.4479 7.17791C13.3289 6.82191 13.0209 6.56391 12.6509 6.50691L11.4509 6.32391L10.9049 5.16091C10.7399 4.80991 10.3879 4.58591 9.99991 4.58591ZM9.99991 5.58591L10.7719 7.23191L12.4999 7.49491L11.2499 8.77591L11.5449 10.5859L9.99991 9.73191L8.45491 10.5859L8.74991 8.77591L7.49991 7.49491L9.22791 7.23191L9.99991 5.58591Z" fill="black"/>
<path fill-rule="evenodd" clip-rule="evenodd" d="M9.99988 14.4717C6.69088 14.4717 3.99988 11.7807 3.99988 8.47169C3.99988 5.16269 6.69088 2.47169 9.99988 2.47169C13.3089 2.47169 15.9999 5.16269 15.9999 8.47169C15.9999 11.7807 13.3089 14.4717 9.99988 14.4717ZM12.0559 18.1297L10.2559 17.0587C10.0979 16.9647 9.90188 16.9647 9.74388 17.0587L7.94188 18.1297V15.1617C8.59388 15.3627 9.28388 15.4717 9.99988 15.4717C10.7149 15.4717 11.4049 15.3637 12.0559 15.1617V18.1297ZM16.9999 8.47169C16.9999 4.61269 13.8589 1.47169 9.99988 1.47169C6.14088 1.47169 2.99988 4.61269 2.99988 8.47169C2.99988 11.2347 4.61188 13.6207 6.94188 14.7587V19.0087C6.94188 19.1887 7.03888 19.3547 7.19488 19.4437C7.35088 19.5337 7.54288 19.5307 7.69788 19.4387L9.99788 18.0707L12.2999 19.4387C12.3789 19.4857 12.4669 19.5087 12.5559 19.5087C12.6409 19.5087 12.7269 19.4877 12.8029 19.4437C12.9589 19.3547 13.0559 19.1887 13.0559 19.0087V14.7597C15.3869 13.6217 16.9999 11.2347 16.9999 8.47169Z" fill="black"/>
</g>
<defs>
<clipPath id="clip0_5_1717">
<rect width="14" height="19" fill="white" transform="translate(3 0.5)"/>
</clipPath>
</defs>
</svg>
