<svg width="20" height="20" viewBox="0 0 20 20" fill="none" xmlns="http://www.w3.org/2000/svg">
<g clip-path="url(#clip0_55_13)">
<path opacity="0.15" d="M14.5 16.5H5.5C4.4 16.5 3.5 15.6 3.5 14.5V5.5C3.5 4.4 4.4 3.5 5.5 3.5H14.5C15.6 3.5 16.5 4.4 16.5 5.5V14.5C16.5 15.6 15.6 16.5 14.5 16.5Z" fill="black"/>
<path d="M14.5 16.5H5.5C4.4 16.5 3.5 15.6 3.5 14.5V5.5C3.5 4.4 4.4 3.5 5.5 3.5H14.5C15.6 3.5 16.5 4.4 16.5 5.5V14.5C16.5 15.6 15.6 16.5 14.5 16.5Z" stroke="black" stroke-linecap="round" stroke-linejoin="round"/>
<path d="M3.5 10.5H5.7C6.2 10.5 6.7 10.8 7 11.2L8.1 12.8C8.4 13.2 8.9 13.5 9.4 13.5H10.8C11.3 13.5 11.8 13.2 12.1 12.8L13.2 11.1C13.5 10.7 13.9 10.4 14.4 10.4H16.6" stroke="black" stroke-linecap="round" stroke-linejoin="round"/>
</g>
<defs>
<clipPath id="clip0_55_13">
<rect width="14" height="14" fill="white" transform="translate(3 3)"/>
</clipPath>
</defs>
</svg>
