<svg width="20" height="20" viewBox="0 0 20 20" fill="none" xmlns="http://www.w3.org/2000/svg">
<g clip-path="url(#clip0_5_1719)">
<path opacity="0.15" d="M13.3 16.95C13.16 17.04 13.01 17.13 12.87 17.21C12.85 17.22 12.82 17.24 12.8 17.25C12.67 17.32 12.54 17.38 12.4 17.44C12.35 17.46 12.31 17.49 12.26 17.51C12.15 17.56 12.03 17.6 11.92 17.64C11.84 17.67 11.77 17.69 11.69 17.72C11.6 17.75 11.5 17.77 11.41 17.79C11.31 17.82 11.21 17.84 11.1 17.86C11.02 17.87 10.95 17.88 10.87 17.9C10.75 17.92 10.63 17.94 10.5 17.95C10.42 17.96 10.34 17.96 10.26 17.96C10.14 17.97 10.03 17.97 9.90998 17.97C9.83998 17.97 9.75998 17.96 9.68998 17.96C8.16998 17.89 6.68998 17.18 5.59998 15.99C4.60998 14.92 4.03998 13.56 3.97998 12.19C3.97998 12.16 3.97998 12.14 3.97998 12.11C3.97998 11.98 3.97998 11.85 3.98998 11.73C3.98998 11.65 3.99998 11.56 3.99998 11.48C4.01998 11.23 4.04998 10.99 4.09998 10.75C4.10998 10.71 4.11998 10.66 4.12998 10.62C4.16998 10.43 4.22998 10.24 4.28998 10.06C4.31998 9.97 4.34998 9.89 4.38998 9.8C4.43998 9.66 4.50998 9.53 4.56998 9.39C4.60998 9.3 4.64998 9.21 4.69998 9.13C4.79998 8.95 4.90998 8.77 5.01998 8.6C5.08998 8.5 5.15998 8.41 5.23998 8.31C5.30998 8.22 5.37998 8.13 5.45998 8.05C5.53998 7.96 5.61998 7.87 5.69998 7.78C5.81998 7.66 5.93998 7.54 6.06998 7.43C6.15998 7.35 6.24998 7.28 6.33998 7.21C6.47998 7.11 6.61998 7.01 6.75998 6.91C6.82998 6.87 6.89998 6.83 6.95998 6.79C7.14998 6.68 7.34998 6.58 7.54998 6.49C8.28998 6.16 9.10998 5.97 9.96998 5.97C10.83 5.97 11.65 6.16 12.39 6.48C12.62 6.58 12.83 6.69 13.04 6.82C13.1 6.85 13.16 6.89 13.21 6.92C13.42 7.05 13.62 7.2 13.81 7.35C13.86 7.39 13.9 7.43 13.95 7.47C14.1 7.6 14.23 7.73 14.37 7.88C14.43 7.94 14.48 8 14.54 8.06C14.7 8.24 14.84 8.43 14.98 8.63C15.01 8.68 15.04 8.72 15.07 8.77C15.18 8.94 15.28 9.12 15.37 9.31C15.4 9.37 15.43 9.43 15.46 9.5C15.56 9.73 15.66 9.97 15.73 10.21C15.74 10.23 15.74 10.26 15.75 10.29C15.82 10.52 15.87 10.75 15.9 10.98C15.91 11.05 15.92 11.11 15.93 11.18C15.96 11.44 15.99 11.7 15.99 11.97C15.99 12.18 15.98 12.38 15.96 12.58C15.96 12.59 15.96 12.6 15.96 12.61C15.77 14.4 14.79 15.96 13.37 16.92C13.32 16.94 13.31 16.95 13.3 16.95Z" fill="black"/>
<path opacity="0.15" d="M9.95001 4.98C9.25001 4.98 8.58001 5.09 7.95001 5.27V1.98H11.95V5.27C11.32 5.08 10.65 4.98 9.95001 4.98Z" fill="black"/>
<path opacity="0.15" d="M14.95 3.67C14.95 3.98 14.78 4.27 14.5 4.41L12.95 5.22V1.98H14.95V3.67Z" fill="black"/>
<path opacity="0.15" d="M5.40001 4.41C5.12001 4.26 4.95001 3.98 4.95001 3.67V1.98H6.95001V5.22L5.40001 4.41Z" fill="black"/>
<path d="M9.95001 6.98C7.19001 6.98 4.95001 9.22 4.95001 11.98C4.95001 14.74 7.19001 16.98 9.95001 16.98C12.71 16.98 14.95 14.74 14.95 11.98C14.95 9.22 12.71 6.98 9.95001 6.98ZM9.95001 15.98C7.74001 15.98 5.95001 14.19 5.95001 11.98C5.95001 9.77 7.74001 7.98 9.95001 7.98C12.16 7.98 13.95 9.77 13.95 11.98C13.95 14.19 12.16 15.98 9.95001 15.98Z" fill="black"/>
<path d="M11.36 18.84C11.37 18.84 11.38 18.83 11.39 18.83C12.7 18.56 13.9 17.92 14.87 16.96C16.03 15.81 16.74 14.33 16.91 12.73C16.91 12.72 16.91 12.7 16.92 12.69C16.94 12.45 16.96 12.22 16.96 11.98C16.96 11.7 16.94 11.42 16.91 11.15C16.9 11.07 16.89 10.99 16.87 10.91C16.84 10.71 16.8 10.52 16.76 10.33C16.74 10.25 16.72 10.16 16.7 10.08C16.64 9.88 16.58 9.68 16.5 9.49C16.48 9.43 16.46 9.37 16.43 9.31C16.33 9.07 16.22 8.84 16.09 8.61C16.05 8.53 16 8.46 15.95 8.38C15.86 8.23 15.77 8.09 15.67 7.95C15.6 7.86 15.54 7.77 15.47 7.68C15.37 7.56 15.27 7.44 15.17 7.33C15.09 7.25 15.02 7.16 14.94 7.08C14.77 6.91 14.59 6.74 14.4 6.59C14.33 6.53 14.25 6.48 14.17 6.42C14.03 6.31 13.88 6.21 13.73 6.11C13.69 6.08 13.65 6.05 13.61 6.03L14.97 5.32C15.58 5 15.96 4.38 15.96 3.69V1.5C15.96 1.22 15.74 1 15.46 1H4.46C4.18 1 3.96 1.22 3.96 1.5V3.69C3.96 4.38 4.34 5 4.95 5.32L6.31 6.03C6.26 6.06 6.22 6.09 6.18 6.12C6.07 6.19 5.96 6.27 5.86 6.34C5.75 6.42 5.64 6.5 5.54 6.58C5.49 6.62 5.44 6.67 5.4 6.71C5.12 6.95 4.85 7.22 4.61 7.5C4.6 7.52 4.58 7.53 4.57 7.55C4.46 7.69 4.35 7.83 4.25 7.97C4.21 8.03 4.17 8.09 4.13 8.14C4.04 8.28 3.96 8.41 3.88 8.55C3.83 8.63 3.79 8.71 3.75 8.8C3.68 8.93 3.62 9.06 3.56 9.2C3.51 9.31 3.47 9.43 3.42 9.55C3.38 9.66 3.33 9.77 3.3 9.89C3.23 10.12 3.17 10.36 3.12 10.61C3.11 10.68 3.1 10.76 3.09 10.83C3.06 11.02 3.03 11.2 3.02 11.39C3.02 11.42 3.01 11.45 3.01 11.49C3 11.57 3.01 11.64 3.01 11.72C3.01 11.81 3 11.9 3 12C3 12.05 3.01 12.1 3.01 12.14C3.01 12.19 3.01 12.23 3.02 12.28C3.16 15.9 6.07 18.81 9.68 18.98C9.76 18.98 9.83 18.99 9.91 19C9.94 19 9.98 19 10.01 19C10.25 19 10.48 18.99 10.72 18.96C10.75 18.96 10.78 18.95 10.8 18.95C10.95 18.91 11.16 18.88 11.36 18.84ZM13.3 16.95C13.16 17.04 13.01 17.13 12.87 17.21C12.85 17.22 12.82 17.24 12.8 17.25C12.67 17.32 12.54 17.38 12.4 17.44C12.35 17.46 12.31 17.49 12.26 17.51C12.15 17.56 12.03 17.6 11.92 17.64C11.84 17.67 11.77 17.69 11.69 17.72C11.6 17.75 11.5 17.77 11.41 17.79C11.31 17.82 11.21 17.84 11.1 17.86C11.02 17.87 10.95 17.88 10.87 17.9C10.75 17.92 10.63 17.94 10.5 17.95C10.42 17.96 10.34 17.96 10.26 17.96C10.14 17.97 10.03 17.97 9.91 17.97C9.84 17.97 9.76 17.96 9.69 17.96C8.17 17.89 6.69 17.18 5.6 15.99C4.61 14.92 4.04 13.56 3.98 12.19C3.98 12.16 3.98 12.14 3.98 12.11C3.98 11.98 3.98 11.85 3.99 11.73C3.99 11.65 4 11.56 4 11.48C4.02 11.23 4.05 10.99 4.1 10.75C4.11 10.71 4.12 10.66 4.13 10.62C4.17 10.43 4.23 10.24 4.29 10.06C4.32 9.97 4.35 9.89 4.39 9.8C4.44 9.66 4.51 9.53 4.57 9.39C4.61 9.3 4.65 9.21 4.7 9.13C4.8 8.95 4.91 8.77 5.02 8.6C5.09 8.5 5.16 8.41 5.24 8.31C5.31 8.22 5.38 8.13 5.46 8.05C5.54 7.96 5.62 7.87 5.7 7.78C5.82 7.66 5.94 7.54 6.07 7.43C6.16 7.35 6.25 7.28 6.34 7.21C6.48 7.11 6.62 7.01 6.76 6.91C6.83 6.87 6.9 6.83 6.96 6.79C7.15 6.68 7.35 6.58 7.55 6.49C8.29 6.16 9.11 5.97 9.97 5.97C10.83 5.97 11.65 6.16 12.39 6.48C12.62 6.58 12.83 6.69 13.04 6.82C13.1 6.85 13.16 6.89 13.21 6.92C13.42 7.05 13.62 7.2 13.81 7.35C13.86 7.39 13.9 7.43 13.95 7.47C14.1 7.6 14.23 7.73 14.37 7.88C14.43 7.94 14.48 8 14.54 8.06C14.7 8.24 14.84 8.43 14.98 8.63C15.01 8.68 15.04 8.72 15.07 8.77C15.18 8.94 15.28 9.12 15.37 9.31C15.4 9.37 15.43 9.43 15.46 9.5C15.56 9.73 15.66 9.97 15.73 10.21C15.74 10.23 15.74 10.26 15.75 10.29C15.82 10.52 15.87 10.75 15.9 10.98C15.91 11.05 15.92 11.11 15.93 11.18C15.96 11.44 15.99 11.7 15.99 11.97C15.99 12.18 15.98 12.38 15.96 12.58C15.96 12.59 15.96 12.6 15.96 12.61C15.77 14.4 14.79 15.96 13.37 16.92C13.32 16.94 13.31 16.95 13.3 16.95ZM9.95 4.98C9.25 4.98 8.58 5.09 7.95 5.27V1.98H11.95V5.27C11.32 5.08 10.65 4.98 9.95 4.98ZM14.95 3.67C14.95 3.98 14.78 4.27 14.5 4.41L12.95 5.22V1.98H14.95V3.67ZM5.4 4.41C5.12 4.26 4.95 3.98 4.95 3.67V1.98H6.95V5.22L5.4 4.41Z" fill="black"/>
</g>
<defs>
<clipPath id="clip0_5_1719">
<rect width="14" height="18" fill="white" transform="translate(3 1)"/>
</clipPath>
</defs>
</svg>
