<svg width="20" height="20" viewBox="0 0 20 20" fill="none" xmlns="http://www.w3.org/2000/svg">
<g clip-path="url(#clip0_5_1716)">
<path fill-rule="evenodd" clip-rule="evenodd" d="M10.003 19H10.001C7.244 19 5.001 16.882 5 14.278V5.842C5 5.565 5.224 5.342 5.5 5.342C5.776 5.342 6 5.565 6 5.842V14.278C6.001 16.33 7.795 18 10 18H10.002C11.075 18 12.083 17.609 12.84 16.899C13.588 16.197 14 15.267 14 14.278L13.999 4.255C13.999 3.012 12.791 2 11.307 2C10.574 2 9.889 2.243 9.376 2.686C8.885 3.109 8.615 3.666 8.615 4.254L8.622 14.689C8.622 15.332 9.265 15.855 10.054 15.855H10.056C10.451 15.855 10.819 15.726 11.093 15.489C11.346 15.271 11.485 14.987 11.485 14.689L11.484 5.373C11.484 5.097 11.708 4.873 11.984 4.873C12.261 4.873 12.484 5.097 12.484 5.373L12.485 14.689C12.485 15.282 12.223 15.835 11.746 16.246C11.291 16.64 10.691 16.855 10.056 16.855H10.054C8.713 16.855 7.622 15.884 7.622 14.689L7.615 4.254C7.614 3.371 8.008 2.545 8.723 1.928C9.417 1.33 10.334 1 11.307 1C13.343 1 14.999 2.46 14.999 4.255L15 14.278C15 15.546 14.476 16.735 13.524 17.629C12.582 18.513 11.331 19 10.003 19Z" fill="black"/>
</g>
<defs>
<clipPath id="clip0_5_1716">
<rect width="10" height="18" fill="white" transform="translate(5 1)"/>
</clipPath>
</defs>
</svg>
