<svg width="20" height="20" viewBox="0 0 20 20" fill="none" xmlns="http://www.w3.org/2000/svg">
<g clip-path="url(#clip0_5_1714)">
<path opacity="0.15" d="M10 3C6.13401 3 3 6.13401 3 10C3 13.866 6.13401 17 10 17C13.866 17 17 13.866 17 10C17 6.13401 13.866 3 10 3Z" fill="black"/>
<path d="M10 2C14.4183 2 18 5.58172 18 10C18 14.4183 14.4183 18 10 18C5.58172 18 2 14.4183 2 10C2 5.58172 5.58172 2 10 2ZM10 3C6.13401 3 3 6.13401 3 10C3 13.866 6.13401 17 10 17C13.866 17 17 13.866 17 10C17 6.13401 13.866 3 10 3Z" fill="black"/>
<path d="M11.2995 7.25004L15.6045 14.705C15.7426 14.9442 16.0484 15.0261 16.2875 14.888C16.5267 14.7499 16.6086 14.4441 16.4705 14.205L12.1655 6.74997C12.0274 6.51084 11.7216 6.42892 11.4825 6.56702C11.2433 6.70511 11.1614 7.01091 11.2995 7.25004Z" fill="black"/>
<path d="M8.26752 7.5H16.8775C17.1537 7.5 17.3775 7.27614 17.3775 7C17.3775 6.72386 17.1537 6.5 16.8775 6.5H8.26752C7.99137 6.5 7.76752 6.72386 7.76752 7C7.76752 7.27614 7.99137 7.5 8.26752 7.5Z" fill="black"/>
<path d="M6.96799 10.25L11.273 2.79504C11.4111 2.55591 11.3292 2.25011 11.09 2.11201C10.8509 1.97392 10.5451 2.05583 10.407 2.29497L6.102 9.74997C5.96391 9.9891 6.04582 10.2949 6.28496 10.433C6.52409 10.5711 6.8299 10.4892 6.96799 10.25Z" fill="black"/>
<path d="M8.70048 12.75L4.39548 5.29497C4.25739 5.05583 3.95158 4.97392 3.71245 5.11201C3.47331 5.25011 3.3914 5.55591 3.52949 5.79504L7.83449 13.25C7.97259 13.4892 8.27839 13.5711 8.51752 13.433C8.75666 13.2949 8.83857 12.9891 8.70048 12.75Z" fill="black"/>
<path d="M11.7325 12.5H3.1225C2.84636 12.5 2.6225 12.7239 2.6225 13C2.6225 13.2761 2.84636 13.5 3.1225 13.5H11.7325C12.0086 13.5 12.2325 13.2761 12.2325 13C12.2325 12.7239 12.0086 12.5 11.7325 12.5Z" fill="black"/>
<path d="M13.032 9.74997L8.727 17.205C8.58891 17.4441 8.67082 17.7499 8.90996 17.888C9.14909 18.0261 9.4549 17.9442 9.59299 17.705L13.898 10.25C14.0361 10.0109 13.9542 9.70511 13.715 9.56702C13.4759 9.42892 13.1701 9.51084 13.032 9.74997Z" fill="black"/>
</g>
<defs>
<clipPath id="clip0_5_1714">
<rect width="16" height="16" fill="white" transform="translate(2 2)"/>
</clipPath>
</defs>
</svg>
