<svg width="20" height="20" viewBox="0 0 20 20" fill="none" xmlns="http://www.w3.org/2000/svg">
<g clip-path="url(#clip0_5_1715)">
<path opacity="0.15" d="M17.0012 16.6034L12.0667 17.5023V11.5854H14.5389C14.8158 11.5854 15.0334 11.3681 15.0334 11.0915V9.11592C15.0334 8.83934 14.8158 8.62202 14.5389 8.62202H5.63905C5.36216 8.62202 5.14461 8.83934 5.14461 9.11592V11.0915C5.14461 11.3681 5.36216 11.5854 5.63905 11.5854H8.11123V17.4727L2.98886 16.5935V10.5087C2.98886 6.64643 6.13348 3.51511 9.9901 3.51511C13.8467 3.51511 16.9913 6.6563 16.9913 10.5087V16.6034H17.0012Z" fill="black"/>
<path d="M10.5735 2.55694V1.9939C10.5735 1.71732 10.356 1.5 10.0791 1.5C9.80223 1.5 9.58467 1.71732 9.58467 1.9939V2.54707C5.36217 2.76438 2 6.24143 2 10.5087V17.0084C2 17.2455 2.178 17.4529 2.41533 17.4924L8.24969 18.4901L8.5958 18.5C8.72435 18.4901 8.85291 18.4506 8.95179 18.3617C9.05068 18.2728 9.10012 18.1444 9.10012 18.0061V17.5813H11.0779V18.0061C11.0779 18.1345 11.1273 18.2629 11.2262 18.3617C11.3152 18.4506 11.4438 18.5 11.5723 18.5H11.5822L12.1557 18.4802L17.5946 17.4924C17.8319 17.4529 18 17.2455 18 17.0084V10.5087C17.9901 6.31058 14.7169 2.85328 10.5735 2.55694ZM9.09023 16.6034V11.1014C9.09023 10.8248 8.87268 10.6075 8.5958 10.6075H6.12361V9.6197H14.0346V10.6075H11.5624C11.2855 10.6075 11.068 10.8248 11.068 11.1014V16.6034H9.09023ZM17.0012 16.6034L12.0667 17.5023V11.5854H14.5389C14.8158 11.5854 15.0334 11.3681 15.0334 11.0915V9.11592C15.0334 8.83934 14.8158 8.62202 14.5389 8.62202H5.63906C5.36218 8.62202 5.14462 8.83934 5.14462 9.11592V11.0915C5.14462 11.3681 5.36218 11.5854 5.63906 11.5854H8.11125V17.4727L2.98888 16.5935V10.5087C2.98888 6.64643 6.1335 3.51511 9.99011 3.51511C13.8467 3.51511 16.9913 6.6563 16.9913 10.5087V16.6034H17.0012Z" fill="#040000"/>
</g>
<defs>
<clipPath id="clip0_5_1715">
<rect width="16" height="17" fill="white" transform="translate(2 1.5)"/>
</clipPath>
</defs>
</svg>
