<svg width="20" height="20" viewBox="0 0 20 20" fill="none" xmlns="http://www.w3.org/2000/svg">
<g clip-path="url(#clip0_5_1712)">
<path d="M10.08 16.25C11.75 16.25 13.24 15.42 13.96 14.08C14.08 13.85 14.08 13.59 13.94 13.37C13.8 13.14 13.55 13 13.27 13H6.88999C6.60999 13 6.35999 13.14 6.21999 13.37C6.08999 13.59 6.07999 13.86 6.19999 14.08C6.92999 15.42 8.40999 16.25 10.08 16.25ZM12.83 14C12.22 14.77 11.2 15.25 10.09 15.25C8.97999 15.25 7.94999 14.77 7.34999 14H12.83Z" fill="black"/>
<path d="M6.97998 11C7.52998 11 7.97998 10.55 7.97998 10C7.97998 9.45 7.52998 9 6.97998 9C6.42998 9 5.97998 9.45 5.97998 10C5.97998 10.55 6.41998 11 6.97998 11Z" fill="black"/>
<path d="M9.97998 5C12.39 5 14.98 4.37 14.98 3C14.98 1.63 12.39 1 9.97998 1C7.56998 1 4.97998 1.63 4.97998 3C4.97998 4.37 7.56998 5 9.97998 5ZM9.97998 2C12.6 2 13.98 2.74 13.98 3C13.98 3.26 12.6 4 9.97998 4C7.35998 4 5.97998 3.26 5.97998 3C5.97998 2.74 7.34998 2 9.97998 2Z" fill="black"/>
<path d="M15.07 4.82001C14.86 4.64001 14.54 4.67001 14.37 4.89001C14.19 5.10001 14.22 5.42001 14.44 5.59001C16.06 6.93001 16.99 8.90001 16.99 10.99C16.99 14.85 13.85 17.99 9.99 17.99C6.13 17.99 2.99 14.85 2.99 10.99C2.99 8.90001 3.92 6.93001 5.53 5.60001C5.74 5.42001 5.77 5.11001 5.6 4.90001C5.42 4.69001 5.11 4.66001 4.9 4.83001C3.06 6.36001 2 8.60001 2 11C2 15.41 5.59 19 10 19C14.41 19 18 15.41 18 11C17.98 8.60001 16.92 6.35001 15.07 4.82001Z" fill="black"/>
<path d="M13.98 10C13.98 9.45 13.53 9 12.98 9C12.43 9 11.98 9.45 11.98 10C11.98 10.55 12.43 11 12.98 11C13.53 11 13.98 10.55 13.98 10Z" fill="black"/>
<path opacity="0.1" d="M10 18C13.866 18 17 14.866 17 11C17 7.13401 13.866 4 10 4C6.13401 4 3 7.13401 3 11C3 14.866 6.13401 18 10 18Z" fill="black"/>
</g>
<defs>
<clipPath id="clip0_5_1712">
<rect width="16" height="18" fill="white" transform="translate(2 1)"/>
</clipPath>
</defs>
</svg>
