<svg width="20" height="20" viewBox="0 0 20 20" fill="none" xmlns="http://www.w3.org/2000/svg">
<g clip-path="url(#clip0_5_1718)">
<path opacity="0.1" d="M10 17.4023L5 14.4933V4.50031H15V14.4933L10 17.4023Z" fill="black"/>
<path opacity="0.1" d="M5 3.50031H15V2.50031H5V3.50031Z" fill="black"/>
<path fill-rule="evenodd" clip-rule="evenodd" d="M10.002 6C9.61402 6 9.26202 6.225 9.09702 6.575L8.55102 7.738L7.35102 7.922C6.98102 7.978 6.67302 8.237 6.55402 8.593C6.43502 8.948 6.52402 9.34 6.78702 9.608L7.68402 10.528L7.47002 11.839C7.40902 12.217 7.56802 12.597 7.88102 12.817C8.05302 12.938 8.25502 13 8.45702 13C8.62302 13 8.79002 12.959 8.94102 12.875L10.002 12.288L11.063 12.875C11.214 12.959 11.381 13 11.547 13C11.75 13 11.951 12.938 12.123 12.817C12.436 12.597 12.596 12.217 12.534 11.839L12.32 10.528L13.218 9.608C13.48 9.34 13.569 8.948 13.45 8.593C13.332 8.237 13.023 7.978 12.653 7.922L11.453 7.738L10.907 6.575C10.743 6.225 10.39 6 10.002 6ZM10.002 7L10.774 8.646L12.502 8.91L11.252 10.19L11.547 12L10.002 11.146L8.45702 12L8.75202 10.19L7.50202 8.91L9.23002 8.646L10.002 7Z" fill="black"/>
<path fill-rule="evenodd" clip-rule="evenodd" d="M10 17.4023L5 14.4933V4.50031H15V14.4933L10 17.4023ZM5 3.50031H15V2.50031H5V3.50031ZM15.499 1.50031H4.5C4.224 1.50031 4 1.72331 4 2.00031V14.7983C4 14.9773 4.095 15.1423 4.25 15.2333L9.749 18.4323C9.827 18.4773 9.913 18.5003 10 18.5003C10.087 18.5003 10.173 18.4773 10.251 18.4323L15.75 15.2333C15.905 15.1423 16 14.9773 16 14.7983V2.00131C16 1.72431 15.776 1.50031 15.499 1.50031Z" fill="black"/>
</g>
<defs>
<clipPath id="clip0_5_1718">
<rect width="12" height="17" fill="white" transform="translate(4 1.5)"/>
</clipPath>
</defs>
</svg>
