<svg width="20" height="20" viewBox="0 0 20 20" fill="none" xmlns="http://www.w3.org/2000/svg">
<g clip-path="url(#clip0_5_1709)">
<path opacity="0.15" d="M16.9823 11H11.8879C11.6282 11 11.4084 11.2 11.3885 11.46L11.0089 16.27C10.9989 16.45 11.0788 16.62 11.2187 16.72L13.0366 18H6.98336L8.77138 16.75C8.92121 16.65 9.00112 16.48 8.98114 16.3L8.59158 11.46C8.5716 11.2 8.35184 11 8.09213 11H2.99779C2.4484 11 1.9989 10.55 1.9989 10C1.9989 9.45 2.4484 9 2.99779 9C3.02776 9 3.06771 9 3.09768 8.99L7.8524 7.99C8.27193 7.92 8.28192 7.56 8.3019 7.14C8.32188 6.79 8.34185 6.43 8.35184 6.07C8.38181 5.32 8.41178 4.54 8.54163 3.82C8.59158 3.52 8.92121 2 9.99002 2C10.7692 2 11.2986 2.99 11.4284 3.69C11.5783 4.53 11.6082 5.37 11.6482 6.26C11.6682 6.68 11.6781 7.11 11.7081 7.53C11.7281 7.75 11.8879 7.94 12.1077 7.98L16.8824 8.99C16.9123 9 16.9523 9 16.9823 9C17.5316 9 17.9811 9.45 17.9811 10C17.9811 10.55 17.5416 11 16.9823 11Z" fill="black"/>
<path d="M17.0422 8L16.9822 7.99V7.5C16.9822 7.22 16.7625 7 16.4828 7C16.2031 7 15.9834 7.22 15.9834 7.5V7.78L12.687 7.08C12.677 6.79 12.657 6.51 12.6471 6.22C12.6171 5.33 12.5771 4.42 12.4173 3.51C12.1876 2.26 11.2886 1 9.99001 1C8.55161 1 7.79245 2.36 7.56271 3.64C7.42286 4.43 7.3929 5.24 7.35294 6.02C7.34295 6.36 7.32297 6.69 7.303 7.08L3.99667 7.78V7.5C3.99667 7.22 3.77691 7 3.49723 7C3.21754 7 2.99778 7.22 2.99778 7.5V7.99L2.93785 8C1.85905 8.03 1 8.92 1 10C1 11.1 1.899 12 2.99778 12H7.63263L7.96226 16.09L5.11543 18.09C4.93563 18.22 4.85572 18.44 4.92564 18.65C4.99556 18.86 5.18535 19 5.40511 19H14.6349C14.8546 19 15.0444 18.86 15.1143 18.65C15.1842 18.44 15.1043 18.22 14.9245 18.09L12.0377 16.07L12.3674 12H17.0022C18.101 12 19 11.1 19 10C18.98 8.91 18.121 8.03 17.0422 8ZM16.9822 11H11.8879C11.6282 11 11.4084 11.2 11.3885 11.46L11.0089 16.27C10.9989 16.45 11.0788 16.62 11.2186 16.72L13.0366 18H6.98335L8.77137 16.75C8.9212 16.65 9.00111 16.48 8.98113 16.3L8.59157 11.46C8.57159 11.2 8.35183 11 8.09212 11H2.99778C2.44839 11 1.99889 10.55 1.99889 10C1.99889 9.45 2.44839 9 2.99778 9C3.02775 9 3.0677 9 3.09767 8.99L7.85239 7.99C8.27192 7.92 8.28191 7.56 8.30189 7.14C8.32186 6.79 8.34184 6.43 8.35183 6.07C8.3818 5.32 8.41176 4.54 8.54162 3.82C8.59156 3.52 8.9212 2 9.99001 2C10.7691 2 11.2986 2.99 11.4284 3.69C11.5782 4.53 11.6082 5.37 11.6482 6.26C11.6681 6.68 11.6781 7.11 11.7081 7.53C11.7281 7.75 11.8879 7.94 12.1077 7.98L16.8824 8.99C16.9123 9 16.9523 9 16.9822 9C17.5316 9 17.9811 9.45 17.9811 10C17.9811 10.55 17.5416 11 16.9822 11Z" fill="black"/>
</g>
<defs>
<clipPath id="clip0_5_1709">
<rect width="18" height="18" fill="white" transform="translate(1 1)"/>
</clipPath>
</defs>
</svg>
