<svg width="20" height="20" viewBox="0 0 20 20" fill="none" xmlns="http://www.w3.org/2000/svg">
<g clip-path="url(#clip0_5_1713)">
<path opacity="0.15" d="M17.9168 15.5698C17.7714 15.8316 17.5097 15.9928 17.2092 15.9928H5.77141C5.48062 15.9928 5.20922 15.8316 5.06382 15.5698C4.91842 15.3079 4.91842 14.9856 5.06382 14.7237L10.7827 4.43021C10.9281 4.16834 11.1898 4.00719 11.4903 4.00719C11.7908 4.00719 12.0525 4.16834 12.1979 4.43021L17.9168 14.7237C18.0719 14.9856 18.0719 15.2978 17.9168 15.5698Z" fill="black"/>
<path d="M18.7601 14.2201L13.0412 3.92662C12.7213 3.34245 12.1397 3 11.5 3C10.8603 3 10.2787 3.34245 9.9588 3.92662L4.2399 14.2201C3.92003 14.8043 3.92003 15.4892 4.2399 16.0734C4.55977 16.6576 5.14136 17 5.7811 17H17.2189C17.8683 17 18.4402 16.6576 18.7601 16.0734C19.08 15.4892 19.08 14.7942 18.7601 14.2201ZM17.9168 15.5698C17.7714 15.8317 17.5097 15.9928 17.2092 15.9928H5.77141C5.48061 15.9928 5.20921 15.8317 5.06381 15.5698C4.91842 15.3079 4.91842 14.9856 5.06381 14.7237L10.7827 4.43022C10.9281 4.16835 11.1898 4.00719 11.4903 4.00719C11.7908 4.00719 12.0525 4.16835 12.1979 4.43022L17.9168 14.7237C18.0719 14.9856 18.0719 15.2978 17.9168 15.5698Z" fill="black"/>
<path d="M2.5 14.9H1.5C1.22 14.9 1 15.12 1 15.4C1 15.68 1.22 15.9 1.5 15.9H2.5C2.78 15.9 3 15.68 3 15.4C3 15.12 2.78 14.9 2.5 14.9Z" fill="black"/>
<path d="M1.5 10.9H4.5C4.78 10.9 5 10.68 5 10.4C5 10.12 4.78 9.89999 4.5 9.89999H1.5C1.22 9.89999 1 10.12 1 10.4C1 10.68 1.23 10.9 1.5 10.9Z" fill="black"/>
<path d="M1.5 5.89999H6.5C6.78 5.89999 7 5.67999 7 5.39999C7 5.11999 6.78 4.89999 6.5 4.89999H1.5C1.22 4.89999 1 5.11999 1 5.39999C1 5.67999 1.23 5.89999 1.5 5.89999Z" fill="black"/>
</g>
<defs>
<clipPath id="clip0_5_1713">
<rect width="18" height="14" fill="white" transform="translate(1 3)"/>
</clipPath>
</defs>
</svg>
