<svg width="20" height="20" viewBox="0 0 20 20" fill="none" xmlns="http://www.w3.org/2000/svg">
<g clip-path="url(#clip0_5_1732)">
<path opacity="0.15" d="M18 15.16C18 15.62 17.62 16 17.16 16H2.84C2.38 16 2 15.62 2 15.16V4.84C2 4.38 2.38 4 2.84 4H17.16C17.62 4 18 4.38 18 4.84V15.16Z" fill="black"/>
<path d="M17.16 3H2.84C1.83 3 1 3.83 1 4.84V15.16C1 16.17 1.83 17 2.84 17H17.16C18.17 17 19 16.17 19 15.16V4.84C19 3.82 18.18 3 17.16 3ZM18 15.16C18 15.62 17.62 16 17.16 16H2.84C2.38 16 2 15.62 2 15.16V4.84C2 4.38 2.38 4 2.84 4H17.16C17.62 4 18 4.38 18 4.84V15.16Z" fill="#231815"/>
<path d="M13.5 10C14.33 10 15 9.33 15 8.5C15 7.67 14.33 7 13.5 7C12.67 7 12 7.67 12 8.5C12 9.33 12.68 10 13.5 10ZM13.5 8C13.78 8 14 8.22 14 8.5C14 8.78 13.78 9 13.5 9C13.22 9 13 8.78 13 8.5C13 8.22 13.23 8 13.5 8Z" fill="#231815"/>
<path d="M13.59 10.16C11.91 10.16 10.49 11.41 10.28 13.08C10.25 13.31 10.32 13.54 10.48 13.72C10.64 13.9 10.87 14.01 11.12 14.01H16.07C16.31 14.01 16.55 13.91 16.71 13.72C16.87 13.54 16.94 13.31 16.91 13.08C16.69 11.41 15.26 10.16 13.59 10.16ZM11.3 13C11.53 11.94 12.48 11.16 13.59 11.16C14.7 11.16 15.65 11.94 15.88 13H11.3Z" fill="#231815"/>
<path d="M7.5 7H3.5C3.22 7 3 7.22 3 7.5C3 7.78 3.22 8 3.5 8H7.5C7.78 8 8 7.78 8 7.5C8 7.22 7.78 7 7.5 7Z" fill="#231815"/>
<path d="M7.5 10H3.5C3.22 10 3 10.22 3 10.5C3 10.78 3.22 11 3.5 11H7.5C7.78 11 8 10.78 8 10.5C8 10.22 7.78 10 7.5 10Z" fill="#231815"/>
<path d="M7.5 13.01H3.5C3.22 13.01 3 13.23 3 13.51C3 13.79 3.22 14.01 3.5 14.01H7.5C7.78 14.01 8 13.79 8 13.51C8 13.23 7.78 13.01 7.5 13.01Z" fill="#231815"/>
</g>
<defs>
<clipPath id="clip0_5_1732">
<rect width="18" height="14" fill="white" transform="translate(1 3)"/>
</clipPath>
</defs>
</svg>
