<svg width="20" height="20" viewBox="0 0 20 20" fill="none" xmlns="http://www.w3.org/2000/svg">
<g clip-path="url(#clip0_5_1728)">
<path d="M17.9711 16.421L14.5516 3.54903C14.4299 3.09931 13.9631 2.83948 13.5167 2.94941L11.538 3.45909C11.3148 3.51905 11.1321 3.64897 11.0205 3.84884C10.9089 4.03873 10.8785 4.26858 10.9292 4.48844L11.0611 4.99813H9.10278V2.83948C9.10278 2.37976 8.7172 2 8.25045 2H5.89638C5.42963 2 5.04405 2.37976 5.04405 2.83948V5.9975H2.85233C2.38558 5.9975 2 6.37726 2 6.83698V17.1505C2 17.6102 2.38558 17.99 2.85233 17.99H5.2064C5.32816 17.99 5.44992 17.96 5.55139 17.9101C5.65286 17.96 5.77462 17.99 5.89638 17.99H8.25045C8.37221 17.99 8.49397 17.96 8.59544 17.9101C8.69691 17.96 8.81867 17.99 8.94043 17.99H11.2945C11.7613 17.99 12.1468 17.6102 12.1468 17.1505V9.09556L14.3385 17.3704C14.3994 17.5903 14.5313 17.7701 14.7343 17.8801C14.8662 17.96 15.0184 18 15.1604 18C15.2315 18 15.3025 17.99 15.3735 17.97L17.3522 17.4603C17.8189 17.3304 18.0929 16.8707 17.9711 16.421ZM3.01468 6.98688H5.04405V16.9806H3.01468V6.98688ZM6.05873 6.82698V2.98938H8.0881V5.82761V16.9806H6.05873V6.82698ZM11.1321 16.9806H9.10278V5.98751H11.1321V16.9806ZM15.2924 16.9507L11.954 4.38851L13.6181 3.95878L16.9564 16.5209L15.2924 16.9507Z" fill="black"/>
<path opacity="0.1" d="M3.01471 6.98688H5.04408V16.9806H3.01471V6.98688Z" fill="black"/>
<path opacity="0.1" d="M6.05872 6.82698V2.98938H8.08808V5.82761V16.9806H6.05872V6.82698Z" fill="black"/>
<path opacity="0.1" d="M11.1321 16.9806H9.10278V5.9875H11.1321V16.9806Z" fill="black"/>
<path opacity="0.1" d="M15.2923 16.9507L11.954 4.3885L13.6181 3.95877L16.9564 16.5209L15.2923 16.9507Z" fill="black"/>
</g>
<defs>
<clipPath id="clip0_5_1728">
<rect width="16" height="16" fill="white" transform="translate(2 2)"/>
</clipPath>
</defs>
</svg>
