<svg width="20" height="20" viewBox="0 0 20 20" fill="none" xmlns="http://www.w3.org/2000/svg">
<g clip-path="url(#clip0_5_1722)">
<path opacity="0.1" d="M4.11505 17V3H6.07344V17H4.11505Z" fill="black"/>
<path opacity="0.1" d="M9.01099 17V8H10.9694V17H9.01099Z" fill="black"/>
<path opacity="0.1" d="M13.907 17V13H15.8654V17H13.907Z" fill="black"/>
<path d="M17.5104 17H16.8446V12.84C16.8446 12.38 16.4725 12 16.022 12H13.7503C13.2999 12 12.9278 12.38 12.9278 12.84V17H11.9486V7.84C11.9486 7.38 11.5765 7 11.1261 7H8.85435C8.40392 7 8.03182 7.38 8.03182 7.84V17H7.05263V2.84C7.05263 2.38 6.68054 2 6.23011 2H3.95838C3.50796 2 3.13586 2.38 3.13586 2.84V17H2.4896C2.21542 17 2 17.22 2 17.5C2 17.78 2.21542 18 2.4896 18H3.62546H6.56304H8.52142H11.459H13.4174H16.355H17.5104C17.7846 18 18 17.78 18 17.5C18 17.22 17.7846 17 17.5104 17ZM4.11506 17V3H6.07344V17H4.11506ZM9.01102 17V8H10.9694V17H9.01102ZM13.907 17V13H15.8654V17H13.907Z" fill="#231815"/>
</g>
<defs>
<clipPath id="clip0_5_1722">
<rect width="16" height="16" fill="white" transform="translate(2 2)"/>
</clipPath>
</defs>
</svg>
