<svg width="20" height="20" viewBox="0 0 20 20" fill="none" xmlns="http://www.w3.org/2000/svg">
<g clip-path="url(#clip0_5_1726)">
<path opacity="0.15" d="M4.78 3H12V6.94C12 7.14 12.12 7.33 12.31 7.4C12.5 7.48 12.71 7.43 12.86 7.29L13.5 6.64L14.14 7.29C14.24 7.39 14.36 7.44 14.5 7.44C14.56 7.44 14.63 7.43 14.69 7.4C14.88 7.32 15 7.14 15 6.94V3H15.16C15.62 3 16 3.38 16 3.84V13.71H5.14C4.72 13.71 4.33 13.84 4 14.05V3.78C4 3.35 4.35 3 4.78 3Z" fill="black"/>
<path d="M15.16 2H14.5H12.5H4.78C3.8 2 3 2.8 3 3.78V16.22C3 17.2 3.8 18 4.78 18H15.16C16.17 18 17 17.17 17 16.16V3.84C17 2.83 16.18 2 15.16 2ZM14 3V5.73L13.86 5.58C13.77 5.49 13.64 5.43 13.5 5.43C13.36 5.43 13.24 5.48 13.14 5.58L13 5.73V3H14ZM4.78 3H12V6.94C12 7.14 12.12 7.33 12.31 7.4C12.5 7.48 12.71 7.43 12.86 7.29L13.5 6.64L14.14 7.29C14.24 7.39 14.36 7.44 14.5 7.44C14.56 7.44 14.63 7.43 14.69 7.4C14.88 7.32 15 7.14 15 6.94V3H15.16C15.62 3 16 3.38 16 3.84V13.71H5.14C4.72 13.71 4.33 13.84 4 14.05V3.78C4 3.35 4.35 3 4.78 3ZM15.16 17H5.17C5.16 17 5.15 16.99 5.14 16.99C4.51 16.99 4 16.48 4 15.85C4 15.22 4.51 14.71 5.14 14.71H16V16.16C16 16.63 15.63 17 15.16 17Z" fill="black"/>
</g>
<defs>
<clipPath id="clip0_5_1726">
<rect width="14" height="16" fill="white" transform="translate(3 2)"/>
</clipPath>
</defs>
</svg>
