<svg width="20" height="20" viewBox="0 0 20 20" fill="none" xmlns="http://www.w3.org/2000/svg">
<g clip-path="url(#clip0_5_1731)">
<path opacity="0.15" d="M17.16 5.08075H14.04V3.82857C14.04 2.82484 13.21 2 12.2 2H7.88C6.87 2 6.04 2.82484 6.04 3.82857V5.08075H2.84C1.83 5.08075 1 5.90559 1 6.90932V16.1714C1 17.1752 1.83 18 2.84 18H17.16C18.17 18 19 17.1752 19 16.1714V10.0497V9.0559V6.90932C19 5.89565 18.17 5.08075 17.16 5.08075Z" fill="black"/>
<path d="M17.16 5.08075H14.04V3.82857C14.04 2.82484 13.21 2 12.2 2H7.88C6.87 2 6.04 2.82484 6.04 3.82857V5.08075H2.84C1.83 5.08075 1 5.90559 1 6.90932V16.1714C1 17.1752 1.83 18 2.84 18H17.16C18.17 18 19 17.1752 19 16.1714V10.0497V9.0559V6.90932C19 5.89565 18.17 5.08075 17.16 5.08075ZM7.04 3.82857C7.04 3.37143 7.42 2.99379 7.88 2.99379H12.2C12.66 2.99379 13.04 3.37143 13.04 3.82857V4.98137H7.04V3.82857ZM18 16.1714C18 16.6286 17.62 17.0062 17.16 17.0062H2.84C2.38 17.0062 2 16.6286 2 16.1714V10.0497H8.04V11.441C8.04 12.2658 8.71 12.9317 9.54 12.9317H10.54C11.37 12.9317 12.04 12.2658 12.04 11.441V10.0497H18V16.1714ZM9.04 11.441V8.45963C9.04 8.18137 9.26 7.96273 9.54 7.96273H10.54C10.82 7.96273 11.04 8.18137 11.04 8.45963V11.441C11.04 11.7193 10.82 11.9379 10.54 11.9379H9.54C9.27 11.9379 9.04 11.7093 9.04 11.441ZM12.04 9.0559V8.45963C12.04 7.63478 11.37 6.96894 10.54 6.96894H9.54C8.71 6.96894 8.04 7.63478 8.04 8.45963V9.0559H2V6.90932C2 6.45217 2.38 6.07453 2.84 6.07453H17.16C17.62 6.07453 18 6.45217 18 6.90932V9.0559H12.04Z" fill="black"/>
</g>
<defs>
<clipPath id="clip0_5_1731">
<rect width="18" height="16" fill="white" transform="translate(1 2)"/>
</clipPath>
</defs>
</svg>
