<svg width="20" height="20" viewBox="0 0 20 20" fill="none" xmlns="http://www.w3.org/2000/svg">
<g clip-path="url(#clip0_5_1730)">
<path opacity="0.15" d="M15.9383 12.3136C15.7982 12.7133 15.418 12.9831 14.9978 12.9831C14.7176 12.9831 14.4975 13.203 14.4975 13.4828C14.4975 13.7626 14.7176 13.9825 14.9978 13.9825C15.0278 13.9825 15.0578 13.9725 15.0878 13.9725C15.0878 14.0025 15.0878 14.0225 15.0878 14.0525L15.7782 16.9906H14.8577C14.7276 16.1811 14.1273 14.6221 11.6359 13.263C11.5559 13.223 11.4658 13.203 11.3758 13.213C11.1756 13.183 10.9755 13.2829 10.8755 13.4728C10.6954 13.8126 10.3052 13.9725 9.92495 13.9625C10.2851 13.5928 10.5653 13.153 10.7454 12.6433C11.846 10.7545 13.3769 10.7146 13.4669 10.7146C13.7571 10.6746 13.9672 10.5047 13.9772 10.2249C13.9872 9.94503 13.7671 9.72517 13.4869 9.71518C13.3969 9.71518 12.1662 9.70518 10.9655 10.7845V10.1049C10.9655 9.82511 10.7454 9.60525 10.4652 9.60525C10.1851 9.60525 9.96497 9.82511 9.96497 10.1049V11.3741C9.96497 11.524 9.95496 11.664 9.93495 11.8039C9.80488 12.6334 9.33462 13.3129 8.69426 13.6827C8.51416 13.7826 8.32406 13.8626 8.14396 13.9126C8.12395 13.9225 8.10394 13.9225 8.09393 13.9325C7.89382 13.9825 7.69371 14.0125 7.4936 14.0125C6.32295 14.0125 5.32239 13.213 5.06225 12.0737C5.02222 11.9138 4.91216 11.7839 4.76208 11.7239C4.612 11.664 4.4419 11.6839 4.30182 11.7639C4.05168 11.9238 3.77153 12.0037 3.49137 12.0037C2.66091 12.0037 1.99054 11.3342 1.99054 10.5047C1.99054 10.075 2.17064 9.6752 2.51083 9.38538C2.62089 9.29544 2.68092 9.15553 2.68092 9.00562C2.68092 8.86571 2.62089 8.7258 2.51083 8.62586C2.18065 8.33604 1.99054 7.93629 1.99054 7.50656C1.99054 6.67708 2.66091 6.00749 3.49137 6.00749C3.94162 6.00749 4.27181 6.20737 4.46191 6.37726C4.58198 6.4772 4.75207 6.51718 4.90216 6.48719C5.06225 6.44722 5.19232 6.33729 5.25235 6.18738C5.79265 4.86821 7.06336 4.00874 8.49415 4.00874C8.50416 4.00874 8.52417 4.00874 8.53417 4.00874C8.38409 4.26858 8.26403 4.54841 8.17397 4.84822C8.17397 4.84822 8.17397 4.84822 8.16397 4.85821C7.6837 5.73766 6.64312 5.93754 6.62311 5.94753C6.35296 5.9975 6.17286 6.25734 6.22289 6.52717C6.26291 6.76702 6.47303 6.93691 6.71316 6.93691C6.74318 6.93691 6.7732 6.93691 6.80321 6.92692C6.84324 6.91693 7.39354 6.81699 7.98387 6.43723V6.56714C7.98387 6.84697 8.20399 7.06683 8.48415 7.06683C8.7643 7.06683 8.98443 6.84697 8.98443 6.56714V6.00749C8.98443 5.80762 9.00444 5.59775 9.04446 5.39788C9.15452 4.84822 9.42467 4.35853 9.78487 3.96877C9.78487 3.96877 9.78487 3.96877 9.79488 3.96877C9.92495 3.82886 10.075 3.69894 10.2251 3.58901C10.2551 3.56902 10.2952 3.53904 10.3252 3.51905C10.4452 3.4391 10.5653 3.36914 10.6954 3.30918C10.7554 3.2792 10.8054 3.24922 10.8655 3.22923C10.9855 3.17926 11.1056 3.14928 11.2357 3.10931C11.2957 3.08932 11.3557 3.06933 11.4158 3.05934C11.6059 3.01936 11.796 2.99937 11.9861 2.99937C12.9066 2.99937 13.7571 3.41911 14.3374 4.15865C14.3874 4.22861 14.4575 4.27857 14.5375 4.30856C16.0283 4.93816 16.9889 6.37726 16.9889 7.98626C16.3785 7.7564 15.5481 7.56652 14.5975 7.72642C14.3274 7.77639 14.1373 8.02623 14.1873 8.30606C14.2373 8.57589 14.4975 8.76577 14.7676 8.7158C15.9483 8.51593 16.8988 9.00562 17.279 9.22548C17.7193 9.49531 17.9994 9.96502 17.9994 10.4847C17.9994 11.3042 17.3391 11.9738 16.4486 11.9738C16.4386 11.9738 16.4386 11.9738 16.4286 11.9738C16.1784 11.9638 16.0083 12.1037 15.9383 12.3136Z" fill="black"/>
<path d="M16.7287 12.9831C17.9994 12.8632 19 11.7939 19 10.4947C19 9.76515 18.6698 9.09557 18.1195 8.62586C18.0995 8.60587 18.0895 8.57589 18.0695 8.5659C18.0595 8.5659 18.0295 8.53591 17.9994 8.51593C17.9894 8.50593 17.9794 8.49594 17.9694 8.48595C17.9894 8.32605 17.9994 8.16615 17.9994 7.99625C17.9994 6.02748 16.8488 4.24859 15.0478 3.4391C14.2774 2.51968 13.1768 2 11.9961 2C11.756 2 11.5158 2.01999 11.2757 2.06996C11.1757 2.08994 11.0856 2.11993 10.9956 2.14991C10.8555 2.18988 10.7254 2.21986 10.5953 2.26983C10.5053 2.29981 10.4152 2.34978 10.3352 2.38976C10.2051 2.44972 10.065 2.50968 9.94497 2.58963C9.88494 2.62961 9.8149 2.67958 9.75486 2.71955C9.60478 2.81949 9.4647 2.92942 9.33463 3.04934C9.31462 3.06933 9.29461 3.07933 9.2846 3.08932C9.01445 3.03935 8.75431 3.00937 8.50417 3.00937C6.87326 3.00937 5.39244 3.87883 4.602 5.26796C4.26181 5.09806 3.8816 5.00812 3.50139 5.00812C2.12062 5.00812 1 6.12742 1 7.50656C1 8.04622 1.1801 8.57589 1.51028 9.00562C1.1801 9.43535 1 9.96502 1 10.5047C1 11.8838 2.12062 13.0031 3.50139 13.0031C3.77154 13.0031 4.03168 12.9631 4.28182 12.8732C4.82212 14.1524 6.07282 15.0019 7.50361 15.0019C7.51362 15.0019 7.51362 15.0019 7.52362 15.0019H7.53363C7.77376 15.0019 8.00389 14.9719 8.22401 14.9219C8.23402 14.9219 8.24402 14.9119 8.25403 14.9119C8.47415 14.862 8.69427 14.792 8.89439 14.6921C8.90439 14.6821 8.9144 14.6821 8.93441 14.6821C9.25459 14.8919 9.62479 15.0019 10.005 15.0019C10.5853 15.0019 11.1156 14.752 11.4858 14.3323C13.9972 15.8413 13.9072 17.3804 13.8972 17.4403C13.8772 17.5803 13.9272 17.7202 14.0172 17.8301C14.1073 17.94 14.2474 18 14.3874 18H16.4086C16.5586 18 16.7087 17.93 16.7988 17.8101C16.8888 17.6902 16.9288 17.5303 16.8988 17.3904L16.0684 13.8426C16.0584 13.8026 16.0384 13.7626 16.0183 13.7227C16.3085 13.5328 16.5586 13.2829 16.7287 12.9831ZM15.9383 12.3136C15.7982 12.7133 15.418 12.9831 14.9978 12.9831C14.7176 12.9831 14.4975 13.203 14.4975 13.4828C14.4975 13.7626 14.7176 13.9825 14.9978 13.9825C15.0278 13.9825 15.0578 13.9725 15.0878 13.9725C15.0878 14.0025 15.0878 14.0225 15.0878 14.0525L15.7782 16.9906H14.8577C14.7276 16.1811 14.1273 14.6221 11.6359 13.263C11.5559 13.223 11.4658 13.203 11.3758 13.213C11.1757 13.183 10.9755 13.2829 10.8755 13.4728C10.6954 13.8126 10.3052 13.9725 9.92496 13.9625C10.2852 13.5928 10.5653 13.153 10.7454 12.6433C11.846 10.7545 13.3769 10.7146 13.4669 10.7146C13.7571 10.6746 13.9672 10.5047 13.9772 10.2249C13.9872 9.94503 13.7671 9.72517 13.4869 9.71518C13.3969 9.71518 12.1662 9.70518 10.9655 10.7845V10.1049C10.9655 9.82511 10.7454 9.60525 10.4653 9.60525C10.1851 9.60525 9.96498 9.82511 9.96498 10.1049V11.3741C9.96498 11.524 9.95498 11.664 9.93496 11.8039C9.80489 12.6334 9.33463 13.3129 8.69427 13.6827C8.51417 13.7826 8.32407 13.8626 8.14397 13.9126C8.12396 13.9225 8.10395 13.9225 8.09394 13.9325C7.89383 13.9825 7.69372 14.0125 7.49361 14.0125C6.32296 14.0125 5.3224 13.213 5.06226 12.0737C5.02223 11.9138 4.91217 11.7839 4.76209 11.7239C4.61201 11.664 4.44191 11.6839 4.30183 11.7639C4.0517 11.9238 3.77154 12.0037 3.49138 12.0037C2.66092 12.0037 1.99055 11.3342 1.99055 10.5047C1.99055 10.075 2.17065 9.6752 2.51084 9.38538C2.6209 9.29544 2.68093 9.15553 2.68093 9.00562C2.68093 8.86571 2.6209 8.7258 2.51084 8.62586C2.18066 8.33604 1.99055 7.93629 1.99055 7.50656C1.99055 6.67708 2.66092 6.0075 3.49138 6.0075C3.94163 6.0075 4.27182 6.20737 4.46192 6.37726C4.58199 6.4772 4.75208 6.51718 4.90217 6.4872C5.06226 6.44722 5.19233 6.33729 5.25236 6.18738C5.79266 4.86821 7.06337 4.00874 8.49416 4.00874C8.50417 4.00874 8.52418 4.00874 8.53419 4.00874C8.3841 4.26858 8.26404 4.54841 8.17399 4.84822C8.17399 4.84822 8.17399 4.84822 8.16398 4.85821C7.68371 5.73766 6.64314 5.93754 6.62312 5.94753C6.35297 5.9975 6.17287 6.25734 6.2229 6.52717C6.26292 6.76702 6.47304 6.93691 6.71317 6.93691C6.74319 6.93691 6.77321 6.93691 6.80322 6.92692C6.84325 6.91693 7.39355 6.81699 7.98388 6.43723V6.56715C7.98388 6.84697 8.204 7.06683 8.48416 7.06683C8.76431 7.06683 8.98444 6.84697 8.98444 6.56715V6.0075C8.98444 5.80762 9.00445 5.59775 9.04447 5.39788C9.15453 4.84822 9.42468 4.35853 9.78488 3.96877C9.78488 3.96877 9.78488 3.96877 9.79489 3.96877C9.92496 3.82886 10.075 3.69894 10.2251 3.58901C10.2551 3.56902 10.2952 3.53904 10.3252 3.51905C10.4452 3.4391 10.5653 3.36914 10.6954 3.30918C10.7554 3.2792 10.8054 3.24922 10.8655 3.22923C10.9855 3.17926 11.1056 3.14928 11.2357 3.10931C11.2957 3.08932 11.3558 3.06933 11.4158 3.05934C11.6059 3.01936 11.796 2.99938 11.9861 2.99938C12.9066 2.99938 13.7571 3.41911 14.3374 4.15865C14.3874 4.22861 14.4575 4.27858 14.5375 4.30856C16.0283 4.93816 16.9889 6.37726 16.9889 7.98626C16.3785 7.7564 15.5481 7.56652 14.5976 7.72642C14.3274 7.77639 14.1373 8.02623 14.1873 8.30606C14.2374 8.57589 14.4975 8.76577 14.7676 8.7158C15.9483 8.51593 16.8988 9.00562 17.279 9.22548C17.7193 9.49532 17.9994 9.96502 17.9994 10.4847C17.9994 11.3042 17.3391 11.9738 16.4486 11.9738C16.4386 11.9738 16.4386 11.9738 16.4286 11.9738C16.1784 11.9638 16.0083 12.1037 15.9383 12.3136Z" fill="#231815"/>
</g>
<defs>
<clipPath id="clip0_5_1730">
<rect width="18" height="16" fill="white" transform="translate(1 2)"/>
</clipPath>
</defs>
</svg>
