<svg width="20" height="20" viewBox="0 0 20 20" fill="none" xmlns="http://www.w3.org/2000/svg">
<g clip-path="url(#clip0_5_1727)">
<path d="M10.51 4.03H9.50999C9.50999 3.46 9.04999 3 8.47999 3H6.98999V2H8.47999C9.59999 2 10.51 2.91 10.51 4.03Z" fill="#231815"/>
<path d="M10.51 4.03H9.51001C9.51001 2.91 10.41 2 11.51 2H12.97V3H11.51C10.96 3 10.51 3.46 10.51 4.03Z" fill="#231815"/>
<path opacity="0.1" d="M18 3H2V16H18V3Z" fill="black"/>
<path d="M17.14 2H12.98V3H17.14C17.6 3 17.98 3.38 17.98 3.84V14.16C17.98 14.62 17.6 15 17.14 15H12.98H11.51C11.15 15 10.81 15.1 10.52 15.28V3.72H9.52V15.29C9.22 15.11 8.87 15 8.49 15H7H2.84C2.38 15 2 14.62 2 14.16V3.84C2 3.38 2.38 3 2.84 3H7V2H2.84C1.83 2 1 2.83 1 3.84V14.16C1 15.17 1.83 16 2.84 16H7H8.49C9.04 16 9.47 16.43 9.51 16.97C9.51 16.99 9.5 17.01 9.5 17.03H9.52H10.5H10.52C10.52 17.01 10.51 16.99 10.51 16.97C10.54 16.43 10.97 16 11.51 16H12.98H17.14C18.15 16 18.98 15.17 18.98 14.16V3.84C18.98 2.83 18.15 2 17.14 2Z" fill="#231815"/>
</g>
<defs>
<clipPath id="clip0_5_1727">
<rect width="18" height="16" fill="white" transform="translate(1 2)"/>
</clipPath>
</defs>
</svg>
