<svg width="20" height="20" viewBox="0 0 20 20" fill="none" xmlns="http://www.w3.org/2000/svg">
<g clip-path="url(#clip0_5_1724)">
<path opacity="0.15" d="M6.56999 3.89999L6.90999 3.72999C8.11999 3.12999 9.46999 2.89999 10.79 3.04999C10.81 3.04999 10.82 3.05999 10.84 3.05999C11.07 3.08999 11.3 3.12999 11.53 3.17999C11.6 3.19999 11.67 3.21999 11.74 3.22999C11.91 3.26999 12.07 3.31999 12.24 3.37999C12.33 3.40999 12.43 3.44999 12.52 3.47999C12.66 3.52999 12.79 3.58999 12.92 3.64999C14.43 4.34999 15.64 5.55999 16.34 7.06999C16.4 7.19999 16.45 7.31999 16.5 7.44999C16.54 7.55999 16.58 7.66999 16.62 7.77999C16.66 7.90999 16.7 8.02999 16.73 8.15999C16.76 8.26999 16.79 8.37999 16.82 8.49999C16.85 8.63999 16.87 8.78999 16.9 8.92999C16.92 9.02999 16.93 9.12999 16.95 9.22999C16.98 9.47999 16.99 9.72999 16.99 9.97999C16.99 13.82 13.86 16.95 10.02 16.95C6.17999 16.95 3.04999 13.82 3.04999 9.97999C3.04999 8.89999 3.28999 7.85999 3.76999 6.89999L3.93999 6.55999L3.92999 6.54999C4.53999 5.43999 5.45999 4.51999 6.56999 3.89999Z" fill="black"/>
<path opacity="0.15" d="M15.08 3C16.12 3 16.97 3.85 16.97 4.89C16.97 5.19 16.89 5.49 16.75 5.75C16.1 4.72 15.23 3.86 14.21 3.21C14.48 3.08 14.78 3 15.08 3Z" fill="black"/>
<path opacity="0.15" d="M3.02002 4.89C3.02002 3.85 3.87002 3 4.91002 3C5.21002 3 5.50002 3.08 5.77002 3.22C4.74002 3.86 3.87002 4.73 3.23002 5.75C3.09002 5.48 3.02002 5.19 3.02002 4.89Z" fill="black"/>
<path d="M17.31 6.78C17.31 6.77 17.3 6.76 17.3 6.75C17.73 6.23 17.98 5.57 17.98 4.89C17.98 3.29 16.68 2 15.09 2C14.41 2 13.75 2.24 13.23 2.68C13.21 2.67 13.19 2.66 13.17 2.66C13.01 2.59 12.84 2.53 12.67 2.47C12.59 2.44 12.51 2.41 12.43 2.38C11.66 2.14 10.85 2 10 2C8.86 2 7.77 2.25 6.78 2.68C6.26 2.24 5.6 2 4.92 2C3.32 2 2.03 3.3 2.03 4.89C2.03 5.57 2.27 6.22 2.7 6.74C2.25 7.74 2 8.84 2 10C2 14.41 5.59 18 10 18C14.41 18 18 14.41 18 10C17.99 8.85 17.74 7.77 17.31 6.78ZM6.57 3.9L6.91 3.73C8.12 3.13 9.47 2.9 10.79 3.05C10.81 3.05 10.82 3.06 10.84 3.06C11.07 3.09 11.3 3.13 11.53 3.18C11.6 3.2 11.67 3.22 11.74 3.23C11.91 3.27 12.07 3.32 12.24 3.38C12.33 3.41 12.43 3.45 12.52 3.48C12.66 3.53 12.79 3.59 12.92 3.65C14.43 4.35 15.64 5.56 16.34 7.07C16.4 7.2 16.45 7.32 16.5 7.45C16.54 7.56 16.58 7.67 16.62 7.78C16.66 7.91 16.7 8.03 16.73 8.16C16.76 8.27 16.79 8.38 16.82 8.5C16.85 8.64 16.87 8.79 16.9 8.93C16.92 9.03 16.93 9.13 16.95 9.23C16.98 9.48 16.99 9.73 16.99 9.98C16.99 13.82 13.86 16.95 10.02 16.95C6.18 16.95 3.05 13.82 3.05 9.98C3.05 8.9 3.29 7.86 3.77 6.9L3.94 6.56L3.93 6.55C4.54 5.44 5.46 4.52 6.57 3.9ZM15.08 3C16.12 3 16.97 3.85 16.97 4.89C16.97 5.19 16.89 5.49 16.75 5.75C16.1 4.72 15.23 3.86 14.21 3.21C14.48 3.08 14.78 3 15.08 3ZM3.02 4.89C3.02 3.85 3.87 3 4.91 3C5.21 3 5.5 3.08 5.77 3.22C4.74 3.86 3.87 4.73 3.23 5.75C3.09 5.48 3.02 5.19 3.02 4.89Z" fill="black"/>
<path d="M7.86997 12.41C7.66997 12.61 7.66997 12.92 7.86997 13.12C8.06997 13.32 8.37997 13.32 8.57997 13.12L9.74997 11.95C9.82997 11.97 9.90997 12 9.98997 12C10.07 12 10.13 11.97 10.2 11.96L11.37 13.13C11.47 13.23 11.6 13.28 11.72 13.28C11.84 13.28 11.98 13.23 12.07 13.13C12.27 12.93 12.27 12.62 12.07 12.42L10.92 11.27C10.95 11.18 10.98 11.09 10.98 11C10.98 10.45 10.53 10 9.97997 10C9.42997 10 8.97997 10.45 8.97997 11C8.97997 11.09 9.00997 11.16 9.02997 11.25L7.86997 12.41Z" fill="black"/>
<path d="M7.48999 8.5C8.04227 8.5 8.48999 8.05228 8.48999 7.5C8.48999 6.94772 8.04227 6.5 7.48999 6.5C6.93771 6.5 6.48999 6.94772 6.48999 7.5C6.48999 8.05228 6.93771 8.5 7.48999 8.5Z" fill="black"/>
<path d="M12.49 8.5C13.0423 8.5 13.49 8.05228 13.49 7.5C13.49 6.94772 13.0423 6.5 12.49 6.5C11.9377 6.5 11.49 6.94772 11.49 7.5C11.49 8.05228 11.9377 8.5 12.49 8.5Z" fill="black"/>
</g>
<defs>
<clipPath id="clip0_5_1724">
<rect width="16" height="16" fill="white" transform="translate(2 2)"/>
</clipPath>
</defs>
</svg>
