<svg width="20" height="20" viewBox="0 0 20 20" fill="none" xmlns="http://www.w3.org/2000/svg">
<g clip-path="url(#clip0_5_1720)">
<path opacity="0.15" d="M16.95 11.92L16.71 12L16.63 12.24C15.67 15.09 13.01 17 10 17C7 17 4.33 15.09 3.37 12.24L3.29 12L3.05 11.92C2.42 11.72 2 11.15 2 10.5C2 9.93 2.32 9.42 2.84 9.16L3.07 9.05L3.11 8.8C3.69 5.44 6.59 3 10 3C13.41 3 16.31 5.44 16.89 8.8L16.93 9.05L17.16 9.16C17.68 9.42 18 9.93 18 10.5C18 11.15 17.57 11.72 16.95 11.92Z" fill="black"/>
<path d="M13.94 11.92H6.09998C5.80998 11.92 5.54998 12.06 5.39998 12.3C5.23998 12.55 5.21998 12.85 5.34998 13.12C6.19998 14.94 8.02998 16.12 10.03 16.12C12.03 16.12 13.86 14.94 14.71 13.12C14.83 12.85 14.82 12.55 14.66 12.3C14.49 12.07 14.22 11.92 13.94 11.92ZM10.02 15.13C8.48998 15.13 7.07998 14.27 6.35998 12.92H13.68C12.96 14.27 11.55 15.13 10.02 15.13Z" fill="black"/>
<path d="M6.5 11C7.33 11 8 10.33 8 9.5C8 8.67 7.33 8 6.5 8C5.67 8 5 8.67 5 9.5C5 10.33 5.67 11 6.5 11ZM6.5 9C6.78 9 7 9.22 7 9.5C7 9.78 6.78 10 6.5 10C6.22 10 6 9.78 6 9.5C6 9.22 6.22 9 6.5 9Z" fill="black"/>
<path d="M13.5 8C12.67 8 12 8.67 12 9.5C12 10.33 12.67 11 13.5 11C14.33 11 15 10.33 15 9.5C15 8.67 14.32 8 13.5 8ZM13.5 10C13.22 10 13 9.78 13 9.5C13 9.22 13.22 9 13.5 9C13.78 9 14 9.22 14 9.5C14 9.78 13.77 10 13.5 10Z" fill="black"/>
<path d="M9.99 7.86C11.09 7.86 11.98 6.97 11.98 5.87C11.98 5.59 11.76 5.37 11.48 5.37C11.2 5.37 10.98 5.59 10.98 5.87C10.98 6.42 10.54 6.86 9.99 6.86C9.44 6.86 9 6.42 9 5.87C9 5.32 9.44 4.88001 9.99 4.88001C10.27 4.88001 10.49 4.66001 10.49 4.38001C10.49 4.10001 10.27 3.88 9.99 3.88C8.89 3.88 8 4.77 8 5.87C8 6.97 8.9 7.86 9.99 7.86Z" fill="black"/>
<path d="M17.83 8.39C17.07 4.67 13.82 2 10 2C6.18 2 2.93 4.67 2.17 8.39C1.44 8.85 1 9.63 1 10.5C1 11.5 1.59 12.39 2.5 12.78C3.66 15.91 6.64 18 10 18C13.35 18 16.33 15.91 17.5 12.78C18.41 12.39 19 11.5 19 10.5C19 9.63 18.55 8.85 17.83 8.39ZM16.95 11.92L16.71 12L16.63 12.24C15.67 15.09 13.01 17 10 17C7 17 4.33 15.09 3.37 12.24L3.29 12L3.05 11.92C2.42 11.72 2 11.15 2 10.5C2 9.93 2.32 9.42 2.84 9.16L3.07 9.05L3.11 8.8C3.69 5.44 6.59 3 10 3C13.41 3 16.31 5.44 16.89 8.8L16.93 9.05L17.16 9.16C17.68 9.42 18 9.93 18 10.5C18 11.15 17.57 11.72 16.95 11.92Z" fill="black"/>
</g>
<defs>
<clipPath id="clip0_5_1720">
<rect width="18" height="16" fill="white" transform="translate(1 2)"/>
</clipPath>
</defs>
</svg>
