<svg width="20" height="20" viewBox="0 0 20 20" fill="none" xmlns="http://www.w3.org/2000/svg">
<g clip-path="url(#clip0_5_1723)">
<path opacity="0.15" d="M9.41266 5.49219C9.65307 4.81176 10.3743 4.40151 11.0955 4.56161C11.4762 4.64166 11.7967 4.8718 11.9971 5.20201C12.1774 5.48218 12.2475 5.80238 12.2175 6.12258L9.41266 5.49219Z" fill="black"/>
<path opacity="0.15" d="M17.0257 13.0869C17.0257 14.6979 15.7134 16.0088 14.1007 16.0088H5.92671C4.31395 16.0088 3.00171 14.6979 3.00171 13.0869V11.0056H17.0257V13.0869Z" fill="black"/>
<path d="M17.5266 10.005H15.0223V4.00125C15.0223 2.90056 14.1207 2 13.0188 2C12.0672 2 11.2759 2.67042 11.0655 3.56098C9.8334 3.41088 8.67141 4.21138 8.39093 5.44215L8.32081 5.76235C8.29076 5.89243 8.31079 6.03252 8.38091 6.14259C8.45103 6.25266 8.56122 6.33271 8.69144 6.36273L12.498 7.21326C12.538 7.22326 12.5681 7.22326 12.6081 7.22326C12.6983 7.22326 12.7985 7.19325 12.8786 7.14321C12.9888 7.07317 13.0689 6.9631 13.099 6.83302L13.1691 6.51282C13.3093 5.87242 13.1992 5.22201 12.8486 4.66166C12.6382 4.33146 12.3577 4.07129 12.0372 3.88118C12.0973 3.38086 12.508 2.99062 13.0188 2.99062C13.5698 2.99062 14.0206 3.4409 14.0206 3.99124V9.995H2.50086C2.22038 9.995 2 10.2151 2 10.4953V13.0769C2 14.9481 3.32226 16.5091 5.07526 16.8993L4.99512 17.4196C4.95505 17.6898 5.13536 17.95 5.40582 17.99C5.43588 17.99 5.45591 18 5.48596 18C5.72637 18 5.93673 17.8299 5.9768 17.5797L6.06695 16.9994H13.9705L14.0606 17.5797C14.1007 17.8299 14.3111 18 14.5515 18C14.5815 18 14.6015 18 14.6316 17.99C14.9021 17.95 15.0924 17.6898 15.0423 17.4196L14.9521 16.8893C16.6951 16.4891 17.9974 14.9381 17.9974 13.0769V10.4953C18.0274 10.2251 17.797 10.005 17.5266 10.005ZM9.41268 5.49218C9.65309 4.81176 10.3743 4.4015 11.0956 4.5616C11.4762 4.64165 11.7968 4.87179 11.9971 5.202C12.1774 5.48218 12.2475 5.80238 12.2175 6.12258L9.41268 5.49218ZM17.0257 13.0869C17.0257 14.6979 15.7134 16.0088 14.1007 16.0088H5.92671C4.31396 16.0088 3.00171 14.6979 3.00171 13.0869V11.0056H17.0257V13.0869Z" fill="black"/>
</g>
<defs>
<clipPath id="clip0_5_1723">
<rect width="16" height="16" fill="white" transform="translate(2 2)"/>
</clipPath>
</defs>
</svg>
