<svg width="20" height="20" viewBox="0 0 20 20" fill="none" xmlns="http://www.w3.org/2000/svg">
<g clip-path="url(#clip0_5_1729)">
<path opacity="0.15" d="M10.444 2.10391L10.3222 2.05329C10.0717 1.968 9.79552 1.98499 9.5562 2.10391L3.5551 5.10446C3.21527 5.27333 3.00028 5.62 3.00002 5.9992V13.1426C2.99743 13.5228 3.21058 13.8716 3.5487 14.042L9.54885 17.0421C9.83053 17.183 10.1622 17.183 10.444 17.042L16.4451 14.0414C16.7849 13.8726 16.9999 13.5259 17.0001 13.1467V5.99946C16.9999 5.61999 16.7849 5.27333 16.444 5.10391L10.444 2.10391Z" fill="black"/>
<path d="M10.8901 1.20894L16.8901 4.20894C17.5697 4.54667 17.9997 5.23999 18.0001 5.9992V13.147C17.9997 13.9059 17.5697 14.5992 16.8912 14.9364L10.8913 17.9363C10.328 18.2183 9.66469 18.2183 9.10146 17.9364L3.10008 14.9357C2.42109 14.5936 1.9948 13.8961 1.99999 13.1392V5.99891C2.00048 5.23997 2.43043 4.54666 3.10896 4.20949L9.11007 1.20894C9.6707 0.930354 10.3294 0.930354 10.8901 1.20894ZM10.444 2.10392L10.3222 2.0533C10.0717 1.96801 9.7955 1.985 9.55618 2.10392L3.55507 5.10447C3.21524 5.27333 3.00026 5.62001 3 5.9992V13.1427C2.9974 13.5228 3.21055 13.8716 3.54868 14.042L9.54882 17.0421C9.8305 17.183 10.1621 17.183 10.444 17.042L16.4451 14.0414C16.7849 13.8726 16.9999 13.5259 17.0001 13.1467V5.99947C16.9999 5.62 16.7849 5.27333 16.444 5.10392L10.444 2.10392Z" fill="black"/>
<path d="M10.0001 8.26018L2.96371 4.74198C2.71672 4.61849 2.41638 4.7186 2.29289 4.96559C2.16939 5.21258 2.2695 5.51292 2.51649 5.63641L9.77649 9.26641C9.91726 9.33679 10.0829 9.33679 10.2237 9.26641L17.4837 5.63641C17.7307 5.51292 17.8308 5.21258 17.7073 4.96559C17.5838 4.7186 17.2835 4.61849 17.0365 4.74198L10.0001 8.26018Z" fill="black"/>
<path d="M10.5001 17.6392V8.8192C10.5001 8.54306 10.2762 8.3192 10.0001 8.3192C9.72392 8.3192 9.50006 8.54306 9.50006 8.8192V17.6392C9.50006 17.9153 9.72392 18.1392 10.0001 18.1392C10.2762 18.1392 10.5001 17.9153 10.5001 17.6392Z" fill="black"/>
</g>
<defs>
<clipPath id="clip0_5_1729">
<rect width="16" height="18" fill="white" transform="translate(2 1)"/>
</clipPath>
</defs>
</svg>
