<svg width="20" height="20" viewBox="0 0 20 20" fill="none" xmlns="http://www.w3.org/2000/svg">
<g clip-path="url(#clip0_5_1721)">
<path opacity="0.15" d="M15.0045 15.7257L10.2997 17.4446C10.1099 17.5149 9.91013 17.5149 9.73033 17.4446L5.01556 15.7257V8.4181L9.78027 10.7401C9.85019 10.7702 9.92011 10.7903 10 10.7903C10.0799 10.7903 10.1499 10.7702 10.2198 10.7401L15.0045 8.40805V15.7257Z" fill="black"/>
<path opacity="0.1" d="M10 9.72483L2.64819 6.14641L10 2.56799L17.3519 6.14641L10 9.72483Z" fill="black"/>
<path d="M19 6.14642C19 5.95543 18.8901 5.7745 18.7203 5.69409L10.2198 1.55277C10.0799 1.48241 9.92009 1.48241 9.78024 1.55277L1.27969 5.69409C1.10988 5.7745 1 5.95543 1 6.14642C1 6.3374 1.10988 6.51833 1.27969 6.59874L4.01665 7.93562V16.0775C4.01665 16.2886 4.1465 16.4796 4.34628 16.55L9.39068 18.3894C9.59046 18.4598 9.81021 18.5 10.02 18.5C10.2297 18.5 10.4495 18.4598 10.6493 18.3894L15.6837 16.55C15.8835 16.4796 16.0133 16.2886 16.0133 16.0775V7.91552L17.8812 7.01086V14.037C17.8812 14.3185 18.101 14.5396 18.3807 14.5396C18.6604 14.5396 18.8801 14.3185 18.8801 14.037V6.45802C18.9501 6.36755 19 6.26704 19 6.14642ZM15.0044 15.7257L10.2997 17.4446C10.1099 17.5149 9.9101 17.5149 9.7303 17.4446L5.01554 15.7257V8.41811L9.78024 10.7401C9.85017 10.7702 9.92009 10.7903 10 10.7903C10.0799 10.7903 10.1498 10.7702 10.2198 10.7401L15.0044 8.40806V15.7257ZM10 9.72483L2.64817 6.14642L10 2.568L17.3518 6.14642L10 9.72483Z" fill="black"/>
</g>
<defs>
<clipPath id="clip0_5_1721">
<rect width="18" height="17" fill="white" transform="translate(1 1.5)"/>
</clipPath>
</defs>
</svg>
