<svg width="20" height="20" viewBox="0 0 20 20" fill="none" xmlns="http://www.w3.org/2000/svg">
<g clip-path="url(#clip0_5_1738)">
<path fill-rule="evenodd" clip-rule="evenodd" d="M16.4861 16H6.11808C5.87908 16 5.67308 15.831 5.62708 15.597L3.13708 3H2.48608C2.21008 3 1.98608 2.776 1.98608 2.5C1.98608 2.224 2.21008 2 2.48608 2H3.54808C3.78708 2 3.99208 2.169 4.03908 2.403L6.52808 15H16.4861C16.7621 15 16.9861 15.224 16.9861 15.5C16.9861 15.776 16.7621 16 16.4861 16Z" fill="black"/>
<path fill-rule="evenodd" clip-rule="evenodd" d="M6.3958 14.1729C6.1548 14.1729 5.9508 13.9819 5.9318 13.7299C5.9108 13.4649 6.1028 13.2329 6.3598 13.2119L15.2108 12.4859C15.4788 12.4619 15.6988 12.2489 15.7408 11.9679L16.5198 6.8509C16.5468 6.6699 16.4988 6.4929 16.3828 6.3529C16.2678 6.2139 16.1058 6.1359 15.9278 6.1359H4.9248C4.6678 6.1359 4.4588 5.9209 4.4588 5.6549C4.4588 5.3889 4.6678 5.1729 4.9248 5.1729H15.9278C16.3758 5.1729 16.7998 5.3749 17.0918 5.7269C17.3828 6.0789 17.5098 6.5429 17.4408 7.0009L16.6628 12.1169C16.5528 12.8369 15.9878 13.3829 15.2888 13.4459L6.4338 14.1719C6.4198 14.1729 6.4078 14.1729 6.3958 14.1729Z" fill="black"/>
<path fill-rule="evenodd" clip-rule="evenodd" d="M7.48608 16C7.21008 16 6.98608 16.224 6.98608 16.5C6.98608 16.776 7.21008 17 7.48608 17C7.76208 17 7.98608 16.776 7.98608 16.5C7.98608 16.224 7.76208 16 7.48608 16ZM7.48608 18C6.65908 18 5.98608 17.327 5.98608 16.5C5.98608 15.673 6.65908 15 7.48608 15C8.31308 15 8.98608 15.673 8.98608 16.5C8.98608 17.327 8.31308 18 7.48608 18Z" fill="black"/>
<path fill-rule="evenodd" clip-rule="evenodd" d="M15.4861 16C15.2101 16 14.9861 16.224 14.9861 16.5C14.9861 16.776 15.2101 17 15.4861 17C15.7621 17 15.9861 16.776 15.9861 16.5C15.9861 16.224 15.7621 16 15.4861 16ZM15.4861 18C14.6591 18 13.9861 17.327 13.9861 16.5C13.9861 15.673 14.6591 15 15.4861 15C16.3131 15 16.9861 15.673 16.9861 16.5C16.9861 17.327 16.3131 18 15.4861 18Z" fill="black"/>
<path opacity="0.1" d="M4.86047 6.23029L16.6697 5.9854L15.9861 12.4998L5.98607 13.51L4.86047 6.23029Z" fill="black"/>
</g>
<defs>
<clipPath id="clip0_5_1738">
<rect width="16" height="16" fill="white" transform="translate(2 2)"/>
</clipPath>
</defs>
</svg>
