<svg width="20" height="20" viewBox="0 0 20 20" fill="none" xmlns="http://www.w3.org/2000/svg">
<g clip-path="url(#clip0_5_1746)">
<path opacity="0.15" d="M10 18C5.59 18 2 14.41 2 10C2 5.59 5.59 2 10 2C14.41 2 18 5.59 18 10C18 14.41 14.41 18 10 18Z" fill="black"/>
<path d="M10 1C5.04 1 1 5.04 1 10C1 14.96 5.04 19 10 19C14.96 19 19 14.96 19 10C19 5.04 14.96 1 10 1ZM10 18C5.59 18 2 14.41 2 10C2 5.59 5.59 2 10 2C14.41 2 18 5.59 18 10C18 14.41 14.41 18 10 18Z" fill="black"/>
<path d="M13.41 4.73999L9.97001 8.27999L6.53001 4.73999C6.34001 4.53999 6.02001 4.53999 5.82001 4.72999C5.62001 4.91999 5.62001 5.23999 5.81001 5.43999L9.27001 9.00999H6.48001C6.20001 9.00999 5.98001 9.22999 5.98001 9.50999C5.98001 9.78999 6.20001 10.01 6.48001 10.01H9.46001V12.01H6.48001C6.20001 12.01 5.98001 12.23 5.98001 12.51C5.98001 12.79 6.20001 13.01 6.48001 13.01H9.46001V14.92C9.46001 15.2 9.68001 15.42 9.96001 15.42C10.24 15.42 10.46 15.2 10.46 14.92V13.01H13.48C13.76 13.01 13.98 12.79 13.98 12.51C13.98 12.23 13.76 12.01 13.48 12.01H10.46V10.01H13.48C13.76 10.01 13.98 9.78999 13.98 9.50999C13.98 9.22999 13.76 9.00999 13.48 9.00999H10.65L14.11 5.43999C14.3 5.23999 14.3 4.92999 14.1 4.72999C13.92 4.52999 13.6 4.53999 13.41 4.73999Z" fill="black"/>
</g>
<defs>
<clipPath id="clip0_5_1746">
<rect width="18" height="18" fill="white" transform="translate(1 1)"/>
</clipPath>
</defs>
</svg>
