<svg width="20" height="20" viewBox="0 0 20 20" fill="none" xmlns="http://www.w3.org/2000/svg">
<path opacity="0.15" d="M14.5 16.5H5.5C4.4 16.5 3.5 15.6 3.5 14.5V5.5C3.5 4.4 4.4 3.5 5.5 3.5H14.5C15.6 3.5 16.5 4.4 16.5 5.5V14.5C16.5 15.6 15.6 16.5 14.5 16.5Z" fill="black"/>
<path d="M14.5 16.5H5.5C4.4 16.5 3.5 15.6 3.5 14.5V5.5C3.5 4.4 4.4 3.5 5.5 3.5H14.5C15.6 3.5 16.5 4.4 16.5 5.5V14.5C16.5 15.6 15.6 16.5 14.5 16.5Z" stroke="black" stroke-linecap="round" stroke-linejoin="round"/>
<path d="M10 8.8V12.2" stroke="black" stroke-linecap="round" stroke-linejoin="round"/>
<path d="M8.29994 11.2H11.6999C11.9999 11.2 12.1999 11.6 11.9999 11.9L10.2999 13.9C10.0999 14.1 9.89994 14.1 9.69994 13.9L7.99994 11.9C7.79994 11.6 7.99994 11.2 8.29994 11.2Z" fill="black"/>
<path d="M3.5 6.7H16.5" stroke="black" stroke-linecap="round" stroke-linejoin="round"/>
</svg>
