<svg width="20" height="20" viewBox="0 0 20 20" fill="none" xmlns="http://www.w3.org/2000/svg">
<path opacity="0.15" d="M10 16.5C13.5899 16.5 16.5 13.5899 16.5 10C16.5 6.41015 13.5899 3.5 10 3.5C6.41015 3.5 3.5 6.41015 3.5 10C3.5 13.5899 6.41015 16.5 10 16.5Z" fill="black"/>
<path d="M9.5 7.5V10.5" stroke="black" stroke-miterlimit="10" stroke-linecap="round"/>
<path d="M12.5 10.5H9.5" stroke="black" stroke-miterlimit="10" stroke-linecap="round"/>
<path d="M10 16.5C13.5899 16.5 16.5 13.5899 16.5 10C16.5 6.41015 13.5899 3.5 10 3.5C6.41015 3.5 3.5 6.41015 3.5 10C3.5 13.5899 6.41015 16.5 10 16.5Z" stroke="black" stroke-miterlimit="10" stroke-linecap="round"/>
</svg>
