<svg width="20" height="20" viewBox="0 0 20 20" fill="none" xmlns="http://www.w3.org/2000/svg">
<g clip-path="url(#clip0_5_1734)">
<path opacity="0.15" d="M16.157 2H3.843C2.827 2 2 2.827 2 3.843V5V6V16.157C2 17.173 2.827 18 3.843 18H16.157C17.173 18 18 17.173 18 16.157V3.843C18 2.827 17.173 2 16.157 2Z" fill="black"/>
<path d="M3 3.8252V16.1722C3 16.6272 3.373 17.0002 3.829 17.0002H16.174C16.63 17.0002 17 16.6302 17 16.1742V3.8282C17 3.3732 16.627 3.0002 16.171 3.0002H3.825C3.37 3.0002 3 3.3692 3 3.8252ZM16.136 18.0002H3.857C2.832 18.0002 2 17.1682 2 16.1422V3.8642C2 2.8392 2.839 2.0002 3.864 2.0002H16.142C17.168 2.0002 18 2.8322 18 3.8582V16.1362C18 17.1612 17.161 18.0002 16.136 18.0002Z" fill="black"/>
<mask id="mask0_5_1734" style="mask-type:alpha" maskUnits="userSpaceOnUse" x="0" y="0" width="20" height="20">
<path d="M0 20H20V0H0V20Z" fill="white"/>
</mask>
<g mask="url(#mask0_5_1734)">
<path d="M2 6H18V5H2V6Z" fill="black"/>
</g>
<path d="M7.29352 14.1523C6.79252 14.1523 6.33852 14.0403 5.94352 13.8203L5.89952 13.7953L5.85052 13.7123L6.02552 12.8433L6.23852 12.9423C6.66252 13.0963 7.00652 13.1703 7.31852 13.1703C7.62652 13.1703 7.89253 13.0743 8.10553 12.8833C8.31353 12.7043 8.41852 12.4653 8.41852 12.1743C8.41852 11.8933 8.30653 11.6623 8.08553 11.4863C7.85053 11.3013 7.52852 11.2083 7.13052 11.2083L6.78952 11.2063V11.0463L6.75252 10.2623H6.82552C7.37252 10.2623 7.69952 10.1773 7.95052 9.9963C8.17452 9.8323 8.28953 9.6093 8.28953 9.3343C8.28953 9.1163 8.21252 8.9473 8.06152 8.8303C7.89652 8.7003 7.65752 8.6343 7.35152 8.6343C7.07652 8.6343 6.75952 8.7123 6.40952 8.8663L6.20852 8.9493L6.15752 8.6223L6.02752 8.0183L6.13952 7.9623C6.54352 7.7543 6.95152 7.6523 7.38452 7.6523C7.95452 7.6523 8.43252 7.8063 8.80652 8.1103C9.19252 8.4253 9.38853 8.8343 9.38853 9.3263C9.38853 9.6693 9.27052 9.9923 9.03552 10.2873C8.93952 10.4063 8.83452 10.5093 8.72152 10.5933L8.61552 10.6733L8.72852 10.7433C8.88652 10.8393 9.02752 10.9633 9.14852 11.1123C9.39352 11.4123 9.51752 11.7543 9.51752 12.1283C9.51752 12.7013 9.29252 13.1893 8.84652 13.5773C8.40952 13.9593 7.88652 14.1523 7.29352 14.1523Z" fill="black"/>
<path d="M12.0747 14.1523L11.9787 8.9443L10.8257 9.5663V9.0703L10.7947 8.5283L12.1737 7.7553L12.9417 7.7303L13.0427 14.1523H12.0747Z" fill="black"/>
</g>
<defs>
<clipPath id="clip0_5_1734">
<rect width="16" height="16" fill="white" transform="translate(2 2)"/>
</clipPath>
</defs>
</svg>
