<svg width="20" height="20" viewBox="0 0 20 20" fill="none" xmlns="http://www.w3.org/2000/svg">
<g clip-path="url(#clip0_5_1742)">
<path opacity="0.15" d="M4.14979 15.0237H14.2108C14.2418 15.0147 14.2738 15.0077 14.3058 15.0037C15.2988 14.9007 16.2118 14.3687 16.8088 13.5447C17.4738 12.6297 17.6758 11.4527 17.3618 10.3157C17.0368 9.1347 16.1108 8.19971 14.9458 7.87571C14.2998 7.69571 13.6608 7.68571 13.0458 7.84871C12.7758 7.91871 12.4988 7.77371 12.4158 7.52171C11.9688 6.14771 10.7708 5.15471 9.36079 4.99471C8.21979 4.86371 7.04279 5.40071 6.19779 6.42671C5.47679 7.30071 5.20879 8.13971 5.32879 9.14571C5.34679 9.30171 5.28479 9.45571 5.16279 9.56171C5.03979 9.66671 4.87079 9.71071 4.71079 9.67771C4.17479 9.57071 3.64379 9.63371 3.12979 9.86371C2.40379 10.1907 1.85479 10.8347 1.66179 11.5857C1.43779 12.4547 1.61579 13.3397 2.14879 14.0157C2.62479 14.6177 3.33079 14.9827 4.08679 15.0177C4.10779 15.0187 4.12879 15.0207 4.14979 15.0237Z" fill="black"/>
<path fill-rule="evenodd" clip-rule="evenodd" d="M4.14979 15.0237H14.2108C14.2418 15.0147 14.2738 15.0077 14.3058 15.0037C15.2988 14.9007 16.2118 14.3687 16.8088 13.5447C17.4738 12.6297 17.6758 11.4527 17.3618 10.3157C17.0368 9.1347 16.1108 8.1997 14.9458 7.8757C14.2998 7.6957 13.6608 7.6857 13.0458 7.8487C12.7758 7.9187 12.4988 7.7737 12.4158 7.5217C11.9688 6.1477 10.7708 5.1547 9.36079 4.9947C8.21979 4.8637 7.04279 5.4007 6.19779 6.4267C5.47679 7.3007 5.20879 8.1397 5.32879 9.1457C5.34679 9.3017 5.28479 9.4557 5.16279 9.5617C5.03979 9.6667 4.87079 9.7107 4.71079 9.6777C4.17479 9.5707 3.64379 9.6337 3.12979 9.8637C2.40379 10.1907 1.85479 10.8347 1.66179 11.5857C1.43779 12.4547 1.61579 13.3397 2.14879 14.0157C2.62479 14.6177 3.33079 14.9827 4.08679 15.0177C4.10779 15.0187 4.12879 15.0207 4.14979 15.0237ZM14.3618 15.9997H4.06179C4.02079 15.9997 3.98079 15.9947 3.94179 15.9867C2.91479 15.9137 1.96479 15.4117 1.32379 14.5997C0.606786 13.6907 0.363786 12.5077 0.660786 11.3557C0.926786 10.3207 1.68479 9.4337 2.68879 8.9817C3.20279 8.7517 3.72079 8.6397 4.27079 8.6507C4.28079 7.6377 4.64379 6.7277 5.38579 5.8257C6.45579 4.5277 7.99079 3.8567 9.48379 4.0247C11.1468 4.2147 12.5778 5.2907 13.2398 6.8117C13.8948 6.7107 14.5768 6.7547 15.2348 6.9387H15.2358C16.7458 7.3597 17.9428 8.5587 18.3588 10.0687C18.7478 11.4807 18.4928 12.9487 17.6578 14.0987C16.9198 15.1157 15.7988 15.7867 14.5658 15.9567C14.5038 15.9837 14.4348 15.9997 14.3618 15.9997Z" fill="black"/>
</g>
<defs>
<clipPath id="clip0_5_1742">
<rect width="19" height="12" fill="white" transform="translate(0.5 4)"/>
</clipPath>
</defs>
</svg>
