<svg width="20" height="20" viewBox="0 0 20 20" fill="none" xmlns="http://www.w3.org/2000/svg">
<g clip-path="url(#clip0_5_1736)">
<path opacity="0.15" d="M2.9512 6C2.4282 6 2.0022 6.436 2.0022 6.972V16.028C2.0022 16.564 2.4282 17 2.9512 17H17.0532C17.5762 17 18.0022 16.564 18.0022 16.028V6.972C18.0022 6.436 17.5762 6 17.0532 6H13.5022C13.2252 6 13.0022 5.776 13.0022 5.5V3.861C13.0022 3.386 12.6162 3 12.1412 3H7.8632C7.3882 3 7.0022 3.386 7.0022 3.861V5.5C7.0022 5.776 6.7782 6 6.5022 6H2.9512Z" fill="black"/>
<path fill-rule="evenodd" clip-rule="evenodd" d="M13.502 11C13.502 12.933 11.935 14.5 10.002 14.5C8.06901 14.5 6.50201 12.933 6.50201 11C6.50201 9.067 8.06901 7.5 10.002 7.5C11.935 7.5 13.502 9.067 13.502 11Z" stroke="black"/>
<path fill-rule="evenodd" clip-rule="evenodd" d="M2.9512 6C2.4282 6 2.0022 6.436 2.0022 6.972V16.028C2.0022 16.564 2.4282 17 2.9512 17H17.0532C17.5762 17 18.0022 16.564 18.0022 16.028V6.972C18.0022 6.436 17.5762 6 17.0532 6H13.5022C13.2252 6 13.0022 5.776 13.0022 5.5V3.861C13.0022 3.386 12.6162 3 12.1412 3H7.8632C7.3882 3 7.0022 3.386 7.0022 3.861V5.5C7.0022 5.776 6.7782 6 6.5022 6H2.9512ZM17.0532 18H2.9512C1.8762 18 1.0022 17.115 1.0022 16.028V6.972C1.0022 5.885 1.8762 5 2.9512 5H6.0022V3.861C6.0022 2.835 6.8372 2 7.8632 2H12.1412C13.1672 2 14.0022 2.835 14.0022 3.861V5H17.0532C18.1272 5 19.0022 5.885 19.0022 6.972V16.028C19.0022 17.115 18.1272 18 17.0532 18Z" fill="black"/>
<path fill-rule="evenodd" clip-rule="evenodd" d="M5.50879 8H3.50879C3.23279 8 3.00879 7.776 3.00879 7.5C3.00879 7.224 3.23279 7 3.50879 7H5.50879C5.78479 7 6.00879 7.224 6.00879 7.5C6.00879 7.776 5.78479 8 5.50879 8Z" fill="black"/>
</g>
<defs>
<clipPath id="clip0_5_1736">
<rect width="18" height="16" fill="white" transform="translate(1 2)"/>
</clipPath>
</defs>
</svg>
