<svg width="20" height="20" viewBox="0 0 20 20" fill="none" xmlns="http://www.w3.org/2000/svg">
<g clip-path="url(#clip0_5_1752)">
<path opacity="0.15" d="M5.55001 10.0125C5.73001 10.2325 6.00001 10.3525 6.28001 10.3325C6.56001 10.3125 6.81001 10.1425 6.95001 9.8925L10.01 4.1525L13.07 9.8925C13.2 10.1425 13.45 10.3125 13.74 10.3325C14.03 10.3525 14.3 10.2425 14.47 10.0125L17.01 6.7725V13.6625H3.01001V6.7725L5.55001 10.0125Z" fill="black"/>
<path opacity="0.15" d="M16.16 15.6625H3.84C3.38 15.6625 3 15.2825 3 14.8225V14.6625H17V14.8225C17 15.2825 16.63 15.6625 16.16 15.6625Z" fill="black"/>
<path d="M17.44 5.5125C17.1 5.3925 16.73 5.5025 16.5 5.7825L13.82 9.1925L10.74 3.4125C10.45 2.8625 9.55 2.8625 9.26 3.4125L6.18 9.1925L3.5 5.7825C3.28 5.4925 2.91 5.3925 2.56 5.5125C2.22 5.6325 2 5.9425 2 6.3025V14.8125C2 15.8225 2.83 16.6525 3.84 16.6525H16.16C17.17 16.6525 18 15.8225 18 14.8125V6.3025C18 5.9525 17.78 5.6325 17.44 5.5125ZM5.55 10.0125C5.73 10.2325 6 10.3525 6.28 10.3325C6.56 10.3125 6.81 10.1425 6.95 9.8925L10.01 4.1525L13.07 9.8925C13.2 10.1425 13.45 10.3125 13.74 10.3325C14.03 10.3525 14.3 10.2425 14.47 10.0125L17.01 6.7725V13.6625H3.01V6.7725L5.55 10.0125ZM16.16 15.6625H3.84C3.38 15.6625 3 15.2825 3 14.8225V14.6625H17V14.8225C17 15.2825 16.63 15.6625 16.16 15.6625Z" fill="black"/>
</g>
<defs>
<clipPath id="clip0_5_1752">
<rect width="16" height="14" fill="white" transform="translate(2 3)"/>
</clipPath>
</defs>
</svg>
