<svg width="20" height="20" viewBox="0 0 20 20" fill="none" xmlns="http://www.w3.org/2000/svg">
<g clip-path="url(#clip0_5_1747)">
<path opacity="0.15" d="M10 18C5.59 18 2 14.41 2 10C2 5.59 5.59 2 10 2C14.41 2 18 5.59 18 10C18 14.41 14.41 18 10 18Z" fill="black"/>
<path d="M10 1C5.04 1 1 5.04 1 10C1 14.96 5.04 19 10 19C14.96 19 19 14.96 19 10C19 5.04 14.97 1 10 1ZM10 18C5.59 18 2 14.41 2 10C2 5.59 5.59 2 10 2C14.41 2 18 5.59 18 10C18 14.41 14.41 18 10 18Z" fill="black"/>
<path d="M10.36 4.69C10.17 4.5 9.83999 4.5 9.64999 4.69L4.69999 9.64C4.49999 9.84 4.49999 10.15 4.69999 10.35L9.64999 15.3C9.73999 15.39 9.86999 15.45 9.99999 15.45C10.13 15.45 10.26 15.4 10.35 15.3L15.3 10.35C15.39 10.26 15.45 10.13 15.45 10C15.45 9.87 15.4 9.74 15.3 9.65L10.36 4.69ZM9.99999 14.24L5.75999 10L9.99999 5.76L14.24 10L9.99999 14.24Z" fill="black"/>
</g>
<defs>
<clipPath id="clip0_5_1747">
<rect width="18" height="18" fill="white" transform="translate(1 1)"/>
</clipPath>
</defs>
</svg>
