<svg width="20" height="20" viewBox="0 0 20 20" fill="none" xmlns="http://www.w3.org/2000/svg">
<g clip-path="url(#clip0_5_1745)">
<path opacity="0.15" d="M10 18C5.59 18 2 14.41 2 10C2 5.59 5.59 2 10 2C14.41 2 18 5.59 18 10C18 14.41 14.41 18 10 18Z" fill="black"/>
<path d="M10 1C5.04 1 1 5.04 1 10C1 14.96 5.04 19 10 19C14.96 19 19 14.96 19 10C19 5.04 14.96 1 10 1ZM10 18C5.59 18 2 14.41 2 10C2 5.59 5.59 2 10 2C14.41 2 18 5.59 18 10C18 14.41 14.41 18 10 18Z" fill="black"/>
<path d="M10.5 9.4V5.98C12.28 6.34 12.48 7.71 12.49 7.79C12.52 8.06 12.76 8.26 13.04 8.24C13.31 8.21 13.52 7.97 13.49 7.69C13.41 6.86 12.66 5.31 10.5 4.97V4.3C10.5 4.02 10.28 3.8 10 3.8C9.72 3.8 9.5 4.02 9.5 4.3V4.92C8.53 4.97 7.72 5.34 7.19 6.02C6.37 7.06 6.32 8.35 7.08 9.22C7.73 9.97 8.63 10.16 9.51 10.28V14C8.88 13.91 8.3 13.69 7.87 13.33C7.42 12.95 7.13 12.37 7.09 11.78C7.07 11.51 6.86 11.3 6.56 11.31C6.28 11.33 6.07 11.56 6.09 11.84C6.14 12.7 6.55 13.52 7.22 14.08C7.83 14.6 8.64 14.91 9.51 15.01V15.65C9.51 15.93 9.73 16.15 10.01 16.15C10.29 16.15 10.51 15.93 10.51 15.65V15.01C10.66 15 10.81 15 10.95 14.97C12.14 14.74 13.08 14.1 13.58 13.17C13.99 12.41 14.04 11.72 13.72 11.11C13.17 10.06 11.66 9.6 10.5 9.4ZM7.83 8.55C7.3 7.94 7.58 7.13 7.97 6.63C8.39 6.1 9 5.93 9.5 5.89V9.25C8.84 9.16 8.23 9.02 7.83 8.55ZM12.69 12.69C12.33 13.36 11.65 13.81 10.76 13.98C10.68 14 10.59 13.99 10.51 14V10.41C11.72 10.64 12.57 11.05 12.83 11.56C12.98 11.87 12.94 12.24 12.69 12.69Z" fill="black"/>
</g>
<defs>
<clipPath id="clip0_5_1745">
<rect width="18" height="18" fill="white" transform="translate(1 1)"/>
</clipPath>
</defs>
</svg>
