<svg width="20" height="20" viewBox="0 0 20 20" fill="none" xmlns="http://www.w3.org/2000/svg">
<g clip-path="url(#clip0_5_1735)">
<path opacity="0.15" d="M16.1549 1.9998H3.84089C2.82489 1.9998 1.99789 2.8268 1.99789 3.8428V4.9998V5.9998V16.1568C1.99789 17.1728 2.82489 17.9998 3.84089 17.9998H16.1549C17.1709 17.9998 17.9979 17.1728 17.9979 16.1568V3.8428C17.9979 2.8268 17.1709 1.9998 16.1549 1.9998Z" fill="black"/>
<path fill-rule="evenodd" clip-rule="evenodd" d="M16.9979 4.9998H2.99789V3.8428C2.99789 3.3778 3.37589 2.9998 3.84089 2.9998H16.1549C16.6199 2.9998 16.9979 3.3778 16.9979 3.8428V4.9998ZM16.9979 16.1568C16.9979 16.6218 16.6199 16.9998 16.1549 16.9998H3.84089C3.37589 16.9998 2.99789 16.6218 2.99789 16.1568V5.9998H16.9979V16.1568ZM16.1549 1.9998H3.84089C2.82489 1.9998 1.99789 2.8268 1.99789 3.8428V4.9998V5.9998V16.1568C1.99789 17.1728 2.82489 17.9998 3.84089 17.9998H16.1549C17.1709 17.9998 17.9979 17.1728 17.9979 16.1568V3.8428C17.9979 2.8268 17.1709 1.9998 16.1549 1.9998Z" fill="black"/>
<path fill-rule="evenodd" clip-rule="evenodd" d="M9.22789 14.9998H7.91689L10.7959 8.9998H6.99789V7.9998H11.9979L11.9489 9.3128L9.22789 14.9998Z" fill="black"/>
</g>
<defs>
<clipPath id="clip0_5_1735">
<rect width="16" height="16" fill="white" transform="translate(2 2)"/>
</clipPath>
</defs>
</svg>
