<svg width="20" height="20" viewBox="0 0 20 20" fill="none" xmlns="http://www.w3.org/2000/svg">
<g clip-path="url(#clip0_5_1748)">
<path opacity="0.15" d="M10 18C5.59 18 2 14.41 2 10C2 5.59 5.59 2 10 2C14.41 2 18 5.59 18 10C18 14.41 14.41 18 10 18Z" fill="black"/>
<path d="M10 1C5.04 1 1 5.04 1 10C1 14.96 5.04 19 10 19C14.96 19 19 14.96 19 10C19 5.04 14.97 1 10 1ZM10 18C5.59 18 2 14.41 2 10C2 5.59 5.59 2 10 2C14.41 2 18 5.59 18 10C18 14.41 14.41 18 10 18Z" fill="black"/>
<path d="M12.92 14.06C12.08 14.34 11.2 14.48 10.31 14.48C8.77001 14.48 7.49001 13.42 7.12001 12H11.5C11.78 12 12 11.78 12 11.5C12 11.22 11.78 11 11.5 11H7.00001V8.99999H11.5C11.78 8.99999 12 8.77999 12 8.49999C12 8.21999 11.78 7.99999 11.5 7.99999H7.12001C7.49001 6.57999 8.77001 5.51999 10.31 5.51999C11.2 5.51999 12.08 5.65999 12.99 5.95999L13.15 5.47999L13.23 4.97999C12.28 4.66999 11.3 4.50999 10.31 4.50999C8.22001 4.50999 6.47001 6.00999 6.09001 7.98999H5.51001C5.23001 7.98999 5.01001 8.20999 5.01001 8.48999C5.01001 8.76999 5.23001 8.98999 5.51001 8.98999H6.01001V10.99H5.51001C5.23001 10.99 5.01001 11.21 5.01001 11.49C5.01001 11.77 5.23001 11.99 5.51001 11.99H6.09001C6.47001 13.97 8.22001 15.47 10.31 15.47C11.31 15.47 12.29 15.31 13.23 15L13.3 14.98C13.56 14.89 13.67 14.62 13.58 14.36C13.49 14.1 13.18 13.98 12.92 14.06Z" fill="black"/>
</g>
<defs>
<clipPath id="clip0_5_1748">
<rect width="18" height="18" fill="white" transform="translate(1 1)"/>
</clipPath>
</defs>
</svg>
