<svg width="20" height="20" viewBox="0 0 20 20" fill="none" xmlns="http://www.w3.org/2000/svg">
<g clip-path="url(#clip0_5_1751)">
<path opacity="0.15" d="M14.1818 4.31818H5.81818C4.98975 4.31818 4.31818 4.98975 4.31818 5.81818V14.1818C4.31818 15.0102 4.98975 15.6818 5.81818 15.6818H14.1818C15.0102 15.6818 15.6818 15.0102 15.6818 14.1818V5.81818C15.6818 4.98975 15.0102 4.31818 14.1818 4.31818Z" fill="black"/>
<path d="M14.1818 3.31818C15.5625 3.31818 16.6818 4.43746 16.6818 5.81818V14.1818C16.6818 15.5625 15.5625 16.6818 14.1818 16.6818H5.81818C4.43746 16.6818 3.31818 15.5625 3.31818 14.1818V5.81818C3.31818 4.43746 4.43746 3.31818 5.81818 3.31818H14.1818ZM14.1818 4.31818H5.81818C4.98975 4.31818 4.31818 4.98975 4.31818 5.81818V14.1818C4.31818 15.0102 4.98975 15.6818 5.81818 15.6818H14.1818C15.0102 15.6818 15.6818 15.0102 15.6818 14.1818V5.81818C15.6818 4.98975 15.0102 4.31818 14.1818 4.31818Z" fill="black"/>
<path d="M12.3182 7.18182C12.5943 7.18182 12.8182 7.40568 12.8182 7.68182V12.3182C12.8182 12.5943 12.5943 12.8182 12.3182 12.8182H7.68182C7.40568 12.8182 7.18182 12.5943 7.18182 12.3182V7.68182C7.18182 7.40568 7.40568 7.18182 7.68182 7.18182H12.3182ZM8.18182 8.18182V11.8182H11.8182V8.18182H8.18182Z" fill="black"/>
<path d="M7.18182 1.5V3.81818C7.18182 4.09432 7.40568 4.31818 7.68182 4.31818C7.95797 4.31818 8.18182 4.09432 8.18182 3.81818V1.5C8.18182 1.22386 7.95797 1 7.68182 1C7.40568 1 7.18182 1.22386 7.18182 1.5Z" fill="black"/>
<path d="M11.8182 1.5V3.81818C11.8182 4.09432 12.042 4.31818 12.3182 4.31818C12.5943 4.31818 12.8182 4.09432 12.8182 3.81818V1.5C12.8182 1.22386 12.5943 1 12.3182 1C12.042 1 11.8182 1.22386 11.8182 1.5Z" fill="black"/>
<path d="M7.18182 16.1818V18.5C7.18182 18.7761 7.40568 19 7.68182 19C7.95797 19 8.18182 18.7761 8.18182 18.5V16.1818C8.18182 15.9057 7.95797 15.6818 7.68182 15.6818C7.40568 15.6818 7.18182 15.9057 7.18182 16.1818Z" fill="black"/>
<path d="M11.8182 16.1818V18.5C11.8182 18.7761 12.042 19 12.3182 19C12.5943 19 12.8182 18.7761 12.8182 18.5V16.1818C12.8182 15.9057 12.5943 15.6818 12.3182 15.6818C12.042 15.6818 11.8182 15.9057 11.8182 16.1818Z" fill="black"/>
<path d="M16.1818 8.18182H18.5C18.7761 8.18182 19 7.95797 19 7.68182C19 7.40568 18.7761 7.18182 18.5 7.18182H16.1818C15.9057 7.18182 15.6818 7.40568 15.6818 7.68182C15.6818 7.95797 15.9057 8.18182 16.1818 8.18182Z" fill="black"/>
<path d="M16.1818 12.0455H18.5C18.7761 12.0455 19 11.8216 19 11.5455C19 11.2693 18.7761 11.0455 18.5 11.0455H16.1818C15.9057 11.0455 15.6818 11.2693 15.6818 11.5455C15.6818 11.8216 15.9057 12.0455 16.1818 12.0455Z" fill="black"/>
<path d="M1.5 8.18182H3.81818C4.09432 8.18182 4.31818 7.95797 4.31818 7.68182C4.31818 7.40568 4.09432 7.18182 3.81818 7.18182H1.5C1.22386 7.18182 1 7.40568 1 7.68182C1 7.95797 1.22386 8.18182 1.5 8.18182Z" fill="black"/>
<path d="M1.5 12.0455H3.81818C4.09432 12.0455 4.31818 11.8216 4.31818 11.5455C4.31818 11.2693 4.09432 11.0455 3.81818 11.0455H1.5C1.22386 11.0455 1 11.2693 1 11.5455C1 11.8216 1.22386 12.0455 1.5 12.0455Z" fill="black"/>
</g>
<defs>
<clipPath id="clip0_5_1751">
<rect width="18" height="18" fill="white" transform="translate(1 1)"/>
</clipPath>
</defs>
</svg>
