<svg width="20" height="20" viewBox="0 0 20 20" fill="none" xmlns="http://www.w3.org/2000/svg">
<g clip-path="url(#clip0_5_1740)">
<path opacity="0.15" d="M10 3C6.13401 3 3 6.13401 3 10C3 13.866 6.13401 17 10 17C13.866 17 17 13.866 17 10C17 6.13401 13.866 3 10 3Z" fill="black"/>
<path d="M10 2C14.4183 2 18 5.58172 18 10C18 14.4183 14.4183 18 10 18C5.58172 18 2 14.4183 2 10C2 5.58172 5.58172 2 10 2ZM10 3C6.13401 3 3 6.13401 3 10C3 13.866 6.13401 17 10 17C13.866 17 17 13.866 17 10C17 6.13401 13.866 3 10 3Z" fill="black"/>
<path d="M10 6.5C11.933 6.5 13.5 8.067 13.5 10C13.5 11.933 11.933 13.5 10 13.5C8.067 13.5 6.5 11.933 6.5 10C6.5 8.067 8.067 6.5 10 6.5ZM10 7.5C8.61929 7.5 7.5 8.61929 7.5 10C7.5 11.3807 8.61929 12.5 10 12.5C11.3807 12.5 12.5 11.3807 12.5 10C12.5 8.61929 11.3807 7.5 10 7.5Z" fill="black"/>
<path d="M16.8775 6.5H10C9.72386 6.5 9.5 6.72386 9.5 7C9.5 7.27614 9.72386 7.5 10 7.5H16.8775C17.1536 7.5 17.3775 7.27614 17.3775 7C17.3775 6.72386 17.1536 6.5 16.8775 6.5Z" fill="black"/>
<path d="M3.52961 5.79524L6.97211 11.7502C7.11031 11.9893 7.41615 12.0711 7.65522 11.9329C7.89429 11.7947 7.97606 11.4888 7.83786 11.2498L4.39536 5.29477C4.25716 5.0557 3.95132 4.97393 3.71225 5.11213C3.47318 5.25033 3.39141 5.55617 3.52961 5.79524Z" fill="black"/>
<path d="M9.59311 17.7048L13.0281 11.7498C13.1661 11.5106 13.084 11.2049 12.8448 11.0669C12.6056 10.9289 12.2999 11.011 12.1619 11.2502L8.72688 17.2052C8.58891 17.4444 8.67097 17.7501 8.91017 17.8881C9.14937 18.0261 9.45513 17.944 9.59311 17.7048Z" fill="black"/>
</g>
<defs>
<clipPath id="clip0_5_1740">
<rect width="16" height="16" fill="white" transform="translate(2 2)"/>
</clipPath>
</defs>
</svg>
