<svg width="20" height="20" viewBox="0 0 20 20" fill="none" xmlns="http://www.w3.org/2000/svg">
<g clip-path="url(#clip0_5_1744)">
<path opacity="0.1" d="M16.28 15.0222L15.02 16.2815L12.87 15.2621L11.68 15.7518L10.89 17.9806H9.09001L8.30001 15.7518L7.11001 15.2621L4.98001 16.2715L3.70001 14.9922L4.71001 12.8634L4.22001 11.6741L2.01001 10.8845V9.07552L4.22001 8.28596L4.71001 7.09662L3.70001 4.9678L4.98001 3.68851L7.11001 4.69795L8.30001 4.20822L9.09001 1.97946H10.89L11.68 4.20822L12.87 4.69795L15.02 3.67852L16.28 4.93782L15.26 7.08662L15.75 8.27596L18 9.07552V10.8545L15.75 11.6541L15.26 12.8434L16.28 15.0222Z" fill="black"/>
<path d="M19 11.5941V8.39589L16.5 7.50639L16.35 7.13659L17.49 4.74792L15.23 2.48917L12.84 3.62854L12.47 3.47862L11.59 1H8.38L7.5 3.47862L7.13 3.62854L4.77 2.50916L2.49 4.7879L3.61 7.14659L3.46 7.51638L1 8.3859V11.6141L3.46 12.4836L3.61 12.8534L2.49 15.2121L4.77 17.4908L7.13 16.3715L7.5 16.5214L8.38 19H11.59L12.47 16.5214L12.84 16.3715L15.23 17.5108L17.49 15.2521L16.35 12.8634L16.5 12.4936L19 11.5941ZM16.28 15.0222L15.02 16.2815L12.87 15.2621L11.68 15.7518L10.89 17.9806H9.09L8.3 15.7518L7.11 15.2621L4.98 16.2715L3.7 14.9922L4.71 12.8634L4.22 11.6741L2.01 10.8845V9.07551L4.22 8.28595L4.71 7.09661L3.7 4.9678L4.98 3.68851L7.11 4.69795L8.3 4.20822L9.09 1.97946H10.89L11.68 4.20822L12.87 4.69795L15.02 3.67851L16.28 4.93781L15.26 7.08662L15.75 8.27596L18 9.07551V10.8545L15.75 11.6541L15.26 12.8434L16.28 15.0222Z" fill="black"/>
<path d="M10 7C8.35 7 7 8.35 7 10C7 11.65 8.35 13 10 13C11.65 13 13 11.65 13 10C13 8.35 11.66 7 10 7ZM10 12C8.9 12 8 11.1 8 10C8 8.9 8.9 8 10 8C11.1 8 12 8.9 12 10C12 11.1 11.11 12 10 12Z" fill="black"/>
</g>
<defs>
<clipPath id="clip0_5_1744">
<rect width="18" height="18" fill="white" transform="translate(1 1)"/>
</clipPath>
</defs>
</svg>
