<svg width="20" height="20" viewBox="0 0 20 20" fill="none" xmlns="http://www.w3.org/2000/svg">
<g clip-path="url(#clip0_5_1750)">
<path opacity="0.15" d="M10.53 13.7L17.36 6.87C17.52 7.25 17.65 7.65 17.75 8.05L10.53 15.27V13.7Z" fill="black"/>
<path opacity="0.15" d="M10.53 12.28V10.71L16.23 5.00999C16.47 5.29999 16.68 5.61999 16.87 5.93999L10.53 12.28Z" fill="black"/>
<path opacity="0.15" d="M10.53 9.29V7.72L14.7 3.55C15 3.77 15.29 4.01 15.56 4.27L10.53 9.29Z" fill="black"/>
<path opacity="0.15" d="M10.53 6.30999V4.73999L12.76 2.50999C13.13 2.64999 13.5 2.80999 13.84 2.99999L10.53 6.30999Z" fill="black"/>
<path opacity="0.15" d="M10.53 3.32V2.03C10.92 2.06 11.3 2.1 11.67 2.18L10.53 3.32Z" fill="black"/>
<path opacity="0.15" d="M10.53 16.68L17.96 9.25C17.98 9.49 18 9.74 18 9.99C18 10.27 17.98 10.55 17.95 10.83L10.87 17.91L10.9 17.94C10.78 17.95 10.66 17.96 10.53 17.97V16.68Z" fill="black"/>
<path opacity="0.15" d="M2 10C2 5.75 5.34 2.27 9.54 2.02V17.97C5.34 17.73 2 14.25 2 10Z" fill="black"/>
<path opacity="0.15" d="M12.68 17.53L17.53 12.68C16.72 14.93 14.93 16.72 12.68 17.53Z" fill="black"/>
<path d="M10 1C5.04 1 1 5.04 1 10C1 14.96 5.04 19 10 19C14.96 19 19 14.96 19 10C19 5.04 14.96 1 10 1ZM10.53 13.7L17.36 6.87C17.52 7.25 17.65 7.65 17.75 8.05L10.53 15.27V13.7ZM10.53 12.28V10.71L16.23 5.01C16.47 5.3 16.68 5.62 16.87 5.94L10.53 12.28ZM10.53 9.29V7.72L14.7 3.55C15 3.77 15.29 4.01 15.56 4.27L10.53 9.29ZM10.53 6.31V4.74L12.76 2.51C13.13 2.65 13.5 2.81 13.84 3L10.53 6.31ZM10.53 3.32V2.03C10.92 2.06 11.3 2.1 11.67 2.18L10.53 3.32ZM10.53 16.68L17.96 9.25C17.98 9.49 18 9.74 18 9.99C18 10.27 17.98 10.55 17.95 10.83L10.87 17.91L10.9 17.94C10.78 17.95 10.66 17.96 10.53 17.97V16.68ZM2 10C2 5.75 5.34 2.27 9.54 2.02V17.97C5.34 17.73 2 14.25 2 10ZM12.68 17.53L17.53 12.68C16.72 14.93 14.93 16.72 12.68 17.53Z" fill="black"/>
</g>
<defs>
<clipPath id="clip0_5_1750">
<rect width="18" height="18" fill="white" transform="translate(1 1)"/>
</clipPath>
</defs>
</svg>
