<svg width="20" height="20" viewBox="0 0 20 20" fill="none" xmlns="http://www.w3.org/2000/svg">
<g clip-path="url(#clip0_5_1733)">
<path opacity="0.1" d="M4 6.97H16V10.89H4V6.97Z" fill="black"/>
<path opacity="0.1" d="M16 2V5.96H4V2H16Z" fill="black"/>
<path opacity="0.1" d="M4 16V11.88H16V16H4Z" fill="black"/>
<path d="M16.16 1H3.84C3.38 1 3 1.38 3 1.84V16.16C3 16.62 3.38 17 3.84 17H5.03V18.49C5.03 18.77 5.25 18.99 5.53 18.99C5.81 18.99 6.03 18.77 6.03 18.49V17H14V18.49C14 18.77 14.22 18.99 14.5 18.99C14.78 18.99 15 18.77 15 18.49V17H16.16C16.62 17 17 16.62 17 16.16V1.84C17 1.38 16.62 1 16.16 1ZM4 6.97H16V10.89H4V6.97ZM16 2V5.96H4V2H16ZM4 16V11.88H16V16H4Z" fill="#040000"/>
<path d="M12.5 4H14.5C14.78 4 15 3.78 15 3.5C15 3.22 14.78 3 14.5 3H12.5C12.22 3 12 3.22 12 3.5C12 3.78 12.23 4 12.5 4Z" fill="#040000"/>
<path d="M14.5 8H12.5C12.22 8 12 8.22 12 8.5C12 8.78 12.22 9 12.5 9H14.5C14.78 9 15 8.78 15 8.5C15 8.22 14.78 8 14.5 8Z" fill="#040000"/>
<path d="M14.5 13H12.5C12.22 13 12 13.22 12 13.5C12 13.78 12.22 14 12.5 14H14.5C14.78 14 15 13.78 15 13.5C15 13.22 14.78 13 14.5 13Z" fill="#040000"/>
</g>
<defs>
<clipPath id="clip0_5_1733">
<rect width="14" height="18" fill="white" transform="translate(3 1)"/>
</clipPath>
</defs>
</svg>
