<svg width="20" height="20" viewBox="0 0 20 20" fill="none" xmlns="http://www.w3.org/2000/svg">
<g clip-path="url(#clip0_5_1743)">
<path opacity="0.15" d="M12.049 18.4998H4.951C3.321 18.4998 2 17.1788 2 15.5488V9.1548C2 8.2408 2.741 7.4998 3.655 7.4998H13.345C14.259 7.4998 15 8.2408 15 9.1548V15.5488C15 17.1788 13.679 18.4998 12.049 18.4998Z" fill="black"/>
<path fill-rule="evenodd" clip-rule="evenodd" d="M3 9.1138V15.5898C3 16.6448 3.855 17.4998 4.91 17.4998H12.09C13.145 17.4998 14 16.6448 14 15.5898V9.1138C14 8.7748 13.725 8.4998 13.386 8.4998H3.614C3.275 8.4998 3 8.7748 3 9.1138ZM12.049 18.4998H4.951C3.321 18.4998 2 17.1788 2 15.5488V9.1548C2 8.2408 2.741 7.4998 3.655 7.4998H13.345C14.259 7.4998 15 8.2408 15 9.1548V15.5488C15 17.1788 13.679 18.4998 12.049 18.4998Z" fill="black"/>
<path fill-rule="evenodd" clip-rule="evenodd" d="M15.5186 14.5H13.9996V13.582H15.5186C16.3476 13.582 17.0216 12.872 17.0216 12C17.0216 11.128 16.3476 10.418 15.5186 10.418H13.9996V9.5H15.5186C16.8866 9.5 17.9996 10.622 17.9996 12C17.9996 13.378 16.8866 14.5 15.5186 14.5Z" fill="black"/>
<path fill-rule="evenodd" clip-rule="evenodd" d="M5.56787 6.48539C5.38087 6.48539 5.20087 6.38039 5.11587 6.19939C4.90387 5.75339 4.79687 5.16539 4.79687 4.45239C4.79687 3.14739 4.38487 2.75539 4.16787 2.72939C3.89087 2.72939 3.67987 2.50639 3.67987 2.23039C3.67987 1.95439 3.91587 1.73039 4.19187 1.73039C4.25687 1.73039 5.79687 1.76139 5.79687 4.45239C5.79687 5.00739 5.87387 5.46439 6.01887 5.77139C6.13787 6.02039 6.03087 6.31839 5.78187 6.43739C5.71287 6.46939 5.63987 6.48539 5.56787 6.48539Z" fill="black"/>
<path fill-rule="evenodd" clip-rule="evenodd" d="M8.53662 6.48539C8.34962 6.48539 8.17062 6.38039 8.08462 6.20039C7.87162 5.75339 7.76462 5.16539 7.76462 4.45239C7.76462 3.14739 7.35362 2.75439 7.13562 2.72939C6.85962 2.72939 6.64862 2.50639 6.64862 2.22939C6.64862 1.95339 6.88462 1.73039 7.16062 1.73039C7.22562 1.73039 8.76462 1.76039 8.76462 4.45239C8.76462 5.00739 8.84162 5.46439 8.98762 5.77039C9.10662 6.02039 8.99962 6.31839 8.75062 6.43739C8.68162 6.46939 8.60862 6.48539 8.53662 6.48539Z" fill="black"/>
<path fill-rule="evenodd" clip-rule="evenodd" d="M11.5049 6.48539C11.3179 6.48539 11.1389 6.38039 11.0529 6.20039C10.8399 5.75339 10.7329 5.16539 10.7329 4.45239C10.7329 3.14739 10.3219 2.75439 10.1039 2.72939C9.82788 2.72939 9.61688 2.50639 9.61688 2.22939C9.61688 1.95339 9.85288 1.73039 10.1289 1.73039C10.1939 1.73039 11.7329 1.76039 11.7329 4.45239C11.7329 5.00739 11.8099 5.46439 11.9559 5.77039C12.0749 6.02039 11.9679 6.31839 11.7189 6.43739C11.6499 6.46939 11.5769 6.48539 11.5049 6.48539Z" fill="black"/>
</g>
<defs>
<clipPath id="clip0_5_1743">
<rect width="16" height="17" fill="white" transform="translate(2 1.5)"/>
</clipPath>
</defs>
</svg>
