<svg width="20" height="20" viewBox="0 0 20 20" fill="none" xmlns="http://www.w3.org/2000/svg">
<g clip-path="url(#clip0_5_1737)">
<path opacity="0.15" d="M17.422 8.49989H15.827V6.49989C15.827 4.84589 14.613 3.49989 13.121 3.49989H6.879C5.387 3.49989 4.173 4.84589 4.173 6.49989V8.49989H2.578C1.708 8.49989 1 9.20789 1 10.0779V12.9219C1 13.7919 1.708 14.4999 2.578 14.4999H3.05C3.05 14.5009 3.051 14.5009 3.051 14.5019C3.053 14.5099 3.056 14.5179 3.058 14.5259C3.089 14.6709 3.133 14.8099 3.188 14.9439C3.208 14.9919 3.234 15.0359 3.257 15.0829C3.301 15.1739 3.346 15.2629 3.4 15.3469C3.433 15.3979 3.47 15.4429 3.505 15.4909C3.561 15.5649 3.618 15.6369 3.682 15.7039C3.723 15.7489 3.767 15.7909 3.812 15.8319C3.879 15.8939 3.949 15.9519 4.022 16.0059C4.072 16.0429 4.121 16.0779 4.173 16.1099C4.252 16.1609 4.335 16.2039 4.42 16.2449C4.473 16.2699 4.524 16.2969 4.58 16.3189C4.676 16.3579 4.776 16.3859 4.878 16.4119C4.928 16.4249 4.975 16.4429 5.024 16.4519C5.179 16.4819 5.337 16.4999 5.5 16.4999C5.663 16.4999 5.821 16.4819 5.976 16.4519C6.025 16.4429 6.072 16.4249 6.122 16.4119C6.224 16.3859 6.324 16.3579 6.42 16.3189C6.476 16.2969 6.527 16.2699 6.58 16.2449C6.665 16.2039 6.748 16.1609 6.827 16.1099C6.879 16.0779 6.928 16.0429 6.978 16.0059C7.051 15.9519 7.121 15.8939 7.188 15.8319C7.233 15.7909 7.277 15.7489 7.318 15.7039C7.382 15.6369 7.439 15.5649 7.495 15.4909C7.53 15.4429 7.567 15.3979 7.6 15.3469C7.654 15.2629 7.699 15.1739 7.743 15.0829C7.766 15.0359 7.792 14.9919 7.812 14.9439C7.867 14.8099 7.911 14.6709 7.942 14.5259C7.944 14.5179 7.947 14.5099 7.949 14.5019C7.949 14.5009 7.95 14.5009 7.95 14.4999H12.05C12.05 14.5009 12.051 14.5009 12.051 14.5019C12.053 14.5099 12.056 14.5179 12.058 14.5259C12.089 14.6709 12.133 14.8099 12.188 14.9439C12.208 14.9919 12.234 15.0359 12.257 15.0829C12.301 15.1739 12.346 15.2629 12.4 15.3469C12.433 15.3979 12.47 15.4429 12.505 15.4909C12.561 15.5649 12.618 15.6369 12.682 15.7039C12.723 15.7489 12.767 15.7909 12.812 15.8319C12.879 15.8939 12.949 15.9519 13.022 16.0059C13.072 16.0429 13.121 16.0779 13.173 16.1099C13.252 16.1609 13.335 16.2039 13.42 16.2449C13.473 16.2699 13.524 16.2969 13.58 16.3189C13.676 16.3579 13.776 16.3859 13.878 16.4119C13.928 16.4249 13.975 16.4429 14.024 16.4519C14.179 16.4819 14.337 16.4999 14.5 16.4999C14.663 16.4999 14.821 16.4819 14.976 16.4519C15.025 16.4429 15.072 16.4249 15.122 16.4119C15.224 16.3859 15.324 16.3579 15.42 16.3189C15.476 16.2969 15.527 16.2699 15.58 16.2449C15.665 16.2039 15.748 16.1609 15.827 16.1099C15.879 16.0779 15.928 16.0429 15.978 16.0059C16.051 15.9519 16.121 15.8939 16.188 15.8319C16.233 15.7909 16.277 15.7489 16.318 15.7039C16.382 15.6369 16.439 15.5649 16.495 15.4909C16.53 15.4429 16.567 15.3979 16.6 15.3469C16.654 15.2629 16.699 15.1739 16.743 15.0829C16.766 15.0359 16.792 14.9919 16.812 14.9439C16.867 14.8099 16.911 14.6709 16.942 14.5259C16.944 14.5179 16.947 14.5099 16.949 14.5019C16.949 14.5009 16.95 14.5009 16.95 14.4999H17.422C18.292 14.4999 19 13.7919 19 12.9219V10.0779C19 9.20789 18.292 8.49989 17.422 8.49989Z" fill="black"/>
<path fill-rule="evenodd" clip-rule="evenodd" d="M18 12.9219C18 13.2409 17.741 13.4999 17.422 13.4999H16.949C16.717 12.3599 15.707 11.4999 14.5 11.4999C13.293 11.4999 12.283 12.3599 12.051 13.4999H7.949C7.717 12.3599 6.707 11.4999 5.5 11.4999C4.293 11.4999 3.283 12.3599 3.051 13.4999H2.578C2.259 13.4999 2 13.2409 2 12.9219V10.0779C2 9.75889 2.259 9.49989 2.578 9.49989H4.173H15.827H17.422C17.741 9.49989 18 9.75889 18 10.0779V12.9219ZM14.5 15.4999C13.673 15.4999 13 14.8269 13 13.9999C13 13.1729 13.673 12.4999 14.5 12.4999C15.327 12.4999 16 13.1729 16 13.9999C16 14.8269 15.327 15.4999 14.5 15.4999ZM5.5 15.4999C4.673 15.4999 4 14.8269 4 13.9999C4 13.1729 4.673 12.4999 5.5 12.4999C6.327 12.4999 7 13.1729 7 13.9999C7 14.8269 6.327 15.4999 5.5 15.4999ZM5.173 6.49989C5.173 5.45689 5.938 4.60889 6.879 4.60889H9.498V8.39089H5.173V6.49989ZM10.498 4.60889H13.121C14.062 4.60889 14.827 5.45689 14.827 6.49989V8.39089H10.498V4.60889ZM17.422 8.49989H15.827V6.49989C15.827 4.84589 14.613 3.49989 13.121 3.49989H6.879C5.387 3.49989 4.173 4.84589 4.173 6.49989V8.49989H2.578C1.708 8.49989 1 9.20789 1 10.0779V12.9219C1 13.7919 1.708 14.4999 2.578 14.4999H3.05C3.05 14.5009 3.051 14.5009 3.051 14.5019C3.053 14.5099 3.056 14.5179 3.058 14.5259C3.089 14.6709 3.133 14.8099 3.188 14.9439C3.208 14.9919 3.234 15.0359 3.257 15.0829C3.301 15.1739 3.346 15.2629 3.4 15.3469C3.433 15.3979 3.47 15.4429 3.505 15.4909C3.561 15.5649 3.618 15.6369 3.682 15.7039C3.723 15.7489 3.767 15.7909 3.812 15.8319C3.879 15.8939 3.949 15.9519 4.022 16.0059C4.072 16.0429 4.121 16.0779 4.173 16.1099C4.252 16.1609 4.335 16.2039 4.42 16.2449C4.473 16.2699 4.524 16.2969 4.58 16.3189C4.676 16.3579 4.776 16.3859 4.878 16.4119C4.928 16.4249 4.975 16.4429 5.024 16.4519C5.179 16.4819 5.337 16.4999 5.5 16.4999C5.663 16.4999 5.821 16.4819 5.976 16.4519C6.025 16.4429 6.072 16.4249 6.122 16.4119C6.224 16.3859 6.324 16.3579 6.42 16.3189C6.476 16.2969 6.527 16.2699 6.58 16.2449C6.665 16.2039 6.748 16.1609 6.827 16.1099C6.879 16.0779 6.928 16.0429 6.978 16.0059C7.051 15.9519 7.121 15.8939 7.188 15.8319C7.233 15.7909 7.277 15.7489 7.318 15.7039C7.382 15.6369 7.439 15.5649 7.495 15.4909C7.53 15.4429 7.567 15.3979 7.6 15.3469C7.654 15.2629 7.699 15.1739 7.743 15.0829C7.766 15.0359 7.792 14.9919 7.812 14.9439C7.867 14.8099 7.911 14.6709 7.942 14.5259C7.944 14.5179 7.947 14.5099 7.949 14.5019C7.949 14.5009 7.95 14.5009 7.95 14.4999H12.05C12.05 14.5009 12.051 14.5009 12.051 14.5019C12.053 14.5099 12.056 14.5179 12.058 14.5259C12.089 14.6709 12.133 14.8099 12.188 14.9439C12.208 14.9919 12.234 15.0359 12.257 15.0829C12.301 15.1739 12.346 15.2629 12.4 15.3469C12.433 15.3979 12.47 15.4429 12.505 15.4909C12.561 15.5649 12.618 15.6369 12.682 15.7039C12.723 15.7489 12.767 15.7909 12.812 15.8319C12.879 15.8939 12.949 15.9519 13.022 16.0059C13.072 16.0429 13.121 16.0779 13.173 16.1099C13.252 16.1609 13.335 16.2039 13.42 16.2449C13.473 16.2699 13.524 16.2969 13.58 16.3189C13.676 16.3579 13.776 16.3859 13.878 16.4119C13.928 16.4249 13.975 16.4429 14.024 16.4519C14.179 16.4819 14.337 16.4999 14.5 16.4999C14.663 16.4999 14.821 16.4819 14.976 16.4519C15.025 16.4429 15.072 16.4249 15.122 16.4119C15.224 16.3859 15.324 16.3579 15.42 16.3189C15.476 16.2969 15.527 16.2699 15.58 16.2449C15.665 16.2039 15.748 16.1609 15.827 16.1099C15.879 16.0779 15.928 16.0429 15.978 16.0059C16.051 15.9519 16.121 15.8939 16.188 15.8319C16.233 15.7909 16.277 15.7489 16.318 15.7039C16.382 15.6369 16.439 15.5649 16.495 15.4909C16.53 15.4429 16.567 15.3979 16.6 15.3469C16.654 15.2629 16.699 15.1739 16.743 15.0829C16.766 15.0359 16.792 14.9919 16.812 14.9439C16.867 14.8099 16.911 14.6709 16.942 14.5259C16.944 14.5179 16.947 14.5099 16.949 14.5019C16.949 14.5009 16.95 14.5009 16.95 14.4999H17.422C18.292 14.4999 19 13.7919 19 12.9219V10.0779C19 9.20789 18.292 8.49989 17.422 8.49989Z" fill="black"/>
</g>
<defs>
<clipPath id="clip0_5_1737">
<rect width="18" height="13" fill="white" transform="translate(1 3.5)"/>
</clipPath>
</defs>
</svg>
