<svg width="20" height="20" viewBox="0 0 20 20" fill="none" xmlns="http://www.w3.org/2000/svg">
<g clip-path="url(#clip0_5_1739)">
<path opacity="0.15" d="M15.9917 2.53999V6.91999C15.362 5.86999 14.4625 4.98999 13.3931 4.38999C13.9228 3.37999 14.8823 2.68999 15.9917 2.53999Z" fill="black"/>
<path opacity="0.15" d="M3.99835 2.53C5.10774 2.69 6.0772 3.38 6.59691 4.38C5.5275 4.98 4.628 5.85 3.99835 6.91V2.53Z" fill="black"/>
<path opacity="0.15" d="M14.6924 17.5H10.5147V14.5C10.7846 14.49 10.9945 14.27 10.9945 14C10.9945 13.72 10.7746 13.5 10.4947 13.5H9.49529C9.21545 13.5 8.99557 13.72 8.99557 14C8.99557 14.28 9.21545 14.5 9.49529 14.5H9.51528V17.5H5.49751C4.68796 17.5 3.96836 17.1 3.50862 16.5H4.49807C4.77791 16.5 4.99779 16.28 4.99779 16C4.99779 15.72 4.77791 15.5 4.49807 15.5H3.04887C3.01889 15.34 2.9989 15.17 2.9989 15C2.9989 14.83 3.01889 14.66 3.04887 14.5H4.49807C4.77791 14.5 4.99779 14.28 4.99779 14C4.99779 13.72 4.77791 13.5 4.49807 13.5H3.51861C3.61856 13.38 3.7185 13.26 3.83843 13.15L4.00834 13V12V10.5C4.00834 7.19 6.69685 4.5 10.005 4.5C13.3132 4.5 16.0017 7.19 16.0017 10.5V12.22V12.86L16.2016 13.01C16.3915 13.15 16.5414 13.32 16.6813 13.49H15.5119C15.2321 13.49 15.0122 13.71 15.0122 13.99C15.0122 14.27 15.2321 14.49 15.5119 14.49H17.151C17.181 14.65 17.211 14.82 17.211 14.99C17.211 15.16 17.191 15.33 17.161 15.49H15.5219C15.2421 15.49 15.0222 15.71 15.0222 15.99C15.0222 16.27 15.2421 16.49 15.5219 16.49H16.7013C16.2216 17.1 15.502 17.5 14.6924 17.5Z" fill="black"/>
<path d="M7.5 11C8.05228 11 8.5 10.5523 8.5 10C8.5 9.44772 8.05228 9 7.5 9C6.94772 9 6.5 9.44772 6.5 10C6.5 10.5523 6.94772 11 7.5 11Z" fill="#040000"/>
<path d="M12.5 11C13.0523 11 13.5 10.5523 13.5 10C13.5 9.44772 13.0523 9 12.5 9C11.9477 9 11.5 9.44772 11.5 10C11.5 10.5523 11.9477 11 12.5 11Z" fill="#040000"/>
<path d="M18.4903 15.5H18.1305C18.1505 15.34 18.1805 15.17 18.1805 15C18.1805 14.83 18.1505 14.67 18.1305 14.5H18.4903C18.7701 14.5 18.99 14.28 18.99 14C18.99 13.72 18.7701 13.5 18.4903 13.5H17.8406C17.6408 13.08 17.3609 12.7 16.9911 12.38V12.22V10.5V2C16.9911 1.72 16.7712 1.5 16.4914 1.5C14.7723 1.5 13.2532 2.46 12.4936 3.97C11.714 3.67 10.8745 3.5 9.995 3.5C9.11549 3.5 8.27596 3.67 7.49639 3.97C6.73681 2.46 5.20766 1.5 3.49861 1.5C3.21877 1.5 2.99889 1.72 2.99889 2V10.5V12V12.57C2.72904 12.84 2.52915 13.16 2.35924 13.5H1.49972C1.21988 13.5 1 13.72 1 14C1 14.28 1.21988 14.5 1.49972 14.5H2.04942C2.02943 14.67 1.99944 14.83 1.99944 15C1.99944 15.17 2.02943 15.34 2.04942 15.5H1.49972C1.21988 15.5 1 15.72 1 16C1 16.28 1.21988 16.5 1.49972 16.5H2.34925C2.90894 17.68 4.10827 18.5 5.4975 18.5H14.6924C16.0816 18.5 17.271 17.68 17.8406 16.5H18.5003C18.7801 16.5 19 16.28 19 16C19 15.72 18.7701 15.5 18.4903 15.5ZM15.9917 2.54V6.92C15.362 5.87 14.4625 4.99 13.3931 4.39C13.9228 3.38 14.8823 2.69 15.9917 2.54ZM3.99833 2.53C5.10772 2.69 6.07718 3.38 6.59689 4.38C5.52748 4.98 4.62798 5.85 3.99833 6.91V2.53ZM14.6924 17.5H10.5147V14.5C10.7846 14.49 10.9944 14.27 10.9944 14C10.9944 13.72 10.7746 13.5 10.4947 13.5H9.49528C9.21544 13.5 8.99556 13.72 8.99556 14C8.99556 14.28 9.21544 14.5 9.49528 14.5H9.51527V17.5H5.4975C4.68795 17.5 3.96835 17.1 3.50861 16.5H4.49806C4.7779 16.5 4.99778 16.28 4.99778 16C4.99778 15.72 4.7779 15.5 4.49806 15.5H3.04886C3.01888 15.34 2.99889 15.17 2.99889 15C2.99889 14.83 3.01888 14.66 3.04886 14.5H4.49806C4.7779 14.5 4.99778 14.28 4.99778 14C4.99778 13.72 4.7779 13.5 4.49806 13.5H3.5186C3.61855 13.38 3.71849 13.26 3.83842 13.15L4.00833 13V12V10.5C4.00833 7.19 6.69684 4.5 10.005 4.5C13.3132 4.5 16.0017 7.19 16.0017 10.5V12.22V12.86L16.2016 13.01C16.3914 13.15 16.5414 13.32 16.6813 13.49H15.5119C15.2321 13.49 15.0122 13.71 15.0122 13.99C15.0122 14.27 15.2321 14.49 15.5119 14.49H17.151C17.181 14.65 17.211 14.82 17.211 14.99C17.211 15.16 17.191 15.33 17.161 15.49H15.5219C15.2421 15.49 15.0222 15.71 15.0222 15.99C15.0222 16.27 15.2421 16.49 15.5219 16.49H16.7013C16.2215 17.1 15.5019 17.5 14.6924 17.5Z" fill="#040000"/>
</g>
<defs>
<clipPath id="clip0_5_1739">
<rect width="18" height="17" fill="white" transform="translate(1 1.5)"/>
</clipPath>
</defs>
</svg>
