<svg width="20" height="20" viewBox="0 0 20 20" fill="none" xmlns="http://www.w3.org/2000/svg">
<g clip-path="url(#clip0_5_1749)">
<path opacity="0.1" d="M12.46 7.95744L13.96 12.0225H6.10999L7.57999 8.05757H12.46V7.95744Z" fill="black"/>
<path opacity="0.15" d="M9.25001 3.55194C9.40001 3.15144 9.75001 3.00125 10.04 3.00125C10.33 3.00125 10.68 3.14143 10.83 3.55194L12.13 7.06633H7.95001L9.25001 3.55194Z" fill="black"/>
<path opacity="0.1" d="M5.74999 13.0338H14.34L15.73 16.7985H4.35999L5.74999 13.0338Z" fill="black"/>
<path d="M18.52 16.9987H16.86L11.76 3.2015C11.49 2.47059 10.81 2 10.03 2C9.25 2 8.57 2.47059 8.3 3.2015L3.2 16.9987H1.5C1.22 16.9987 1 17.219 1 17.4994C1 17.7797 1.22 18 1.5 18H18.5C18.78 18 19 17.7797 19 17.4994C19 17.219 18.8 16.9987 18.52 16.9987ZM12.46 7.95745L13.96 12.0225H6.11L7.58 8.05757H12.46V7.95745ZM9.25 3.55194C9.4 3.15144 9.75 3.00125 10.04 3.00125C10.33 3.00125 10.68 3.14143 10.83 3.55194L12.13 7.06633H7.95L9.25 3.55194ZM5.75 13.0338H14.34L15.73 16.7985H4.36L5.75 13.0338Z" fill="black"/>
</g>
<defs>
<clipPath id="clip0_5_1749">
<rect width="18" height="16" fill="white" transform="translate(1 2)"/>
</clipPath>
</defs>
</svg>
