<svg width="20" height="20" viewBox="0 0 20 20" fill="none" xmlns="http://www.w3.org/2000/svg">
<g clip-path="url(#clip0_5_1759)">
<path opacity="0.15" d="M16.9775 10.3805C16.4762 10.3404 15.995 10.3104 15.5439 10.3104C14.4612 10.3104 13.3885 10.4205 12.3358 10.6208C12.005 9.81978 11.6341 9.0388 11.2331 8.27785C12.7469 7.61703 14.1805 6.73593 15.4637 5.64456C16.4261 6.84606 16.9975 8.35795 16.9975 10.01C16.9975 10.1302 16.9875 10.2603 16.9775 10.3805Z" fill="black"/>
<path opacity="0.15" d="M16.5062 12.5732C16.3759 12.9136 16.2055 13.244 16.025 13.5544C15.995 13.5945 15.9749 13.6445 15.9448 13.6846C15.7544 13.985 15.5539 14.2753 15.3233 14.5457C15.2932 14.5757 15.2631 14.6158 15.2331 14.6458C14.8321 15.1064 14.3509 15.4969 13.8396 15.8273C13.5789 14.3654 13.198 12.9437 12.6967 11.5619C13.629 11.3917 14.5814 11.3016 15.5438 11.3016C15.9649 11.3016 16.396 11.3216 16.8571 11.3617C16.7769 11.7522 16.6666 12.1327 16.5263 12.4931C16.5263 12.5231 16.5163 12.5532 16.5062 12.5732Z" fill="black"/>
<path opacity="0.15" d="M9.30824 16.9787C9.15787 16.9587 9.00749 16.9387 8.85712 16.9086C8.78694 16.8986 8.72679 16.8886 8.65661 16.8786C8.46614 16.8385 8.27566 16.7985 8.08519 16.7384C8.06514 16.7284 8.04509 16.7284 8.01501 16.7184C7.81451 16.6583 7.61401 16.5882 7.41351 16.5081C7.40348 16.5081 7.40348 16.5081 7.39346 16.4981C7.19296 16.418 6.99245 16.3279 6.80198 16.2278H6.79195C6.60148 16.1277 6.42103 16.0275 6.24057 15.9174C6.23055 15.9174 6.22052 15.9074 6.22052 15.9074C6.0501 15.7972 5.87967 15.6771 5.71927 15.5569C5.69922 15.5469 5.6892 15.5369 5.66915 15.5269C5.50874 15.4068 5.35837 15.2766 5.21802 15.1364C5.20799 15.1264 5.19797 15.1164 5.17792 15.1064C7.08268 13.4944 9.31827 12.373 11.7042 11.7822C12.2456 13.2541 12.6566 14.766 12.9173 16.3379C12.7769 16.408 12.6466 16.4781 12.4962 16.5382C12.4661 16.5482 12.426 16.5682 12.396 16.5782C12.3659 16.5882 12.3258 16.5982 12.2957 16.6183C11.9749 16.7284 11.6341 16.8185 11.2932 16.8886C11.223 16.8986 11.1629 16.9086 11.0927 16.9186C10.7318 16.9787 10.3509 17.0188 9.9699 17.0188C9.74935 17.0188 9.52879 17.0088 9.30824 16.9787Z" fill="black"/>
<path opacity="0.15" d="M3.15289 8.48812C3.22307 8.18774 3.30327 7.90739 3.40352 7.62704C3.43359 7.53693 3.46367 7.45683 3.49375 7.36672C3.62407 7.04631 3.77445 6.74594 3.94487 6.45558C3.94487 6.45558 3.94487 6.44556 3.9549 6.44556C3.97495 6.40551 3.995 6.37548 4.02507 6.33543C4.21555 6.02504 4.42608 5.73468 4.65665 5.46434C4.65665 5.45432 4.66668 5.45432 4.66668 5.45432C4.70678 5.41427 4.74688 5.37422 4.77695 5.33417C4.97745 5.10389 5.19801 4.89362 5.42858 4.69337C5.50878 4.62329 5.59901 4.5532 5.68923 4.49312C5.88974 4.33292 6.10026 4.19275 6.32081 4.05257C6.43109 3.98248 6.54136 3.92241 6.65164 3.86233C6.72182 3.82228 6.80202 3.79225 6.88222 3.7522C8.00502 5.00376 8.97745 6.35545 9.81956 7.77723C8.1153 8.38799 6.30076 8.70839 4.45615 8.70839C4.0351 8.70839 3.594 8.68837 3.11279 8.64832C3.12282 8.58824 3.14287 8.53818 3.15289 8.48812Z" fill="black"/>
<path opacity="0.15" d="M7.8446 3.35169C8.12531 3.26158 8.40601 3.17146 8.69673 3.1214C8.74686 3.11139 8.79698 3.10138 8.84711 3.10138C9.21804 3.0413 9.59899 3.00125 9.97994 3.00125C10.2105 3.00125 10.4411 3.01126 10.6616 3.03129C10.812 3.05131 10.9624 3.07134 11.1128 3.10138C11.1829 3.11139 11.2531 3.1214 11.3133 3.13141C11.5038 3.17146 11.6842 3.21151 11.8747 3.27159C11.9048 3.2816 11.9248 3.2816 11.9549 3.29161C12.1554 3.35169 12.3459 3.42178 12.5363 3.49186C12.5464 3.49186 12.5564 3.50188 12.5664 3.50188C12.7569 3.58198 12.9474 3.66208 13.1378 3.7622C13.1479 3.77222 13.1579 3.77222 13.1679 3.77222C13.3484 3.86233 13.5288 3.97247 13.6992 4.07259C13.7193 4.0826 13.7293 4.09262 13.7494 4.10263C13.9098 4.21277 14.0702 4.3229 14.2306 4.44305C14.2506 4.46308 14.2807 4.47309 14.3007 4.49312C14.4511 4.61327 14.5915 4.73342 14.7318 4.86358C14.7519 4.8836 14.7719 4.89362 14.792 4.91364C13.5689 5.94493 12.2055 6.76596 10.7619 7.38673C9.92982 5.96496 8.94736 4.61327 7.8446 3.35169Z" fill="black"/>
<path opacity="0.15" d="M2.99248 9.62954C3.50376 9.6796 3.99498 9.70964 4.45614 9.70964C6.47117 9.70964 8.44611 9.33918 10.3108 8.65833C10.6917 9.36921 11.0426 10.1001 11.3534 10.8511C8.85714 11.4919 6.5213 12.6934 4.51629 14.3955C3.54386 13.194 2.9624 11.6721 2.9624 10.01C2.9624 9.87985 2.98245 9.7597 2.99248 9.62954Z" fill="black"/>
<path d="M18 10.4806H17.9799C17.99 10.3204 18 10.1702 18 10.01C18 8.10763 17.3283 6.36546 16.2256 4.99374L16.2356 4.98373L15.8947 4.61327C15.8747 4.59324 15.8546 4.57322 15.8346 4.55319C15.6842 4.39299 15.5338 4.2428 15.3734 4.09262C15.3333 4.05257 15.2932 4.01252 15.2531 3.98248C15.0827 3.83229 14.9023 3.69212 14.7118 3.55194C14.6817 3.53191 14.6516 3.50188 14.6216 3.48185C14.411 3.33166 14.2005 3.2015 13.9799 3.07134C13.9699 3.06133 13.9599 3.06133 13.9499 3.05131C12.7769 2.39049 11.4336 2 9.98997 2C9.72932 2 9.46867 2.01001 9.20802 2.04005C9.10777 2.05006 9.01754 2.07009 8.91729 2.0801C8.75689 2.10013 8.59649 2.12015 8.44612 2.15019C8.32581 2.17021 8.21554 2.20025 8.10526 2.23029C7.97494 2.26033 7.84461 2.29036 7.71429 2.33041C7.59399 2.37046 7.47368 2.41051 7.36341 2.45056C7.28321 2.4806 7.20301 2.50063 7.13283 2.53066L7.12281 2.52065L6.89223 2.62078C6.88221 2.62078 6.87218 2.63079 6.86216 2.63079L6.802 2.66083C6.78195 2.67084 6.7619 2.69086 6.73183 2.70088C6.71178 2.71089 6.6817 2.7209 6.66165 2.73091C6.55138 2.78098 6.4411 2.83104 6.34085 2.89111C6.23058 2.95119 6.11028 3.01126 6 3.08135C5.92982 3.1214 5.86967 3.15144 5.7995 3.19149C5.74937 3.22153 5.70927 3.25156 5.65915 3.2816C5.5589 3.34168 5.46867 3.41176 5.36842 3.48185C5.26817 3.55194 5.17795 3.62203 5.07769 3.69212C5.00752 3.75219 4.92732 3.80225 4.85714 3.86233C4.81704 3.89237 4.77694 3.93242 4.73684 3.96245C4.65664 4.03254 4.58647 4.10263 4.51629 4.17272C4.42607 4.26283 4.33584 4.34293 4.24561 4.43304C4.18546 4.49312 4.13534 4.55319 4.08521 4.60325C4.02506 4.66333 3.96491 4.73342 3.91479 4.8035C3.86466 4.86358 3.80451 4.92365 3.75439 4.98373C3.68421 5.07384 3.62406 5.16395 3.55388 5.25407C3.47368 5.35419 3.39348 5.46433 3.32331 5.57447C3.29323 5.62453 3.26316 5.67459 3.23308 5.72466C3.21303 5.75469 3.20301 5.78473 3.18296 5.81477C3.05263 6.03504 2.92231 6.25532 2.81203 6.48561C2.77193 6.56571 2.73183 6.63579 2.70175 6.71589C2.5614 7.02628 2.4411 7.34668 2.34085 7.66708C2.33083 7.69712 2.3208 7.72716 2.3208 7.76721C2.23058 8.06758 2.17043 8.37797 2.11028 8.68836C2.10025 8.77847 2.0802 8.85857 2.07018 8.94869C2.07018 8.9587 2.07018 8.97872 2.06015 8.98874C2.06015 8.99875 2.06015 9.00876 2.06015 9.01877V9.0388C2.05013 9.10889 2.0401 9.17897 2.03008 9.24906L2 9.5194H2.02005C2.01002 9.6796 2 9.8398 2 10C2 11.9124 2.67168 13.6646 3.79449 15.0363L3.78446 15.0463L4.12531 15.4168C4.14536 15.4368 4.15539 15.4468 4.17544 15.4668C4.32581 15.627 4.49624 15.7872 4.65664 15.9374C4.68672 15.9675 4.72682 15.9975 4.75689 16.0275C4.93734 16.1877 5.12782 16.3379 5.32832 16.4781C5.34837 16.4881 5.36842 16.5081 5.38847 16.5181C6.70175 17.4493 8.29574 18 10.0201 18C10.2807 18 10.5414 17.99 10.802 17.9599C10.8421 17.9599 10.8922 17.9499 10.9323 17.9399C10.9925 17.9299 11.0627 17.9199 11.1228 17.9099C11.2732 17.8899 11.4135 17.8698 11.5639 17.8398C11.6541 17.8198 11.7544 17.7997 11.8446 17.7797C11.9048 17.7697 11.9649 17.7497 12.015 17.7397C12.1053 17.7197 12.2055 17.6896 12.2957 17.6596C12.416 17.6295 12.5263 17.5895 12.6366 17.5494C12.7569 17.5094 12.8872 17.4593 13.0075 17.4193C13.1178 17.3692 13.2281 17.3191 13.3383 17.2691C13.4486 17.219 13.5589 17.169 13.6692 17.1089C13.6892 17.0989 13.7193 17.0889 13.7393 17.0788L13.8195 17.0388L13.8296 17.0288L14.0501 16.9086V16.8986C14.1404 16.8486 14.2306 16.7885 14.3208 16.7284C14.4211 16.6683 14.5213 16.5982 14.6216 16.5282C14.7318 16.4481 14.8321 16.378 14.9323 16.2979C15.0226 16.2278 15.1128 16.1577 15.203 16.0776C15.3033 15.9875 15.4035 15.8974 15.4937 15.8073C15.5739 15.7272 15.6642 15.6471 15.7444 15.567C15.8346 15.4668 15.9248 15.3667 16.015 15.2666C16.0952 15.1765 16.1654 15.0964 16.2456 15.0063C16.3258 14.9061 16.396 14.806 16.4762 14.6959C16.5464 14.5957 16.6266 14.5056 16.6867 14.3955C16.7469 14.3054 16.797 14.2153 16.8571 14.1151C16.9273 13.995 17.0075 13.8748 17.0777 13.7447C17.0877 13.7347 17.0877 13.7146 17.0977 13.7046C17.5388 12.8736 17.8296 11.9524 17.9499 10.9812C17.9499 10.9712 17.9499 10.9612 17.9499 10.9512V10.9312C17.9599 10.8611 17.9699 10.791 17.9799 10.7309L18 10.4806ZM16.9774 10.3805C16.4762 10.3404 15.995 10.3104 15.5439 10.3104C14.4612 10.3104 13.3885 10.4205 12.3358 10.6208C12.005 9.81977 11.6341 9.0388 11.2331 8.27785C12.7469 7.61702 14.1805 6.73592 15.4637 5.64456C16.4261 6.84606 16.9975 8.35795 16.9975 10.01C16.9975 10.1302 16.9875 10.2603 16.9774 10.3805ZM16.5063 12.5732C16.3759 12.9136 16.2055 13.2441 16.0251 13.5544C15.995 13.5945 15.9749 13.6446 15.9449 13.6846C15.7544 13.985 15.5539 14.2753 15.3233 14.5457C15.2932 14.5757 15.2632 14.6158 15.2331 14.6458C14.8321 15.1064 14.3509 15.4969 13.8396 15.8273C13.5789 14.3655 13.198 12.9437 12.6967 11.562C13.6291 11.3917 14.5815 11.3016 15.5439 11.3016C15.9649 11.3016 16.396 11.3217 16.8571 11.3617C16.7769 11.7522 16.6667 12.1327 16.5263 12.4931C16.5263 12.5232 16.5163 12.5532 16.5063 12.5732ZM9.30827 16.9787C9.15789 16.9587 9.00752 16.9387 8.85714 16.9086C8.78697 16.8986 8.72682 16.8886 8.65664 16.8786C8.46617 16.8385 8.27569 16.7985 8.08521 16.7384C8.06516 16.7284 8.04511 16.7284 8.01504 16.7184C7.81454 16.6583 7.61403 16.5882 7.41353 16.5081C7.40351 16.5081 7.40351 16.5081 7.39348 16.4981C7.19298 16.418 6.99248 16.3279 6.802 16.2278H6.79198C6.6015 16.1277 6.42105 16.0275 6.2406 15.9174C6.23058 15.9174 6.22055 15.9074 6.22055 15.9074C6.05013 15.7972 5.8797 15.6771 5.7193 15.5569C5.69925 15.5469 5.68922 15.5369 5.66917 15.5269C5.50877 15.4068 5.3584 15.2766 5.21805 15.1364C5.20802 15.1264 5.19799 15.1164 5.17794 15.1064C7.08271 13.4944 9.3183 12.373 11.7043 11.7822C12.2456 13.2541 12.6566 14.766 12.9173 16.3379C12.7769 16.408 12.6466 16.4781 12.4962 16.5382C12.4662 16.5482 12.4261 16.5682 12.396 16.5782C12.3659 16.5882 12.3258 16.5982 12.2957 16.6183C11.9749 16.7284 11.6341 16.8185 11.2932 16.8886C11.2231 16.8986 11.1629 16.9086 11.0927 16.9186C10.7318 16.9787 10.3509 17.0188 9.96992 17.0188C9.74937 17.0188 9.52882 17.0088 9.30827 16.9787ZM3.15288 8.48811C3.22306 8.18774 3.30326 7.90738 3.40351 7.62703C3.43358 7.53692 3.46366 7.45682 3.49373 7.36671C3.62406 7.04631 3.77444 6.74593 3.94486 6.45557C3.94486 6.45557 3.94486 6.44556 3.95489 6.44556C3.97494 6.40551 3.99499 6.37547 4.02506 6.33542C4.21554 6.02503 4.42607 5.73467 4.65664 5.46433C4.65664 5.45432 4.66667 5.45432 4.66667 5.45432C4.70677 5.41427 4.74687 5.37422 4.77694 5.33417C4.97744 5.10388 5.19799 4.89362 5.42857 4.69337C5.50877 4.62328 5.599 4.55319 5.68922 4.49312C5.88972 4.33292 6.10025 4.19274 6.3208 4.05257C6.43108 3.98248 6.54135 3.9224 6.65163 3.86233C6.7218 3.82228 6.802 3.79224 6.88221 3.75219C8.00501 5.00375 8.97744 6.35544 9.81955 7.77722C8.11529 8.38799 6.30075 8.70839 4.45614 8.70839C4.03509 8.70839 3.59399 8.68836 3.11278 8.64831C3.12281 8.58824 3.14286 8.53817 3.15288 8.48811ZM7.84461 3.35169C8.12531 3.26158 8.40602 3.17146 8.69674 3.1214C8.74687 3.11139 8.79699 3.10138 8.84712 3.10138C9.21804 3.0413 9.599 3.00125 9.97995 3.00125C10.2105 3.00125 10.4411 3.01126 10.6617 3.03129C10.812 3.05131 10.9624 3.07134 11.1128 3.10138C11.183 3.11139 11.2531 3.1214 11.3133 3.13141C11.5038 3.17146 11.6842 3.21151 11.8747 3.27159C11.9048 3.2816 11.9248 3.2816 11.9549 3.29161C12.1554 3.35169 12.3459 3.42178 12.5363 3.49186C12.5464 3.49186 12.5564 3.50188 12.5664 3.50188C12.7569 3.58198 12.9474 3.66208 13.1378 3.7622C13.1479 3.77222 13.1579 3.77222 13.1679 3.77222C13.3484 3.86233 13.5288 3.97247 13.6992 4.07259C13.7193 4.0826 13.7293 4.09262 13.7494 4.10263C13.9098 4.21277 14.0702 4.3229 14.2306 4.44305C14.2506 4.46308 14.2807 4.47309 14.3008 4.49312C14.4511 4.61327 14.5915 4.73342 14.7318 4.86358C14.7519 4.8836 14.7719 4.89362 14.792 4.91364C13.5689 5.94493 12.2055 6.76596 10.7619 7.38673C9.92982 5.96496 8.94737 4.61327 7.84461 3.35169ZM2.99248 9.62954C3.50376 9.6796 3.99499 9.70964 4.45614 9.70964C6.47118 9.70964 8.44612 9.33917 10.3108 8.65832C10.6917 9.36921 11.0426 10.1001 11.3534 10.8511C8.85714 11.4919 6.5213 12.6934 4.51629 14.3955C3.54386 13.194 2.96241 11.6721 2.96241 10.01C2.96241 9.87985 2.98246 9.7597 2.99248 9.62954Z" fill="#231815"/>
</g>
<defs>
<clipPath id="clip0_5_1759">
<rect width="16" height="16" fill="white" transform="translate(2 2)"/>
</clipPath>
</defs>
</svg>
