<svg width="20" height="20" viewBox="0 0 20 20" fill="none" xmlns="http://www.w3.org/2000/svg">
<g clip-path="url(#clip0_5_1758)">
<path d="M17.5 11.78C17.22 11.78 17 12 17 12.28V15.94C17 16.4 16.62 16.78 16.16 16.78H3.84C3.38 16.78 3 16.4 3 15.94V12.28C3 12 2.78 11.78 2.5 11.78C2.22 11.78 2 12 2 12.28V15.94C2 16.95 2.83 17.78 3.84 17.78H16.16C17.17 17.78 18 16.95 18 15.94V12.28C18 12 17.78 11.78 17.5 11.78Z" fill="black"/>
<path d="M9.65003 15.13C9.75003 15.23 9.88003 15.28 10 15.28C10.12 15.28 10.26 15.23 10.35 15.13L14.75 10.73C14.95 10.53 14.95 10.22 14.75 10.02C14.55 9.82 14.24 9.82 14.04 10.02L10.49 13.57V2.5C10.49 2.22 10.27 2 9.99003 2C9.71003 2 9.49003 2.22 9.49003 2.5V13.56L5.95003 10.02C5.75003 9.82 5.44003 9.82 5.24003 10.02C5.04003 10.22 5.04003 10.53 5.24003 10.73L9.65003 15.13Z" fill="black"/>
</g>
<defs>
<clipPath id="clip0_5_1758">
<rect width="16" height="16" fill="white" transform="translate(2 2)"/>
</clipPath>
</defs>
</svg>
