<svg width="20" height="20" viewBox="0 0 20 20" fill="none" xmlns="http://www.w3.org/2000/svg">
<g clip-path="url(#clip0_5_1753)">
<path opacity="0.15" d="M10.01 17.4775C6.15001 17.4775 3.01001 14.3375 3.01001 10.4775C3.01001 9.2675 3.33001 8.0575 3.94001 6.9975C3.98001 6.9175 4.01001 6.8375 4.01001 6.7475V2.8475L6.45001 4.1975C6.59001 4.2775 6.77001 4.2775 6.91001 4.2075C8.90001 3.2275 11.21 3.2475 13.18 4.2475C13.33 4.3275 13.51 4.3175 13.65 4.2375L16.14 2.8475V6.9875C16.14 7.0675 16.16 7.1475 16.2 7.2175C16.74 8.2275 17.01 9.3275 17.01 10.4775C17.01 14.3375 13.87 17.4775 10.01 17.4775Z" fill="black"/>
<path d="M17.14 6.8675V1.9975C17.14 1.8175 17.05 1.6575 16.89 1.5675C16.74 1.4775 16.55 1.4775 16.39 1.5675L13.39 3.2475C11.28 2.2575 8.83 2.2375 6.71 3.2075L3.75 1.5675C3.59 1.4775 3.41 1.4875 3.25 1.5775C3.1 1.6675 3 1.8275 3 2.0075V6.6275C2.35 7.8075 2 9.1475 2 10.4875C2 14.8975 5.59 18.4875 10 18.4875C14.41 18.4875 18 14.8975 18 10.4875C18.01 9.2075 17.71 7.9975 17.14 6.8675ZM10.01 17.4775C6.15 17.4775 3.01 14.3375 3.01 10.4775C3.01 9.2675 3.33 8.0575 3.94 6.9975C3.98 6.9175 4.01 6.8375 4.01 6.7475V2.8475L6.45 4.1975C6.59 4.2775 6.77 4.2775 6.91 4.2075C8.9 3.2275 11.21 3.2475 13.18 4.2475C13.33 4.3275 13.51 4.3175 13.65 4.2375L16.14 2.8475V6.9875C16.14 7.0675 16.16 7.1475 16.2 7.2175C16.74 8.2275 17.01 9.3275 17.01 10.4775C17.01 14.3375 13.87 17.4775 10.01 17.4775Z" fill="black"/>
<path d="M6.74999 10.3375C6.74999 10.5375 6.86999 10.7175 7.05999 10.7975C7.11999 10.8275 7.18999 10.8375 7.24999 10.8375C7.37999 10.8375 7.50999 10.7875 7.59999 10.6875L8.45999 9.8275C8.56999 9.7175 8.61999 9.5675 8.59999 9.4075C8.57999 9.2575 8.48999 9.1175 8.34999 9.0375L5.93999 7.6475C5.69999 7.5075 5.39999 7.5875 5.25999 7.8275C5.11999 8.0675 5.19999 8.3675 5.43999 8.5075L6.73999 9.2575V10.3375H6.74999Z" fill="black"/>
<path d="M13.97 7.6475L11.56 9.0375C11.43 9.1175 11.33 9.2475 11.31 9.4075C11.29 9.5575 11.34 9.7175 11.45 9.8275L12.31 10.6875C12.41 10.7875 12.53 10.8375 12.66 10.8375C12.72 10.8375 12.79 10.8275 12.85 10.7975C13.04 10.7175 13.16 10.5375 13.16 10.3375V9.2775L14.46 8.5275C14.7 8.3875 14.78 8.0875 14.64 7.8475C14.52 7.5975 14.21 7.5075 13.97 7.6475Z" fill="black"/>
<path d="M13.18 12.4775L11.44 12.9475C10.49 13.2175 9.49003 13.2175 8.53003 12.9475L6.93003 12.4975L6.80003 12.4775C6.52003 12.4775 6.27003 12.6175 6.13003 12.8475C6.00003 13.0675 5.99003 13.3375 6.11003 13.5575C6.83003 14.8975 8.31003 15.7275 9.99003 15.7275C11.67 15.7275 13.15 14.8975 13.87 13.5575C13.99 13.3275 13.99 13.0675 13.85 12.8475C13.71 12.6175 13.46 12.4775 13.18 12.4775ZM9.99003 14.7275C8.98003 14.7275 8.03003 14.3275 7.41003 13.6675L8.27003 13.9075C9.40003 14.2275 10.59 14.2275 11.72 13.9075L12.58 13.6675C11.95 14.3275 11.01 14.7275 9.99003 14.7275Z" fill="black"/>
</g>
<defs>
<clipPath id="clip0_5_1753">
<rect width="16" height="17" fill="white" transform="translate(2 1.5)"/>
</clipPath>
</defs>
</svg>
