<svg width="20" height="20" viewBox="0 0 20 20" fill="none" xmlns="http://www.w3.org/2000/svg">
<g clip-path="url(#clip0_5_1756)">
<path opacity="0.15" d="M18.7999 9.13315C18.5021 6.48205 17.0825 4.09009 14.8984 2.57518C12.8137 1.12006 10.3318 0.651637 7.91943 1.25959C7.65139 1.32936 7.39328 1.40909 7.13516 1.49879C4.36541 2.46554 2.24093 4.97711 1.58572 8.06673C1.36732 9.00358 1 10.6281 1 10.9271C1 12.143 1.98282 13.1297 3.19397 13.1297C3.57121 13.1297 3.9286 13.0301 4.24628 12.8606V14.246C4.24628 15.9801 5.65597 17.3954 7.38335 17.3954C7.61168 17.3954 7.83008 17.3555 8.04849 17.3057C8.18747 18.2625 9.00152 19 10.0241 19C11.0168 19 11.8308 18.2625 11.9599 17.3057C12.1882 17.3555 12.4265 17.3954 12.6648 17.3954C14.3921 17.3954 15.8018 15.9801 15.8018 14.246V12.8706C16.1096 13.0301 16.4471 13.1198 16.8045 13.1198C18.0156 13.1198 18.9985 12.1331 18.9985 10.9172C19.0183 10.6082 18.8396 9.39227 18.7999 9.13315Z" fill="black"/>
<path opacity="0.15" d="M10.9969 17.0167C10.9969 17.5549 10.5601 17.9934 9.98433 17.9934C9.44825 17.9934 9.01144 17.5549 9.01144 17.0167V16.907C9.18021 16.8074 9.33905 16.6878 9.48796 16.5582V16.7376C9.48796 17.0167 9.70637 17.2359 9.98433 17.2359C10.2623 17.2359 10.4807 17.0167 10.4807 16.7376V16.4785C10.6395 16.628 10.8182 16.7575 10.9969 16.8771V17.0167Z" fill="black"/>
<path d="M18.7999 9.13315C18.5021 6.48205 17.0825 4.09009 14.8984 2.57518C12.8137 1.12006 10.3318 0.651637 7.91943 1.25959C7.65139 1.32936 7.39328 1.40909 7.13516 1.49879C4.36541 2.46554 2.24093 4.97711 1.58572 8.06673C1.36732 9.00358 1 10.6281 1 10.9271C1 12.143 1.98282 13.1297 3.19397 13.1297C3.57121 13.1297 3.9286 13.0301 4.24628 12.8606V14.246C4.24628 15.9801 5.65597 17.3954 7.38335 17.3954C7.61168 17.3954 7.83009 17.3555 8.04849 17.3057C8.18747 18.2625 9.00152 19 10.0241 19C11.0168 19 11.8308 18.2625 11.9599 17.3057C12.1882 17.3555 12.4265 17.3954 12.6648 17.3954C14.3921 17.3954 15.8018 15.9801 15.8018 14.246V12.8706C16.1096 13.0301 16.4471 13.1198 16.8045 13.1198C18.0156 13.1198 18.9985 12.1331 18.9985 10.9172C19.0183 10.6082 18.8396 9.39227 18.7999 9.13315ZM10.9969 17.0167C10.9969 17.5549 10.5601 17.9934 9.98434 17.9934C9.44826 17.9934 9.01145 17.5549 9.01145 17.0167V16.907C9.18022 16.8074 9.33906 16.6878 9.48797 16.5582V16.7376C9.48797 17.0167 9.70637 17.2359 9.98434 17.2359C10.2623 17.2359 10.4807 17.0167 10.4807 16.7376V16.4785C10.6396 16.628 10.8182 16.7575 10.9969 16.8771V17.0167ZM16.8144 12.1231C16.3875 12.1231 15.9904 11.8839 15.782 11.5052L15.6926 6.81095C15.6827 6.53188 15.4544 6.31262 15.1863 6.32259C14.9084 6.33255 14.69 6.55182 14.6999 6.83088L14.819 14.226C14.819 15.4121 13.856 16.3788 12.6747 16.3788C11.4933 16.3788 10.5304 15.4121 10.5304 14.226C10.5304 14.1463 10.5006 14.0666 10.4708 13.9968H10.5105C10.7885 13.9968 11.0069 13.7775 11.0069 13.4985C11.0069 13.2194 10.7885 13.0002 10.5105 13.0002H9.51775C9.23978 13.0002 9.02138 13.2194 9.02138 13.4985C9.02138 13.7775 9.23978 13.9968 9.51775 13.9968H9.59717C9.55746 14.0666 9.53761 14.1463 9.53761 14.226C9.53761 15.4121 8.57464 16.3788 7.39328 16.3788C6.21191 16.3788 5.24895 15.4121 5.24895 14.226V6.82091C5.24895 6.54185 5.03054 6.32259 4.75258 6.32259C4.47461 6.32259 4.2562 6.54185 4.2562 6.82091V11.4852C4.04773 11.8739 3.65063 12.1231 3.20389 12.1231C2.53875 12.1231 2.00267 11.5849 2.00267 10.9271C2.0126 10.7278 2.29057 9.42217 2.55861 8.26606C3.14433 5.5153 5.02062 3.27283 7.46277 2.42568C7.6911 2.34595 7.92936 2.27618 8.16762 2.21638C10.2921 1.67819 12.4861 2.09678 14.3326 3.38246C16.2783 4.73791 17.5491 6.88071 17.8171 9.24278C17.8171 9.25274 17.8171 9.25274 17.8171 9.26271C17.9164 9.9504 18.0256 10.7477 18.0256 10.9072C18.0256 11.5849 17.4796 12.1231 16.8144 12.1231Z" fill="#040000"/>
<path d="M7.57001 9.55046C8.12229 9.55046 8.57001 9.10275 8.57001 8.55046C8.57001 7.99818 8.12229 7.55046 7.57001 7.55046C7.01772 7.55046 6.57001 7.99818 6.57001 8.55046C6.57001 9.10275 7.01772 9.55046 7.57001 9.55046Z" fill="#040000"/>
<path d="M12.57 9.55046C13.1223 9.55046 13.57 9.10275 13.57 8.55046C13.57 7.99818 13.1223 7.55046 12.57 7.55046C12.0177 7.55046 11.57 7.99818 11.57 8.55046C11.57 9.10275 12.0177 9.55046 12.57 9.55046Z" fill="#040000"/>
</g>
<defs>
<clipPath id="clip0_5_1756">
<rect width="18" height="18" fill="white" transform="translate(1 1)"/>
</clipPath>
</defs>
</svg>
