<svg width="20" height="20" viewBox="0 0 20 20" fill="none" xmlns="http://www.w3.org/2000/svg">
<g clip-path="url(#clip0_5_1754)">
<path opacity="0.15" d="M2.84 3.5H17.16C17.62 3.5 18 3.99176 18 4.58706V13.18C18 13.909 17.409 14.5 16.68 14.5H3.32C2.59098 14.5 2 13.909 2 13.18V4.58706C2 3.99176 2.38 3.5 2.84 3.5Z" fill="black"/>
<path d="M17.16 2.5H2.84C1.83 2.5 1 3.33 1 4.34V13.66C1 14.67 1.83 15.5 2.84 15.5H7V16.5H6.5C6.22 16.5 6 16.72 6 17C6 17.28 6.22 17.5 6.5 17.5H7H13H13.5C13.78 17.5 14 17.28 14 17C14 16.72 13.78 16.5 13.5 16.5H13V15.5H17.16C18.17 15.5 19 14.67 19 13.66V4.34C19 3.33 18.18 2.5 17.16 2.5ZM2.84 3.5H17.16C17.62 3.5 18 3.99176 18 4.58706V13.18C18 13.909 17.409 14.5 16.68 14.5H3.32C2.59098 14.5 2 13.909 2 13.18V4.58706C2 3.99176 2.38 3.5 2.84 3.5ZM12 16.5H8V15.5H12V16.5Z" fill="#040000"/>
</g>
<defs>
<clipPath id="clip0_5_1754">
<rect width="18" height="15" fill="white" transform="translate(1 2.5)"/>
</clipPath>
</defs>
</svg>
