<svg width="20" height="20" viewBox="0 0 20 20" fill="none" xmlns="http://www.w3.org/2000/svg">
<g clip-path="url(#clip0_5_1755)">
<path opacity="0.15" d="M16.9998 11.5996C16.9998 12.6696 15.8828 13.4996 14.9208 13.4996H14.4998C14.2238 13.4996 13.9998 13.7236 13.9998 13.9996V17.4996H11.9998V15.9996C11.9998 15.7236 11.7758 15.4996 11.4998 15.4996C11.2238 15.4996 10.9998 15.7236 10.9998 15.9996V17.4996H8.99979V15.9996C8.99979 15.7236 8.77579 15.4996 8.49979 15.4996C8.22379 15.4996 7.99979 15.7236 7.99979 15.9996V17.4996H5.99979V13.9996C5.99979 13.7236 5.77579 13.4996 5.49979 13.4996H4.89979C3.86979 13.4996 2.99979 12.6296 2.99979 11.5996V9.3266C2.99979 5.5626 5.93679 2.4996 9.54479 2.4996H10.4558C14.0638 2.4996 16.9998 5.5626 16.9998 9.3266V11.5996Z" fill="black"/>
<path fill-rule="evenodd" clip-rule="evenodd" d="M16.9998 11.5996C16.9998 12.6696 15.8828 13.4996 14.9208 13.4996H14.4998C14.2238 13.4996 13.9998 13.7236 13.9998 13.9996V17.4996H11.9998V15.9996C11.9998 15.7236 11.7758 15.4996 11.4998 15.4996C11.2238 15.4996 10.9998 15.7236 10.9998 15.9996V17.4996H8.99979V15.9996C8.99979 15.7236 8.77579 15.4996 8.49979 15.4996C8.22379 15.4996 7.99979 15.7236 7.99979 15.9996V17.4996H5.99979V13.9996C5.99979 13.7236 5.77579 13.4996 5.49979 13.4996H4.89979C3.86979 13.4996 2.99979 12.6296 2.99979 11.5996V9.3266C2.99979 5.5626 5.93679 2.4996 9.54479 2.4996H10.4558C14.0638 2.4996 16.9998 5.5626 16.9998 9.3266V11.5996ZM9.54479 1.4996C5.38479 1.4996 1.99979 5.0106 1.99979 9.3266V11.5996C1.99979 13.1716 3.32779 14.4996 4.89979 14.4996H4.99979V17.9996C4.99979 18.2766 5.22379 18.4996 5.49979 18.4996H14.4998C14.7758 18.4996 14.9998 18.2766 14.9998 17.9996V14.4986C16.6068 14.4556 17.9998 13.1206 17.9998 11.5996V9.3266C17.9998 5.0106 14.6158 1.4996 10.4558 1.4996H9.54479Z" fill="black"/>
<path fill-rule="evenodd" clip-rule="evenodd" d="M7.49979 9.5C7.22479 9.5 6.99979 9.275 6.99979 9C6.99979 8.725 7.22479 8.5 7.49979 8.5C7.77479 8.5 7.99979 8.725 7.99979 9C7.99979 9.275 7.77479 9.5 7.49979 9.5ZM7.49979 7.5C6.67279 7.5 5.99979 8.173 5.99979 9C5.99979 9.827 6.67279 10.5 7.49979 10.5C8.32679 10.5 8.99979 9.827 8.99979 9C8.99979 8.173 8.32679 7.5 7.49979 7.5Z" fill="black"/>
<path fill-rule="evenodd" clip-rule="evenodd" d="M12.4998 9.5C12.2248 9.5 11.9998 9.275 11.9998 9C11.9998 8.725 12.2248 8.5 12.4998 8.5C12.7748 8.5 12.9998 8.725 12.9998 9C12.9998 9.275 12.7748 9.5 12.4998 9.5ZM12.4998 7.5C11.6728 7.5 10.9998 8.173 10.9998 9C10.9998 9.827 11.6728 10.5 12.4998 10.5C13.3268 10.5 13.9998 9.827 13.9998 9C13.9998 8.173 13.3268 7.5 12.4998 7.5Z" fill="black"/>
</g>
<defs>
<clipPath id="clip0_5_1755">
<rect width="16" height="17" fill="white" transform="translate(2 1.5)"/>
</clipPath>
</defs>
</svg>
