<svg width="20" height="20" viewBox="0 0 20 20" fill="none" xmlns="http://www.w3.org/2000/svg">
<g clip-path="url(#clip0_5_1761)">
<path opacity="0.15" d="M16.8001 4H3.20006C2.53628 4 2.00006 4.51256 2.00006 5.125V14.875C2.00006 15.4874 2.53628 16 3.20006 16H16.8001C17.4638 16 18.0001 15.4874 18.0001 14.875V5.125C18.0001 4.51256 17.4638 4 16.8001 4Z" fill="black"/>
<path d="M16.8001 3C18.0063 3 19.0001 3.94994 19.0001 5.125V14.875C19.0001 16.0501 18.0063 17 16.8001 17H3.20006C1.99384 17 1.00006 16.0501 1.00006 14.875V5.125C1.00006 3.94994 1.99384 3 3.20006 3H16.8001ZM16.8001 4H3.20006C2.53628 4 2.00006 4.51256 2.00006 5.125V14.875C2.00006 15.4874 2.53628 16 3.20006 16H16.8001C17.4638 16 18.0001 15.4874 18.0001 14.875V5.125C18.0001 4.51256 17.4638 4 16.8001 4Z" fill="black"/>
<path d="M10.0001 10.2109L1.77811 4.70945C1.5486 4.55589 1.23806 4.61745 1.0845 4.84695C0.930932 5.07646 0.992493 5.387 1.222 5.54056L9.722 11.2281C9.89027 11.3407 10.1098 11.3407 10.2781 11.2281L18.7781 5.54056C19.0076 5.387 19.0692 5.07646 18.9156 4.84695C18.762 4.61745 18.4515 4.55589 18.222 4.70945L10.0001 10.2109Z" fill="black"/>
</g>
<defs>
<clipPath id="clip0_5_1761">
<rect width="18" height="14" fill="white" transform="translate(1 3)"/>
</clipPath>
</defs>
</svg>
