<svg width="20" height="20" viewBox="0 0 20 20" fill="none" xmlns="http://www.w3.org/2000/svg">
<g clip-path="url(#clip0_5_1762)">
<path opacity="0.15" d="M10 18C5.59 18 2 14.41 2 10C2 5.59 5.59 2 10 2C14.41 2 18 5.59 18 10C18 14.41 14.41 18 10 18Z" fill="black"/>
<path d="M10 1C5.04 1 1 5.04 1 10C1 14.96 5.04 19 10 19C14.96 19 19 14.96 19 10C19 5.04 14.97 1 10 1ZM10 18C5.59 18 2 14.41 2 10C2 5.59 5.59 2 10 2C14.41 2 18 5.59 18 10C18 14.41 14.41 18 10 18Z" fill="black"/>
<path d="M10 4.97C9.72 4.97 9.5 5.19 9.5 5.47V12.4C9.5 12.68 9.72 12.9 10 12.9C10.28 12.9 10.5 12.68 10.5 12.4V5.47C10.5 5.2 10.28 4.97 10 4.97Z" fill="black"/>
<path d="M10.36 14.32C10.31 14.27 10.26 14.24 10.19 14.21C10.07 14.16 9.93 14.16 9.81 14.21C9.75 14.24 9.7 14.27 9.65 14.32C9.6 14.37 9.57 14.42 9.54 14.48C9.52 14.54 9.5 14.61 9.5 14.67C9.5 14.74 9.52 14.8 9.54 14.87C9.57 14.93 9.6 14.98 9.65 15.03C9.74 15.12 9.87 15.18 10 15.18C10.07 15.18 10.13 15.16 10.19 15.14C10.26 15.11 10.31 15.07 10.36 15.03C10.4 14.98 10.44 14.93 10.47 14.87C10.49 14.8 10.5 14.74 10.5 14.67C10.5 14.61 10.49 14.54 10.47 14.48C10.44 14.42 10.4 14.37 10.36 14.32Z" fill="black"/>
</g>
<defs>
<clipPath id="clip0_5_1762">
<rect width="18" height="18" fill="white" transform="translate(1 1)"/>
</clipPath>
</defs>
</svg>
