<svg width="20" height="20" viewBox="0 0 20 20" fill="none" xmlns="http://www.w3.org/2000/svg">
<g clip-path="url(#clip0_5_1760)">
<path opacity="0.15" d="M10.5741 16.9695C10.2211 15.5815 8.67613 14.6135 7.50813 13.8925L6.99413 13.5745C6.16713 13.0705 5.73613 12.7715 5.75813 12.0325C5.78713 11.0085 6.39613 10.3575 7.10113 9.6025C7.40213 9.2805 7.71413 8.9475 7.98913 8.5705C8.88513 7.3485 8.80013 6.4045 8.57013 5.8265C8.19013 4.8685 7.23713 4.3195 6.38613 4.0055C7.43813 3.3715 8.66713 2.9995 9.98213 2.9995C10.7591 2.9995 11.5041 3.1325 12.2031 3.3665C11.7051 4.9155 11.9531 6.6355 12.9041 7.9565C13.7771 9.1695 15.1061 9.8445 16.5951 9.8445C16.7201 9.8445 16.8461 9.8395 16.9731 9.8295C16.9751 9.8865 16.9821 9.9425 16.9821 9.9995C16.9821 13.6585 14.1571 16.6675 10.5741 16.9695Z" fill="black"/>
<path opacity="0.15" d="M2.98212 9.9995C2.98212 7.9045 3.91312 6.0265 5.37712 4.7415C6.53612 5.0245 7.39012 5.5645 7.64012 6.1965C7.83912 6.6945 7.68412 7.2945 7.18212 7.9795C6.94212 8.3085 6.66512 8.6055 6.37112 8.9185C5.59712 9.7465 4.79812 10.6025 4.75812 12.0035C4.71912 13.3575 5.65012 13.9265 6.47312 14.4285L6.98212 14.7425C7.91812 15.3205 9.14012 16.0805 9.52912 16.9765C5.88212 16.7415 2.98212 13.7065 2.98212 9.9995Z" fill="black"/>
<path opacity="0.15" d="M16.8771 8.83349C15.5861 8.93049 14.4601 8.40749 13.7161 7.37249C12.9671 6.33149 12.7571 4.98149 13.1251 3.75349C15.0751 4.73949 16.5011 6.60849 16.8771 8.83349Z" fill="black"/>
<path fill-rule="evenodd" clip-rule="evenodd" d="M10.5741 16.9695C10.2211 15.5815 8.67612 14.6135 7.50812 13.8925L6.99412 13.5745C6.16712 13.0705 5.73612 12.7715 5.75812 12.0325C5.78712 11.0085 6.39612 10.3575 7.10112 9.6025C7.40212 9.2805 7.71412 8.9475 7.98912 8.5705C8.88512 7.3485 8.80012 6.4045 8.57012 5.8265C8.19012 4.8685 7.23712 4.3195 6.38612 4.0055C7.43812 3.3715 8.66712 2.9995 9.98212 2.9995C10.7591 2.9995 11.5041 3.1325 12.2031 3.3665C11.7051 4.9155 11.9531 6.6355 12.9041 7.9565C13.7771 9.1695 15.1061 9.8445 16.5951 9.8445C16.7201 9.8445 16.8461 9.8395 16.9731 9.8295C16.9751 9.8865 16.9821 9.9425 16.9821 9.9995C16.9821 13.6585 14.1571 16.6675 10.5741 16.9695ZM2.98212 9.9995C2.98212 7.9045 3.91312 6.0265 5.37712 4.7415C6.53612 5.0245 7.39012 5.5645 7.64012 6.1965C7.83912 6.6945 7.68412 7.2945 7.18212 7.9795C6.94212 8.3085 6.66512 8.6055 6.37112 8.9185C5.59712 9.7465 4.79812 10.6025 4.75812 12.0035C4.71912 13.3575 5.65012 13.9265 6.47312 14.4285L6.98212 14.7425C7.91812 15.3205 9.14012 16.0805 9.52912 16.9765C5.88212 16.7415 2.98212 13.7065 2.98212 9.9995ZM16.8771 8.8335C15.5861 8.9305 14.4601 8.4075 13.7161 7.3725C12.9671 6.3315 12.7571 4.9815 13.1251 3.7535C15.0751 4.7395 16.5011 6.6085 16.8771 8.8335ZM9.98212 1.9995C5.57112 1.9995 1.98212 5.5885 1.98212 9.9995C1.98212 14.4105 5.57112 17.9995 9.98212 17.9995C14.3931 17.9995 17.9821 14.4105 17.9821 9.9995C17.9821 5.5885 14.3931 1.9995 9.98212 1.9995Z" fill="black"/>
</g>
<defs>
<clipPath id="clip0_5_1760">
<rect width="16" height="16" fill="white" transform="translate(2 2)"/>
</clipPath>
</defs>
</svg>
