<svg width="20" height="20" viewBox="0 0 20 20" fill="none" xmlns="http://www.w3.org/2000/svg">
<g clip-path="url(#clip0_5_1763)">
<path opacity="0.15" d="M17.9341 10.2345C16.4878 12.7687 15.0916 13.9075 13.9265 14.6778C12.6711 15.4705 11.3854 15.8612 9.98933 15.8724C9.98933 15.8724 9.98933 15.8724 9.97928 15.8724C8.59322 15.8724 7.3076 15.4817 6.06215 14.7002C4.88701 13.9187 3.4909 12.7799 2.04458 10.2345C1.96423 10.0893 1.96423 9.91069 2.04458 9.76555C3.4909 7.20893 4.88701 6.08134 6.05211 5.31101C7.31764 4.51834 8.60327 4.12759 9.97928 4.12759C9.97928 4.12759 9.97928 4.12759 9.98933 4.12759C11.3854 4.13876 12.6711 4.52951 13.9165 5.32217C15.0916 6.10367 16.4878 7.23126 17.9341 9.77672C18.0144 9.91069 18.0144 10.0893 17.9341 10.2345Z" fill="black"/>
<path d="M18.7878 9.16268C17.221 6.4051 15.6441 5.14354 14.4287 4.33971C13.0226 3.44657 11.5763 3.01116 9.99936 3C9.99936 3 9.99936 3 9.98932 3C8.4526 3 6.9661 3.44657 5.55995 4.33971C4.35467 5.13238 2.77778 6.4051 1.21092 9.17384C0.929692 9.67624 0.929692 10.3349 1.21092 10.8373C2.77778 13.6061 4.35467 14.8788 5.56999 15.6715C6.9661 16.5534 8.4526 17 9.99936 17C9.99936 17 9.99936 17 10.0094 17C11.5763 16.9888 13.0326 16.5423 14.4488 15.6491C15.6541 14.8565 17.231 13.5837 18.7978 10.8373C19.069 10.3238 19.069 9.66507 18.7878 9.16268ZM17.9341 10.2344C16.4877 12.7687 15.0916 13.9075 13.9265 14.6778C12.671 15.4705 11.3854 15.8612 9.98932 15.8724C9.98932 15.8724 9.98932 15.8724 9.97928 15.8724C8.59321 15.8724 7.30759 15.4817 6.06214 14.7002C4.887 13.9187 3.4909 12.7799 2.04457 10.2344C1.96422 10.0893 1.96422 9.91069 2.04457 9.76555C3.4909 7.20893 4.887 6.08134 6.0521 5.311C7.31763 4.51834 8.60326 4.12759 9.97928 4.12759C9.97928 4.12759 9.97928 4.12759 9.98932 4.12759C11.3854 4.13876 12.671 4.52951 13.9165 5.32217C15.0916 6.10367 16.4877 7.23126 17.9341 9.77671C18.0144 9.91069 18.0144 10.0893 17.9341 10.2344Z" fill="#040000"/>
<path d="M10 6C7.79 6 6 7.79 6 10C6 12.21 7.79 14 10 14C12.21 14 14 12.21 14 10C14 7.79 12.2 6 10 6ZM10 13C8.35 13 7 11.65 7 10C7 8.35 8.35 7 10 7C11.65 7 13 8.35 13 10C13 11.65 11.65 13 10 13Z" fill="#040000"/>
</g>
<defs>
<clipPath id="clip0_5_1763">
<rect width="18" height="14" fill="white" transform="translate(1 3)"/>
</clipPath>
</defs>
</svg>
