<svg width="20" height="20" viewBox="0 0 20 20" fill="none" xmlns="http://www.w3.org/2000/svg">
<g clip-path="url(#clip0_5_1774)">
<path opacity="0.15" d="M3.84 17C3.38 17 3 16.62 3 16.16V3.84001C3 3.79001 3.02 3.75001 3.03 3.71001C3.05 3.73001 3.06 3.76001 3.08 3.78001L5.81 6.51001C5.91 6.61001 6.04 6.66001 6.16 6.66001C6.28 6.66001 6.42 6.61001 6.51 6.51001C6.71 6.31001 6.71 6.00001 6.51 5.80001L3.78 3.07001C3.76 3.05001 3.73 3.04001 3.71 3.02001C3.75 3.01001 3.79 2.99001 3.84 2.99001H16.16C16.62 2.99001 17 3.37001 17 3.83001V16.15C17 16.19 16.98 16.22 16.98 16.26L14.47 13.75C14.27 13.55 13.96 13.55 13.76 13.75C13.56 13.95 13.56 14.26 13.76 14.46L16.27 16.97C16.23 16.98 16.2 16.99 16.16 16.99H3.84V17Z" fill="black"/>
<path d="M10.5 9.44V6.93C11.7 7.22 11.86 8.13 11.87 8.25C11.9 8.52 12.13 8.72 12.42 8.69C12.69 8.66 12.9 8.42 12.87 8.14C12.8 7.46 12.21 6.22 10.5 5.91V5.47C10.5 5.19 10.28 4.97 9.99997 4.97C9.71997 4.97 9.49997 5.19 9.49997 5.47V5.86C8.73997 5.92 8.10997 6.23 7.68997 6.77C7.00997 7.64 6.96997 8.71 7.59997 9.44C8.11997 10.03 8.82997 10.2 9.49997 10.3V13.05C9.06997 12.97 8.66997 12.81 8.36997 12.56C8.03997 12.28 7.81997 11.85 7.78997 11.41C7.76997 11.13 7.51997 10.93 7.25997 10.94C6.97997 10.96 6.77997 11.2 6.78997 11.47C6.83997 12.18 7.16997 12.86 7.71997 13.32C8.19997 13.72 8.82997 13.98 9.48997 14.07V14.48C9.48997 14.76 9.70997 14.98 9.98997 14.98C10.27 14.98 10.49 14.76 10.49 14.48V14.07C10.58 14.06 10.67 14.06 10.75 14.05C11.73 13.87 12.49 13.34 12.91 12.57C13.33 11.78 13.2 11.19 13.02 10.84C12.6 9.98 11.43 9.61 10.5 9.44ZM8.35997 8.78C7.97997 8.34 8.18997 7.76 8.47997 7.39C8.75997 7.03 9.15997 6.91 9.50997 6.87V9.29C9.03997 9.22 8.62997 9.1 8.35997 8.78ZM12.04 12.08C11.77 12.58 11.25 12.92 10.58 13.05C10.55 13.05 10.53 13.05 10.5 13.06V10.46C11.35 10.64 11.96 10.94 12.14 11.29C12.18 11.36 12.3 11.59 12.04 12.08Z" fill="#040000"/>
<path d="M16.16 2H3.84C2.83 2 2 2.83 2 3.84V16.16C2 17.17 2.83 18 3.84 18H16.16C17.17 18 18 17.17 18 16.16V3.84C18 2.83 17.18 2 16.16 2ZM3.84 17C3.38 17 3 16.62 3 16.16V3.84C3 3.79 3.02 3.75 3.03 3.71C3.05 3.73 3.06 3.76 3.08 3.78L5.81 6.51C5.91 6.61 6.04 6.66 6.16 6.66C6.28 6.66 6.42 6.61 6.51 6.51C6.71 6.31 6.71 6 6.51 5.8L3.78 3.07C3.76 3.05 3.73 3.04 3.71 3.02C3.75 3.01 3.79 2.99 3.84 2.99H16.16C16.62 2.99 17 3.37 17 3.83V16.15C17 16.19 16.98 16.22 16.98 16.26L14.47 13.75C14.27 13.55 13.96 13.55 13.76 13.75C13.56 13.95 13.56 14.26 13.76 14.46L16.27 16.97C16.23 16.98 16.2 16.99 16.16 16.99H3.84V17Z" fill="#040000"/>
</g>
<defs>
<clipPath id="clip0_5_1774">
<rect width="16" height="16" fill="white" transform="translate(2 2)"/>
</clipPath>
</defs>
</svg>
