<svg width="20" height="20" viewBox="0 0 20 20" fill="none" xmlns="http://www.w3.org/2000/svg">
<g clip-path="url(#clip0_5_1768)">
<path opacity="0.15" d="M14.99 11.26C13.7 11.47 12.37 11.34 11.15 10.87L10.59 10.66C8.63001 9.91 6.45001 9.93 4.51001 10.69V10.49V3.62C6.31001 2.8 8.38001 2.74 10.23 3.44L10.79 3.65C12.18 4.18 13.69 4.33 15.15 4.09L15.5 4.03V11.16L14.99 11.26Z" fill="black"/>
<path d="M16.49 11.66C16.49 11.64 16.5 11.62 16.5 11.6V3.46C16.5 3.31 16.44 3.17 16.32 3.08C16.21 2.98 16.06 2.94 15.91 2.97L14.98 3.12C13.69 3.33 12.36 3.2 11.14 2.73L10.58 2.52C8.61 1.77 6.44 1.79 4.5 2.55V1.5C4.5 1.22 4.28 1 4 1C3.72 1 3.5 1.22 3.5 1.5V3.32V10.5V18.5C3.5 18.78 3.72 19 4 19C4.28 19 4.5 18.78 4.5 18.5V11.79C6.3 10.97 8.37 10.89 10.22 11.6L10.78 11.81C11.74 12.18 12.76 12.36 13.78 12.36C14.23 12.36 14.69 12.32 15.14 12.25L16.07 12.1C16.09 12.1 16.11 12.08 16.13 12.08C16.16 12.07 16.19 12.06 16.22 12.05C16.25 12.03 16.27 12.02 16.3 12C16.32 11.98 16.35 11.96 16.37 11.94C16.39 11.92 16.41 11.89 16.42 11.86C16.44 11.83 16.45 11.81 16.46 11.77C16.48 11.72 16.49 11.69 16.49 11.66ZM14.99 11.26C13.7 11.47 12.37 11.34 11.15 10.87L10.59 10.66C8.63 9.91 6.45 9.93 4.51 10.69V10.49V3.62C6.31 2.8 8.38 2.74 10.23 3.44L10.79 3.65C12.18 4.18 13.69 4.33 15.15 4.09L15.5 4.03V11.16L14.99 11.26Z" fill="black"/>
</g>
<defs>
<clipPath id="clip0_5_1768">
<rect width="13" height="18" fill="white" transform="translate(3.5 1)"/>
</clipPath>
</defs>
</svg>
