<svg width="20" height="20" viewBox="0 0 20 20" fill="none" xmlns="http://www.w3.org/2000/svg">
<g clip-path="url(#clip0_5_1767)">
<path opacity="0.15" d="M15.32 3H4.68C3.75216 3 3 3.75216 3 4.68V15.32C3 16.2478 3.75216 17 4.68 17H15.32C16.2478 17 17 16.2478 17 15.32V4.68C17 3.75216 16.2478 3 15.32 3Z" fill="black"/>
<path d="M15.32 2C16.8001 2 18 3.19988 18 4.68V15.32C18 16.8001 16.8001 18 15.32 18H4.68C3.19988 18 2 16.8001 2 15.32V4.68C2 3.19988 3.19988 2 4.68 2H15.32ZM15.32 3H4.68C3.75216 3 3 3.75216 3 4.68V15.32C3 16.2478 3.75216 17 4.68 17H15.32C16.2478 17 17 16.2478 17 15.32V4.68C17 3.75216 16.2478 3 15.32 3Z" fill="black"/>
<path d="M5.75 2.5V17.5C5.75 17.7761 5.97386 18 6.25 18C6.52614 18 6.75 17.7761 6.75 17.5V2.5C6.75 2.22386 6.52614 2 6.25 2C5.97386 2 5.75 2.22386 5.75 2.5Z" fill="black"/>
<path d="M13.25 2.5V17.5C13.25 17.7761 13.4739 18 13.75 18C14.0261 18 14.25 17.7761 14.25 17.5V2.5C14.25 2.22386 14.0261 2 13.75 2C13.4739 2 13.25 2.22386 13.25 2.5Z" fill="black"/>
<path d="M2.5 10.5H17.5C17.7761 10.5 18 10.2761 18 10C18 9.72386 17.7761 9.5 17.5 9.5H2.5C2.22386 9.5 2 9.72386 2 10C2 10.2761 2.22386 10.5 2.5 10.5Z" fill="black"/>
<path d="M2.5 6.75H6.25C6.52614 6.75 6.75 6.52614 6.75 6.25C6.75 5.97386 6.52614 5.75 6.25 5.75H2.5C2.22386 5.75 2 5.97386 2 6.25C2 6.52614 2.22386 6.75 2.5 6.75Z" fill="black"/>
<path d="M2.5 14.25H6.25C6.52614 14.25 6.75 14.0261 6.75 13.75C6.75 13.4739 6.52614 13.25 6.25 13.25H2.5C2.22386 13.25 2 13.4739 2 13.75C2 14.0261 2.22386 14.25 2.5 14.25Z" fill="black"/>
<path d="M13.75 14.25H17.5C17.7761 14.25 18 14.0261 18 13.75C18 13.4739 17.7761 13.25 17.5 13.25H13.75C13.4739 13.25 13.25 13.4739 13.25 13.75C13.25 14.0261 13.4739 14.25 13.75 14.25Z" fill="black"/>
<path d="M13.75 6.75H17.5C17.7761 6.75 18 6.52614 18 6.25C18 5.97386 17.7761 5.75 17.5 5.75H13.75C13.4739 5.75 13.25 5.97386 13.25 6.25C13.25 6.52614 13.4739 6.75 13.75 6.75Z" fill="black"/>
</g>
<defs>
<clipPath id="clip0_5_1767">
<rect width="16" height="16" fill="white" transform="translate(2 2)"/>
</clipPath>
</defs>
</svg>
