<svg width="20" height="20" viewBox="0 0 20 20" fill="none" xmlns="http://www.w3.org/2000/svg">
<g clip-path="url(#clip0_5_1771)">
<path d="M11.34 12.05C11.57 11.94 11.69 11.81 11.69 11.64C11.69 11.57 11.67 11.49 11.63 11.39L11.59 11.29L11.49 11.34C11.18 11.49 10.91 11.57 10.68 11.57C10.48 11.57 10.34 11.52 10.27 11.43C10.21 11.36 10.12 11.17 10 10.67C9.75 9.62 9.62 8.57 9.62 7.56L9.58 6.33C9.58 4.53 9.77 3.32 10.14 2.74L10.24 2.59H9.54C9.52 2.59 9.3 2.58 8.37 2.52C8.1 2.5 7.78 2.5 7.4 2.5C5.24 2.5 3.69 2.82 2.79 3.46C1.71 4.23 1.16 5.25 1.16 6.5C1.16 7 1.26 7.53 1.47 8.07L1.52 8.21L2.84 6.94L2.8 6.87C2.57 6.45 2.46 5.99 2.46 5.51C2.46 4.09 3.5 3.4 5.63 3.4C6.37 3.4 7.09 3.46 7.78 3.56C7.18 3.91 6.7 4.34 6.33 4.84C5.92 5.41 5.48 6.32 5.02 7.56L4.8 8.17C4.34 9.44 3.98 10.3 3.75 10.75C3.53 11.17 3.26 11.5 2.95 11.73L2.2 11.68L1 12.76L4.19 12.87H4.24L5.22 11.84L3.77 11.77C4.44 11.27 4.99 10.5 5.4 9.49H7.85L8.29 9.18C8.38 10.49 8.63 11.75 9.01 12.94L9.04 13.04L10.96 12.2L11.34 12.05ZM8.26 4.99L8.2 5.85C8.19 6.02 8.19 6.25 8.19 6.52C8.19 7.03 8.22 7.7 8.28 8.5H5.81L5.93 8.21C5.96 8.13 6.06 7.83 6.24 7.3C6.81 5.64 7.53 4.48 8.38 3.87C8.33 4.16 8.29 4.53 8.26 4.99Z" fill="black"/>
<path d="M18.18 5.18C17.91 5.06 17.5 5 16.97 5C15.72 5 14.63 5.52 13.72 6.54C12.81 7.56 12.35 8.78 12.35 10.16C12.35 10.75 12.49 11.19 12.77 11.47C11.33 12.64 10.6 13.85 10.6 15.06C10.6 15.68 10.81 16.2 11.21 16.62C11.62 17.03 12.13 17.24 12.74 17.24C13.98 17.24 15.15 16.66 16.24 15.51C16.72 15.01 17.06 14.43 17.24 13.79C17.43 13.16 17.55 12.18 17.62 10.87C17.67 9.84 17.72 9.11 17.76 8.69L18.03 6.22C18.03 6.19 18.07 6.05 18.12 5.79L18.19 5.43C18.19 5.41 18.21 5.36 18.23 5.29L18.25 5.21L18.18 5.18ZM14.07 10.57C13.97 10.57 13.65 10.57 13.65 9.79C13.65 8.68 13.86 7.74 14.28 6.98C14.68 6.24 15.18 5.87 15.76 5.87C16.2 5.87 16.58 5.97 16.88 6.16L16.8 6.84C16.69 7.89 16.24 8.84 15.46 9.67C14.9 10.27 14.44 10.57 14.07 10.57ZM13.67 16.29C13.11 16.29 12.63 16.11 12.25 15.75C11.87 15.39 11.68 14.95 11.68 14.41C11.68 13.63 12.19 12.71 13.19 11.7C13.27 11.71 13.33 11.71 13.37 11.71C14.33 11.71 15.39 10.87 16.54 9.2C16.51 9.59 16.47 10.11 16.43 10.78C16.29 13.08 16.03 14.55 15.67 15.15C15.21 15.92 14.55 16.29 13.67 16.29Z" fill="black"/>
</g>
<defs>
<clipPath id="clip0_5_1771">
<rect width="18" height="15" fill="white" transform="translate(1 2.5)"/>
</clipPath>
</defs>
</svg>
