<svg width="20" height="20" viewBox="0 0 20 20" fill="none" xmlns="http://www.w3.org/2000/svg">
<g clip-path="url(#clip0_36_240)">
<path d="M16.4999 7V8.5C16.4999 8.5 16.3999 8.5 16.2999 8.5H6.0999C5.3999 8.5 4.8999 8.9 4.5999 9.5L2.6999 14.5C2.4999 14.9 2.5999 15.4 2.7999 15.7C2.5999 15.4 2.3999 14.9 2.3999 14.5V5C2.3999 4.2 3.0999 3.5 3.8999 3.5H7.1999C7.2999 3.5 7.4999 3.5 7.5999 3.6L9.3999 5.5H14.9999C15.7999 5.5 16.4999 6.2 16.4999 7Z" stroke="black" stroke-linecap="round" stroke-linejoin="round"/>
<path opacity="0.15" d="M14.4 16.5H4.20002C3.20002 16.5 2.40002 15.5 2.80002 14.5L4.70002 9.5C4.90002 8.9 5.50002 8.5 6.20002 8.5H16.4C17.4 8.5 18.2 9.5 17.8 10.5L15.9 15.5C15.7 16.1 15.1 16.5 14.4 16.5Z" fill="black"/>
<path d="M14.4 16.5H4.20002C3.20002 16.5 2.40002 15.5 2.80002 14.5L4.70002 9.5C4.90002 8.9 5.50002 8.5 6.20002 8.5H16.4C17.4 8.5 18.2 9.5 17.8 10.5L15.9 15.5C15.7 16.1 15.1 16.5 14.4 16.5Z" stroke="black" stroke-linecap="round" stroke-linejoin="round"/>
</g>
<defs>
<clipPath id="clip0_36_240">
<rect width="16.3" height="14" fill="white" transform="translate(2 3)"/>
</clipPath>
</defs>
</svg>
