<svg width="20" height="20" viewBox="0 0 20 20" fill="none" xmlns="http://www.w3.org/2000/svg">
<g clip-path="url(#clip0_5_1773)">
<path d="M7.05935 4H5.94065L2.05039 13.8567L2 13.9904H3.2598L4.40873 10.9914H8.61142L9.73012 13.9331L9.75028 14H11L7.08959 4.07641L7.05935 4ZM4.77156 9.99809L6.50504 5.47087L8.23852 9.99809H4.77156Z" fill="black"/>
<path d="M16.9047 6.07533V7.30885C16.367 6.48023 15.431 6 14.3457 6C12.3442 6 11 7.51601 11 9.76648C11 12.0075 12.3343 13.5141 14.3158 13.5141C15.4011 13.5141 16.3371 13.0339 16.8549 12.2053V13.3164C16.8549 14.3522 15.9687 15.0207 14.5946 15.0207C13.5192 15.0207 12.7127 14.6252 12.5434 14.0226L12.5235 13.9567H11.3585L11.3784 14.0697C11.5875 15.2373 12.8321 16 14.5548 16C16.6856 16 18 14.9548 18 13.2599V6.09416H16.9047V6.07533ZM14.4851 12.5254C13.091 12.5254 12.155 11.4143 12.155 9.75706C12.155 8.0904 13.091 6.96987 14.4851 6.96987C15.909 6.96987 16.8649 8.0904 16.8649 9.75706C16.8549 11.4143 15.899 12.5254 14.4851 12.5254Z" fill="black"/>
</g>
<defs>
<clipPath id="clip0_5_1773">
<rect width="16" height="12" fill="white" transform="translate(2 4)"/>
</clipPath>
</defs>
</svg>
