<svg width="20" height="20" viewBox="0 0 20 20" fill="none" xmlns="http://www.w3.org/2000/svg">
<path opacity="0.15" d="M2.5 5V14.5C2.5 15.6 3.4 16.5 4.5 16.5H15.5C16.6 16.5 17.5 15.6 17.5 14.5V7.5C17.5 6.4 16.6 5.5 15.5 5.5H9.5L7.6 3.6C7.6 3.6 7.4 3.5 7.3 3.5H4C3.2 3.5 2.5 4.2 2.5 5Z" fill="black"/>
<path d="M2.5 5V14.5C2.5 15.6 3.4 16.5 4.5 16.5H15.5C16.6 16.5 17.5 15.6 17.5 14.5V7.5C17.5 6.4 16.6 5.5 15.5 5.5H9.5L7.6 3.6C7.6 3.6 7.4 3.5 7.3 3.5H4C3.2 3.5 2.5 4.2 2.5 5Z" stroke="black" stroke-linecap="round" stroke-linejoin="round"/>
<path d="M3 8.5H17" stroke="black" stroke-miterlimit="10"/>
</svg>
