<svg width="20" height="20" viewBox="0 0 20 20" fill="none" xmlns="http://www.w3.org/2000/svg">
<g clip-path="url(#clip0_5_1764)">
<path opacity="0.15" d="M14 2H12.0455C10.0666 2 8.45455 3.67475 8.45455 5.75V8.3C8.45455 8.57614 8.23069 8.8 7.95455 8.8H6V11.2H7.95455C8.23069 11.2 8.45455 11.4239 8.45455 11.7V18H10.7273V11.7C10.7273 11.4239 10.9511 11.2 11.2273 11.2H13.2879L13.8654 8.8H11.2273C10.9511 8.8 10.7273 8.57614 10.7273 8.3V5.75C10.7273 5.00859 11.3131 4.4 12.0455 4.4H14V2Z" fill="black"/>
<path d="M7.45455 7.8V5.75C7.45455 3.13083 9.50561 1 12.0455 1H14.5C14.7761 1 15 1.22386 15 1.5V4.9C15 5.17614 14.7761 5.4 14.5 5.4H12.0455C11.8741 5.4 11.7273 5.55252 11.7273 5.75V7.8H14.5C14.8235 7.8 15.0618 8.10249 14.9861 8.41698L14.1679 11.817C14.1139 12.0416 13.9129 12.2 13.6818 12.2H11.7273V18.5C11.7273 18.7761 11.5034 19 11.2273 19H7.95455C7.6784 19 7.45455 18.7761 7.45455 18.5V12.2H5.5C5.22386 12.2 5 11.9761 5 11.7V8.3C5 8.02386 5.22386 7.8 5.5 7.8H7.45455ZM14 2H12.0455C10.0666 2 8.45455 3.67475 8.45455 5.75V8.3C8.45455 8.57614 8.23069 8.8 7.95455 8.8H6V11.2H7.95455C8.23069 11.2 8.45455 11.4239 8.45455 11.7V18H10.7273V11.7C10.7273 11.4239 10.9511 11.2 11.2273 11.2H13.2879L13.8654 8.8H11.2273C10.9511 8.8 10.7273 8.57614 10.7273 8.3V5.75C10.7273 5.00859 11.3131 4.4 12.0455 4.4H14V2Z" fill="black"/>
</g>
<defs>
<clipPath id="clip0_5_1764">
<rect width="10" height="18" fill="white" transform="translate(5 1)"/>
</clipPath>
</defs>
</svg>
