<svg width="20" height="20" viewBox="0 0 20 20" fill="none" xmlns="http://www.w3.org/2000/svg">
<g clip-path="url(#clip0_5_1775)">
<path opacity="0.15" d="M10 3C6.141 3 3 6.141 3 10C3 13.859 6.141 17 10 17C13.859 17 17 13.859 17 10C17 6.141 13.859 3 10 3Z" fill="black"/>
<path fill-rule="evenodd" clip-rule="evenodd" d="M12.4732 14C12.1824 14 11.9464 13.7791 11.9464 13.5069C11.9464 12.6677 11.073 11.9862 9.99947 11.9862C8.92695 11.9862 8.05356 12.6677 8.05356 13.5069C8.05356 13.7791 7.81756 14 7.52678 14C7.23494 14 7 13.7791 7 13.5069C7 12.1252 8.34539 11 9.99947 11C11.6546 11 13 12.1252 13 13.5069C13 13.7791 12.764 14 12.4732 14Z" fill="black"/>
<path fill-rule="evenodd" clip-rule="evenodd" d="M7.9863 7.9998C7.9863 8.5528 7.5393 8.9998 6.9863 8.9998C6.4343 8.9998 5.9863 8.5528 5.9863 7.9998C5.9863 7.4478 6.4343 6.9998 6.9863 6.9998C7.5393 6.9998 7.9863 7.4478 7.9863 7.9998Z" fill="black"/>
<path fill-rule="evenodd" clip-rule="evenodd" d="M13.9863 7.9998C13.9863 8.5528 13.5393 8.9998 12.9863 8.9998C12.4343 8.9998 11.9863 8.5528 11.9863 7.9998C11.9863 7.4478 12.4343 6.9998 12.9863 6.9998C13.5393 6.9998 13.9863 7.4478 13.9863 7.9998Z" fill="black"/>
<path fill-rule="evenodd" clip-rule="evenodd" d="M10 3C6.141 3 3 6.141 3 10C3 13.859 6.141 17 10 17C13.859 17 17 13.859 17 10C17 6.141 13.859 3 10 3ZM10 18C5.589 18 2 14.411 2 10C2 5.589 5.589 2 10 2C14.411 2 18 5.589 18 10C18 14.411 14.411 18 10 18Z" fill="black"/>
</g>
<defs>
<clipPath id="clip0_5_1775">
<rect width="16" height="16" fill="white" transform="translate(2 2)"/>
</clipPath>
</defs>
</svg>
