<svg width="20" height="20" viewBox="0 0 20 20" fill="none" xmlns="http://www.w3.org/2000/svg">
<g clip-path="url(#clip0_5_1765)">
<path opacity="0.15" d="M16.276 4C17.229 4 18.003 4.775 18.003 5.727V14.273C18.003 15.226 17.229 16 16.276 16H3.72999C2.77799 16 2.00299 15.226 2.00299 14.273V5.727C2.00299 4.775 2.77799 4 3.72999 4H16.276ZM7.77689 6.7031V12.7031L12.7769 9.7031L7.77689 6.7031Z" fill="black"/>
<path fill-rule="evenodd" clip-rule="evenodd" d="M3.72999 3C3.32899 3 3.00299 3.326 3.00299 3.727V16.273C3.00299 16.674 3.32899 17 3.72999 17H16.276C16.677 17 17.003 16.674 17.003 16.273V3.727C17.003 3.326 16.677 3 16.276 3H3.72999ZM16.276 18H3.72999C2.77799 18 2.00299 17.226 2.00299 16.273V3.727C2.00299 2.775 2.77799 2 3.72999 2H16.276C17.229 2 18.003 2.775 18.003 3.727V16.273C18.003 17.226 17.229 18 16.276 18Z" fill="black"/>
<path fill-rule="evenodd" clip-rule="evenodd" d="M12.7769 9.70309L7.77689 6.70309V12.7031L12.7769 9.70309Z" stroke="black" stroke-linecap="round" stroke-linejoin="round"/>
<path fill-rule="evenodd" clip-rule="evenodd" d="M17.5029 5H2.50293C2.22693 5 2.00293 4.776 2.00293 4.5C2.00293 4.224 2.22693 4 2.50293 4H17.5029C17.7789 4 18.0029 4.224 18.0029 4.5C18.0029 4.776 17.7789 5 17.5029 5Z" fill="black"/>
<path fill-rule="evenodd" clip-rule="evenodd" d="M17.502 16H2.50201C2.22601 16 2.00201 15.776 2.00201 15.5C2.00201 15.224 2.22601 15 2.50201 15H17.502C17.778 15 18.002 15.224 18.002 15.5C18.002 15.776 17.778 16 17.502 16Z" fill="black"/>
</g>
<defs>
<clipPath id="clip0_5_1765">
<rect width="16" height="16" fill="white" transform="translate(2 2)"/>
</clipPath>
</defs>
</svg>
