<svg width="20" height="20" viewBox="0 0 20 20" fill="none" xmlns="http://www.w3.org/2000/svg">
<g clip-path="url(#clip0_5_1766)">
<path opacity="0.15" d="M14.67 15.16C14.67 15.62 14.29 16 13.83 16H2.5C2.04 16 1.66 15.62 1.66 15.16V4.84C1.66 4.38 2.04 4 2.5 4H13.82C14.28 4 14.66 4.38 14.66 4.84V7.5V12.5V15.16H14.67Z" fill="black"/>
<path d="M18.32 6.23C18.13 6.1 17.9 6.06 17.69 6.13L15.67 6.81V4.84C15.67 3.83 14.84 3 13.83 3H2.5C1.49 3 0.660004 3.83 0.660004 4.84V15.16C0.660004 16.17 1.49 17 2.5 17H13.82C14.83 17 15.66 16.17 15.66 15.16V13.19L17.68 13.86C17.75 13.88 17.83 13.9 17.9 13.9C18.05 13.9 18.19 13.85 18.31 13.76C18.52 13.61 18.65 13.34 18.65 13.06V6.93C18.67 6.65 18.54 6.39 18.32 6.23ZM14.67 15.16C14.67 15.62 14.29 16 13.83 16H2.5C2.04 16 1.66 15.62 1.66 15.16V4.84C1.66 4.38 2.04 4 2.5 4H13.82C14.28 4 14.66 4.38 14.66 4.84V7.5V12.5V15.16H14.67ZM17.67 12.81L15.67 12.14V7.86L17.67 7.19V12.81Z" fill="#040000"/>
<path d="M4.17001 5C3.34001 5 2.67001 5.67 2.67001 6.5C2.67001 7.33 3.34001 8 4.17001 8C5.00001 8 5.67001 7.33 5.67001 6.5C5.67001 5.67 4.99001 5 4.17001 5ZM4.17001 7C3.89001 7 3.67001 6.78 3.67001 6.5C3.67001 6.22 3.89001 6 4.17001 6C4.45001 6 4.67001 6.22 4.67001 6.5C4.67001 6.78 4.44001 7 4.17001 7Z" fill="#040000"/>
</g>
<defs>
<clipPath id="clip0_5_1766">
<rect width="19" height="14" fill="white" transform="translate(0.5 3)"/>
</clipPath>
</defs>
</svg>
