<svg width="20" height="20" viewBox="0 0 20 20" fill="none" xmlns="http://www.w3.org/2000/svg">
<g clip-path="url(#clip0_5_1772)">
<path d="M19 6.03249H18.0105H17.0011L16.9112 7.68014C16.3715 6.79061 15.432 6.27509 14.3426 6.27509C12.3337 6.27509 10.9845 7.90253 10.9845 10.3184C10.9845 12.7242 12.3237 14.3415 14.3126 14.3415C15.402 14.3415 16.3415 13.826 16.8612 12.9365V14.1292C16.8612 15.2412 15.9717 15.9588 14.5924 15.9588C13.513 15.9588 12.7035 15.5343 12.5336 14.8874L12.5136 14.8166H11.4842V14.1191H10.7046L6.96669 4.01083H7.99611V3H4.598V4.01083H5.65741L1.91949 14.1191H1V15.13H3.99833V14.1191H3.1588L4.22821 11.1271H8.39589L9.4653 14.1191H8.48584V15.13H11.4142C11.714 16.2722 12.9134 17 14.5425 17C16.6813 17 18.0006 15.878 18.0006 14.0585V7.04332H18.99V6.03249H19ZM4.608 10.0758L6.32704 5.28448L8.04609 10.0758H4.608ZM14.4825 13.2801C13.0833 13.2801 12.1438 12.0874 12.1438 10.3083C12.1438 8.51913 13.0833 7.31625 14.4825 7.31625C15.9117 7.31625 16.8712 8.51913 16.8712 10.3083C16.8712 12.0874 15.9117 13.2801 14.4825 13.2801Z" fill="black"/>
</g>
<defs>
<clipPath id="clip0_5_1772">
<rect width="18" height="14" fill="white" transform="translate(1 3)"/>
</clipPath>
</defs>
</svg>
