<svg width="20" height="20" viewBox="0 0 20 20" fill="none" xmlns="http://www.w3.org/2000/svg">
<g clip-path="url(#clip0_5_1777)">
<mask id="mask0_5_1777" style="mask-type:alpha" maskUnits="userSpaceOnUse" x="0" y="0" width="20" height="21">
<path d="M0 20.5H20V0.5H0V20.5Z" fill="white"/>
</mask>
<g mask="url(#mask0_5_1777)">
<path opacity="0.1" d="M12.002 10.5H17.002V6.537H12.002V10.5Z" fill="black"/>
<path opacity="0.1" d="M16.002 16.627C16.002 17.072 15.636 17.435 15.187 17.435H12.002V11.49H16.002V16.627Z" fill="black"/>
<path opacity="0.1" d="M9.00201 10.5H11.002V6.537H9.00201V10.5Z" fill="black"/>
<path opacity="0.1" d="M9.00201 17.435H11.002V11.491H9.00201V17.435Z" fill="black"/>
<path opacity="0.1" d="M3.00201 10.5H8.00201V6.537H3.00201V10.5Z" fill="black"/>
<path opacity="0.1" d="M8.00201 17.435H4.81701C4.36801 17.435 4.00201 17.072 4.00201 16.627V11.49H8.00201V17.435Z" fill="black"/>
<path opacity="0.1" d="M6.67597 5.476C6.56097 5.345 6.47897 5.204 6.43397 5.057C6.30797 4.647 6.47597 4.301 6.63797 4.083C6.93697 3.684 7.44797 3.416 7.91197 3.416C8.39697 3.416 8.87397 3.661 9.15397 4.055C9.31797 4.285 9.41997 4.586 9.46697 4.976C9.47997 5.091 9.48897 5.312 9.49397 5.546H6.74097L6.67597 5.476Z" fill="black"/>
<path opacity="0.1" d="M10.846 4.055C11.126 3.661 11.603 3.416 12.088 3.416C12.552 3.416 13.063 3.684 13.362 4.084C13.525 4.301 13.692 4.647 13.566 5.057C13.513 5.23 13.399 5.393 13.247 5.546H10.511C10.512 5.356 10.51 5.167 10.533 4.976C10.58 4.586 10.683 4.286 10.846 4.055Z" fill="black"/>
<path fill-rule="evenodd" clip-rule="evenodd" d="M12.002 10.5H17.002V6.537H12.002V10.5ZM16.002 16.627C16.002 17.072 15.636 17.435 15.187 17.435H12.002V11.49H16.002V16.627ZM9.00201 10.5H11.002V6.537H9.00201V10.5ZM9.00201 17.435H11.002V11.491H9.00201V17.435ZM3.00201 10.5H8.00201V6.537H3.00201V10.5ZM8.00201 17.435H4.81701C4.36801 17.435 4.00201 17.072 4.00201 16.627V11.49H8.00201V17.435ZM6.67601 5.476C6.56101 5.345 6.47901 5.204 6.43401 5.057C6.30801 4.647 6.47601 4.301 6.63801 4.083C6.93701 3.684 7.44801 3.416 7.91201 3.416C8.39701 3.416 8.87401 3.661 9.15401 4.055C9.31801 4.285 9.42001 4.586 9.46701 4.976C9.48001 5.091 9.48901 5.312 9.49401 5.546H6.74101L6.67601 5.476ZM10.846 4.055C11.126 3.661 11.603 3.416 12.088 3.416C12.552 3.416 13.063 3.684 13.362 4.084C13.525 4.301 13.692 4.647 13.566 5.057C13.513 5.23 13.399 5.393 13.247 5.546H10.511C10.512 5.356 10.51 5.167 10.533 4.976C10.58 4.586 10.683 4.286 10.846 4.055ZM17.502 5.546H14.427C14.456 5.479 14.501 5.416 14.522 5.346C14.716 4.719 14.589 4.062 14.166 3.494C13.681 2.845 12.865 2.425 12.088 2.425C11.27 2.425 10.5 2.821 10.029 3.484C10.017 3.501 10.012 3.523 10 3.54C9.98801 3.523 9.98301 3.5 9.97101 3.484C9.50001 2.821 8.73001 2.425 7.91201 2.425C7.13501 2.425 6.32001 2.844 5.83401 3.494C5.41101 4.061 5.28401 4.719 5.47801 5.347C5.49901 5.416 5.53601 5.479 5.56401 5.546H2.50201C2.22601 5.546 2.00201 5.767 2.00201 6.041V10.995C2.00201 11.269 2.22601 11.49 2.50201 11.49H3.00201V16.627C3.00201 17.619 3.81601 18.425 4.81701 18.425H15.187C16.188 18.425 17.002 17.619 17.002 16.627V11.49H17.502C17.778 11.49 18.002 11.269 18.002 10.995V6.041C18.002 5.767 17.778 5.546 17.502 5.546Z" fill="black"/>
</g>
</g>
<defs>
<clipPath id="clip0_5_1777">
<rect width="16" height="17" fill="white" transform="translate(2 1.5)"/>
</clipPath>
</defs>
</svg>
