<svg width="20" height="20" viewBox="0 0 20 20" fill="none" xmlns="http://www.w3.org/2000/svg">
<g clip-path="url(#clip0_5_1779)">
<path opacity="0.1" d="M12.2598 14.852L3.15765 16.8296L5.12459 7.67807L10.9451 5.36749L14.5579 8.99984L12.2598 14.852Z" fill="black"/>
<path d="M17.4882 6.96169L13.0525 2.50197C12.3902 1.83604 11.2562 1.82595 10.5738 2.51206C10.2426 2.84503 10.062 3.28898 10.062 3.75311C10.062 4.03563 10.1322 4.30806 10.2627 4.5603L4.50239 6.84061C4.34182 6.90115 4.23143 7.04241 4.20133 7.20385L2.01361 17.3845C1.97347 17.556 2.02364 17.7276 2.14407 17.8487C2.23439 17.9395 2.36485 18 2.49531 18C2.53545 18 2.56556 18 2.6057 17.9899L12.7314 15.7903C12.892 15.75 13.0325 15.639 13.0927 15.4775L15.3507 9.71622C15.6216 9.87766 15.9227 9.96847 16.2438 9.96847C16.7054 9.96847 17.147 9.78685 17.4782 9.45389L17.4882 9.4438C18.1706 8.75769 18.1706 7.6478 17.4882 6.96169ZM12.2598 14.852L3.15764 16.8296L5.12458 7.67807L10.9451 5.36749L14.5579 8.99984L12.2598 14.852ZM16.7857 8.71733L16.7757 8.72742C16.7757 8.72742 16.7757 8.73751 16.7656 8.73751C16.4746 9.03011 16.003 9.03011 15.7119 8.73751L15.4911 8.51553L11.2763 4.27779C10.9853 3.98518 10.9853 3.51096 11.2863 3.20826C11.4268 3.067 11.6175 2.98628 11.8082 2.98628C11.9988 2.98628 12.1895 3.05691 12.33 3.20826L16.7656 7.66798C17.0667 7.96059 17.0667 8.43481 16.7857 8.71733Z" fill="#040000"/>
<path d="M6.14358 13.1471L3.15113 16.1349C2.94962 16.3361 2.94962 16.6479 3.15113 16.8491C3.25189 16.9497 3.38287 17 3.50378 17C3.62469 17 3.76574 16.9497 3.85642 16.8491L6.84887 13.8614C7.05038 13.6602 7.05038 13.3483 6.84887 13.1471C6.64736 12.946 6.34509 12.956 6.14358 13.1471Z" fill="#040000"/>
<path d="M11.8365 8.15645C10.9628 7.28118 9.52888 7.28118 8.65524 8.15645C7.78159 9.03171 7.78159 10.4683 8.65524 11.3436C9.09206 11.7812 9.67133 12 10.2506 12C10.8299 12 11.3996 11.7812 11.8459 11.3436C12.7196 10.4588 12.7196 9.03171 11.8365 8.15645ZM11.1717 10.6681C10.6589 11.1723 9.84226 11.1723 9.32946 10.6681C8.82617 10.1638 8.82617 9.33615 9.32946 8.82241C9.58586 8.56554 9.91823 8.44186 10.2506 8.44186C10.583 8.44186 10.9153 8.56554 11.1717 8.82241C11.675 9.33615 11.675 10.1638 11.1717 10.6681Z" fill="#040000"/>
</g>
<defs>
<clipPath id="clip0_5_1779">
<rect width="16" height="16" fill="white" transform="translate(2 2)"/>
</clipPath>
</defs>
</svg>
