<svg width="20" height="20" viewBox="0 0 20 20" fill="none" xmlns="http://www.w3.org/2000/svg">
<g clip-path="url(#clip0_5_1781)">
<path opacity="0.15" d="M12.9982 14.4805V15.4765C12.9982 15.7325 12.8062 15.9405 12.5702 15.9405H2.42523C2.18923 15.9405 1.99823 15.7325 1.99823 15.4765V14.4805C1.99823 14.1585 2.25423 13.7725 2.53523 13.6705L5.23923 12.6855C6.40423 12.1935 6.40423 12.1935 6.46123 11.9035C6.49123 11.7455 6.45423 11.5815 6.36023 11.4575L5.79123 10.7065C5.11523 9.5615 4.76123 7.8865 4.76123 6.8145C4.76123 5.2955 5.98923 4.0585 7.49823 4.0585C8.98023 4.0585 10.2082 5.2715 10.2352 6.8145C10.2352 7.0705 10.2142 7.3705 10.1702 7.6965C10.0202 8.8235 9.65423 9.9585 9.22323 10.6835L8.63723 11.4575C8.54523 11.5795 8.50823 11.7385 8.53523 11.8935C8.58723 12.1915 8.58723 12.1915 9.77923 12.6945L12.4622 13.6705C12.7422 13.7725 12.9982 14.1585 12.9982 14.4805Z" fill="black"/>
<path fill-rule="evenodd" clip-rule="evenodd" d="M10.7592 11.9295L10.1212 11.6985C10.1212 11.6985 9.98523 11.6415 9.81923 11.5715L10.0172 11.3085C10.1102 11.1555 10.1942 10.9975 10.2732 10.8375C10.3942 11.1895 10.5562 11.5595 10.7592 11.9295ZM12.9982 14.4805V15.4765C12.9982 15.7325 12.8062 15.9405 12.5702 15.9405H2.42523C2.18923 15.9405 1.99823 15.7325 1.99823 15.4765V14.4805C1.99823 14.1585 2.25423 13.7725 2.53523 13.6705L5.23923 12.6855C6.40423 12.1935 6.40423 12.1935 6.46123 11.9035C6.49123 11.7455 6.45423 11.5815 6.36023 11.4575L5.79123 10.7065C5.11523 9.5615 4.76123 7.8865 4.76123 6.8145C4.76123 5.2955 5.98923 4.0585 7.49823 4.0585C8.98023 4.0585 10.2082 5.2715 10.2352 6.8145C10.2352 7.0705 10.2142 7.3705 10.1702 7.6965C10.0202 8.8235 9.65423 9.9585 9.22323 10.6835L8.63723 11.4575C8.54523 11.5795 8.50823 11.7385 8.53523 11.8935C8.58723 12.1915 8.58723 12.1915 9.77923 12.6945L12.4622 13.6705C12.7422 13.7725 12.9982 14.1585 12.9982 14.4805ZM17.8842 13.1105L15.5242 12.2745C15.5232 12.2745 15.4482 12.2435 15.3432 12.2005L15.4652 12.0425C16.1582 10.9135 16.4032 9.5535 16.4752 9.0205C16.5212 8.6865 16.5432 8.3775 16.5432 8.0515C16.5092 6.2265 14.9992 4.7425 13.1782 4.7425C12.3662 4.7425 11.6032 5.0435 10.9982 5.5645C10.4862 4.0795 9.11023 2.9995 7.49823 2.9995C5.44423 2.9995 3.77323 4.7115 3.77323 6.8145C3.77323 8.0125 4.15023 9.9295 4.97923 11.3085C4.98923 11.3255 5.00023 11.3425 5.01123 11.3565L5.17523 11.5725C5.02123 11.6375 4.89723 11.6895 4.89723 11.6895L2.21923 12.6605C1.54823 12.9035 0.99823 13.7185 0.99823 14.4705V15.4765C0.99823 16.3175 1.64223 16.9995 2.43623 16.9995H12.5592C13.3532 16.9995 13.9982 16.3175 13.9982 15.4755V14.4705C13.9982 13.7185 13.4482 12.9035 12.7762 12.6595L12.3062 12.4905C12.2962 12.3895 12.2682 12.2905 12.2032 12.2065L11.7152 11.5835C11.3982 11.0675 11.1322 10.3655 10.9662 9.6045C10.9442 9.5065 10.8932 9.4285 10.8312 9.3615C11.0132 8.7185 11.1062 8.1595 11.1482 7.8495C11.1972 7.4885 11.2222 7.1345 11.2222 6.7585C11.2622 6.7315 11.3022 6.7065 11.3352 6.6665C11.7872 6.1175 12.4592 5.8025 13.1782 5.8025C14.4592 5.8025 15.5192 6.8205 15.5432 8.1155C15.5432 8.3335 15.5242 8.5905 15.4862 8.8685C15.3542 9.8335 15.0322 10.8045 14.6592 11.4175L14.1382 12.0875C14.0452 12.2085 14.0062 12.3675 14.0332 12.5215C14.0852 12.8195 14.0852 12.8195 15.1842 13.2705L17.5672 14.1155C17.7882 14.1935 17.9982 14.5015 17.9982 14.7485V15.6105C17.9982 15.7925 17.8582 15.9405 17.6852 15.9405H15.5992C15.3222 15.9405 15.0992 16.1775 15.0992 16.4705C15.0992 16.7625 15.3222 16.9995 15.5992 16.9995H17.6852C18.4092 16.9995 18.9982 16.3765 18.9982 15.6105V14.7485C18.9982 14.0515 18.5092 13.3315 17.8842 13.1105Z" fill="black"/>
</g>
<defs>
<clipPath id="clip0_5_1781">
<rect width="18" height="14" fill="white" transform="translate(1 3)"/>
</clipPath>
</defs>
</svg>
