<svg width="20" height="20" viewBox="0 0 20 20" fill="none" xmlns="http://www.w3.org/2000/svg">
<g clip-path="url(#clip0_5_1776)">
<path fill-rule="evenodd" clip-rule="evenodd" d="M7 11H6V10H5V11H4V12H5V13H6V12H7V11Z" fill="black"/>
<path opacity="0.15" d="M14.54 16.0322C13.64 16.0322 12.784 15.6322 12.129 14.9032L11.984 14.7412H8.01701L7.87201 14.9032C7.21601 15.6312 6.35901 16.0322 5.46001 16.0322C3.53801 16.0322 1.97501 14.2232 1.97501 12.0002C1.97501 9.7762 3.53801 7.9682 5.46001 7.9682H14.54C16.462 7.9682 18.025 9.7762 18.025 12.0002C18.025 14.2232 16.462 16.0322 14.54 16.0322Z" fill="black"/>
<path fill-rule="evenodd" clip-rule="evenodd" d="M14.54 16.0322C13.64 16.0322 12.784 15.6322 12.129 14.9032L11.984 14.7412H8.017L7.872 14.9032C7.216 15.6312 6.359 16.0322 5.46 16.0322C3.538 16.0322 1.975 14.2232 1.975 12.0002C1.975 9.7762 3.538 7.9682 5.46 7.9682H14.54C16.462 7.9682 18.025 9.7762 18.025 12.0002C18.025 14.2232 16.462 16.0322 14.54 16.0322ZM14.54 7.0002H10.022C10.038 6.7632 10.1 6.4692 10.288 6.2472C10.506 5.9902 10.868 5.8652 11.394 5.8672C12.255 5.8652 12.956 5.6292 13.418 5.1282C14.054 4.4412 14.004 3.5642 13.996 3.4662C13.974 3.1872 13.74 2.9862 13.455 3.0012C13.178 3.0232 12.972 3.2682 12.994 3.5472C12.994 3.5532 13.019 4.0722 12.683 4.4362C12.423 4.7192 12.005 4.8502 11.404 4.8522C10.563 4.8602 9.937 5.0932 9.517 5.5962C9.141 6.0452 9.039 6.5922 9.019 7.0002H5.46C3.001 7.0002 1 9.2432 1 12.0002C1 14.7572 3.001 17.0002 5.46 17.0002C6.571 17.0002 7.623 16.5432 8.446 15.7092H11.555C12.376 16.5432 13.429 17.0002 14.54 17.0002C16.999 17.0002 19 14.7572 19 12.0002C19 9.2432 16.999 7.0002 14.54 7.0002Z" fill="black"/>
<path fill-rule="evenodd" clip-rule="evenodd" d="M14 11C14 11.552 13.552 12 13 12C12.448 12 12 11.552 12 11C12 10.448 12.448 10 13 10C13.552 10 14 10.448 14 11Z" fill="black"/>
<path fill-rule="evenodd" clip-rule="evenodd" d="M16 13C16 13.552 15.552 14 15 14C14.448 14 14 13.552 14 13C14 12.448 14.448 12 15 12C15.552 12 16 12.448 16 13Z" fill="black"/>
</g>
<defs>
<clipPath id="clip0_5_1776">
<rect width="18" height="14" fill="white" transform="translate(1 3)"/>
</clipPath>
</defs>
</svg>
