<svg width="20" height="20" viewBox="0 0 20 20" fill="none" xmlns="http://www.w3.org/2000/svg">
<g clip-path="url(#clip0_5_1782)">
<path opacity="0.15" d="M9.58742 10.1255C9.88714 10.1255 10.1269 9.87449 10.1269 9.57325V3.29741C10.1269 2.90579 10.4366 2.59451 10.8163 2.59451C11.1959 2.59451 11.5056 2.90579 11.5056 3.29741V9.57325C11.5056 9.87449 11.7454 10.1255 12.0451 10.1255C12.3448 10.1255 12.5846 9.87449 12.5846 9.57325V4.13084C12.5846 3.73923 12.8943 3.42794 13.274 3.42794C13.6536 3.42794 13.9633 3.73923 13.9633 4.13084V10.4067C13.9633 10.7079 14.2031 10.959 14.5028 10.959C14.8025 10.959 15.0423 10.7079 15.0423 10.4067V6.64118C15.0423 6.24956 15.352 5.93828 15.7317 5.93828C16.1113 5.93828 16.421 6.24956 16.421 6.64118V9.57325C16.421 11.953 16.0514 13.9613 15.352 15.3972C14.9025 16.311 14.1132 17.3955 12.8644 17.3955H8.78817C8.74821 17.3955 8.4385 17.3453 7.95895 16.9838C7.44942 16.5922 6.67015 15.7788 5.84093 14.0718C4.33234 10.9891 3.77286 9.81424 3.67295 9.61341L3.66296 9.58329C3.50311 9.2218 3.623 8.76994 3.9427 8.56911C4.08257 8.48878 4.24242 8.45866 4.40227 8.50887C4.57211 8.55907 4.71198 8.66953 4.8019 8.84023L6.0807 11.1096C6.33047 11.5715 6.6202 11.8024 6.92991 11.8024C6.98985 11.8024 7.03981 11.7924 7.09975 11.7823C7.47939 11.6819 7.67921 11.3104 7.67921 10.6878V4.15092C7.67921 3.75931 7.98892 3.44803 8.36856 3.44803C8.74821 3.44803 9.05792 3.75931 9.05792 4.15092V9.59333C9.04793 9.88453 9.2877 10.1255 9.58742 10.1255Z" fill="black"/>
<path d="M15.7317 4.84377H15.6817C15.4619 4.85381 15.2521 4.89398 15.0423 4.98435V4.14087C15.0423 3.14678 14.253 2.33343 13.274 2.33343C12.9742 2.33343 12.6845 2.41376 12.4247 2.55434C12.135 1.9117 11.5156 1.5 10.8163 1.5C10.1169 1.5 9.4875 1.92174 9.20776 2.55434C8.948 2.41376 8.65827 2.33343 8.35855 2.33343C7.37947 2.33343 6.59021 3.14678 6.59021 4.14087V9.81423L5.73101 8.29799C5.50122 7.86621 5.12158 7.56497 4.672 7.43444C4.23241 7.31394 3.76285 7.37419 3.37321 7.61518C2.57396 8.10721 2.26425 9.21175 2.69385 10.0854L2.70384 10.1054C2.8537 10.4067 3.44315 11.6317 4.87181 14.5638C5.65108 16.1503 6.51028 17.295 7.41943 17.9477C8.15874 18.4799 8.67825 18.5 8.76817 18.5H12.8643C13.5937 18.5 14.263 18.259 14.8725 17.7871C15.4319 17.3452 15.9215 16.7126 16.3211 15.8993C17.0904 14.3128 17.5 12.1338 17.5 9.58328V6.65121C17.5 5.64708 16.7007 4.84377 15.7317 4.84377ZM9.5874 10.1255C9.88712 10.1255 10.1269 9.87448 10.1269 9.57324V3.2974C10.1269 2.90579 10.4366 2.59451 10.8163 2.59451C11.1959 2.59451 11.5056 2.90579 11.5056 3.2974V9.57324C11.5056 9.87448 11.7454 10.1255 12.0451 10.1255C12.3448 10.1255 12.5846 9.87448 12.5846 9.57324V4.13083C12.5846 3.73922 12.8943 3.42794 13.274 3.42794C13.6536 3.42794 13.9633 3.73922 13.9633 4.13083V10.4067C13.9633 10.7079 14.2031 10.9589 14.5028 10.9589C14.8025 10.9589 15.0423 10.7079 15.0423 10.4067V6.64117C15.0423 6.24956 15.352 5.93828 15.7317 5.93828C16.1113 5.93828 16.421 6.24956 16.421 6.64117V9.57324C16.421 11.953 16.0514 13.9613 15.352 15.3972C14.9024 16.311 14.1132 17.3955 12.8643 17.3955H8.78815C8.74819 17.3955 8.43848 17.3452 7.95893 16.9838C7.4494 16.5921 6.67013 15.7788 5.84091 14.0718C4.33232 10.9891 3.77284 9.81423 3.67293 9.61341L3.66294 9.58328C3.50309 9.2218 3.62298 8.76993 3.94268 8.56911C4.08255 8.48878 4.2424 8.45865 4.40225 8.50886C4.57209 8.55907 4.71196 8.66952 4.80188 8.84022L6.08068 11.1096C6.33045 11.5715 6.62018 11.8024 6.92989 11.8024C6.98983 11.8024 7.03978 11.7924 7.09973 11.7823C7.47937 11.6819 7.67919 11.3104 7.67919 10.6878V4.15092C7.67919 3.7593 7.9889 3.44802 8.36854 3.44802C8.74819 3.44802 9.0579 3.7593 9.0579 4.15092V9.59333C9.04791 9.88452 9.28768 10.1255 9.5874 10.1255Z" fill="black"/>
</g>
<defs>
<clipPath id="clip0_5_1782">
<rect width="15" height="17" fill="white" transform="translate(2.5 1.5)"/>
</clipPath>
</defs>
</svg>
