<svg width="20" height="20" viewBox="0 0 20 20" fill="none" xmlns="http://www.w3.org/2000/svg">
<g clip-path="url(#clip0_5_1783)">
<path opacity="0.15" d="M7.98999 6.32V10.5C7.98999 10.78 8.20999 11 8.48999 11C8.76999 11 8.98999 10.78 8.98999 10.5V5.97C8.98999 5.43 9.42999 5 10.02 5C10.56 5 10.99 5.44 10.99 5.97V10.5C10.99 10.78 11.21 11 11.49 11C11.77 11 11.99 10.78 11.99 10.5V6.32C14.91 7.2 16.99 9.91 16.99 13H2.98999C2.98999 9.92 5.06999 7.2 7.98999 6.32Z" fill="black"/>
<path opacity="0.15" d="M17.49 15.01H2.48999C2.20999 15.01 1.98999 14.79 1.98999 14.51C1.98999 14.23 2.20999 14.01 2.48999 14.01H17.49C17.77 14.01 17.99 14.23 17.99 14.51C17.99 14.79 17.76 15.01 17.49 15.01Z" fill="black"/>
<path d="M17.97 13.09C17.98 13.06 17.99 13.03 17.99 13C17.99 9.31 15.41 6.07 11.84 5.22C11.54 4.51 10.83 4 9.97 4C9.15 4 8.44 4.5 8.15 5.22C4.58 6.07 2 9.32 2 13C2 13.03 2.01 13.06 2.02 13.09C1.43 13.29 1 13.85 1 14.5C1 15.33 1.67 16 2.5 16H17.5C18.33 16 19 15.33 19 14.5C18.99 13.85 18.56 13.3 17.97 13.09ZM7.99 6.32V10.5C7.99 10.78 8.21 11 8.49 11C8.77 11 8.99 10.78 8.99 10.5V5.97C8.99 5.43 9.43 5 10.02 5C10.56 5 10.99 5.44 10.99 5.97V10.5C10.99 10.78 11.21 11 11.49 11C11.77 11 11.99 10.78 11.99 10.5V6.32C14.91 7.2 16.99 9.91 16.99 13H2.99C2.99 9.92 5.07 7.2 7.99 6.32ZM17.49 15.01H2.49C2.21 15.01 1.99 14.79 1.99 14.51C1.99 14.23 2.21 14.01 2.49 14.01H17.49C17.77 14.01 17.99 14.23 17.99 14.51C17.99 14.79 17.76 15.01 17.49 15.01Z" fill="#231815"/>
</g>
<defs>
<clipPath id="clip0_5_1783">
<rect width="18" height="12" fill="white" transform="translate(1 4)"/>
</clipPath>
</defs>
</svg>
