<svg width="20" height="20" viewBox="0 0 20 20" fill="none" xmlns="http://www.w3.org/2000/svg">
<g clip-path="url(#clip0_5_1784)">
<path opacity="0.15" d="M7.95105 17.501V14.5041C7.95105 13.4052 8.86396 12.5062 9.97974 12.5062C11.0955 12.5062 12.0084 13.4052 12.0084 14.5041V17.501H7.95105Z" fill="black"/>
<path opacity="0.15" d="M15.0514 16.6619C15.0514 17.1214 14.666 17.501 14.1994 17.501H13.0227V14.5041C13.0227 12.8558 11.6534 11.5072 9.97969 11.5072C8.30602 11.5072 6.93665 12.8558 6.93665 14.5041V17.501H5.76001C5.29341 17.501 4.90796 17.1214 4.90796 16.6619V7.20163L9.99998 2.68628L15.0514 7.17166V16.6619Z" fill="black"/>
<path d="M17.8308 8.28052L10.3449 1.62737C10.1522 1.45754 9.85799 1.45754 9.66527 1.62737L3.93421 6.72212H3.90378V6.75209L2.16925 8.29051C1.95623 8.48031 1.94609 8.79 2.12867 8.99978C2.23011 9.10967 2.36197 9.1696 2.50398 9.1696C2.6257 9.1696 2.74742 9.12965 2.83871 9.03974L3.89363 8.10071V16.6619C3.89363 17.6709 4.73554 18.5 5.76003 18.5H6.93667H13.0228H14.1994C15.2239 18.5 16.0658 17.6709 16.0658 16.6619V8.06075L17.1511 9.01976C17.354 9.19957 17.6786 9.18958 17.8713 8.9798C18.0539 8.79 18.0438 8.47032 17.8308 8.28052ZM7.95102 17.501V14.5041C7.95102 13.4052 8.86393 12.5062 9.97971 12.5062C11.0955 12.5062 12.0084 13.4052 12.0084 14.5041V17.501H7.95102ZM15.0514 16.6619C15.0514 17.1214 14.666 17.501 14.1994 17.501H13.0228V14.5041C13.0228 12.8558 11.6534 11.5072 9.97971 11.5072C8.30604 11.5072 6.93667 12.8558 6.93667 14.5041V17.501H5.76003C5.29343 17.501 4.90798 17.1214 4.90798 16.6619V7.20163L10 2.68628L15.0514 7.17166V16.6619Z" fill="#231815"/>
<path d="M8.86682 7.5175C8.86682 8.0675 9.31682 8.5175 9.86682 8.5175C10.4168 8.5175 10.8668 8.0675 10.8668 7.5175C10.8668 6.9675 10.4168 6.5175 9.86682 6.5175C9.31682 6.5175 8.86682 6.9675 8.86682 7.5175Z" fill="#231815"/>
</g>
<defs>
<clipPath id="clip0_5_1784">
<rect width="16" height="17" fill="white" transform="translate(2 1.5)"/>
</clipPath>
</defs>
</svg>
