<svg width="20" height="20" viewBox="0 0 20 20" fill="none" xmlns="http://www.w3.org/2000/svg">
<g clip-path="url(#clip0_5_1785)">
<path opacity="0.15" d="M11.0971 19.0007C10.4391 19.0007 10.1931 18.6307 10.1091 18.4327C9.91011 17.9697 10.1241 17.3577 10.5651 17.1257C10.9721 16.9097 11.2611 16.2147 11.3261 15.6697C11.4001 15.0437 11.2331 14.3797 10.8411 13.7527L10.7251 13.5697C10.3891 13.0377 10.0411 12.4857 9.83711 11.8117C9.82911 11.7857 9.82111 11.7597 9.81311 11.7347C8.38011 12.5347 8.00311 13.9707 7.90811 14.8097C7.87711 15.0887 7.90011 15.3807 7.97611 15.6747C8.05311 15.9717 8.18011 16.2477 8.35611 16.4977C8.46111 16.6467 8.58511 16.7887 8.72511 16.9197C8.99911 17.1747 9.12811 17.7727 8.87511 18.2217C8.75611 18.4307 8.37811 18.8917 7.45211 18.6447C7.18711 18.5737 6.95011 18.4537 6.74211 18.3487C6.17111 18.0617 5.71911 17.7667 5.31111 17.4267C4.48511 16.7427 3.84311 15.8787 3.45511 14.9297C3.21111 14.3367 3.06911 13.6747 3.02111 12.9087C2.98811 12.3787 2.96811 11.6807 3.11711 10.9887C3.13811 10.8937 3.16411 10.7997 3.19311 10.7077C3.48511 9.78374 4.02911 9.00673 4.55511 8.25473C4.70311 8.04373 4.81611 7.87773 4.92511 7.70873V7.70773C5.31911 7.10273 5.63511 6.52773 5.89111 5.95073C6.06011 5.57073 6.21511 5.18373 6.36511 4.79573L6.58511 4.22473C6.69211 3.84673 6.77111 3.56673 7.02011 3.43473C7.25611 3.30873 7.55211 3.38673 7.69311 3.61373C7.83411 3.84173 8.01411 4.07773 8.16311 4.23673C8.16411 4.21773 8.16611 4.19773 8.16711 4.17573C8.26011 2.61973 7.82211 1.91673 7.81811 1.90973C7.70511 1.73273 7.71111 1.49773 7.84011 1.33173C7.97911 1.14973 8.17711 1.03873 8.41311 1.00873C8.81411 0.952735 9.27011 1.17573 9.55511 1.39973C10.9771 2.50473 12.3531 3.60273 13.5741 4.86073C15.1031 6.43773 16.0871 7.96073 16.5811 9.51873C16.9401 10.6437 17.0711 11.8417 16.9591 12.9847C16.8641 13.9547 16.6011 14.8387 16.1761 15.6137C15.3561 17.1097 13.8731 18.2327 11.8871 18.8607C11.5731 18.9607 11.3131 19.0007 11.0971 19.0007Z" fill="black"/>
<path fill-rule="evenodd" clip-rule="evenodd" d="M11.0511 18.0037C11.1041 18.0047 11.2661 18.0067 11.5791 17.9077C13.3351 17.3507 14.5831 16.4187 15.2861 15.1367C15.6461 14.4807 15.8691 13.7247 15.9511 12.8887C16.0501 11.8787 15.9331 10.8167 15.6151 9.81873C15.1691 8.41173 14.2621 7.01673 12.8431 5.55473C11.6951 4.37073 10.3831 3.31873 9.02511 2.26073C9.14211 2.72573 9.23011 3.37773 9.17711 4.23573C9.16311 4.48673 9.11711 5.24973 8.50411 5.40073C8.11811 5.49573 7.73611 5.25773 7.40511 4.90773L7.31011 5.15373C7.15511 5.55673 6.99311 5.95773 6.81911 6.35373C6.54111 6.97973 6.20011 7.59873 5.77811 8.24873C5.66211 8.42673 5.54311 8.60373 5.41911 8.77973C4.88311 9.54673 4.40511 10.2287 4.16011 11.0067C4.13911 11.0707 4.12111 11.1347 4.10711 11.1987C3.98411 11.7667 4.00011 12.3507 4.03111 12.8457C4.07311 13.5027 4.19111 14.0617 4.39311 14.5537C4.72011 15.3517 5.26211 16.0807 5.96111 16.6597C6.31111 16.9507 6.69811 17.2027 7.11311 17.4107C7.11311 17.4107 7.20311 17.4567 7.20411 17.4577C7.38411 17.5477 7.55311 17.6337 7.71511 17.6767C7.93811 17.7367 8.01811 17.7077 8.01911 17.7067C8.00311 17.7057 7.99711 17.6227 7.98011 17.5867C7.83811 17.4677 7.66911 17.2737 7.52511 17.0687C7.28011 16.7207 7.10211 16.3357 6.99511 15.9237C6.88911 15.5127 6.85711 15.0997 6.90211 14.6997C7.00711 13.7657 7.51611 11.4937 9.97411 10.5567C10.2341 10.4577 10.5261 10.5847 10.6281 10.8407C10.6501 10.8977 10.6611 10.9557 10.6621 11.0117C10.6941 11.1577 10.7961 11.4907 10.8061 11.5237C10.9721 12.0697 11.2561 12.5197 11.5851 13.0397L11.7011 13.2257C12.2151 14.0477 12.4331 14.9327 12.3321 15.7867C12.2341 16.6027 11.8011 17.6017 11.0511 18.0037ZM11.0971 19.0007C10.4391 19.0007 10.1931 18.6307 10.1091 18.4327C9.91011 17.9697 10.1241 17.3577 10.5651 17.1257C10.9721 16.9097 11.2611 16.2147 11.3261 15.6697C11.4001 15.0437 11.2331 14.3797 10.8411 13.7527L10.7251 13.5697C10.3891 13.0377 10.0411 12.4857 9.83711 11.8117C9.82911 11.7857 9.82111 11.7597 9.81311 11.7347C8.38011 12.5347 8.00311 13.9707 7.90811 14.8097C7.87711 15.0887 7.90011 15.3807 7.97611 15.6747C8.05311 15.9717 8.18011 16.2477 8.35611 16.4977C8.46111 16.6467 8.58511 16.7887 8.72511 16.9197C8.99911 17.1747 9.12811 17.7727 8.87511 18.2217C8.75611 18.4307 8.37811 18.8917 7.45211 18.6447C7.18711 18.5737 6.95011 18.4537 6.74211 18.3487C6.17111 18.0617 5.71911 17.7667 5.31111 17.4267C4.48511 16.7427 3.84311 15.8787 3.45511 14.9297C3.21111 14.3367 3.06911 13.6747 3.02111 12.9087C2.98811 12.3787 2.96811 11.6807 3.11711 10.9887C3.13811 10.8937 3.16411 10.7997 3.19311 10.7077C3.48511 9.78374 4.02911 9.00673 4.55511 8.25473C4.70311 8.04373 4.81611 7.87773 4.92511 7.70873V7.70773C5.31911 7.10273 5.63511 6.52773 5.89111 5.95073C6.06011 5.57073 6.21511 5.18373 6.36511 4.79573L6.58511 4.22473C6.69211 3.84673 6.77111 3.56673 7.02011 3.43473C7.25611 3.30873 7.55211 3.38673 7.69311 3.61373C7.83411 3.84173 8.01411 4.07773 8.16311 4.23673C8.16411 4.21773 8.16611 4.19773 8.16711 4.17573C8.26011 2.61973 7.82211 1.91673 7.81811 1.90973C7.70511 1.73273 7.71111 1.49773 7.84011 1.33173C7.97911 1.14973 8.17711 1.03873 8.41311 1.00873C8.81411 0.952735 9.27011 1.17573 9.55511 1.39973C10.9771 2.50473 12.3531 3.60273 13.5741 4.86073C15.1031 6.43773 16.0871 7.96073 16.5811 9.51873C16.9401 10.6437 17.0711 11.8417 16.9591 12.9847C16.8641 13.9547 16.6011 14.8387 16.1761 15.6137C15.3561 17.1097 13.8731 18.2327 11.8871 18.8607C11.5731 18.9607 11.3131 19.0007 11.0971 19.0007Z" fill="black"/>
</g>
<defs>
<clipPath id="clip0_5_1785">
<rect width="14" height="18" fill="white" transform="translate(3 1)"/>
</clipPath>
</defs>
</svg>
