<svg width="20" height="20" viewBox="0 0 20 20" fill="none" xmlns="http://www.w3.org/2000/svg">
<g clip-path="url(#clip0_5_1786)">
<path opacity="0.15" d="M2.99902 3.33108C2.99902 2.87081 3.37884 2.49059 3.83861 2.49059H11.155C11.6148 2.49059 11.9946 2.87081 11.9946 3.33108V6.99323V17.4994H9.99557V14.3376C9.99557 13.8773 9.61576 13.4971 9.15598 13.4971H5.83762C5.37785 13.4971 4.99804 13.8773 4.99804 14.3376V17.4994H2.99902V3.33108Z" fill="black"/>
<path opacity="0.1" d="M5.99753 17.4994V14.4976H8.99605V17.4994H5.99753Z" fill="black"/>
<path opacity="0.15" d="M12.9941 17.4994V15.4982H13.4938C13.7737 15.4982 13.9936 15.2781 13.9936 14.9979C13.9936 14.7178 13.7737 14.4976 13.4938 14.4976H12.9941V12.4965H13.4938C13.7737 12.4965 13.9936 12.2763 13.9936 11.9962C13.9936 11.716 13.7737 11.4959 13.4938 11.4959H12.9941V6.99323V6.81313L16.9921 9.12449C16.9921 9.13449 16.9921 9.13449 16.9921 9.1445V17.4994H12.9941Z" fill="black"/>
<path d="M18.4914 17.4994H17.9916V9.70483L18.2515 9.85491C18.3314 9.90494 18.4114 9.92496 18.5014 9.92496C18.6713 9.92496 18.8412 9.8349 18.9311 9.67481C19.0711 9.43467 18.9911 9.13449 18.7512 8.99441L12.9941 5.66245V3.34108C12.9941 2.33049 12.1645 1.5 11.155 1.5H3.8386C2.8291 1.5 1.99951 2.33049 1.99951 3.34108V17.4994H1.49975C1.21989 17.4994 1 17.7195 1 17.9997C1 18.2799 1.21989 18.5 1.49975 18.5H2.49926H5.83761H9.15597H12.4943H17.4919H18.4914C18.7712 18.5 18.9911 18.2799 18.9911 17.9997C18.9911 17.7195 18.7712 17.4994 18.4914 17.4994ZM2.99901 3.33108C2.99901 2.87081 3.37883 2.49058 3.8386 2.49058H11.155C11.6148 2.49058 11.9946 2.87081 11.9946 3.33108V6.99323V17.4994H9.99556V14.3376C9.99556 13.8773 9.61575 13.4971 9.15597 13.4971H5.83761C5.37784 13.4971 4.99803 13.8773 4.99803 14.3376V17.4994H2.99901V3.33108ZM5.99753 17.4994V14.4976H8.99605V17.4994H5.99753ZM12.9941 17.4994V15.4982H13.4938C13.7737 15.4982 13.9936 15.2781 13.9936 14.9979C13.9936 14.7178 13.7737 14.4976 13.4938 14.4976H12.9941V12.4965H13.4938C13.7737 12.4965 13.9936 12.2763 13.9936 11.9962C13.9936 11.716 13.7737 11.4959 13.4938 11.4959H12.9941V6.99323V6.81313L16.9921 9.12449C16.9921 9.13449 16.9921 9.13449 16.9921 9.1445V17.4994H12.9941Z" fill="black"/>
<path d="M5.67999 6.5C5.95999 6.5 6.17999 6.28 6.17999 6V5C6.17999 4.72 5.95999 4.5 5.67999 4.5C5.39999 4.5 5.17999 4.72 5.17999 5V6C5.17999 6.28 5.40999 6.5 5.67999 6.5Z" fill="black"/>
<path d="M5.67999 10.5C5.95999 10.5 6.17999 10.28 6.17999 10V9C6.17999 8.72 5.95999 8.5 5.67999 8.5C5.39999 8.5 5.17999 8.72 5.17999 9V10C5.17999 10.28 5.40999 10.5 5.67999 10.5Z" fill="black"/>
<path d="M9.67999 6.5C9.95999 6.5 10.18 6.28 10.18 6V5C10.18 4.72 9.95999 4.5 9.67999 4.5C9.39999 4.5 9.17999 4.72 9.17999 5V6C9.17999 6.28 9.40999 6.5 9.67999 6.5Z" fill="black"/>
<path d="M9.67999 10.5C9.95999 10.5 10.18 10.28 10.18 10V9C10.18 8.72 9.95999 8.5 9.67999 8.5C9.39999 8.5 9.17999 8.72 9.17999 9V10C9.17999 10.28 9.40999 10.5 9.67999 10.5Z" fill="black"/>
</g>
<defs>
<clipPath id="clip0_5_1786">
<rect width="18" height="17" fill="white" transform="translate(1 1.5)"/>
</clipPath>
</defs>
</svg>
