<svg width="20" height="20" viewBox="0 0 20 20" fill="none" xmlns="http://www.w3.org/2000/svg">
<g clip-path="url(#clip0_5_1788)">
<path opacity="0.15" d="M12.5 3H7.5C5.01472 3 3 5.01472 3 7.5V12.5C3 14.9853 5.01472 17 7.5 17H12.5C14.9853 17 17 14.9853 17 12.5V7.5C17 5.01472 14.9853 3 12.5 3Z" fill="black"/>
<path d="M12.5 2C15.5376 2 18 4.46243 18 7.5V12.5C18 15.5376 15.5376 18 12.5 18H7.5C4.46243 18 2 15.5376 2 12.5V7.5C2 4.46243 4.46243 2 7.5 2H12.5ZM12.5 3H7.5C5.01472 3 3 5.01472 3 7.5V12.5C3 14.9853 5.01472 17 7.5 17H12.5C14.9853 17 17 14.9853 17 12.5V7.5C17 5.01472 14.9853 3 12.5 3Z" fill="black"/>
<path d="M10.5458 6.50541C12.0709 6.73157 13.2684 7.92906 13.4946 9.45416C13.7161 10.9478 12.9547 12.415 11.606 13.0939C10.2573 13.7727 8.62525 13.5101 7.55757 12.4424C6.48989 11.3747 6.22727 9.74271 6.90612 8.39399C7.58497 7.04526 9.05224 6.28393 10.5458 6.50541ZM10.3992 7.4946L10.2216 7.47468C9.21758 7.39811 8.25731 7.93372 7.79936 8.84358C7.31446 9.80695 7.50205 10.9727 8.26468 11.7353C9.02731 12.498 10.193 12.6855 11.1564 12.2006C12.1198 11.7157 12.6636 10.6677 12.5054 9.60085C12.3528 8.572 11.5814 7.75189 10.5785 7.52786L10.3992 7.4946Z" fill="black"/>
</g>
<defs>
<clipPath id="clip0_5_1788">
<rect width="16" height="16" fill="white" transform="translate(2 2)"/>
</clipPath>
</defs>
</svg>
