<svg width="20" height="20" viewBox="0 0 20 20" fill="none" xmlns="http://www.w3.org/2000/svg">
<g clip-path="url(#clip0_5_1787)">
<path opacity="0.15" d="M14.22 10.5L13.46 11.5C13.0932 11.9721 12.8928 12.5522 12.89 13.15V13.76H6.88999H6.80999V13.13C6.80085 12.536 6.59315 11.9622 6.21999 11.5L5.45999 10.5C4.22368 8.93109 3.95443 6.80785 4.75999 4.98C5.51845 3.18318 7.20726 1.95216 9.14999 1.78C9.37306 1.76478 9.59692 1.76478 9.81999 1.78C10.0397 1.76508 10.2602 1.76508 10.48 1.78C12.4227 1.95216 14.1115 3.18318 14.87 4.98C15.6851 6.79951 15.4354 8.9196 14.22 10.5Z" fill="black"/>
<path fill-rule="evenodd" clip-rule="evenodd" d="M11.37 6.7H9.08003L10.08 4.89C10.2092 4.66445 10.144 4.37758 9.93003 4.23C9.82675 4.16198 9.6996 4.14058 9.57974 4.17102C9.45987 4.20146 9.35835 4.28094 9.30003 4.39L7.88003 6.94C7.8 7.09353 7.8 7.27647 7.88003 7.43C7.9604 7.57762 8.11213 7.67245 8.28003 7.68H10.4L9.09003 9.36C8.93302 9.56861 8.95892 9.86211 9.15003 10.04C9.23834 10.127 9.36057 10.1705 9.484 10.159C9.60743 10.1474 9.71943 10.0819 9.79003 9.98L11.72 7.5C11.8342 7.35093 11.8573 7.15116 11.78 6.98C11.7141 6.81111 11.5513 6.69995 11.37 6.7Z" fill="black"/>
<path d="M15.8 4.55C14.9006 2.415 12.8972 0.949944 10.59 0.74C10.0812 0.689989 9.56879 0.689989 9.06002 0.74C6.75284 0.949944 4.74944 2.415 3.85002 4.55C2.92042 6.7159 3.23813 9.21553 4.68002 11.08L5.44002 12.08C5.66258 12.367 5.7886 12.717 5.80002 13.08V14.72C5.80002 15.8246 6.69545 16.72 7.80002 16.72V17.26C7.80002 18.0608 8.44921 18.71 9.25002 18.71H10.36C11.1608 18.71 11.81 18.0608 11.81 17.26V16.72C12.9146 16.72 13.81 15.8246 13.81 14.72V13.09C13.8157 12.7259 13.9423 12.3741 14.17 12.09L14.93 11.09C16.3891 9.23099 16.7224 6.72581 15.8 4.55ZM10.8 17.25C10.8 17.4985 10.5985 17.7 10.35 17.7H9.24002C8.99149 17.7 8.79002 17.4985 8.79002 17.25V16.71H10.79L10.8 17.25ZM12.8 14.73C12.8 15.2823 12.3523 15.73 11.8 15.73H7.80002C7.24773 15.73 6.80002 15.2823 6.80002 14.73H6.88002H12.88H12.8ZM14.22 10.5L13.46 11.5C13.0932 11.9721 12.8928 12.5522 12.89 13.15V13.76H6.89002H6.81002V13.13C6.80088 12.536 6.59318 11.9622 6.22002 11.5L5.46002 10.5C4.22371 8.93109 3.95445 6.80785 4.76002 4.98C5.51848 3.18318 7.20729 1.95215 9.15002 1.78C9.37309 1.76478 9.59695 1.76478 9.82002 1.78C10.0398 1.76508 10.2603 1.76508 10.48 1.78C12.4227 1.95215 14.1116 3.18318 14.87 4.98C15.6851 6.7995 15.4355 8.9196 14.22 10.5Z" fill="black"/>
</g>
<defs>
<clipPath id="clip0_5_1787">
<rect width="14" height="19" fill="white" transform="translate(3 0.5)"/>
</clipPath>
</defs>
</svg>
