<svg width="20" height="20" viewBox="0 0 20 20" fill="none" xmlns="http://www.w3.org/2000/svg">
<g clip-path="url(#clip0_5_1790)">
<path opacity="0.15" d="M9.98998 2.50941C12.88 2.50941 15.53 4.07848 16.95 6.55703H8.80998L7.92998 4.91799C7.83998 4.75808 7.66998 4.65814 7.48998 4.65814C7.29998 4.65814 7.13998 4.75808 7.04998 4.92798L6.18998 6.56702H3.03998C4.43998 4.07848 7.09998 2.50941 9.98998 2.50941Z" fill="black"/>
<path opacity="0.15" d="M16.94 12.4236L16.7 12.5035L16.62 12.7434C15.66 15.5917 13 17.5006 9.98999 17.5006C6.98999 17.5006 4.31999 15.5917 3.35999 12.7434L3.27999 12.5035L3.03999 12.4236C2.40999 12.2237 1.98999 11.654 1.98999 11.0044C1.98999 10.4347 2.30999 9.92504 2.82999 9.6652L3.05999 9.55526L3.09999 9.30541C3.20999 8.69577 3.39999 8.11611 3.65999 7.56643H6.47999C6.66999 7.56643 6.83999 7.46649 6.91999 7.29659L7.47999 6.22722L8.05999 7.29659C8.14999 7.4565 8.31999 7.55644 8.49999 7.55644H16.31C16.57 8.11611 16.77 8.69577 16.87 9.29541L16.91 9.54527L17.14 9.6552C17.66 9.91505 17.98 10.4247 17.98 10.9944C17.99 11.654 17.56 12.2237 16.94 12.4236Z" fill="black"/>
<path d="M13.93 12.43H6.08997C5.79997 12.43 5.53997 12.57 5.38997 12.81C5.22997 13.06 5.20997 13.36 5.33997 13.63C6.18997 15.45 8.01997 16.63 10.02 16.63C12.02 16.63 13.85 15.45 14.7 13.63C14.82 13.36 14.81 13.05 14.65 12.81C14.48 12.58 14.21 12.43 13.93 12.43ZM10.01 15.64C8.47997 15.64 7.06997 14.78 6.34997 13.43H13.68C12.95 14.78 11.54 15.64 10.01 15.64Z" fill="black"/>
<path d="M6.48999 11.51C7.31999 11.51 7.98999 10.84 7.98999 10.01C7.98999 9.18 7.31999 8.51 6.48999 8.51C5.65999 8.51 4.98999 9.18 4.98999 10.01C4.98999 10.84 5.65999 11.51 6.48999 11.51ZM6.48999 9.51C6.76999 9.51 6.98999 9.73 6.98999 10.01C6.98999 10.29 6.76999 10.51 6.48999 10.51C6.20999 10.51 5.98999 10.29 5.98999 10.01C5.98999 9.73 6.20999 9.51 6.48999 9.51Z" fill="black"/>
<path d="M13.49 8.51C12.66 8.51 11.99 9.18 11.99 10.01C11.99 10.84 12.66 11.51 13.49 11.51C14.32 11.51 14.99 10.84 14.99 10.01C14.99 9.18 14.31 8.51 13.49 8.51ZM13.49 10.51C13.21 10.51 12.99 10.29 12.99 10.01C12.99 9.73 13.21 9.51 13.49 9.51C13.77 9.51 13.99 9.73 13.99 10.01C13.99 10.29 13.76 10.51 13.49 10.51Z" fill="black"/>
<path d="M17.82 8.89565C17.73 8.43592 17.58 7.99618 17.4 7.55644H17.75C17.92 7.55644 18.08 7.46649 18.17 7.32657C18.26 7.18665 18.28 7.00676 18.21 6.84685C16.76 3.59877 13.54 1.5 9.99 1.5C6.44 1.5 3.21 3.59877 1.77 6.84685C1.7 6.99677 1.72 7.17666 1.81 7.32657C1.9 7.46649 2.06 7.55644 2.23 7.55644H2.58C2.41 7.98618 2.26 8.43592 2.17 8.89565C1.44 9.35538 1 10.1349 1 11.0044C1 12.0038 1.59 12.8933 2.5 13.2831C3.66 16.4112 6.64 18.5 10 18.5C13.35 18.5 16.33 16.4112 17.5 13.2831C18.41 12.8933 19 12.0038 19 11.0044C18.99 10.1349 18.54 9.35538 17.82 8.89565ZM9.99 2.50941C12.88 2.50941 15.53 4.07848 16.95 6.55703H8.81L7.93 4.91799C7.84 4.75808 7.67 4.65814 7.49 4.65814C7.3 4.65814 7.14 4.75808 7.05 4.92798L6.19 6.56702H3.04C4.44 4.07848 7.1 2.50941 9.99 2.50941ZM16.94 12.4236L16.7 12.5035L16.62 12.7434C15.66 15.5917 13 17.5006 9.99 17.5006C6.99 17.5006 4.32 15.5917 3.36 12.7434L3.28 12.5035L3.04 12.4236C2.41 12.2237 1.99 11.654 1.99 11.0044C1.99 10.4347 2.31 9.92504 2.83 9.6652L3.06 9.55526L3.1 9.30541C3.21 8.69577 3.4 8.11611 3.66 7.56643H6.48C6.67 7.56643 6.84 7.46649 6.92 7.29659L7.48 6.22722L8.06 7.29659C8.15 7.4565 8.32 7.55644 8.5 7.55644H16.31C16.57 8.11611 16.77 8.69577 16.87 9.29541L16.91 9.54527L17.14 9.6552C17.66 9.91505 17.98 10.4248 17.98 10.9944C17.99 11.654 17.56 12.2237 16.94 12.4236Z" fill="black"/>
</g>
<defs>
<clipPath id="clip0_5_1790">
<rect width="18" height="17" fill="white" transform="translate(1 1.5)"/>
</clipPath>
</defs>
</svg>
