<svg width="20" height="20" viewBox="0 0 20 20" fill="none" xmlns="http://www.w3.org/2000/svg">
<g clip-path="url(#clip0_5_1789)">
<path opacity="0.15" d="M16.9594 9.42C16.7994 9.62 16.5594 9.74 16.2994 9.74H3.3294C3.0694 9.74 2.8294 9.62 2.6694 9.42C2.5094 9.22 2.44939 8.96 2.50939 8.71L3.52939 4.39C3.61939 4.01 3.9594 3.74 4.3494 3.74H4.7894V5.24C4.7894 5.52 5.0094 5.74 5.2894 5.74C5.5694 5.74 5.7894 5.52 5.7894 5.24V3.74H15.2694C15.6594 3.74 15.9994 4.01 16.0894 4.39L17.1094 8.71C17.1794 8.96 17.1194 9.22 16.9594 9.42Z" fill="black"/>
<path d="M18.0894 8.48L17.0694 4.16C16.8694 3.33 16.1394 2.74 15.2794 2.74H5.94939C6.24939 2.02 6.95939 1.5 7.78939 1.5C8.06939 1.5 8.28939 1.28 8.28939 1C8.28939 0.72 8.06939 0.5 7.78939 0.5C6.39939 0.5 5.24939 1.45 4.90939 2.74H4.35939C3.49939 2.74 2.76939 3.32 2.56939 4.16L1.54939 8.48C1.41939 9.03 1.54939 9.6 1.89939 10.04C2.24939 10.48 2.77939 10.74 3.33939 10.74H9.32939V13.24C7.08939 13.39 5.38939 14.51 5.38939 15.95C5.38939 17.48 7.32939 18.69 9.79939 18.69C12.2694 18.69 14.2094 17.49 14.2094 15.95C14.2094 14.53 12.5394 13.4 10.3194 13.24V10.73H16.2994C16.8694 10.73 17.3894 10.48 17.7394 10.03C18.0894 9.6 18.2194 9.03 18.0894 8.48ZM13.2094 15.96C13.2094 16.78 11.8094 17.7 9.79939 17.7C7.78939 17.7 6.38939 16.78 6.38939 15.96C6.38939 15.21 7.57939 14.38 9.32939 14.25V14.91C9.32939 15.19 9.54939 15.41 9.82939 15.41C10.1094 15.41 10.3294 15.19 10.3294 14.91V14.25C12.0394 14.39 13.2094 15.21 13.2094 15.96ZM16.9594 9.42C16.7994 9.62 16.5594 9.74 16.2994 9.74H3.32939C3.06939 9.74 2.82939 9.62 2.66939 9.42C2.50939 9.22 2.44939 8.96 2.50939 8.71L3.52939 4.39C3.61939 4.01 3.95939 3.74 4.34939 3.74H4.78939V5.24C4.78939 5.52 5.00939 5.74 5.28939 5.74C5.56939 5.74 5.78939 5.52 5.78939 5.24V3.74H15.2694C15.6594 3.74 15.9994 4.01 16.0894 4.39L17.1094 8.71C17.1794 8.96 17.1194 9.22 16.9594 9.42Z" fill="black"/>
</g>
<defs>
<clipPath id="clip0_5_1789">
<rect width="17" height="19" fill="white" transform="translate(1.5 0.5)"/>
</clipPath>
</defs>
</svg>
