<svg width="20" height="20" viewBox="0 0 20 20" fill="none" xmlns="http://www.w3.org/2000/svg">
<g clip-path="url(#clip0_5_1791)">
<path opacity="0.15" d="M16.814 13.6478L10.635 16.8618C10.292 17.0418 9.66497 17.0418 9.32097 16.8618L3.14197 13.6478C3.13497 13.6438 3.12697 13.6398 3.12097 13.6358C3.12697 13.6318 3.13497 13.6288 3.14297 13.6248L5.44297 12.4258L8.88997 14.1988C9.20597 14.3608 9.60297 14.4428 9.99997 14.4428C10.397 14.4428 10.794 14.3608 11.11 14.1988L14.502 12.4548L16.814 13.6248C16.822 13.6288 16.829 13.6328 16.835 13.6368C16.829 13.6408 16.822 13.6438 16.814 13.6478Z" fill="black"/>
<path opacity="0.15" d="M3.073 6.2878C3.073 6.2878 3.074 6.2878 3.074 6.2868L9.258 3.1368C9.606 2.9598 10.238 2.9598 10.583 3.1358L16.768 6.2878C16.769 6.2878 16.769 6.2878 16.769 6.2878C16.769 6.2888 16.769 6.2888 16.768 6.2888L10.583 9.4398C10.237 9.6158 9.606 9.6158 9.259 9.4398L3.074 6.2888C3.074 6.2888 3.073 6.2888 3.073 6.2878Z" fill="black"/>
<path opacity="0.15" d="M3.06 10.0798C3.066 10.0768 3.073 10.0728 3.079 10.0698L5.684 8.7378L8.821 10.3358C9.134 10.4958 9.528 10.5768 9.921 10.5768C10.314 10.5768 10.707 10.4958 11.021 10.3358L14.251 8.6898L16.921 10.0698C16.927 10.0728 16.934 10.0768 16.94 10.0798L16.921 10.0898L10.67 13.3038C10.318 13.4838 9.68 13.4838 9.33 13.3038L3.079 10.0898L3.06 10.0798Z" fill="black"/>
<path fill-rule="evenodd" clip-rule="evenodd" d="M16.814 13.6478L10.635 16.8618C10.292 17.0418 9.665 17.0418 9.321 16.8618L3.142 13.6478C3.135 13.6438 3.127 13.6398 3.121 13.6358C3.127 13.6318 3.135 13.6288 3.143 13.6248L5.443 12.4258L8.89 14.1988C9.206 14.3608 9.603 14.4428 10 14.4428C10.397 14.4428 10.794 14.3608 11.11 14.1988L14.502 12.4548L16.814 13.6248C16.822 13.6288 16.829 13.6328 16.835 13.6368C16.829 13.6408 16.822 13.6438 16.814 13.6478ZM3.06 10.0798C3.066 10.0768 3.073 10.0728 3.079 10.0698L5.684 8.7378L8.821 10.3358C9.134 10.4958 9.528 10.5768 9.921 10.5768C10.314 10.5768 10.707 10.4958 11.021 10.3358L14.251 8.6898L16.921 10.0698C16.927 10.0728 16.934 10.0768 16.94 10.0798L16.921 10.0898L10.67 13.3038C10.318 13.4838 9.68 13.4838 9.33 13.3038L3.079 10.0898L3.06 10.0798ZM3.073 6.2878C3.073 6.2878 3.074 6.2878 3.074 6.2868L9.258 3.1368C9.606 2.9598 10.238 2.9598 10.583 3.1358L16.768 6.2878C16.769 6.2878 16.769 6.2878 16.769 6.2878C16.769 6.2888 16.769 6.2888 16.768 6.2888L10.583 9.4398C10.237 9.6158 9.606 9.6158 9.259 9.4398L3.074 6.2888C3.074 6.2888 3.073 6.2888 3.073 6.2878ZM17.254 12.7298L15.598 11.8918L17.361 10.9848C17.768 10.7758 18 10.4458 18 10.0788C18 9.7128 17.767 9.3828 17.361 9.1748L15.345 8.1328L17.206 7.1848C17.61 6.9798 17.842 6.6528 17.842 6.2888C17.842 5.9238 17.61 5.5978 17.206 5.3918L11.021 2.2398C10.395 1.9198 9.449 1.9198 8.821 2.2398L2.636 5.3908C2.231 5.5978 2 5.9248 2 6.2888C2.001 6.6528 2.232 6.9798 2.637 7.1848L4.587 8.1788L2.639 9.1748C2.233 9.3838 2.001 9.7128 2 10.0798C2 10.4458 2.233 10.7758 2.639 10.9848L4.356 11.8678L2.697 12.7318C2.295 12.9408 2.065 13.2708 2.065 13.6368C2.065 14.0018 2.296 14.3308 2.697 14.5408L8.876 17.7538C9.19 17.9188 9.585 17.9998 9.978 17.9998C10.372 17.9998 10.766 17.9188 11.081 17.7548L17.259 14.5408C17.661 14.3318 17.891 14.0018 17.892 13.6368C17.892 13.2708 17.661 12.9408 17.254 12.7298Z" fill="black"/>
</g>
<defs>
<clipPath id="clip0_5_1791">
<rect width="16" height="16" fill="white" transform="translate(2 2)"/>
</clipPath>
</defs>
</svg>
