<svg width="20" height="20" viewBox="0 0 20 20" fill="none" xmlns="http://www.w3.org/2000/svg">
<g clip-path="url(#clip0_5_1795)">
<path opacity="0.15" d="M10.0192 18C9.70923 18 9.40223 17.887 9.15623 17.681C9.11723 17.647 4.96123 14.196 3.31223 11.414C2.76623 10.493 2.01923 9.232 2.01923 7.462C2.01923 4.45 4.13623 2 6.73923 2C7.97923 2 9.14523 2.552 10.0192 3.535C10.8952 2.552 12.0602 2 13.3002 2C15.9022 2 18.0192 4.45 18.0192 7.462C18.0192 9.234 17.2712 10.494 16.7252 11.414C15.0782 14.196 10.9222 17.647 10.8802 17.683C10.6362 17.887 10.3302 18 10.0192 18Z" fill="black"/>
<path fill-rule="evenodd" clip-rule="evenodd" d="M6.73923 3C4.68823 3 3.01923 5.002 3.01923 7.462C3.01923 8.958 3.63223 9.992 4.17323 10.904C5.73323 13.538 9.75623 16.878 9.79623 16.911C9.93623 17.028 10.1052 17.026 10.2402 16.913C10.2832 16.878 14.3052 13.538 15.8662 10.904C16.4062 9.993 17.0192 8.96 17.0192 7.462C17.0192 5.002 15.3502 3 13.3002 3C12.1882 3 11.1432 3.594 10.4312 4.628C10.3382 4.764 10.1842 4.845 10.0192 4.845C9.85423 4.845 9.70023 4.764 9.60723 4.628C8.89623 3.594 7.85123 3 6.73923 3ZM10.0192 18C9.70923 18 9.40223 17.887 9.15623 17.681C9.11723 17.647 4.96123 14.196 3.31223 11.414C2.76623 10.493 2.01923 9.232 2.01923 7.462C2.01923 4.45 4.13623 2 6.73923 2C7.97923 2 9.14523 2.552 10.0192 3.535C10.8952 2.552 12.0602 2 13.3002 2C15.9022 2 18.0192 4.45 18.0192 7.462C18.0192 9.234 17.2712 10.494 16.7252 11.414C15.0782 14.196 10.9222 17.647 10.8802 17.683C10.6362 17.887 10.3302 18 10.0192 18Z" fill="black"/>
</g>
<defs>
<clipPath id="clip0_5_1795">
<rect width="16" height="16" fill="white" transform="translate(2 2)"/>
</clipPath>
</defs>
</svg>
