<svg width="20" height="20" viewBox="0 0 20 20" fill="none" xmlns="http://www.w3.org/2000/svg">
<g clip-path="url(#clip0_5_1792)">
<path opacity="0.15" d="M17.98 9.95C17.99 9.86 17.98 9.77 17.95 9.69L15.12 3.57C14.82 2.92 14.16 2.5 13.45 2.5H6.6C5.89 2.5 5.23 2.92 4.93 3.57L2.1 9.69C2.09 9.71 2.09 9.72 2.09 9.74C2.04 9.82 2 9.91 2 10.01V14.67C2 15.68 2.83 16.51 3.84 16.51H16.16C17.17 16.51 18 15.68 18 14.67V10.01C17.99 9.98 17.98 9.97 17.98 9.95Z" fill="black"/>
<path d="M17.98 9.95C17.99 9.86 17.98 9.77 17.95 9.69L15.12 3.57C14.82 2.92 14.16 2.5 13.45 2.5H6.6C5.89 2.5 5.23 2.92 4.93 3.57L2.1 9.69C2.09 9.71 2.09 9.72 2.09 9.74C2.04 9.82 2 9.91 2 10.01V14.67C2 15.68 2.83 16.51 3.84 16.51H16.16C17.17 16.51 18 15.68 18 14.67V10.01C17.99 9.98 17.98 9.97 17.98 9.95ZM5.83 3.99C5.97 3.69 6.27 3.5 6.59 3.5H13.44C13.77 3.5 14.06 3.69 14.2 3.99L16.75 9.5H12.86C12.62 9.5 12.42 9.67 12.37 9.9L12.33 10.07C12.11 11.17 11.13 11.97 10 11.97C8.88 11.97 7.9 11.17 7.68 10.12L7.66 9.94C7.63 9.69 7.42 9.5 7.16 9.5H3.26L5.83 3.99ZM16.99 14.66C16.99 15.12 16.61 15.5 16.15 15.5H3.83C3.37 15.5 2.99 15.12 2.99 14.66V10.5H6.77C7.17 11.95 8.5 12.98 10.02 12.98C11.54 12.98 12.87 11.95 13.27 10.5H16.99V14.66Z" fill="#040000"/>
</g>
<defs>
<clipPath id="clip0_5_1792">
<rect width="16" height="15" fill="white" transform="translate(2 2.5)"/>
</clipPath>
</defs>
</svg>
