<svg width="20" height="20" viewBox="0 0 20 20" fill="none" xmlns="http://www.w3.org/2000/svg">
<g clip-path="url(#clip0_5_1796)">
<path fill-rule="evenodd" clip-rule="evenodd" d="M17.5 17H2.5C2.224 17 2 16.776 2 16.5V3.5C2 3.224 2.224 3 2.5 3C2.777 3 3 3.224 3 3.5V16H17.5C17.776 16 18 16.224 18 16.5C18 16.776 17.776 17 17.5 17Z" fill="black"/>
<path fill-rule="evenodd" clip-rule="evenodd" d="M5.36242 11.9301L9.11244 8.23947C9.26812 8.08625 9.51795 8.08626 9.67362 8.2395L11.5571 10.0936C11.7128 10.2468 11.9627 10.2468 12.1183 10.0935L14.8183 7.435C14.897 7.35751 14.898 7.23088 14.8205 7.15217C14.8197 7.15141 14.819 7.15066 14.8182 7.14991L13.9974 6.34259C13.9187 6.26513 13.9176 6.1385 13.9951 6.05975C14.0327 6.02153 14.0841 6 14.1377 6H16.8C16.9105 6 17 6.08954 17 6.2V8.82153C17 8.93199 16.9105 9.02153 16.8 9.02153C16.7475 9.02153 16.6971 9.00089 16.6597 8.96406L15.8274 8.14475C15.7495 8.06812 15.6246 8.06813 15.5467 8.14478L12.1184 11.5208C11.9627 11.6742 11.7128 11.6742 11.5571 11.5208L9.67363 9.66602C9.51797 9.51272 9.26809 9.51268 9.11238 9.66594L6.08737 12.6433C5.88629 12.8412 5.56363 12.8413 5.36249 12.6434C5.16551 12.4496 5.16292 12.1328 5.3567 11.9358C5.35859 11.9339 5.3605 11.932 5.36242 11.9301Z" fill="black"/>
</g>
<defs>
<clipPath id="clip0_5_1796">
<rect width="16" height="14" fill="white" transform="translate(2 3)"/>
</clipPath>
</defs>
</svg>
