<svg width="20" height="20" viewBox="0 0 20 20" fill="none" xmlns="http://www.w3.org/2000/svg">
<g clip-path="url(#clip0_5_1793)">
<path opacity="0.15" d="M10 3C6.13401 3 3 6.13401 3 10C3 13.866 6.13401 17 10 17C13.866 17 17 13.866 17 10C17 6.13401 13.866 3 10 3Z" fill="black"/>
<path d="M10 2C14.4183 2 18 5.58172 18 10C18 14.4183 14.4183 18 10 18C5.58172 18 2 14.4183 2 10C2 5.58172 5.58172 2 10 2ZM10 3C6.13401 3 3 6.13401 3 10C3 13.866 6.13401 17 10 17C13.866 17 17 13.866 17 10C17 6.13401 13.866 3 10 3Z" fill="black"/>
<path d="M10 6.5C11.933 6.5 13.5 8.067 13.5 10C13.5 11.933 11.933 13.5 10 13.5C8.067 13.5 6.5 11.933 6.5 10C6.5 8.067 8.067 6.5 10 6.5ZM10 7.5C8.61929 7.5 7.5 8.61929 7.5 10C7.5 11.3807 8.61929 12.5 10 12.5C11.3807 12.5 12.5 11.3807 12.5 10C12.5 8.61929 11.3807 7.5 10 7.5Z" fill="black"/>
<path d="M4.34396 5.05106L7.52396 8.23106C7.71922 8.42632 8.0358 8.42632 8.23106 8.23106C8.42633 8.03579 8.42633 7.71921 8.23106 7.52395L5.05106 4.34395C4.8558 4.14869 4.53922 4.14869 4.34396 4.34395C4.14869 4.53921 4.14869 4.85579 4.34396 5.05106Z" fill="black"/>
<path d="M11.7689 12.4761L14.9489 15.6561C15.1442 15.8513 15.4608 15.8513 15.6561 15.6561C15.8513 15.4608 15.8513 15.1442 15.6561 14.9489L12.4761 11.7689C12.2808 11.5737 11.9642 11.5737 11.7689 11.7689C11.5737 11.9642 11.5737 12.2808 11.7689 12.4761Z" fill="black"/>
<path d="M12.4761 8.23106L15.6561 5.05106C15.8513 4.85579 15.8513 4.53921 15.6561 4.34395C15.4608 4.14869 15.1442 4.14869 14.9489 4.34395L11.7689 7.52395C11.5737 7.71921 11.5737 8.03579 11.7689 8.23106C11.9642 8.42632 12.2808 8.42632 12.4761 8.23106Z" fill="black"/>
<path d="M12.4761 8.23106L15.1236 5.58356C15.3188 5.38829 15.3188 5.07171 15.1236 4.87645C14.9283 4.68119 14.6117 4.68119 14.4164 4.87645L11.7689 7.52395C11.5737 7.71921 11.5737 8.03579 11.7689 8.23106C11.9642 8.42632 12.2808 8.42632 12.4761 8.23106Z" fill="black"/>
<path d="M5.05106 15.6561L8.23106 12.4761C8.42633 12.2808 8.42633 11.9642 8.23106 11.7689C8.0358 11.5737 7.71922 11.5737 7.52396 11.7689L4.34396 14.9489C4.14869 15.1442 4.14869 15.4608 4.34396 15.6561C4.53922 15.8513 4.8558 15.8513 5.05106 15.6561Z" fill="black"/>
</g>
<defs>
<clipPath id="clip0_5_1793">
<rect width="16" height="16" fill="white" transform="translate(2 2)"/>
</clipPath>
</defs>
</svg>
