<svg width="20" height="20" viewBox="0 0 20 20" fill="none" xmlns="http://www.w3.org/2000/svg">
<g clip-path="url(#clip0_5_1801)">
<path opacity="0.15" d="M8.08789 3.23938C5.05411 4.10368 2.90517 6.93812 3.00538 10.1995C3.11921 13.9042 6.09584 16.8808 9.80051 16.9947C13.1477 17.0975 16.0452 14.8313 16.8248 11.6708C14.4268 12.8517 11.4856 12.4108 9.53743 10.4626C7.6542 8.57936 7.1794 5.76822 8.21653 3.41681L8.32921 3.17526L8.08789 3.23938Z" fill="black"/>
<path d="M9.27827 2.00229C9.7092 1.96247 9.98449 2.45093 9.72725 2.79894C8.1549 4.92616 8.37544 7.88362 10.2459 9.75409C12.1164 11.6246 15.0738 11.8451 17.2011 10.2728C17.5491 10.0155 18.0375 10.2908 17.9977 10.7217C17.6079 14.9397 14.0036 18.1262 9.76971 17.9962C5.5358 17.8661 2.13394 14.4642 2.00384 10.2303C1.87375 5.99638 5.06033 2.39208 9.27827 2.00229ZM8.08786 3.23937C5.05408 4.10368 2.90514 6.93812 3.00535 10.1995C3.11918 13.9042 6.09581 16.8808 9.80048 16.9946C13.1477 17.0975 16.0452 14.8313 16.8247 11.6708C14.4268 12.8517 11.4856 12.4108 9.53741 10.4626C7.65417 8.57936 7.17937 5.76822 8.2165 3.41681L8.32918 3.17526L8.08786 3.23937Z" fill="black"/>
</g>
<defs>
<clipPath id="clip0_5_1801">
<rect width="16" height="16" fill="white" transform="translate(2 2)"/>
</clipPath>
</defs>
</svg>
