<svg width="20" height="20" viewBox="0 0 20 20" fill="none" xmlns="http://www.w3.org/2000/svg">
<g clip-path="url(#clip0_5_1800)">
<path opacity="0.15" d="M9.9823 3C6.1233 3 2.9823 6.141 2.9823 10C2.9823 13.859 6.1233 17 9.9823 17C13.8413 17 16.9823 13.859 16.9823 10C16.9823 6.141 13.8413 3 9.9823 3Z" fill="black"/>
<path fill-rule="evenodd" clip-rule="evenodd" d="M7.49988 9H5.49988C5.22388 9 4.99988 8.776 4.99988 8.5C4.99988 8.224 5.22388 8 5.49988 8H7.49988C7.77588 8 7.99988 8.224 7.99988 8.5C7.99988 8.776 7.77588 9 7.49988 9Z" fill="black"/>
<path fill-rule="evenodd" clip-rule="evenodd" d="M14.4999 9H12.4999C12.2239 9 11.9999 8.776 11.9999 8.5C11.9999 8.224 12.2239 8 12.4999 8H14.4999C14.7759 8 14.9999 8.224 14.9999 8.5C14.9999 8.776 14.7759 9 14.4999 9Z" fill="black"/>
<path fill-rule="evenodd" clip-rule="evenodd" d="M12.4999 14H7.49988C7.22388 14 6.99988 13.776 6.99988 13.5C6.99988 13.224 7.22388 13 7.49988 13H12.4999C12.7759 13 12.9999 13.224 12.9999 13.5C12.9999 13.776 12.7759 14 12.4999 14Z" fill="black"/>
<path fill-rule="evenodd" clip-rule="evenodd" d="M9.9823 3C6.1233 3 2.9823 6.141 2.9823 10C2.9823 13.859 6.1233 17 9.9823 17C13.8413 17 16.9823 13.859 16.9823 10C16.9823 6.141 13.8413 3 9.9823 3ZM9.9823 18C5.5713 18 1.9823 14.411 1.9823 10C1.9823 5.589 5.5713 2 9.9823 2C14.3933 2 17.9823 5.589 17.9823 10C17.9823 14.411 14.3933 18 9.9823 18Z" fill="black"/>
</g>
<defs>
<clipPath id="clip0_5_1800">
<rect width="16" height="16" fill="white" transform="translate(2 2)"/>
</clipPath>
</defs>
</svg>
