<svg width="20" height="20" viewBox="0 0 20 20" fill="none" xmlns="http://www.w3.org/2000/svg">
<g clip-path="url(#clip0_5_1798)">
<path opacity="0.15" d="M7.44288 13.3237C7.53988 13.3237 7.63788 13.3517 7.72188 13.4087L12.3879 16.5447L16.9999 13.4957V4.0757L12.6609 6.9447C12.4919 7.0547 12.2729 7.0547 12.1069 6.9427L7.44288 3.8077L2.99988 6.7937V16.2077L7.16388 13.4087C7.24788 13.3517 7.34588 13.3237 7.44288 13.3237Z" fill="black"/>
<path fill-rule="evenodd" clip-rule="evenodd" d="M7.44288 13.3237C7.53988 13.3237 7.63788 13.3517 7.72188 13.4087L12.3879 16.5447L16.9999 13.4957V4.0757L12.6609 6.9447C12.4919 7.0547 12.2729 7.0547 12.1069 6.9427L7.44288 3.8077L2.99988 6.7937V16.2077L7.16388 13.4087C7.24788 13.3517 7.34588 13.3237 7.44288 13.3237ZM12.3849 17.6457C12.2879 17.6457 12.1909 17.6177 12.1069 17.5607L7.44288 14.4267L2.77888 17.5607C2.62588 17.6647 2.42688 17.6737 2.26488 17.5877C2.10188 17.5007 1.99988 17.3307 1.99988 17.1457V6.5277C1.99988 6.3617 2.08288 6.2057 2.22088 6.1127L7.16388 2.7897C7.33188 2.6767 7.55388 2.6767 7.72188 2.7897L12.3879 5.9267L17.2239 2.7287C17.3779 2.6267 17.5739 2.6167 17.7369 2.7057C17.8989 2.7927 17.9999 2.9617 17.9999 3.1457V13.7647C17.9999 13.9327 17.9159 14.0897 17.7759 14.1817L12.6609 17.5627C12.5769 17.6177 12.4819 17.6457 12.3849 17.6457Z" fill="black"/>
<path fill-rule="evenodd" clip-rule="evenodd" d="M7.5 12C7.224 12 7 11.72 7 11.375V7.625C7 7.28 7.224 7 7.5 7C7.776 7 8 7.28 8 7.625V11.375C8 11.72 7.776 12 7.5 12Z" fill="black"/>
<path fill-rule="evenodd" clip-rule="evenodd" d="M12.5 14C12.224 14 12 13.776 12 13.5V9.5C12 9.224 12.224 9 12.5 9C12.776 9 13 9.224 13 9.5V13.5C13 13.776 12.776 14 12.5 14Z" fill="black"/>
</g>
<defs>
<clipPath id="clip0_5_1798">
<rect width="16" height="16" fill="white" transform="translate(2 2)"/>
</clipPath>
</defs>
</svg>
