<svg width="20" height="20" viewBox="0 0 20 20" fill="none" xmlns="http://www.w3.org/2000/svg">
<g clip-path="url(#clip0_5_1802)">
<path opacity="0.15" d="M15.5445 6.6988C15.4245 4.8948 13.8945 3.4788 12.0535 3.4608C12.0535 3.2258 12.0045 3.0038 11.9285 2.7938C11.9805 2.7708 12.0305 2.7418 12.0725 2.7008L13.2225 1.5728H15.1495C15.4335 1.5728 15.6625 1.3488 15.6625 1.0708C15.6625 0.791803 15.4335 0.566803 15.1495 0.566803H13.0095C12.8735 0.566803 12.7435 0.619803 12.6475 0.713803L11.3675 1.9698C11.0025 1.6488 10.5265 1.4478 9.99947 1.4478C9.47047 1.4478 8.99347 1.6508 8.62747 1.9738L7.34447 0.713803C7.24747 0.619803 7.11847 0.566803 6.98147 0.566803H4.84147C4.55847 0.566803 4.32847 0.791803 4.32847 1.0708C4.32847 1.3488 4.55847 1.5728 4.84147 1.5728H6.76847L7.91747 2.7008C7.96247 2.7448 8.01547 2.7758 8.07047 2.7998C7.99447 3.0078 7.94747 3.2278 7.94747 3.4608C6.10447 3.4758 4.57247 4.8928 4.45147 6.6988L4.00947 13.3818C3.95047 13.9318 4.13347 14.4818 4.51047 14.8928C4.88747 15.3038 5.42747 15.5378 5.99147 15.5378H7.76747V16.4118V16.4758C7.76747 17.6278 8.72447 18.5668 9.90147 18.5668H10.1005C11.2765 18.5668 12.2345 17.6278 12.2345 16.4758V16.4118V15.5378H14.0045C14.5685 15.5378 15.1085 15.3028 15.4855 14.8928C15.8625 14.4818 16.0455 13.9318 15.9885 13.4018L15.5445 6.6988Z" fill="black"/>
<path fill-rule="evenodd" clip-rule="evenodd" d="M14.7225 14.2188C14.5365 14.4208 14.2825 14.5318 14.0045 14.5318H12.2345V14.4508C12.2345 13.2988 11.2765 12.3608 10.1005 12.3608H9.90147C8.72447 12.3608 7.76747 13.2988 7.76747 14.4508V14.5318H5.99147C5.71347 14.5318 5.45947 14.4208 5.27447 14.2198C5.08847 14.0168 5.00047 13.7568 5.03247 13.4668L5.47647 6.7638C5.56147 5.4768 6.65947 4.4668 7.97547 4.4668H8.23247C8.58847 5.0658 9.24347 5.4738 9.99947 5.4738C10.7565 5.4738 11.4105 5.0658 11.7675 4.4668H12.0195C13.3355 4.4668 14.4345 5.4768 14.5195 6.7638L14.9655 13.4868C14.9945 13.7568 14.9085 14.0168 14.7225 14.2188ZM11.2065 15.0348V16.4118C11.2065 17.0448 10.6815 17.5608 9.96447 17.5608C9.31947 17.5608 8.79347 17.0448 8.79347 16.4118V15.0348V14.4508C8.79347 13.8538 9.28947 13.3668 9.90147 13.3668H10.1005C10.7105 13.3668 11.2065 13.8538 11.2065 14.4508V15.0348ZM9.99947 2.4538C10.5665 2.4538 11.0275 2.9058 11.0275 3.4608C11.0275 4.0158 10.5665 4.4668 9.99947 4.4668C9.43347 4.4668 8.97347 4.0158 8.97347 3.4608C8.97347 2.9058 9.43347 2.4538 9.99947 2.4538ZM15.5445 6.6988C15.4245 4.8948 13.8945 3.4788 12.0535 3.4608C12.0535 3.2258 12.0045 3.0038 11.9285 2.7938C11.9805 2.7708 12.0305 2.7418 12.0725 2.7008L13.2225 1.5728H15.1495C15.4335 1.5728 15.6625 1.3488 15.6625 1.0708C15.6625 0.791803 15.4335 0.566803 15.1495 0.566803H13.0095C12.8735 0.566803 12.7435 0.619803 12.6475 0.713803L11.3675 1.9698C11.0025 1.6488 10.5265 1.4478 9.99947 1.4478C9.47047 1.4478 8.99347 1.6508 8.62747 1.9738L7.34447 0.713803C7.24747 0.619803 7.11847 0.566803 6.98147 0.566803H4.84147C4.55847 0.566803 4.32847 0.791803 4.32847 1.0708C4.32847 1.3488 4.55847 1.5728 4.84147 1.5728H6.76847L7.91747 2.7008C7.96247 2.7448 8.01547 2.7758 8.07047 2.7998C7.99447 3.0078 7.94747 3.2278 7.94747 3.4608C6.10447 3.4758 4.57247 4.8928 4.45147 6.6988L4.00947 13.3818C3.95047 13.9318 4.13347 14.4818 4.51047 14.8928C4.88747 15.3038 5.42747 15.5378 5.99147 15.5378H7.76747V16.4118V16.4758C7.76747 17.6278 8.72447 18.5668 9.90147 18.5668H10.1005C11.2765 18.5668 12.2345 17.6278 12.2345 16.4758V16.4118V15.5378H14.0045C14.5685 15.5378 15.1085 15.3028 15.4855 14.8928C15.8625 14.4818 16.0455 13.9318 15.9885 13.4018L15.5445 6.6988Z" fill="black"/>
</g>
<defs>
<clipPath id="clip0_5_1802">
<rect width="12" height="19" fill="white" transform="translate(4 0.5)"/>
</clipPath>
</defs>
</svg>
