<svg width="20" height="20" viewBox="0 0 20 20" fill="none" xmlns="http://www.w3.org/2000/svg">
<g clip-path="url(#clip0_5_1803)">
<path opacity="0.1" d="M7.43254 3.8313L10.8169 12.4008L8.31366 16.9865H2.24591L7.43254 3.8313Z" fill="black"/>
<path opacity="0.1" d="M9.44507 16.9965L9.6253 16.6654L13.5503 9.48071L17.6556 16.9865H9.44507V16.9965Z" fill="black"/>
<path d="M18.9372 17.2574L13.9909 8.1963C13.8107 7.8752 13.29 7.8752 13.1098 8.1963L11.4376 11.2568L7.8931 2.28598C7.74291 1.90467 7.1121 1.90467 6.96191 2.28598L1.03434 17.3076C0.974264 17.4581 0.99429 17.6388 1.0844 17.7792C1.17452 17.9197 1.33472 18 1.49493 18H8.594H18.4966C18.6769 18 18.8371 17.9097 18.9272 17.7491C19.0173 17.5986 19.0273 17.408 18.9372 17.2574ZM7.43251 3.8313L10.8168 12.4008L8.31364 16.9865H2.24589L7.43251 3.8313ZM9.44509 16.9966L9.62532 16.6654L13.5503 9.48071L17.6556 16.9865H9.44509V16.9966Z" fill="black"/>
</g>
<defs>
<clipPath id="clip0_5_1803">
<rect width="18" height="16" fill="white" transform="translate(1 2)"/>
</clipPath>
</defs>
</svg>
