<svg width="20" height="20" viewBox="0 0 20 20" fill="none" xmlns="http://www.w3.org/2000/svg">
<g clip-path="url(#clip0_5_1799)">
<path opacity="0.15" d="M17.05 12.2075L12.2 17.0575C11.01 18.2475 8.93999 18.2375 7.75999 17.0575L2.90999 12.2075C2.31999 11.6175 1.98999 10.8275 1.98999 9.9875C1.98999 9.1475 2.31999 8.3575 2.90999 7.7675L7.75999 2.9175C8.36999 2.3075 9.17999 1.9975 9.97999 1.9975C10.78 1.9975 11.59 2.3075 12.2 2.9175L17.05 7.7675C18.27 8.9875 18.27 10.9775 17.05 12.2075Z" fill="black"/>
<path d="M17.76 7.0575L12.91 2.2075C11.29 0.5975 8.67 0.5975 7.06 2.2075L2.21 7.0575C1.43 7.8375 1 8.8775 1 9.9875C1 11.0975 1.43 12.1375 2.21 12.9175L7.06 17.7675C7.84 18.5475 8.88 18.9775 9.99 18.9775C11.1 18.9775 12.13 18.5475 12.92 17.7675L17.77 12.9175C19.37 11.2975 19.37 8.6775 17.76 7.0575ZM17.05 12.2075L12.2 17.0575C11.01 18.2475 8.94 18.2375 7.76 17.0575L2.91 12.2075C2.32 11.6175 1.99 10.8275 1.99 9.9875C1.99 9.1475 2.32 8.3575 2.91 7.7675L7.76 2.9175C8.37 2.3075 9.18 1.9975 9.98 1.9975C10.78 1.9975 11.59 2.3075 12.2 2.9175L17.05 7.7675C18.27 8.9875 18.27 10.9775 17.05 12.2075Z" fill="#231815"/>
<path d="M14.48 7.9875H11.98V5.4875C11.98 5.2075 11.76 4.9875 11.48 4.9875H8.47998C8.19998 4.9875 7.97998 5.2075 7.97998 5.4875V7.9875H5.47998C5.19998 7.9875 4.97998 8.2075 4.97998 8.4875V11.4875C4.97998 11.7675 5.19998 11.9875 5.47998 11.9875H7.97998V14.4875C7.97998 14.7675 8.19998 14.9875 8.47998 14.9875H11.48C11.76 14.9875 11.98 14.7675 11.98 14.4875V11.9875H14.48C14.76 11.9875 14.98 11.7675 14.98 11.4875V8.4875C14.98 8.2075 14.75 7.9875 14.48 7.9875ZM13.98 10.9875H11.48C11.2 10.9875 10.98 11.2075 10.98 11.4875V13.9875H8.97998V11.4875C8.97998 11.2075 8.75998 10.9875 8.47998 10.9875H5.97998V8.9875H8.47998C8.75998 8.9875 8.97998 8.7675 8.97998 8.4875V5.9875H10.98V8.4875C10.98 8.7675 11.2 8.9875 11.48 8.9875H13.98V10.9875Z" fill="#231815"/>
</g>
<defs>
<clipPath id="clip0_5_1799">
<rect width="18" height="18" fill="white" transform="translate(1 1)"/>
</clipPath>
</defs>
</svg>
