<svg width="20" height="20" viewBox="0 0 20 20" fill="none" xmlns="http://www.w3.org/2000/svg">
<g clip-path="url(#clip0_5_1797)">
<path opacity="0.15" d="M7.77492 10.8924L8.49292 11.7684C8.58692 11.8844 8.62491 12.0364 8.59391 12.1824C8.53691 12.4554 8.53692 12.4554 7.13392 13.0034L3.74992 14.1444C3.35092 14.2784 3.00092 14.7694 3.00092 15.1954V16.3514C3.00092 16.7124 3.28992 17.0074 3.64592 17.0074H16.3549C16.7099 17.0074 16.9989 16.7124 16.9989 16.3504V15.1954C16.9989 14.7694 16.6489 14.2784 16.2509 14.1444L12.8909 13.0124C11.4599 12.4534 11.4599 12.4534 11.4059 12.1734C11.3789 12.0304 11.4169 11.8824 11.5089 11.7684L12.2439 10.8704C12.7989 10.0054 13.2639 8.6714 13.4559 7.3474C13.5099 6.9734 13.5379 6.6124 13.5379 6.3054C13.5019 4.4514 11.9159 2.9924 10.0009 2.9924C8.04992 2.9924 6.46292 4.4784 6.46292 6.3054C6.46292 7.5684 6.91392 9.5434 7.77492 10.8924Z" fill="black"/>
<path fill-rule="evenodd" clip-rule="evenodd" d="M11.8979 12.0814H11.9079H11.8979ZM7.77488 10.8924L8.49288 11.7684C8.58688 11.8844 8.62488 12.0364 8.59388 12.1824C8.53688 12.4554 8.53688 12.4554 7.13388 13.0034L3.74988 14.1444C3.35088 14.2784 3.00088 14.7694 3.00088 15.1954V16.3514C3.00088 16.7124 3.28988 17.0074 3.64588 17.0074H16.3549C16.7099 17.0074 16.9989 16.7124 16.9989 16.3504V15.1954C16.9989 14.7694 16.6489 14.2784 16.2509 14.1444L12.8909 13.0124C11.4599 12.4534 11.4599 12.4534 11.4059 12.1734C11.3789 12.0304 11.4169 11.8824 11.5089 11.7684L12.2439 10.8704C12.7989 10.0054 13.2639 8.6714 13.4559 7.3474C13.5099 6.9734 13.5379 6.6124 13.5379 6.3054C13.5019 4.4514 11.9159 2.9924 10.0009 2.9924C8.04988 2.9924 6.46288 4.4784 6.46288 6.3054C6.46288 7.5684 6.91388 9.5434 7.77488 10.8924ZM16.3549 17.9994H3.64588C2.73788 17.9994 1.99988 17.2604 1.99988 16.3514V15.1954C1.99988 14.3484 2.62688 13.4734 3.42788 13.2044L6.78888 12.0724C6.78888 12.0724 7.03188 11.9774 7.29088 11.8744L6.97988 11.4954C6.96788 11.4814 6.95688 11.4664 6.94688 11.4504C5.92688 9.8714 5.46088 7.6764 5.46088 6.3054C5.46088 3.9314 7.49788 1.9994 10.0009 1.9994C12.4569 1.9994 14.4929 3.8944 14.5389 6.2244C14.5399 6.6594 14.5069 7.0674 14.4469 7.4874C14.3459 8.1874 14.0069 9.9754 13.0539 11.4504L12.7099 11.8744C12.9789 11.9804 13.2349 12.0814 13.2349 12.0814L16.5719 13.2044C17.3729 13.4734 17.9999 14.3484 17.9999 15.1954V16.3504C17.9999 17.2594 17.2619 17.9994 16.3549 17.9994Z" fill="black"/>
</g>
<defs>
<clipPath id="clip0_5_1797">
<rect width="16" height="16" fill="white" transform="translate(2 2)"/>
</clipPath>
</defs>
</svg>
