<svg width="20" height="20" viewBox="0 0 20 20" fill="none" xmlns="http://www.w3.org/2000/svg">
<g clip-path="url(#clip0_5_1804)">
<path opacity="0.15" d="M5.01001 17.1867C4.18001 17.1867 3.51001 16.5167 3.51001 15.6867C3.51001 14.8567 4.18001 14.1867 5.01001 14.1867C5.84001 14.1867 6.51001 14.8567 6.51001 15.6867C6.51001 16.5167 5.83001 17.1867 5.01001 17.1867Z" fill="black"/>
<path opacity="0.15" d="M7.51001 7.58674V4.81674C7.51001 4.41674 7.79001 4.06674 8.18001 3.99674L15.5 2.52674C15.75 2.47674 16 2.53674 16.2 2.69674C16.4 2.85674 16.51 3.09674 16.51 3.34674V5.51674L7.51001 7.58674Z" fill="black"/>
<path opacity="0.15" d="M15.01 16.1867C14.18 16.1867 13.51 15.5167 13.51 14.6867C13.51 13.8567 14.18 13.1867 15.01 13.1867C15.84 13.1867 16.51 13.8567 16.51 14.6867C16.51 15.5167 15.83 16.1867 15.01 16.1867Z" fill="black"/>
<path d="M16.83 1.91674C16.4 1.56674 15.85 1.42674 15.3 1.53674L7.98 3.00674C7.12 3.17674 6.5 3.93674 6.5 4.80674V13.6967C6.08 13.3767 5.57 13.1867 5 13.1867C3.62 13.1867 2.5 14.3067 2.5 15.6867C2.5 17.0667 3.62 18.1867 5 18.1867C6.38 18.1867 7.5 17.0667 7.5 15.6867V8.60674L16.5 6.52674V12.6867C16.08 12.3667 15.57 12.1767 15 12.1767C13.62 12.1767 12.5 13.2967 12.5 14.6767C12.5 16.0567 13.62 17.1767 15 17.1767C16.37 17.1767 17.48 16.0667 17.5 14.7067V14.6967V3.34674C17.51 2.78674 17.26 2.26674 16.83 1.91674ZM5.01 17.1867C4.18 17.1867 3.51 16.5167 3.51 15.6867C3.51 14.8567 4.18 14.1867 5.01 14.1867C5.84 14.1867 6.51 14.8567 6.51 15.6867C6.51 16.5167 5.83 17.1867 5.01 17.1867ZM7.51 7.58674V4.81674C7.51 4.41674 7.79 4.06674 8.18 3.99674L15.5 2.52674C15.75 2.47674 16 2.53674 16.2 2.69674C16.4 2.85674 16.51 3.09674 16.51 3.34674V5.51674L7.51 7.58674ZM15.01 16.1867C14.18 16.1867 13.51 15.5167 13.51 14.6867C13.51 13.8567 14.18 13.1867 15.01 13.1867C15.84 13.1867 16.51 13.8567 16.51 14.6867C16.51 15.5167 15.83 16.1867 15.01 16.1867Z" fill="#272635"/>
</g>
<defs>
<clipPath id="clip0_5_1804">
<rect width="15" height="17" fill="white" transform="translate(2.5 1.5)"/>
</clipPath>
</defs>
</svg>
