<svg width="20" height="20" viewBox="0 0 20 20" fill="none" xmlns="http://www.w3.org/2000/svg">
<g clip-path="url(#clip0_5_1807)">
<path opacity="0.15" d="M17 16.16C17 16.62 16.62 17 16.16 17H3.84C3.38 17 3 16.62 3 16.16V3.84C3 3.38 3.38 3 3.84 3H16.16C16.62 3 17 3.38 17 3.84V16.16Z" fill="black"/>
<path d="M10.36 11.1L10.42 11.05C11.75 9.96 12.3 9.5 12.3 8.26C12.3 7.14 11.57 6.01 9.93003 6.01C8.51003 6.01 7.56003 6.87 7.39003 8.32L7.35003 8.59H8.40003L8.43003 8.39C8.60003 7.42 9.03003 7.03 9.92003 7.03C10.73 7.03 11.2 7.49 11.2 8.3C11.2 9.13 10.91 9.39 9.69003 10.35C8.18003 11.53 7.34003 12.74 7.34003 13.75V14.02H12.46L12.65 12.99H8.58003C8.86003 12.46 9.40003 11.88 10.36 11.1Z" fill="black"/>
<path d="M16.16 2H3.84C2.83 2 2 2.83 2 3.84V16.16C2 17.17 2.83 18 3.84 18H16.16C17.17 18 18 17.17 18 16.16V3.84C18 2.82 17.18 2 16.16 2ZM17 16.16C17 16.62 16.62 17 16.16 17H3.84C3.38 17 3 16.62 3 16.16V3.84C3 3.38 3.38 3 3.84 3H16.16C16.62 3 17 3.38 17 3.84V16.16Z" fill="black"/>
</g>
<defs>
<clipPath id="clip0_5_1807">
<rect width="16" height="16" fill="white" transform="translate(2 2)"/>
</clipPath>
</defs>
</svg>
