<svg width="20" height="20" viewBox="0 0 20 20" fill="none" xmlns="http://www.w3.org/2000/svg">
<g clip-path="url(#clip0_5_1805)">
<path opacity="0.15" d="M17 16.16C17 16.62 16.62 17 16.16 17H3.84C3.38 17 3 16.62 3 16.16V3.84C3 3.38 3.38 3 3.84 3H16.16C16.62 3 17 3.38 17 3.84V16.16Z" fill="black"/>
<path d="M10.03 6C9.23999 6 7.39999 6.39 7.39999 10.01C7.39999 11.51 7.73999 14.02 9.99999 14.02C12.27 14.02 12.61 11.47 12.61 9.95C12.61 7.41 11.69 6 10.03 6ZM9.98999 13.05C8.64999 13.05 8.44999 11.15 8.44999 10.02C8.44999 7.94 8.94999 6.97 10.03 6.97C11.28 6.97 11.54 8.59 11.54 9.95C11.55 12.04 11.04 13.05 9.98999 13.05Z" fill="black"/>
<path d="M16.16 2H3.84C2.83 2 2 2.83 2 3.84V16.16C2 17.17 2.83 18 3.84 18H16.16C17.17 18 18 17.17 18 16.16V3.84C18 2.82 17.17 2 16.16 2ZM17 16.16C17 16.62 16.62 17 16.16 17H3.84C3.38 17 3 16.62 3 16.16V3.84C3 3.38 3.38 3 3.84 3H16.16C16.62 3 17 3.38 17 3.84V16.16Z" fill="black"/>
</g>
<defs>
<clipPath id="clip0_5_1805">
<rect width="16" height="16" fill="white" transform="translate(2 2)"/>
</clipPath>
</defs>
</svg>
