<svg width="20" height="20" viewBox="0 0 20 20" fill="none" xmlns="http://www.w3.org/2000/svg">
<g clip-path="url(#clip0_5_1822)">
<path opacity="0.15" d="M17 16.16C17 16.62 16.62 17 16.16 17H3.84C3.38 17 3 16.62 3 16.16V3.84C3 3.38 3.38 3 3.84 3H16.16C16.62 3 17 3.38 17 3.84V16.16Z" fill="black"/>
<path d="M16.16 2H3.84C2.83 2 2 2.83 2 3.84V16.16C2 17.17 2.83 18 3.84 18H16.16C17.17 18 18 17.17 18 16.16V3.84C18 2.82 17.18 2 16.16 2ZM17 16.16C17 16.62 16.62 17 16.16 17H3.84C3.38 17 3 16.62 3 16.16V3.84C3 3.38 3.38 3 3.84 3H16.16C16.62 3 17 3.38 17 3.84V16.16Z" fill="black"/>
<path d="M7.31 6.04C6.78 6.51 6.06 6.96 5.56 7.13L5.44 7.18V8.07L5.67 8.02C6.06 7.93 6.69 7.63 7.15 7.32V13.98H8.12V5.98H7.37L7.31 6.04Z" fill="black"/>
<path d="M9.41002 6.98H13.38C12.09 8.84 10.85 11.72 10.48 13.77L10.44 13.99H11.42L11.45 13.84C11.91 11.53 13.17 8.68 14.54 6.89L14.56 6.86V6.05H9.40002V6.98H9.41002Z" fill="black"/>
</g>
<defs>
<clipPath id="clip0_5_1822">
<rect width="16" height="16" fill="white" transform="translate(2 2)"/>
</clipPath>
</defs>
</svg>
