<svg width="20" height="20" viewBox="0 0 20 20" fill="none" xmlns="http://www.w3.org/2000/svg">
<g clip-path="url(#clip0_5_1824)">
<path opacity="0.15" d="M17 16.16C17 16.62 16.62 17 16.16 17H3.84C3.38 17 3 16.62 3 16.16V3.84C3 3.38 3.38 3 3.84 3H16.16C16.62 3 17 3.38 17 3.84V16.16Z" fill="black"/>
<path d="M16.16 2H3.84C2.83 2 2 2.83 2 3.84V16.16C2 17.17 2.83 18 3.84 18H16.16C17.17 18 18 17.17 18 16.16V3.84C18 2.82 17.18 2 16.16 2ZM17 16.16C17 16.62 16.62 17 16.16 17H3.84C3.38 17 3 16.62 3 16.16V3.84C3 3.38 3.38 3 3.84 3H16.16C16.62 3 17 3.38 17 3.84V16.16Z" fill="black"/>
<path d="M7.29002 6.12C6.76002 6.58 6.06002 7.02 5.58002 7.19L5.46002 7.23V8.1L5.67002 8.05C6.05002 7.96 6.68002 7.66 7.12002 7.36V13.89H8.06002V6.06H7.33002L7.29002 6.12Z" fill="black"/>
<path d="M12.02 6C10.3 6 9.51001 7.35 9.51001 8.61C9.51001 10.09 10.48 11.13 11.86 11.13C12.6 11.13 13.18 10.92 13.58 10.5C13.44 12.25 12.88 13.14 11.92 13.14C11.21 13.14 10.8 12.85 10.56 12.18L10.52 12.06H9.55001L9.61001 12.28C9.81001 13.07 10.37 14.01 11.9 14.01C13.65 14.01 14.54 12.51 14.54 9.56C14.55 6.62 13.17 6 12.02 6ZM11.9 10.23C11.01 10.23 10.46 9.61 10.46 8.6C10.46 7.51 11.01 6.89 11.97 6.89C13.41 6.89 13.49 8.35 13.49 8.64C13.49 9.72 12.99 10.23 11.9 10.23Z" fill="black"/>
</g>
<defs>
<clipPath id="clip0_5_1824">
<rect width="16" height="16" fill="white" transform="translate(2 2)"/>
</clipPath>
</defs>
</svg>
