<svg width="20" height="20" viewBox="0 0 20 20" fill="none" xmlns="http://www.w3.org/2000/svg">
<g clip-path="url(#clip0_5_1818)">
<path opacity="0.15" d="M17 16.16C17 16.62 16.62 17 16.16 17H3.84C3.38 17 3 16.62 3 16.16V3.84C3 3.38 3.38 3 3.84 3H16.16C16.62 3 17 3.38 17 3.84V16.16Z" fill="black"/>
<path d="M7.17999 6.12C6.65999 6.58 5.95999 7.01 5.48999 7.18L5.35999 7.22V8.11L5.58999 8.06C5.95999 7.97 6.57999 7.68 7.01999 7.39V13.86H7.96999V6.07H7.22999L7.17999 6.12Z" fill="black"/>
<path d="M13.36 9.56C13.68 9.35 14.14 8.9 14.14 8.02C14.14 7.01 13.45 5.99 11.9 5.99C10.37 5.99 9.68998 7 9.55998 7.94L9.52998 8.15H10.45L10.48 8.01C10.67 7.24 11.1 6.9 11.88 6.9C12.69 6.9 13.17 7.32 13.17 8.02C13.17 8.81 12.71 9.18 11.73 9.18H11.2V10.07H11.82C12.93 10.07 13.49 10.56 13.49 11.53C13.49 12 13.34 13.09 11.92 13.09C11.07 13.09 10.45 12.61 10.26 11.81L10.23 11.67H9.28998L9.31998 11.88C9.44998 12.86 10.21 14 11.89 14C13.47 14 14.49 13.02 14.49 11.51C14.47 10.6 14.08 9.92 13.36 9.56Z" fill="black"/>
<path d="M16.16 2H3.84C2.83 2 2 2.83 2 3.84V16.16C2 17.17 2.83 18 3.84 18H16.16C17.17 18 18 17.17 18 16.16V3.84C18 2.82 17.18 2 16.16 2ZM17 16.16C17 16.62 16.62 17 16.16 17H3.84C3.38 17 3 16.62 3 16.16V3.84C3 3.38 3.38 3 3.84 3H16.16C16.62 3 17 3.38 17 3.84V16.16Z" fill="black"/>
</g>
<defs>
<clipPath id="clip0_5_1818">
<rect width="16" height="16" fill="white" transform="translate(2 2)"/>
</clipPath>
</defs>
</svg>
