<svg width="20" height="20" viewBox="0 0 20 20" fill="none" xmlns="http://www.w3.org/2000/svg">
<g clip-path="url(#clip0_5_1825)">
<path opacity="0.15" d="M17 16.16C17 16.62 16.62 17 16.16 17H3.84C3.38 17 3 16.62 3 16.16V3.84C3 3.38 3.38 3 3.84 3H16.16C16.62 3 17 3.38 17 3.84V16.16Z" fill="black"/>
<path d="M7.88998 10.98L7.93998 10.94C9.25998 9.86 9.79998 9.41 9.79998 8.2C9.79998 7.11 9.08998 6.02 7.48998 6.02C6.10998 6.02 5.18998 6.86 5.01998 8.27L4.99998 8.47H5.92998L5.95998 8.32C6.13998 7.32 6.57998 6.92 7.49998 6.92C8.33998 6.92 8.82998 7.4 8.82998 8.24C8.82998 9.1 8.53998 9.36 7.29998 10.32C5.80998 11.48 4.97998 12.67 4.97998 13.66V13.88H9.96998L10.14 12.97H6.06998C6.32998 12.4 6.89998 11.79 7.88998 10.98Z" fill="black"/>
<path d="M12.66 6.02C11 6.02 10.05 7.48 10.05 10.01C10.05 11.5 10.38 14 12.62 14C14.87 14 15.2 11.46 15.2 9.95C15.21 7.41 14.3 6.02 12.66 6.02ZM12.63 13.1C11.25 13.1 11.05 11.17 11.05 10.02C11.05 7.9 11.57 6.92 12.68 6.92C13.97 6.92 14.24 8.57 14.24 9.96C14.23 12.07 13.71 13.1 12.63 13.1Z" fill="black"/>
<path d="M16.16 2H3.84C2.83 2 2 2.83 2 3.84V16.16C2 17.17 2.83 18 3.84 18H16.16C17.17 18 18 17.17 18 16.16V3.84C18 2.82 17.18 2 16.16 2ZM17 16.16C17 16.62 16.62 17 16.16 17H3.84C3.38 17 3 16.62 3 16.16V3.84C3 3.38 3.38 3 3.84 3H16.16C16.62 3 17 3.38 17 3.84V16.16Z" fill="black"/>
</g>
<defs>
<clipPath id="clip0_5_1825">
<rect width="16" height="16" fill="white" transform="translate(2 2)"/>
</clipPath>
</defs>
</svg>
