<svg width="20" height="20" viewBox="0 0 20 20" fill="none" xmlns="http://www.w3.org/2000/svg">
<g clip-path="url(#clip0_5_1810)">
<path opacity="0.15" d="M17 16.16C17 16.62 16.62 17 16.16 17H3.84C3.38 17 3 16.62 3 16.16V3.84C3 3.38 3.38 3 3.84 3H16.16C16.62 3 17 3.38 17 3.84V16.16Z" fill="black"/>
<path d="M10.19 8.43C9.64997 8.43 9.17997 8.55 8.80997 8.79C8.88997 8.29 9.00997 7.55 9.07997 6.99H12.27L12.41 6.01H8.20997L8.18997 6.21C8.13997 6.67 7.85997 9.02 7.59997 10.11L7.54997 10.31L8.48997 10.57L8.56997 10.4C8.86997 9.76 9.22997 9.4 10.17 9.4C11.08 9.4 11.58 10.01 11.58 11.13C11.58 11.99 11.31 13.02 10.03 13.02C9.22997 13.02 8.66997 12.57 8.47997 11.79L8.43997 11.63H7.40997L7.44997 11.88C7.67997 13.21 8.62997 14 9.98997 14C11.92 14 12.61 12.5 12.61 11.1C12.61 9.45 11.68 8.43 10.19 8.43Z" fill="black"/>
<path d="M16.16 2H3.84C2.83 2 2 2.83 2 3.84V16.16C2 17.17 2.83 18 3.84 18H16.16C17.17 18 18 17.17 18 16.16V3.84C18 2.82 17.18 2 16.16 2ZM17 16.16C17 16.62 16.62 17 16.16 17H3.84C3.38 17 3 16.62 3 16.16V3.84C3 3.38 3.38 3 3.84 3H16.16C16.62 3 17 3.38 17 3.84V16.16Z" fill="black"/>
</g>
<defs>
<clipPath id="clip0_5_1810">
<rect width="16" height="16" fill="white" transform="translate(2 2)"/>
</clipPath>
</defs>
</svg>
