<svg width="20" height="20" viewBox="0 0 20 20" fill="none" xmlns="http://www.w3.org/2000/svg">
<g clip-path="url(#clip0_5_1819)">
<path opacity="0.15" d="M17 16.16C17 16.62 16.62 17 16.16 17H3.84C3.38 17 3 16.62 3 16.16V3.84C3 3.38 3.38 3 3.84 3H16.16C16.62 3 17 3.38 17 3.84V16.16Z" fill="black"/>
<path d="M7.03997 6C6.49997 6.47 5.77997 6.92 5.28997 7.1L5.15997 7.14V8.06L5.38997 8.01C5.76997 7.92 6.40997 7.62 6.86997 7.31V14H7.84997V5.95H7.08997L7.03997 6Z" fill="black"/>
<path d="M13.78 6.01H12.89L9.14001 11.05V11.87H12.81V14H13.78V11.87H14.7L14.84 10.93H13.78V6.01ZM12.81 8.83V10.94H10.39C10.59 10.67 10.81 10.36 11.05 10.05L11.13 9.95C11.73 9.13 12.41 8.21 12.83 7.61C12.82 8.06 12.81 8.56 12.81 8.83Z" fill="black"/>
<path d="M16.16 2H3.84C2.83 2 2 2.83 2 3.84V16.16C2 17.17 2.83 18 3.84 18H16.16C17.17 18 18 17.17 18 16.16V3.84C18 2.82 17.18 2 16.16 2ZM17 16.16C17 16.62 16.62 17 16.16 17H3.84C3.38 17 3 16.62 3 16.16V3.84C3 3.38 3.38 3 3.84 3H16.16C16.62 3 17 3.38 17 3.84V16.16Z" fill="black"/>
</g>
<defs>
<clipPath id="clip0_5_1819">
<rect width="16" height="16" fill="white" transform="translate(2 2)"/>
</clipPath>
</defs>
</svg>
