<svg width="20" height="20" viewBox="0 0 20 20" fill="none" xmlns="http://www.w3.org/2000/svg">
<g clip-path="url(#clip0_5_1812)">
<path opacity="0.15" d="M17 16.16C17 16.62 16.62 17 16.16 17H3.84C3.38 17 3 16.62 3 16.16V3.84C3 3.38 3.38 3 3.84 3H16.16C16.62 3 17 3.38 17 3.84V16.16Z" fill="black"/>
<path d="M7.49999 7H11.44C10.16 8.86 8.93999 11.72 8.56999 13.75L8.52999 14H9.47999L9.50999 13.83C9.94999 11.52 11.16 8.68 12.45 6.9L12.49 6.84V5.99H7.48999V7H7.49999Z" fill="black"/>
<path d="M16.16 2H3.84C2.83 2 2 2.83 2 3.84V16.16C2 17.17 2.83 18 3.84 18H16.16C17.17 18 18 17.17 18 16.16V3.84C18 2.82 17.18 2 16.16 2ZM17 16.16C17 16.62 16.62 17 16.16 17H3.84C3.38 17 3 16.62 3 16.16V3.84C3 3.38 3.38 3 3.84 3H16.16C16.62 3 17 3.38 17 3.84V16.16Z" fill="black"/>
</g>
<defs>
<clipPath id="clip0_5_1812">
<rect width="16" height="16" fill="white" transform="translate(2 2)"/>
</clipPath>
</defs>
</svg>
