<svg width="20" height="20" viewBox="0 0 20 20" fill="none" xmlns="http://www.w3.org/2000/svg">
<g clip-path="url(#clip0_5_1811)">
<path opacity="0.15" d="M17 16.16C17 16.62 16.62 17 16.16 17H3.84C3.38 17 3 16.62 3 16.16V3.84C3 3.38 3.38 3 3.84 3H16.16C16.62 3 17 3.38 17 3.84V16.16Z" fill="black"/>
<path d="M10.17 8.51C9.47002 8.51 8.88002 8.75 8.45002 9.19C8.60002 7.69 9.15002 6.96 10.11 6.96C10.76 6.96 11.16 7.26 11.33 7.87L11.38 8.03H12.4L12.36 7.77C12.29 7.35 11.91 5.99 10.15 5.99C8.38002 5.99 7.40002 7.45 7.40002 10.09C7.40002 12.71 8.27002 13.99 10.07 13.99C11.82 13.99 12.61 12.57 12.61 11.15C12.6 9.53 11.67 8.51 10.17 8.51ZM10.07 13.04C8.85002 13.04 8.53002 11.85 8.53002 11.22C8.53002 10.16 9.16002 9.48 10.13 9.48C11.37 9.48 11.55 10.56 11.55 11.2C11.55 11.63 11.44 13.04 10.07 13.04Z" fill="black"/>
<path d="M16.16 2H3.84C2.83 2 2 2.83 2 3.84V16.16C2 17.17 2.83 18 3.84 18H16.16C17.17 18 18 17.17 18 16.16V3.84C18 2.82 17.17 2 16.16 2ZM17 16.16C17 16.62 16.62 17 16.16 17H3.84C3.38 17 3 16.62 3 16.16V3.84C3 3.38 3.38 3 3.84 3H16.16C16.62 3 17 3.38 17 3.84V16.16Z" fill="black"/>
</g>
<defs>
<clipPath id="clip0_5_1811">
<rect width="16" height="16" fill="white" transform="translate(2 2)"/>
</clipPath>
</defs>
</svg>
