<svg width="20" height="20" viewBox="0 0 20 20" fill="none" xmlns="http://www.w3.org/2000/svg">
<g clip-path="url(#clip0_5_1815)">
<path opacity="0.15" d="M17 16.16C17 16.62 16.62 17 16.16 17H3.84C3.38 17 3 16.62 3 16.16V3.84C3 3.38 3.38 3 3.84 3H16.16C16.62 3 17 3.38 17 3.84V16.16Z" fill="black"/>
<path d="M7.22 6.15C6.69 6.62 5.98 7.06 5.5 7.23L5.38 7.27V8.17L5.61 8.12C5.99 8.03 6.62 7.73 7.06 7.43V14H8.02V6.11H7.28L7.22 6.15Z" fill="black"/>
<path d="M12.04 6.03C10.36 6.03 9.39001 7.51 9.39001 10.08C9.39001 11.59 9.73001 14.13 12 14.13C14.28 14.13 14.63 11.55 14.63 10.02C14.63 7.45 13.71 6.03 12.04 6.03ZM12.01 13.22C10.61 13.22 10.4 11.26 10.4 10.09C10.4 7.94 10.93 6.94 12.05 6.94C13.36 6.94 13.64 8.62 13.64 10.02C13.64 12.17 13.11 13.22 12.01 13.22Z" fill="black"/>
<path d="M16.16 2H3.84C2.83 2 2 2.83 2 3.84V16.16C2 17.17 2.83 18 3.84 18H16.16C17.17 18 18 17.17 18 16.16V3.84C18 2.82 17.18 2 16.16 2ZM17 16.16C17 16.62 16.62 17 16.16 17H3.84C3.38 17 3 16.62 3 16.16V3.84C3 3.38 3.38 3 3.84 3H16.16C16.62 3 17 3.38 17 3.84V16.16Z" fill="black"/>
</g>
<defs>
<clipPath id="clip0_5_1815">
<rect width="16" height="16" fill="white" transform="translate(2 2)"/>
</clipPath>
</defs>
</svg>
