<svg width="20" height="20" viewBox="0 0 20 20" fill="none" xmlns="http://www.w3.org/2000/svg">
<g clip-path="url(#clip0_5_1823)">
<path opacity="0.15" d="M17 16.16C17 16.62 16.62 17 16.16 17H3.84C3.38 17 3 16.62 3 16.16V3.84C3 3.38 3.38 3 3.84 3H16.16C16.62 3 17 3.38 17 3.84V16.16Z" fill="black"/>
<path d="M16.16 2H3.84C2.83 2 2 2.83 2 3.84V16.16C2 17.17 2.83 18 3.84 18H16.16C17.17 18 18 17.17 18 16.16V3.84C18 2.82 17.18 2 16.16 2ZM17 16.16C17 16.62 16.62 17 16.16 17H3.84C3.38 17 3 16.62 3 16.16V3.84C3 3.38 3.38 3 3.84 3H16.16C16.62 3 17 3.38 17 3.84V16.16Z" fill="black"/>
<path d="M7.23998 6.12C6.71998 6.58 6.01998 7.02 5.53998 7.19L5.41998 7.23V8.1L5.62998 8.05C5.99998 7.96 6.63998 7.66 7.07998 7.36V13.86H8.00998V6.08H7.28998L7.23998 6.12Z" fill="black"/>
<path d="M13.45 9.61C13.98 9.28 14.29 8.71 14.29 8.05C14.29 6.82 13.4 5.99 12.06 5.99C10.65 5.99 9.73002 6.8 9.73002 8.06C9.73002 8.72 10.05 9.28 10.6 9.63C10.14 9.88 9.40002 10.46 9.40002 11.61C9.40002 13.01 10.45 13.98 11.96 13.98C13.5 13.98 14.58 13 14.58 11.59C14.59 10.73 14.16 9.98 13.45 9.61ZM12.03 6.87C12.99 6.87 13.34 7.49 13.34 8.08C13.34 8.84 12.91 9.22 12.05 9.22C11.18 9.22 10.69 8.79 10.69 8.04C10.69 7.26 11.14 6.87 12.03 6.87ZM11.99 13.12C11 13.12 10.36 12.52 10.36 11.6C10.36 10.63 10.94 10.1 12 10.1C13.07 10.1 13.63 10.62 13.63 11.6C13.64 12.53 13.01 13.12 11.99 13.12Z" fill="black"/>
</g>
<defs>
<clipPath id="clip0_5_1823">
<rect width="16" height="16" fill="white" transform="translate(2 2)"/>
</clipPath>
</defs>
</svg>
