<svg width="20" height="20" viewBox="0 0 20 20" fill="none" xmlns="http://www.w3.org/2000/svg">
<g clip-path="url(#clip0_5_1816)">
<path opacity="0.15" d="M17 16.16C17 16.62 16.62 17 16.16 17H3.84C3.38 17 3 16.62 3 16.16V3.84C3 3.38 3.38 3 3.84 3H16.16C16.62 3 17 3.38 17 3.84V16.16Z" fill="black"/>
<path d="M7.54001 6.06C7.01001 6.53 6.29001 6.98 5.80001 7.15L5.67001 7.19V8.1L5.90001 8.05C6.28001 7.96 6.91001 7.66 7.36001 7.36V13.99H8.34001V6H7.58001L7.54001 6.06Z" fill="black"/>
<path d="M12.18 6.06C11.65 6.53 10.93 6.98 10.44 7.15L10.31 7.19V8.1L10.54 8.05C10.92 7.96 11.55 7.66 12 7.36V13.99H12.98V6H12.22L12.18 6.06Z" fill="black"/>
<path d="M16.16 2H3.84C2.83 2 2 2.83 2 3.84V16.16C2 17.17 2.83 18 3.84 18H16.16C17.17 18 18 17.17 18 16.16V3.84C18 2.82 17.18 2 16.16 2ZM17 16.16C17 16.62 16.62 17 16.16 17H3.84C3.38 17 3 16.62 3 16.16V3.84C3 3.38 3.38 3 3.84 3H16.16C16.62 3 17 3.38 17 3.84V16.16Z" fill="black"/>
</g>
<defs>
<clipPath id="clip0_5_1816">
<rect width="16" height="16" fill="white" transform="translate(2 2)"/>
</clipPath>
</defs>
</svg>
