<svg width="20" height="20" viewBox="0 0 20 20" fill="none" xmlns="http://www.w3.org/2000/svg">
<g clip-path="url(#clip0_5_1820)">
<path opacity="0.15" d="M17 16.16C17 16.62 16.62 17 16.16 17H3.84C3.38 17 3 16.62 3 16.16V3.84C3 3.38 3.38 3 3.84 3H16.16C16.62 3 17 3.38 17 3.84V16.16Z" fill="black"/>
<path d="M7.18002 5.99C6.65002 6.46 5.94002 6.9 5.46002 7.07L5.33002 7.11V8.02L5.56002 7.97C5.94002 7.88 6.56002 7.59 7.01002 7.29V13.87H7.98002V5.95H7.23002L7.18002 5.99Z" fill="black"/>
<path d="M12.18 8.44C11.61 8.44 11.13 8.57 10.75 8.84C10.85 8.25 10.97 7.47 11.03 6.94H14.25L14.38 6H10.2L10.18 6.17C10.03 7.46 9.78998 9.26 9.57998 10.12L9.53998 10.3L10.44 10.55L10.51 10.4C10.81 9.75 11.18 9.37 12.15 9.37C13.46 9.37 13.6 10.61 13.6 11.14C13.6 12.02 13.32 13.08 12.02 13.08C11.21 13.08 10.63 12.62 10.43 11.82L10.4 11.67H9.41998L9.45998 11.89C9.68998 13.21 10.64 14 11.99 14C13.92 14 14.6 12.5 14.6 11.1C14.59 9.46 13.67 8.44 12.18 8.44Z" fill="black"/>
<path d="M16.16 2H3.84C2.83 2 2 2.83 2 3.84V16.16C2 17.17 2.83 18 3.84 18H16.16C17.17 18 18 17.17 18 16.16V3.84C18 2.82 17.18 2 16.16 2ZM17 16.16C17 16.62 16.62 17 16.16 17H3.84C3.38 17 3 16.62 3 16.16V3.84C3 3.38 3.38 3 3.84 3H16.16C16.62 3 17 3.38 17 3.84V16.16Z" fill="black"/>
</g>
<defs>
<clipPath id="clip0_5_1820">
<rect width="16" height="16" fill="white" transform="translate(2 2)"/>
</clipPath>
</defs>
</svg>
