<svg width="20" height="20" viewBox="0 0 20 20" fill="none" xmlns="http://www.w3.org/2000/svg">
<g clip-path="url(#clip0_5_1821)">
<path opacity="0.15" d="M17 16.16C17 16.62 16.62 17 16.16 17H3.84C3.38 17 3 16.62 3 16.16V3.84C3 3.38 3.38 3 3.84 3H16.16C16.62 3 17 3.38 17 3.84V16.16Z" fill="black"/>
<path d="M7.19 6.12C6.67 6.58 5.98 7.01 5.5 7.18L5.37 7.22V8.11L5.6 8.06C5.97 7.97 6.58 7.68 7.02 7.39V13.84H7.97V6.07H7.23L7.19 6.12Z" fill="black"/>
<path d="M12.23 8.52C11.5 8.52 10.89 8.78 10.45 9.27C10.59 7.67 11.16 6.89 12.17 6.89C12.84 6.89 13.25 7.2 13.43 7.83L13.47 7.97H14.43L14.39 7.75C14.32 7.34 13.95 5.99 12.2 5.99C10.44 5.99 9.46997 7.44 9.46997 10.08C9.46997 12.7 10.34 13.97 12.12 13.97C13.86 13.97 14.64 12.55 14.64 11.15C14.64 9.53 13.71 8.52 12.23 8.52ZM12.13 13.08C10.87 13.08 10.54 11.86 10.54 11.21C10.54 10.12 11.18 9.42 12.18 9.42C13.5 9.42 13.64 10.65 13.64 11.19C13.65 11.64 13.54 13.08 12.13 13.08Z" fill="black"/>
<path d="M16.16 2H3.84C2.83 2 2 2.83 2 3.84V16.16C2 17.17 2.83 18 3.84 18H16.16C17.17 18 18 17.17 18 16.16V3.84C18 2.82 17.18 2 16.16 2ZM17 16.16C17 16.62 16.62 17 16.16 17H3.84C3.38 17 3 16.62 3 16.16V3.84C3 3.38 3.38 3 3.84 3H16.16C16.62 3 17 3.38 17 3.84V16.16Z" fill="black"/>
</g>
<defs>
<clipPath id="clip0_5_1821">
<rect width="16" height="16" fill="white" transform="translate(2 2)"/>
</clipPath>
</defs>
</svg>
