<svg width="20" height="20" viewBox="0 0 20 20" fill="none" xmlns="http://www.w3.org/2000/svg">
<g clip-path="url(#clip0_5_1814)">
<path opacity="0.15" d="M17 16.16C17 16.62 16.62 17 16.16 17H3.84C3.38 17 3 16.62 3 16.16V3.84C3 3.38 3.38 3 3.84 3H16.16C16.62 3 17 3.38 17 3.84V16.16Z" fill="black"/>
<path d="M9.98997 6.03C8.25997 6.03 7.46997 7.39 7.46997 8.65C7.46997 10.14 8.43997 11.18 9.82997 11.18C10.52 11.18 11.06 11 11.47 10.63C11.32 12.24 10.79 13.06 9.89997 13.06C9.22997 13.06 8.83997 12.79 8.60997 12.15L8.55997 12H7.50997L7.57997 12.28C7.77997 13.07 8.33997 14.02 9.87997 14.02C11.64 14.02 12.53 12.53 12.53 9.59C12.53 6.64 11.15 6.03 9.98997 6.03ZM9.87997 10.17C9.03997 10.17 8.50997 9.57 8.50997 8.62C8.50997 7.57 9.01997 6.99 9.93997 6.99C11.31 6.99 11.38 8.39 11.38 8.67C11.39 9.69 10.91 10.17 9.87997 10.17Z" fill="black"/>
<path d="M16.16 2H3.84C2.83 2 2 2.83 2 3.84V16.16C2 17.17 2.83 18 3.84 18H16.16C17.17 18 18 17.17 18 16.16V3.84C18 2.82 17.18 2 16.16 2ZM17 16.16C17 16.62 16.62 17 16.16 17H3.84C3.38 17 3 16.62 3 16.16V3.84C3 3.38 3.38 3 3.84 3H16.16C16.62 3 17 3.38 17 3.84V16.16Z" fill="black"/>
</g>
<defs>
<clipPath id="clip0_5_1814">
<rect width="16" height="16" fill="white" transform="translate(2 2)"/>
</clipPath>
</defs>
</svg>
