<svg width="20" height="20" viewBox="0 0 20 20" fill="none" xmlns="http://www.w3.org/2000/svg">
<g clip-path="url(#clip0_5_1808)">
<path opacity="0.15" d="M17 16.16C17 16.62 16.62 17 16.16 17H3.84C3.38 17 3 16.62 3 16.16V3.84C3 3.38 3.38 3 3.84 3H16.16C16.62 3 17 3.38 17 3.84V16.16Z" fill="black"/>
<path d="M11.51 9.56C11.76 9.4 11.94 9.18 12.07 8.92C12.08 8.9 12.09 8.87 12.1 8.85L12.11 8.82C12.17 8.68 12.21 8.54 12.23 8.39C12.23 8.36 12.24 8.33 12.24 8.31C12.24 8.28 12.25 8.26 12.25 8.23C12.26 8.17 12.27 8.11 12.27 8.04C12.27 7.02 11.57 5.99 10.01 5.99C8.46999 5.99 7.77999 7.01 7.64999 7.95L7.61999 8.19H8.57999L8.61999 8.03C8.79999 7.28 9.21999 6.94 9.98998 6.94C10.78 6.94 11.25 7.35 11.25 8.04C11.25 8.81 10.8 9.17 9.83999 9.17H9.28999V10.1H9.92999C11.02 10.1 11.57 10.58 11.57 11.53C11.57 11.99 11.42 13.06 10.03 13.06C9.18998 13.06 8.57999 12.59 8.38999 11.8L8.34999 11.64H7.35999L7.38999 11.88C7.51999 12.86 8.27998 14.01 9.96999 14.01C11.56 14.01 12.59 13.03 12.59 11.5C12.62 10.6 12.23 9.92 11.51 9.56Z" fill="#040000"/>
<path d="M16.16 18H3.84C2.83 18 2 17.17 2 16.16V3.84C2 2.83 2.83 2 3.84 2H16.16C17.17 2 18 2.83 18 3.84V16.16C18 17.17 17.18 18 16.16 18ZM3.84 3C3.38 3 3 3.38 3 3.84V16.16C3 16.62 3.38 17 3.84 17H16.16C16.62 17 17 16.62 17 16.16V3.84C17 3.38 16.62 3 16.16 3H3.84Z" fill="black"/>
</g>
<defs>
<clipPath id="clip0_5_1808">
<rect width="16" height="16" fill="white" transform="translate(2 2)"/>
</clipPath>
</defs>
</svg>
