<svg width="20" height="20" viewBox="0 0 20 20" fill="none" xmlns="http://www.w3.org/2000/svg">
<g clip-path="url(#clip0_5_1817)">
<path opacity="0.15" d="M17 16.16C17 16.62 16.62 17 16.16 17H3.84C3.38 17 3 16.62 3 16.16V3.84C3 3.38 3.38 3 3.84 3H16.16C16.62 3 17 3.38 17 3.84V16.16Z" fill="black"/>
<path d="M7.18002 6.12C6.65002 6.59 5.94002 7.03 5.46002 7.2L5.33002 7.24V8.15L5.56002 8.1C5.94002 8.01 6.56002 7.72 7.01002 7.42V14.01H7.98002V6.09H7.23002L7.18002 6.12Z" fill="black"/>
<path d="M12.38 11.05L12.43 11.01C13.77 9.91 14.33 9.45 14.33 8.22C14.33 7.11 13.6 5.99 11.98 5.99C10.57 5.99 9.62998 6.85 9.45998 8.28L9.42998 8.49H10.38L10.41 8.33C10.59 7.32 11.04 6.9 11.98 6.9C12.84 6.9 13.33 7.39 13.33 8.24C13.33 9.11 13.03 9.38 11.78 10.36C10.26 11.55 9.41998 12.75 9.41998 13.77V13.99H14.51L14.68 13.05H10.54C10.8 12.5 11.37 11.87 12.38 11.05Z" fill="black"/>
<path d="M16.16 2H3.84C2.83 2 2 2.83 2 3.84V16.16C2 17.17 2.83 18 3.84 18H16.16C17.17 18 18 17.17 18 16.16V3.84C18 2.82 17.18 2 16.16 2ZM17 16.16C17 16.62 16.62 17 16.16 17H3.84C3.38 17 3 16.62 3 16.16V3.84C3 3.38 3.38 3 3.84 3H16.16C16.62 3 17 3.38 17 3.84V16.16Z" fill="black"/>
</g>
<defs>
<clipPath id="clip0_5_1817">
<rect width="16" height="16" fill="white" transform="translate(2 2)"/>
</clipPath>
</defs>
</svg>
