<svg width="20" height="20" viewBox="0 0 20 20" fill="none" xmlns="http://www.w3.org/2000/svg">
<g clip-path="url(#clip0_5_1813)">
<path opacity="0.15" d="M17 16.16C17 16.62 16.62 17 16.16 17H3.84C3.38 17 3 16.62 3 16.16V3.84C3 3.38 3.38 3 3.84 3H16.16C16.62 3 17 3.38 17 3.84V16.16Z" fill="black"/>
<path d="M11.53 9.63C12.02 9.29 12.31 8.73 12.31 8.09C12.31 6.84 11.4 6 10.06 6C8.63002 6 7.71001 6.82 7.71001 8.1C7.71001 8.75 8.00002 9.29 8.53001 9.65C8.05002 9.93 7.39001 10.51 7.39001 11.62C7.39001 13.03 8.45001 14.02 9.98001 14.02C11.53 14.02 12.62 13.03 12.62 11.6C12.61 10.76 12.2 10.02 11.53 9.63ZM10.03 6.97C11.18 6.97 11.27 7.85 11.27 8.12C11.27 8.83 10.86 9.2 10.05 9.2C9.22001 9.2 8.75001 8.79 8.75001 8.08C8.75001 7.34 9.18001 6.97 10.03 6.97ZM10 13.06C9.05001 13.06 8.43001 12.49 8.43001 11.6C8.43001 10.68 8.99002 10.17 10.01 10.17C11.03 10.17 11.58 10.67 11.58 11.6C11.57 12.5 10.97 13.06 10 13.06Z" fill="black"/>
<path d="M16.16 2H3.84C2.83 2 2 2.83 2 3.84V16.16C2 17.17 2.83 18 3.84 18H16.16C17.17 18 18 17.17 18 16.16V3.84C18 2.82 17.18 2 16.16 2ZM17 16.16C17 16.62 16.62 17 16.16 17H3.84C3.38 17 3 16.62 3 16.16V3.84C3 3.38 3.38 3 3.84 3H16.16C16.62 3 17 3.38 17 3.84V16.16Z" fill="black"/>
</g>
<defs>
<clipPath id="clip0_5_1813">
<rect width="16" height="16" fill="white" transform="translate(2 2)"/>
</clipPath>
</defs>
</svg>
