<svg width="20" height="20" viewBox="0 0 20 20" fill="none" xmlns="http://www.w3.org/2000/svg">
<g clip-path="url(#clip0_5_1833)">
<path opacity="0.15" d="M9.97709 2.0005C9.73209 2.0005 9.49009 2.0135 9.25109 2.0385C7.18909 2.2535 5.43209 3.5695 4.55109 5.5575C3.58509 7.7385 3.84709 10.2675 5.23309 12.1585L9.24609 17.6285V17.6295C9.41809 17.8645 9.68209 18.0005 9.96809 18.0005C10.2541 18.0005 10.5171 17.8655 10.6901 17.6305L14.7091 12.1645C16.1011 10.2725 16.3641 7.7405 15.3971 5.5555C14.5171 3.5665 12.7591 2.2515 10.6961 2.0375C10.4591 2.0125 10.2191 2.0005 9.97709 2.0005Z" fill="black"/>
<path fill-rule="evenodd" clip-rule="evenodd" d="M9.97707 2.0005C9.73207 2.0005 9.49007 2.0135 9.25107 2.0385C7.18907 2.2535 5.43207 3.5695 4.55107 5.5575C3.58507 7.7385 3.84707 10.2675 5.23307 12.1585L9.24607 17.6285V17.6295C9.41807 17.8645 9.68207 18.0005 9.96807 18.0005C10.2541 18.0005 10.5171 17.8655 10.6901 17.6305L14.7091 12.1645C16.1011 10.2725 16.3641 7.7405 15.3971 5.5555C14.5171 3.5665 12.7591 2.2515 10.6961 2.0375C10.4591 2.0125 10.2191 2.0005 9.97707 2.0005ZM9.96807 19.0005H9.96707C9.35907 19.0005 8.80207 18.7155 8.43907 18.2205L4.42707 12.7505C2.82907 10.5705 2.52607 7.6595 3.63707 5.1525C4.66407 2.8335 6.72507 1.2965 9.14807 1.0435C9.69107 0.987499 10.2561 0.986499 10.7991 1.0425C13.2241 1.2935 15.2851 2.8305 16.3121 5.1515C17.4231 7.6625 17.1181 10.5765 15.5151 12.7565L11.4961 18.2225C11.1321 18.7165 10.5761 19.0005 9.96807 19.0005Z" fill="black"/>
<path fill-rule="evenodd" clip-rule="evenodd" d="M10.002 6.9858C9.45501 6.9858 9.00901 7.4358 9.00901 7.9898C9.00901 8.5438 9.45501 8.9938 10.002 8.9938C10.549 8.9938 10.995 8.5438 10.995 7.9898C10.995 7.4358 10.549 6.9858 10.002 6.9858ZM10.002 9.9898C8.89901 9.9898 8.00201 9.0918 8.00201 7.9898C8.00201 6.8868 8.89901 5.9898 10.002 5.9898C11.105 5.9898 12.002 6.8868 12.002 7.9898C12.002 9.0918 11.105 9.9898 10.002 9.9898Z" fill="black"/>
</g>
<defs>
<clipPath id="clip0_5_1833">
<rect width="14" height="18" fill="white" transform="translate(3 1)"/>
</clipPath>
</defs>
</svg>
