<svg width="20" height="20" viewBox="0 0 20 20" fill="none" xmlns="http://www.w3.org/2000/svg">
<g clip-path="url(#clip0_5_1827)">
<path opacity="0.15" d="M9.99999 17C9.90999 17 9.80999 16.99 9.71999 16.96C9.56999 16.92 9.42999 16.84 9.30999 16.73C9.12999 16.57 9.00999 16.35 8.97999 16.15C8.92999 15.81 8.83999 15.36 8.53999 14.97C8.07999 14.36 7.30999 14 6.42999 14H5.98999C4.33999 14 2.98999 12.65 2.98999 11V10C2.98999 6.14 6.12999 3 9.98999 3C13.85 3 16.99 6.14 16.99 10C16.99 13.86 13.86 17 9.99999 17Z" fill="black"/>
<path d="M10 2C5.59 2 2 5.59 2 10V11C2 13.21 3.79 15 6 15H6.49C7 15 7.48 15.22 7.75 15.58C7.87 15.75 7.95 15.96 7.99 16.29C8.05 16.73 8.29 17.16 8.64 17.48C8.87 17.69 9.16 17.85 9.46 17.93C9.64 17.98 9.82 18 10 18C14.41 18 18 14.41 18 10C18 5.59 14.41 2 10 2ZM10 17C9.91 17 9.81 16.99 9.72 16.96C9.57 16.92 9.43 16.84 9.31 16.73C9.13 16.57 9.01 16.35 8.98 16.15C8.93 15.81 8.84 15.36 8.54 14.97C8.08 14.36 7.31 14 6.43 14H5.99C4.34 14 2.99 12.65 2.99 11V10C2.99 6.14 6.13 3 9.99 3C13.85 3 16.99 6.14 16.99 10C16.99 13.86 13.86 17 10 17Z" fill="black"/>
<path d="M12 12C10.9 12 10 12.9 10 14C10 15.1 10.9 16 12 16C13.1 16 14 15.1 14 14C14 12.9 13.11 12 12 12ZM12 15C11.45 15 11 14.55 11 14C11 13.45 11.45 13 12 13C12.55 13 13 13.45 13 14C13 14.55 12.56 15 12 15Z" fill="black"/>
<path d="M7 5C6.45 5 6 5.45 6 6C6 6.55 6.45 7 7 7C7.55 7 8 6.55 8 6C8 5.45 7.56 5 7 5Z" fill="black"/>
<path d="M11 5C11 4.45 10.55 4 10 4C9.45 4 9 4.45 9 5C9 5.55 9.45 6 10 6C10.55 6 11 5.55 11 5Z" fill="black"/>
<path d="M13 7C13.55 7 14 6.55 14 6C14 5.45 13.55 5 13 5C12.45 5 12 5.45 12 6C12 6.55 12.45 7 13 7Z" fill="black"/>
<path d="M15 7C14.45 7 14 7.45 14 8C14 8.55 14.45 9 15 9C15.55 9 16 8.55 16 8C16 7.45 15.56 7 15 7Z" fill="black"/>
</g>
<defs>
<clipPath id="clip0_5_1827">
<rect width="16" height="16" fill="white" transform="translate(2 2)"/>
</clipPath>
</defs>
</svg>
