<svg width="20" height="20" viewBox="0 0 20 20" fill="none" xmlns="http://www.w3.org/2000/svg">
<g clip-path="url(#clip0_5_1830)">
<path opacity="0.15" d="M16.3851 5C17.2771 5 18.0021 5.726 18.0021 6.617V15.383C18.0021 16.275 17.2771 17 16.3851 17H5.61908C4.72708 17 4.00208 16.275 4.00208 15.383V6.617C4.00208 5.726 4.72708 5 5.61908 5H16.3851ZM8.00198 7C6.89898 7 6.00198 7.897 6.00198 9C6.00198 10.103 6.89898 11 8.00198 11C9.10498 11 10.002 10.103 10.002 9C10.002 7.897 9.10498 7 8.00198 7Z" fill="black"/>
<path fill-rule="evenodd" clip-rule="evenodd" d="M5.61908 6C5.27908 6 5.00208 6.277 5.00208 6.617V15.383C5.00208 15.723 5.27908 16 5.61908 16H16.3851C16.7251 16 17.0021 15.723 17.0021 15.383V6.617C17.0021 6.277 16.7251 6 16.3851 6H5.61908ZM16.3851 17H5.61908C4.72708 17 4.00208 16.275 4.00208 15.383V6.617C4.00208 5.726 4.72708 5 5.61908 5H16.3851C17.2771 5 18.0021 5.726 18.0021 6.617V15.383C18.0021 16.275 17.2771 17 16.3851 17Z" fill="black"/>
<path fill-rule="evenodd" clip-rule="evenodd" d="M4.21038 16H3.68138C2.75538 16 2.00238 15.247 2.00238 14.321V4.68C2.00238 3.753 2.75538 3 3.68138 3H15.3224C16.2484 3 17.0024 3.753 17.0024 4.68V5.5C17.0024 5.776 16.7784 6 16.5024 6C16.2254 6 16.0024 5.776 16.0024 5.5V4.68C16.0024 4.305 15.6974 4 15.3224 4H3.68138C3.30638 4 3.00238 4.305 3.00238 4.68V14.321C3.00238 14.695 3.30638 15 3.68138 15H4.21038C4.48638 15 4.71038 15.224 4.71038 15.5C4.71038 15.776 4.48638 16 4.21038 16Z" fill="black"/>
<path fill-rule="evenodd" clip-rule="evenodd" d="M6.98341 14.8271C6.07241 14.8271 5.25441 14.4141 4.59641 13.5911L4.17041 13.1401C3.97241 12.9311 3.97241 12.5911 4.17041 12.3811C4.36741 12.1711 4.68741 12.1711 4.88541 12.3811L5.33941 12.8641C6.54541 14.3681 8.11341 13.6651 9.22041 12.8141C9.60841 12.5171 9.96341 12.1651 10.3404 11.7921C11.3164 10.8271 12.3244 9.8301 13.8934 9.8271H13.9034C15.3514 9.8271 16.7734 10.6451 17.9084 12.1321C18.0854 12.3631 18.0514 12.7011 17.8344 12.8881C17.6164 13.0761 17.2984 13.0401 17.1234 12.8091C16.5794 12.0961 15.4374 10.9011 13.9034 10.9011H13.8964C12.7234 10.9041 11.9394 11.6801 11.0294 12.5781C10.6474 12.9571 10.2514 13.3481 9.81341 13.6851C8.82041 14.4471 7.85841 14.8271 6.98341 14.8271Z" fill="black"/>
<path fill-rule="evenodd" clip-rule="evenodd" d="M8.00201 8C7.45101 8 7.00201 8.449 7.00201 9C7.00201 9.551 7.45101 10 8.00201 10C8.55301 10 9.00201 9.551 9.00201 9C9.00201 8.449 8.55301 8 8.00201 8ZM8.00201 11C6.89901 11 6.00201 10.103 6.00201 9C6.00201 7.897 6.89901 7 8.00201 7C9.10501 7 10.002 7.897 10.002 9C10.002 10.103 9.10501 11 8.00201 11Z" fill="black"/>
</g>
<defs>
<clipPath id="clip0_5_1830">
<rect width="16" height="14" fill="white" transform="translate(2 3)"/>
</clipPath>
</defs>
</svg>
