<svg width="20" height="20" viewBox="0 0 20 20" fill="none" xmlns="http://www.w3.org/2000/svg">
<g clip-path="url(#clip0_5_1832)">
<path opacity="0.15" d="M9.96972 2.0049C9.72372 2.0049 9.48172 2.0179 9.24272 2.0429C7.15572 2.2609 5.38572 3.5959 4.51172 5.6119C3.57272 7.7769 3.84272 10.2829 5.21572 12.1539L9.23172 17.6229C9.40572 17.8589 9.67072 17.9959 9.95972 17.9959H9.96072C10.2497 17.9959 10.5147 17.8599 10.6887 17.6239L14.7127 12.1589C16.0907 10.2879 16.3627 7.7789 15.4227 5.6109C14.5487 3.5919 12.7787 2.2589 10.6907 2.0429C10.4527 2.0179 10.2127 2.0049 9.96972 2.0049Z" fill="black"/>
<path fill-rule="evenodd" clip-rule="evenodd" d="M9.9697 2.0049C9.7237 2.0049 9.4817 2.0179 9.2427 2.0429C7.1557 2.2609 5.3857 3.5959 4.5117 5.6119C3.5727 7.7769 3.8427 10.2829 5.2157 12.1539L9.2317 17.6229C9.4057 17.8589 9.6707 17.9959 9.9597 17.9959H9.9607C10.2497 17.9959 10.5147 17.8599 10.6887 17.6239L14.7127 12.1589C16.0907 10.2879 16.3627 7.7789 15.4227 5.6109C14.5487 3.5919 12.7787 2.2589 10.6907 2.0429C10.4527 2.0179 10.2127 2.0049 9.9697 2.0049ZM9.9607 19.0009H9.9597C9.3537 18.9999 8.7987 18.7169 8.4367 18.2229L4.4207 12.7539C2.8347 10.5939 2.5217 7.7029 3.6037 5.2079C4.6237 2.8559 6.6947 1.2989 9.1417 1.0429C9.6837 0.985899 10.2507 0.985899 10.7917 1.0429C13.2397 1.2959 15.3107 2.8529 16.3307 5.2069C17.4137 7.7059 17.0977 10.5999 15.5077 12.7599L11.4837 18.2249C11.1207 18.7179 10.5657 19.0009 9.9607 19.0009Z" fill="black"/>
<path fill-rule="evenodd" clip-rule="evenodd" d="M9.33692 10.562C9.19692 10.562 9.05592 10.511 8.94892 10.408L7.12892 8.668C6.91392 8.462 6.91292 8.127 7.12692 7.921C7.34192 7.715 7.69092 7.713 7.90592 7.919L9.33692 9.289L12.0289 6.716C12.2429 6.51 12.5919 6.511 12.8069 6.718C13.0219 6.924 13.0199 7.259 12.8049 7.465L9.72492 10.408C9.61792 10.511 9.47792 10.562 9.33692 10.562Z" fill="black"/>
</g>
<defs>
<clipPath id="clip0_5_1832">
<rect width="14" height="18" fill="white" transform="translate(3 1)"/>
</clipPath>
</defs>
</svg>
