<svg width="20" height="20" viewBox="0 0 20 20" fill="none" xmlns="http://www.w3.org/2000/svg">
<g clip-path="url(#clip0_5_1829)">
<path opacity="0.15" d="M16.1982 3.5C16.6412 3.5 17.0022 3.89108 17.0022 4.37208V15.629C17.0022 16.1089 16.6412 16.5 16.1982 16.5H3.8062C3.3632 16.5 3.0022 16.1089 3.0022 15.629V4.37208C3.0022 3.89108 3.3632 3.5 3.8062 3.5H16.1982ZM6.002 5.5C4.899 5.5 4.002 6.397 4.002 7.5C4.002 8.603 4.899 9.5 6.002 9.5C7.105 9.5 8.002 8.603 8.002 7.5C8.002 6.397 7.105 5.5 6.002 5.5Z" fill="black"/>
<path fill-rule="evenodd" clip-rule="evenodd" d="M3.8062 3.5C3.3632 3.5 3.0022 3.89108 3.0022 4.37208V15.629C3.0022 16.1089 3.3632 16.5 3.8062 16.5H16.1982C16.6412 16.5 17.0022 16.1089 17.0022 15.629V4.37208C17.0022 3.89108 16.6412 3.5 16.1982 3.5H3.8062ZM16.1982 17.5H3.8062C2.8112 17.5 2.0022 16.6321 2.0022 15.5671V4.43393C2.0022 3.36786 2.8112 2.5 3.8062 2.5H16.1982C17.1922 2.5 18.0022 3.36786 18.0022 4.43393V15.5671C18.0022 16.6321 17.1922 17.5 16.1982 17.5Z" fill="black"/>
<path fill-rule="evenodd" clip-rule="evenodd" d="M4.84469 14.6152C3.80869 14.6152 2.88069 14.1992 2.13469 13.3702C1.95269 13.1692 1.97969 12.8672 2.19269 12.6962C2.40669 12.5252 2.72569 12.5512 2.90769 12.7512C4.31169 14.3142 6.17269 13.5742 7.48569 12.6792C7.93969 12.3702 8.37369 11.9882 8.79469 11.6192C9.91469 10.6362 11.0737 9.6182 12.8627 9.6152H12.8707C14.7037 9.6152 16.7167 11.0022 17.9007 12.3792C18.0767 12.5842 18.0437 12.8852 17.8257 13.0512C17.6077 13.2182 17.2897 13.1862 17.1137 12.9812C16.1147 11.8202 14.3617 10.5712 12.8707 10.5712H12.8647C11.4737 10.5732 10.5077 11.4212 9.48569 12.3192C9.04169 12.7082 8.58469 13.1102 8.07869 13.4542C6.94369 14.2282 5.84369 14.6152 4.84469 14.6152Z" fill="black"/>
<path fill-rule="evenodd" clip-rule="evenodd" d="M6.00201 6.5C5.45101 6.5 5.00201 6.949 5.00201 7.5C5.00201 8.051 5.45101 8.5 6.00201 8.5C6.55301 8.5 7.00201 8.051 7.00201 7.5C7.00201 6.949 6.55301 6.5 6.00201 6.5ZM6.00201 9.5C4.89901 9.5 4.00201 8.603 4.00201 7.5C4.00201 6.397 4.89901 5.5 6.00201 5.5C7.10501 5.5 8.00201 6.397 8.00201 7.5C8.00201 8.603 7.10501 9.5 6.00201 9.5Z" fill="black"/>
</g>
<defs>
<clipPath id="clip0_5_1829">
<rect width="16" height="15" fill="white" transform="translate(2 2.5)"/>
</clipPath>
</defs>
</svg>
