<svg width="20" height="20" viewBox="0 0 20 20" fill="none" xmlns="http://www.w3.org/2000/svg">
<g clip-path="url(#clip0_5_1826)">
<path opacity="0.15" d="M17 16.16C17 16.62 16.62 17 16.16 17H3.84C3.38 17 3 16.62 3 16.16V3.84C3 3.38 3.38 3 3.84 3H16.16C16.62 3 17 3.38 17 3.84V16.16Z" fill="black"/>
<path d="M10.5 9.44V6.93C11.7 7.22 11.86 8.13 11.87 8.25C11.9 8.52 12.14 8.72 12.42 8.69C12.69 8.66 12.9 8.42 12.87 8.14C12.8 7.46 12.21 6.22 10.5 5.91V5.47C10.5 5.19 10.28 4.97 10 4.97C9.72 4.97 9.5 5.19 9.5 5.47V5.86C8.75 5.92 8.11 6.23 7.69 6.77C7.01 7.64 6.97 8.71 7.6 9.44C8.12 10.03 8.83 10.2 9.5 10.3V13.05C9.07 12.97 8.67 12.81 8.37 12.56C8.04 12.28 7.82 11.85 7.79 11.41C7.77 11.13 7.52 10.93 7.26 10.94C6.98 10.96 6.78 11.2 6.79 11.47C6.84 12.18 7.17 12.86 7.72 13.32C8.2 13.72 8.83 13.98 9.49 14.07V14.48C9.49 14.76 9.71 14.98 9.99 14.98C10.27 14.98 10.49 14.76 10.49 14.48V14.07C10.58 14.06 10.67 14.06 10.76 14.05C11.74 13.87 12.5 13.34 12.91 12.57C13.33 11.78 13.2 11.19 13.02 10.84C12.6 9.98 11.43 9.61 10.5 9.44ZM8.36 8.78C7.98 8.34 8.19 7.76 8.48 7.39C8.76 7.03 9.16 6.91 9.51 6.87V9.29C9.04 9.22 8.63 9.1 8.36 8.78ZM12.04 12.08C11.77 12.58 11.25 12.92 10.58 13.05C10.55 13.05 10.53 13.05 10.5 13.06V10.46C11.35 10.64 11.96 10.94 12.14 11.29C12.18 11.36 12.3 11.59 12.04 12.08Z" fill="#040000"/>
<path d="M16.16 2H3.84C2.83 2 2 2.83 2 3.84V16.16C2 17.17 2.83 18 3.84 18H16.16C17.17 18 18 17.17 18 16.16V3.84C18 2.83 17.18 2 16.16 2ZM17 16.16C17 16.62 16.62 17 16.16 17H3.84C3.38 17 3 16.62 3 16.16V3.84C3 3.38 3.38 3 3.84 3H16.16C16.62 3 17 3.38 17 3.84V16.16Z" fill="#040000"/>
</g>
<defs>
<clipPath id="clip0_5_1826">
<rect width="16" height="16" fill="white" transform="translate(2 2)"/>
</clipPath>
</defs>
</svg>
