<svg width="20" height="20" viewBox="0 0 20 20" fill="none" xmlns="http://www.w3.org/2000/svg">
<g clip-path="url(#clip0_5_1828)">
<path fill-rule="evenodd" clip-rule="evenodd" d="M10.4985 16.5C10.4985 16.776 10.2745 17 9.99847 17C9.72247 17 9.49847 16.776 9.49847 16.5C9.49847 16.224 9.72247 16 9.99847 16C10.2745 16 10.4985 16.224 10.4985 16.5Z" fill="black"/>
<mask id="mask0_5_1828" style="mask-type:alpha" maskUnits="userSpaceOnUse" x="0" y="0" width="20" height="20">
<path d="M0 20H20V0H0V20Z" fill="white"/>
</mask>
<g mask="url(#mask0_5_1828)">
<path opacity="0.1" d="M6.84 3H13.12C13.58 3 13.96 3.38 13.96 3.84V15H6V3.84C6 3.38 6.37 3 6.84 3Z" fill="black"/>
<path opacity="0.1" d="M13.12 17H6.84C6.38 17 6 16.62 6 16.16V16H10.01C9.73 16 9.51 16.22 9.51 16.5C9.51 16.78 9.73 17 10.01 17C10.29 17 10.51 16.78 10.51 16.5C10.51 16.22 10.29 16 10.01 16H13.96V16.16C13.96 16.63 13.58 17 13.12 17Z" fill="black"/>
<path d="M13.12 2H6.84C5.83 2 5 2.83 5 3.84V16.16C5 17.17 5.83 18 6.84 18H13.12C14.13 18 14.96 17.17 14.96 16.16V3.84C14.96 2.83 14.14 2 13.12 2ZM6.84 3H13.12C13.58 3 13.96 3.38 13.96 3.84V15H6V3.84C6 3.38 6.37 3 6.84 3ZM13.12 17H6.84C6.38 17 6 16.62 6 16.16V16H10.01C9.73 16 9.51 16.22 9.51 16.5C9.51 16.78 9.73 17 10.01 17C10.29 17 10.51 16.78 10.51 16.5C10.51 16.22 10.29 16 10.01 16H13.96V16.16C13.96 16.63 13.58 17 13.12 17Z" fill="#040000"/>
</g>
</g>
<defs>
<clipPath id="clip0_5_1828">
<rect width="10" height="16" fill="white" transform="translate(5 2)"/>
</clipPath>
</defs>
</svg>
