<svg width="20" height="20" viewBox="0 0 20 20" fill="none" xmlns="http://www.w3.org/2000/svg">
<g clip-path="url(#clip0_5_1831)">
<path opacity="0.15" d="M9.92121 17.1075C6.00321 17.1075 2.81421 13.9175 2.81421 9.9995C2.81421 6.0815 6.00321 2.8925 9.92121 2.8925C11.0062 2.8925 12.0832 3.1485 13.0612 3.6305L9.96221 9.0335L9.53221 9.7765C9.45321 9.9135 9.45321 10.0855 9.53221 10.2235C9.61221 10.3625 9.75921 10.4465 9.91921 10.4465H17.0142C16.7832 14.1585 13.6902 17.1075 9.92121 17.1075Z" fill="black"/>
<path opacity="0.15" d="M17.4852 9.5555C17.4812 9.5555 17.4782 9.5535 17.4742 9.5535H10.6932L14.0802 3.6855C14.1042 3.6445 14.1152 3.5995 14.1242 3.5555L14.3812 3.1075C16.5622 4.5405 17.9462 6.9475 18.0882 9.5555H17.4852Z" fill="black"/>
<path fill-rule="evenodd" clip-rule="evenodd" d="M17.4852 9.5555C17.4812 9.5555 17.4782 9.5535 17.4742 9.5535H10.6932L14.0802 3.6855C14.1042 3.6445 14.1152 3.5995 14.1242 3.5555L14.3812 3.1075C16.5622 4.5405 17.9462 6.9475 18.0882 9.5555H17.4852ZM9.9212 17.1075C6.0032 17.1075 2.8142 13.9175 2.8142 9.9995C2.8142 6.0815 6.0032 2.8925 9.9212 2.8925C11.0062 2.8925 12.0832 3.1485 13.0612 3.6305L9.9622 9.0335L9.5322 9.7765C9.4532 9.9135 9.4532 10.0855 9.5322 10.2235C9.6122 10.3625 9.7592 10.4465 9.9192 10.4465H17.0142C16.7832 14.1585 13.6902 17.1075 9.9212 17.1075ZM14.4472 2.1045C14.3452 2.0445 14.2262 2.0305 14.1112 2.0595C13.9992 2.0895 13.9022 2.1645 13.8432 2.2665L13.4982 2.8685C12.3852 2.3095 11.1622 1.9995 9.9212 1.9995C5.5092 1.9995 1.9212 5.5885 1.9212 9.9995C1.9212 14.4105 5.5092 17.9995 9.9212 17.9995C14.1822 17.9995 17.6662 14.6485 17.8982 10.4445H18.5422C18.7862 10.4445 18.9832 10.2455 18.9832 9.9995C18.9832 6.7585 17.2462 3.7335 14.4472 2.1045Z" fill="black"/>
</g>
<defs>
<clipPath id="clip0_5_1831">
<rect width="18" height="16" fill="white" transform="translate(1 2)"/>
</clipPath>
</defs>
</svg>
