<svg width="20" height="20" viewBox="0 0 20 20" fill="none" xmlns="http://www.w3.org/2000/svg">
<g clip-path="url(#clip0_5_1834)">
<path opacity="0.15" d="M10 18C5.59 18 2 14.41 2 10C2 5.59 5.59 2 10 2C14.41 2 18 5.59 18 10C18 14.41 14.41 18 10 18Z" fill="black"/>
<path d="M10 1C5.04 1 1 5.04 1 10C1 14.96 5.04 19 10 19C14.96 19 19 14.96 19 10C19 5.04 14.97 1 10 1ZM10 18C5.59 18 2 14.41 2 10C2 5.59 5.59 2 10 2C14.41 2 18 5.59 18 10C18 14.41 14.41 18 10 18Z" fill="black"/>
<path d="M9.98998 5C8.51998 5 7.27998 6.05 7.02998 7.49C6.97998 7.76 7.16998 8.02 7.43998 8.07C7.71998 8.11 7.96998 7.93 8.01998 7.66C8.18998 6.7 9.00998 6 9.98998 6C11.09 6 11.99 6.9 11.99 8C11.99 8.38 11.77 8.73 11.43 8.9C11.31 8.96 11.19 9.01 11.07 9.06C10.4 9.35 9.48998 9.75 9.48998 10.95V12.99C9.48998 13.27 9.70998 13.49 9.98998 13.49C10.27 13.49 10.49 13.27 10.49 12.99V10.95C10.49 10.45 10.76 10.28 11.47 9.97C11.6 9.91 11.74 9.85 11.87 9.79C12.55 9.46 12.99 8.75 12.99 7.99C12.99 6.34 11.64 5 9.98998 5Z" fill="black"/>
<path d="M9.98999 15.5C10.5423 15.5 10.99 15.0523 10.99 14.5C10.99 13.9477 10.5423 13.5 9.98999 13.5C9.43771 13.5 8.98999 13.9477 8.98999 14.5C8.98999 15.0523 9.43771 15.5 9.98999 15.5Z" fill="black"/>
</g>
<defs>
<clipPath id="clip0_5_1834">
<rect width="18" height="18" fill="white" transform="translate(1 1)"/>
</clipPath>
</defs>
</svg>
