<svg width="20" height="20" viewBox="0 0 20 20" fill="none" xmlns="http://www.w3.org/2000/svg">
<g clip-path="url(#clip0_5_1837)">
<path opacity="0.15" d="M17.12 9.775L15 8.485V5.675C15 5.155 14.78 4.655 14.39 4.305L11.21 1.465C10.52 0.845 9.48 0.845 8.79 1.465L5.61 4.305C5.22 4.655 5 5.155 5 5.675V8.485L2.88 9.775C2.34 10.105 2 10.705 2 11.345V13.155C2 13.615 2.38 13.995 2.84 13.995H5.21C5.52 14.585 6.13 14.995 6.84 14.995H13.16C13.87 14.995 14.48 14.585 14.79 13.995H17.16C17.62 13.995 18 13.615 18 13.155V11.345C18 10.705 17.67 10.105 17.12 9.775Z" fill="black"/>
<path d="M6.5 15.995C6.22 15.995 6 16.215 6 16.495V17.495C6 17.775 6.22 17.995 6.5 17.995C6.78 17.995 7 17.775 7 17.495V16.495C7 16.225 6.78 15.995 6.5 15.995Z" fill="#040000"/>
<path d="M13.5 15.995C13.22 15.995 13 16.215 13 16.495V17.495C13 17.775 13.22 17.995 13.5 17.995C13.78 17.995 14 17.775 14 17.495V16.495C14 16.225 13.78 15.995 13.5 15.995Z" fill="#040000"/>
<path d="M10 15.705C9.72 15.705 9.5 15.925 9.5 16.205V18.485C9.5 18.765 9.72 18.985 10 18.985C10.28 18.985 10.5 18.765 10.5 18.485V16.205C10.5 15.925 10.28 15.705 10 15.705Z" fill="#040000"/>
<path d="M17.12 9.775L15 8.485V5.675C15 5.155 14.78 4.655 14.39 4.305L11.21 1.465C10.52 0.845 9.48 0.845 8.79 1.465L5.61 4.305C5.22 4.655 5 5.155 5 5.675V8.485L2.88 9.775C2.34 10.105 2 10.705 2 11.345V13.155C2 13.615 2.38 13.995 2.84 13.995H5.21C5.52 14.585 6.13 14.995 6.84 14.995H13.16C13.87 14.995 14.48 14.585 14.79 13.995H17.16C17.62 13.995 18 13.615 18 13.155V11.345C18 10.705 17.67 10.105 17.12 9.775ZM3 11.345C3 11.055 3.15 10.775 3.4 10.625L5 9.655V13.005H3V11.345ZM13.16 13.995H6.84C6.38 13.995 6 13.615 6 13.155V8.755V5.665C6 5.425 6.1 5.195 6.28 5.035L9.46 2.195C9.61 2.055 9.81 1.985 10 1.985C10.19 1.985 10.39 2.055 10.54 2.195L13.72 5.035C13.9 5.195 14 5.425 14 5.665V8.755V13.155C14 13.625 13.63 13.995 13.16 13.995ZM17 12.995H15V9.645L16.6 10.615C16.85 10.765 17 11.045 17 11.335V12.995Z" fill="#040000"/>
<path d="M10 4.995C8.9 4.995 8 5.895 8 6.995C8 8.095 8.9 8.995 10 8.995C11.1 8.995 12 8.095 12 6.995C12 5.895 11.11 4.995 10 4.995ZM10 7.995C9.45 7.995 9 7.545 9 6.995C9 6.445 9.45 5.995 10 5.995C10.55 5.995 11 6.445 11 6.995C11 7.545 10.56 7.995 10 7.995Z" fill="#040000"/>
</g>
<defs>
<clipPath id="clip0_5_1837">
<rect width="16" height="18" fill="white" transform="translate(2 1)"/>
</clipPath>
</defs>
</svg>
