<svg width="20" height="20" viewBox="0 0 20 20" fill="none" xmlns="http://www.w3.org/2000/svg">
<g clip-path="url(#clip0_5_1838)">
<path opacity="0.15" d="M4.71 8C3.77 8 3 7.23 3 6.29V5H5V8H4.71Z" fill="black"/>
<path opacity="0.15" d="M14 9C14 11.21 12.21 13 10 13C7.79 13 6 11.21 6 9V8.5V4.5V3.84C6 3.38 6.38 3 6.84 3H13.16C13.62 3 14 3.38 14 3.84V4.5V8.5V9Z" fill="black"/>
<path opacity="0.15" d="M17 6.29C17 7.23 16.23 8 15.29 8H15V5H17V6.29Z" fill="black"/>
<path d="M17.16 4H15V3.84C15 2.83 14.17 2 13.16 2H6.84C5.83 2 5 2.83 5 3.84V4H2.84C2.38 4 2 4.38 2 4.84V6.29C2 7.78 3.21 9 4.71 9H5C5 11.59 6.99 13.7 9.52 13.95V17H6.5C6.22 17 6 17.22 6 17.5C6 17.78 6.22 18 6.5 18H13.5C13.78 18 14 17.78 14 17.5C14 17.22 13.78 17 13.5 17H10.52V13.95C13.03 13.69 15 11.58 15 9H15.29C16.78 9 18 7.79 18 6.29V4.84C18 4.38 17.63 4 17.16 4ZM4.71 8C3.77 8 3 7.23 3 6.29V5H5V8H4.71ZM14 9C14 11.21 12.21 13 10 13C7.79 13 6 11.21 6 9V8.5V4.5V3.84C6 3.38 6.38 3 6.84 3H13.16C13.62 3 14 3.38 14 3.84V4.5V8.5V9ZM17 6.29C17 7.23 16.23 8 15.29 8H15V5H17V6.29Z" fill="black"/>
</g>
<defs>
<clipPath id="clip0_5_1838">
<rect width="16" height="16" fill="white" transform="translate(2 2)"/>
</clipPath>
</defs>
</svg>
