<svg width="20" height="20" viewBox="0 0 20 20" fill="none" xmlns="http://www.w3.org/2000/svg">
<g clip-path="url(#clip0_5_1836)">
<path opacity="0.1" d="M4.50208 15.5H15.7071L17.4001 12.974L15.7101 10.5H4.50208V15.5Z" fill="black"/>
<path opacity="0.1" d="M5.18759 7.5H16.4156V2.5H5.18459L3.49359 4.974L5.18759 7.5Z" fill="black"/>
<path fill-rule="evenodd" clip-rule="evenodd" d="M4.50208 15.5H15.7071L17.4001 12.974L15.7101 10.5H4.50208V15.5ZM4.00208 16.5C3.72608 16.5 3.50208 16.276 3.50208 16V10C3.50208 9.724 3.72608 9.5 4.00208 9.5H15.9731C16.1381 9.5 16.2921 9.581 16.3861 9.718L18.4151 12.688C18.5301 12.857 18.5311 13.078 18.4181 13.248L16.3881 16.278C16.2951 16.417 16.1391 16.5 15.9721 16.5H4.00208Z" fill="black"/>
<path fill-rule="evenodd" clip-rule="evenodd" d="M5.18759 7.5H16.4156V2.5H5.18459L3.49359 4.974L5.18759 7.5ZM16.9086 8.5H4.92659C4.76259 8.5 4.61059 8.418 4.51859 8.281L2.48759 5.252C2.37359 5.081 2.37459 4.855 2.48959 4.686L4.52059 1.715C4.61359 1.58 4.76459 1.5 4.92659 1.5H16.9086C17.1816 1.5 17.4026 1.724 17.4026 2V8C17.4026 8.276 17.1816 8.5 16.9086 8.5Z" fill="black"/>
<path fill-rule="evenodd" clip-rule="evenodd" d="M10.4718 18.5C10.1958 18.5 9.9718 18.304 9.9718 18.062V16.438C9.9718 16.196 10.1958 16 10.4718 16C10.7478 16 10.9718 16.196 10.9718 16.438V18.062C10.9718 18.304 10.7478 18.5 10.4718 18.5Z" fill="black"/>
<path fill-rule="evenodd" clip-rule="evenodd" d="M10.5265 10.5C10.2505 10.5 10.0265 10.276 10.0265 10V8C10.0265 7.724 10.2505 7.5 10.5265 7.5C10.8025 7.5 11.0265 7.724 11.0265 8V10C11.0265 10.276 10.8025 10.5 10.5265 10.5Z" fill="black"/>
</g>
<defs>
<clipPath id="clip0_5_1836">
<rect width="17" height="17" fill="white" transform="translate(1.5 1.5)"/>
</clipPath>
</defs>
</svg>
