<svg width="20" height="20" viewBox="0 0 20 20" fill="none" xmlns="http://www.w3.org/2000/svg">
<g clip-path="url(#clip0_5_1835)">
<path d="M18.7525 13.98C18.7425 13.91 18.7225 13.84 18.6925 13.78L16.6425 10.22C16.5025 9.97 16.1625 9.88 15.9125 10.02C15.6625 10.16 15.5725 10.5 15.7125 10.75L17.7125 14.24C17.7225 14.26 17.7225 14.29 17.7325 14.31C17.9625 14.7 17.9625 15.16 17.7325 15.56C17.5025 15.95 17.0925 16.18 16.6425 16.18L10.6025 16.17L11.5025 15.17C11.7025 14.96 11.6825 14.62 11.4625 14.42C11.2525 14.22 10.9125 14.24 10.7125 14.46L9.02251 16.33C8.99251 16.36 8.98251 16.4 8.96251 16.43C8.94251 16.46 8.93251 16.48 8.92251 16.51C8.91251 16.53 8.91251 16.54 8.91251 16.56C8.90251 16.61 8.88251 16.66 8.88251 16.71C8.88251 16.91 8.99251 17.08 9.15251 17.17L10.9225 18.77C11.0325 18.86 11.1525 18.91 11.2825 18.91C11.4225 18.91 11.5625 18.86 11.6725 18.73C11.8725 18.52 11.8525 18.18 11.6325 17.98L10.8125 17.24L16.6525 17.25C17.4925 17.25 18.2325 16.82 18.6425 16.09C19.0425 15.42 19.0525 14.66 18.7525 13.98Z" fill="#231815"/>
<path d="M6.12248 6.45C6.21248 6.5 6.30248 6.52 6.39248 6.52C6.57248 6.52 6.76248 6.43 6.85248 6.25L8.90248 2.69C8.91248 2.68 8.91248 2.66 8.91248 2.65C9.15248 2.28 9.54248 2.07 9.96248 2.07C10.4225 2.07 10.8125 2.3 11.0525 2.69L14.0925 7.93L12.7825 7.65C12.4825 7.58 12.1925 7.77 12.1425 8.06C12.0725 8.36 12.2625 8.65 12.5525 8.7L15.0225 9.22C15.0625 9.24 15.0925 9.24 15.1325 9.24C15.3625 9.24 15.5925 9.06 15.6625 8.81L16.1825 6.36C16.2525 6.06 16.0625 5.77 15.7725 5.72C15.4725 5.65 15.1825 5.84 15.1325 6.13L14.9025 7.22L11.9825 2.16C11.5525 1.43 10.8125 1 9.97248 1C9.13248 1 8.39248 1.43 7.96248 2.16C7.95248 2.18 7.95248 2.21 7.94248 2.23L5.94248 5.72C5.79248 5.96 5.87248 6.3 6.12248 6.45Z" fill="#231815"/>
<path d="M7.3525 16.16L3.3125 16.18C2.8525 16.18 2.4625 15.95 2.2325 15.56C2.0025 15.17 2.0025 14.71 2.2325 14.31L5.2325 9.1L5.6425 10.34C5.7325 10.57 5.9225 10.71 6.1625 10.71C6.2125 10.71 6.2725 10.71 6.3425 10.67C6.6225 10.58 6.7725 10.28 6.6825 9.99L5.9025 7.61C5.8625 7.49 5.7925 7.41 5.6925 7.34C5.6725 7.33 5.6725 7.31 5.6525 7.3H5.6425C5.6325 7.29 5.6225 7.29 5.6125 7.29C5.4825 7.23 5.3425 7.23 5.2125 7.28L2.8125 8.06C2.5325 8.15 2.3825 8.45 2.4725 8.74C2.5625 9.02 2.8625 9.17 3.1525 9.08L4.2325 8.72L1.3225 13.77C0.8925 14.5 0.8925 15.35 1.3225 16.08C1.7325 16.81 2.4825 17.24 3.3125 17.24L7.3725 17.22C7.6725 17.22 7.9025 16.99 7.9025 16.69C7.8825 16.39 7.6525 16.16 7.3525 16.16Z" fill="#231815"/>
</g>
<defs>
<clipPath id="clip0_5_1835">
<rect width="18" height="18" fill="white" transform="translate(1 1)"/>
</clipPath>
</defs>
</svg>
