<svg width="20" height="20" viewBox="0 0 20 20" fill="none" xmlns="http://www.w3.org/2000/svg">
<g clip-path="url(#clip0_5_1842)">
<path opacity="0.15" d="M9.99999 18.8033C8.91699 18.8033 7.45399 18.0743 7.29099 17.9913C3.52799 15.9333 2.39499 13.3083 2.34899 13.1983C2.01099 12.4583 1.98399 11.5283 1.99999 11.0403V4.6223C1.99999 4.3523 2.22399 4.1333 2.49999 4.1333H3.05899C6.21899 4.1333 8.99899 2.4403 9.38699 2.1343C9.40899 2.1113 9.43299 2.0903 9.45999 2.0713L9.70799 1.8963C9.88199 1.7733 10.118 1.7733 10.292 1.8963L10.54 2.0713C13.183 4.0343 16.234 4.1333 16.819 4.1333H17.5C17.776 4.1333 18 4.3523 18 4.6223V11.2653C18 12.2813 17.613 13.2783 17.385 13.7063C16.533 15.2463 14.537 16.7233 14.452 16.7853C12.531 18.3073 10.622 18.8033 9.99999 18.8033Z" fill="black"/>
<path fill-rule="evenodd" clip-rule="evenodd" d="M2.99999 5.1123V11.0323C2.98899 11.3953 2.99499 12.2163 3.26799 12.8123C3.28399 12.8503 4.31699 15.2443 7.76599 17.1303C8.13599 17.3183 9.28899 17.8253 9.99999 17.8253C10.255 17.8253 11.949 17.5093 13.837 16.0143C13.871 15.9893 15.759 14.5913 16.501 13.2473C16.638 12.9913 17 12.1243 17 11.2653V5.1123H16.819C15.921 5.1123 12.783 4.9513 9.97499 2.8803C9.04799 3.7203 5.95299 5.1123 3.05899 5.1123H2.99999ZM9.99999 18.8033C8.91699 18.8033 7.45399 18.0743 7.29099 17.9913C3.52799 15.9333 2.39499 13.3083 2.34899 13.1983C2.01099 12.4583 1.98399 11.5283 1.99999 11.0403V4.6223C1.99999 4.3523 2.22399 4.1333 2.49999 4.1333H3.05899C6.21899 4.1333 8.99899 2.4403 9.38699 2.1343C9.40899 2.1113 9.43299 2.0903 9.45999 2.0713L9.70799 1.8963C9.88199 1.7733 10.118 1.7733 10.292 1.8963L10.54 2.0713C13.183 4.0343 16.234 4.1333 16.819 4.1333H17.5C17.776 4.1333 18 4.3523 18 4.6223V11.2653C18 12.2813 17.613 13.2783 17.385 13.7063C16.533 15.2463 14.537 16.7233 14.452 16.7853C12.531 18.3073 10.622 18.8033 9.99999 18.8033Z" fill="black"/>
<path fill-rule="evenodd" clip-rule="evenodd" d="M10.002 13.0684C9.72601 13.0684 9.50201 12.8544 9.50201 12.5894V7.5474C9.50201 7.2824 9.72601 7.0684 10.002 7.0684C10.278 7.0684 10.502 7.2824 10.502 7.5474V12.5894C10.502 12.8544 10.278 13.0684 10.002 13.0684Z" fill="black"/>
</g>
<defs>
<clipPath id="clip0_5_1842">
<rect width="16" height="18" fill="white" transform="translate(2 1)"/>
</clipPath>
</defs>
</svg>
