<svg width="20" height="20" viewBox="0 0 20 20" fill="none" xmlns="http://www.w3.org/2000/svg">
<g clip-path="url(#clip0_5_1849)">
<path opacity="0.15" d="M5.2725 19C4.9845 19 4.7095 18.9067 4.4755 18.7307C4.0505 18.4116 3.8415 17.8815 3.9305 17.3472L4.7165 12.5604L1.4015 9.21864C1.0265 8.83909 0.9005 8.28778 1.0755 7.78101C1.2685 7.23077 1.7645 6.86606 2.3995 6.80457L6.6725 6.15467L8.7695 1.79197C8.9975 1.30428 9.4675 1 9.9945 1C10.5185 1 10.9875 1.30322 11.2195 1.79197L13.2785 6.14619L17.8305 6.80775C18.3475 6.88621 18.7675 7.25409 18.9295 7.76829C19.0915 8.28142 18.9615 8.83803 18.5885 9.21758L15.2575 12.6081L16.0585 17.3472C16.1475 17.8826 15.9375 18.4127 15.5125 18.7307C15.0885 19.0466 14.5385 19.088 14.0775 18.8335L9.9585 16.5753L5.9105 18.8357C5.7115 18.9438 5.4915 19 5.2725 19Z" fill="black"/>
<path fill-rule="evenodd" clip-rule="evenodd" d="M9.9945 2.08458C9.8705 2.08458 9.7655 2.15243 9.7115 2.26587L7.6525 6.62434C7.5285 6.8809 7.3285 7.04524 7.2485 7.10461C7.1815 7.15444 7.1035 7.18624 7.0215 7.19896L2.5245 7.88067C2.2755 7.90611 2.1115 8.00471 2.0615 8.1489C2.0255 8.25174 2.0525 8.35988 2.1355 8.44469L5.4675 11.8363C5.6995 12.0684 5.8055 12.4098 5.7495 12.7448L4.9635 17.5306C4.9425 17.6567 4.9905 17.7776 5.0915 17.8539C5.1865 17.925 5.3105 17.9345 5.4205 17.8762L9.5355 15.6169C9.8245 15.46 10.1655 15.4611 10.4505 15.618L14.5685 17.8751C14.6755 17.9345 14.7995 17.925 14.8995 17.8507C14.9985 17.7755 15.0465 17.6557 15.0255 17.5295L14.2405 12.7406C14.1845 12.4119 14.2905 12.0727 14.5225 11.8352L17.8535 8.44363C17.9415 8.35458 17.9715 8.22735 17.9325 8.10437C17.8945 7.98245 17.7995 7.89975 17.6785 7.88067L13.0765 7.18306C12.7555 7.13429 12.4785 6.92543 12.3355 6.62222L10.2775 2.26799C10.2235 2.15349 10.1175 2.08458 9.9945 2.08458ZM5.2725 19C4.9845 19 4.7095 18.9067 4.4755 18.7307C4.0505 18.4116 3.8415 17.8815 3.9305 17.3472L4.7165 12.5604L1.4015 9.21864C1.0265 8.83909 0.9005 8.28778 1.0755 7.78101C1.2685 7.23077 1.7645 6.86606 2.3995 6.80457L6.6725 6.15467L8.7695 1.79197C8.9975 1.30428 9.4675 1 9.9945 1C10.5185 1 10.9875 1.30322 11.2195 1.79197L13.2785 6.14619L17.8305 6.80775C18.3475 6.88621 18.7675 7.25409 18.9295 7.76829C19.0915 8.28142 18.9615 8.83803 18.5885 9.21758L15.2575 12.6081L16.0585 17.3472C16.1475 17.8826 15.9375 18.4127 15.5125 18.7307C15.0885 19.0466 14.5385 19.088 14.0775 18.8335L9.9585 16.5753L5.9105 18.8357C5.7115 18.9438 5.4915 19 5.2725 19Z" fill="black"/>
</g>
<defs>
<clipPath id="clip0_5_1849">
<rect width="18" height="18" fill="white" transform="translate(1 1)"/>
</clipPath>
</defs>
</svg>
