<svg width="20" height="20" viewBox="0 0 20 20" fill="none" xmlns="http://www.w3.org/2000/svg">
<g clip-path="url(#clip0_5_1851)">
<path opacity="0.15" d="M9.99999 6.63636C8.1423 6.63636 6.63635 8.14231 6.63635 10C6.63635 11.8577 8.1423 13.3636 9.99999 13.3636C11.8577 13.3636 13.3636 11.8577 13.3636 10C13.3636 8.14231 11.8577 6.63636 9.99999 6.63636Z" fill="black"/>
<path d="M9.99999 5.63636C12.41 5.63636 14.3636 7.59003 14.3636 10C14.3636 12.41 12.41 14.3636 9.99999 14.3636C7.59002 14.3636 5.63635 12.41 5.63635 10C5.63635 7.59003 7.59002 5.63636 9.99999 5.63636ZM9.99999 6.63636C8.1423 6.63636 6.63635 8.14231 6.63635 10C6.63635 11.8577 8.1423 13.3636 9.99999 13.3636C11.8577 13.3636 13.3636 11.8577 13.3636 10C13.3636 8.14231 11.8577 6.63636 9.99999 6.63636Z" fill="black"/>
<path d="M9.5 1.5V3.04545C9.5 3.3216 9.72386 3.54545 10 3.54545C10.2761 3.54545 10.5 3.3216 10.5 3.04545V1.5C10.5 1.22386 10.2761 1 10 1C9.72386 1 9.5 1.22386 9.5 1.5Z" fill="black"/>
<path d="M9.5 16.9545V18.5C9.5 18.7761 9.72386 19 10 19C10.2761 19 10.5 18.7761 10.5 18.5V16.9545C10.5 16.6784 10.2761 16.4545 10 16.4545C9.72386 16.4545 9.5 16.6784 9.5 16.9545Z" fill="black"/>
<path d="M3.63461 4.34174L4.73188 5.43901C4.92714 5.63427 5.24372 5.63427 5.43898 5.43901C5.63425 5.24375 5.63425 4.92716 5.43898 4.7319L4.34171 3.63463C4.14645 3.43937 3.82987 3.43937 3.63461 3.63463C3.43934 3.82989 3.43934 4.14647 3.63461 4.34174Z" fill="black"/>
<path d="M14.561 15.2681L15.6583 16.3654C15.8535 16.5606 16.1701 16.5606 16.3654 16.3654C16.5606 16.1701 16.5606 15.8535 16.3654 15.6583L15.2681 14.561C15.0728 14.3657 14.7563 14.3657 14.561 14.561C14.3657 14.7563 14.3657 15.0728 14.561 15.2681Z" fill="black"/>
<path d="M1.5 10.5H3.04545C3.3216 10.5 3.54545 10.2761 3.54545 10C3.54545 9.72386 3.3216 9.5 3.04545 9.5H1.5C1.22386 9.5 1 9.72386 1 10C1 10.2761 1.22386 10.5 1.5 10.5Z" fill="black"/>
<path d="M16.5 10.5H18.0455C18.3216 10.5 18.5455 10.2761 18.5455 10C18.5455 9.72386 18.3216 9.5 18.0455 9.5H16.5C16.2239 9.5 16 9.72386 16 10C16 10.2761 16.2239 10.5 16.5 10.5Z" fill="black"/>
<path d="M4.34171 16.3654L5.43898 15.2681C5.63425 15.0728 5.63425 14.7563 5.43898 14.561C5.24372 14.3657 4.92714 14.3657 4.73188 14.561L3.63461 15.6583C3.43934 15.8535 3.43934 16.1701 3.63461 16.3654C3.82987 16.5606 4.14645 16.5606 4.34171 16.3654Z" fill="black"/>
<path d="M15.2681 5.43901L16.3654 4.34174C16.5606 4.14647 16.5606 3.82989 16.3654 3.63463C16.1701 3.43937 15.8535 3.43937 15.6583 3.63463L14.561 4.7319C14.3657 4.92716 14.3657 5.24375 14.561 5.43901C14.7563 5.63427 15.0728 5.63427 15.2681 5.43901Z" fill="black"/>
</g>
<defs>
<clipPath id="clip0_5_1851">
<rect width="18" height="18" fill="white" transform="translate(1 1)"/>
</clipPath>
</defs>
</svg>
