<svg width="20" height="20" viewBox="0 0 20 20" fill="none" xmlns="http://www.w3.org/2000/svg">
<g clip-path="url(#clip0_5_1843)">
<path opacity="0.15" d="M17.5074 15.6147C16.9854 15.5667 16.4544 15.6817 16.0114 15.9417C15.5104 16.2347 15.1844 16.3817 14.7184 16.4607L17.1904 10.0067C17.2804 9.7707 17.1664 9.5097 16.9234 9.3967L15.4014 8.6887V5.2757C15.4014 4.3117 14.5444 3.5227 13.4964 3.5227H13.2364V3.2687C13.2364 2.3107 12.4904 1.5307 11.5734 1.5307H8.40739C7.49039 1.5307 6.74439 2.3107 6.74439 3.2687V3.5227H6.46839C5.42539 3.5227 4.58039 4.3007 4.58039 5.2607V8.6927L3.06439 9.3987C2.82139 9.5107 2.70739 9.7727 2.79739 10.0077L5.26939 16.4607C4.80339 16.3817 4.47739 16.2347 3.97639 15.9417C3.53439 15.6817 3.00239 15.5677 2.48039 15.6147C2.18339 15.6427 1.96639 15.8867 1.99739 16.1607C2.02739 16.4347 2.28839 16.6317 2.59039 16.6067C2.86839 16.5817 3.16139 16.6437 3.39539 16.7817C3.97039 17.1187 4.47739 17.3847 5.33039 17.4827C6.19639 17.5817 6.95839 17.5267 7.59439 17.3187C7.90239 17.2187 8.16739 17.0767 8.42339 16.9397C8.67439 16.8047 8.91139 16.6777 9.15339 16.6127C9.40739 16.5447 9.69039 16.5077 9.99339 16.5047C10.2984 16.5077 10.5814 16.5447 10.8344 16.6127C11.0764 16.6777 11.3134 16.8047 11.5644 16.9397C11.8204 17.0767 12.0854 17.2187 12.3934 17.3187C12.8244 17.4597 13.3134 17.5297 13.8534 17.5297C14.1094 17.5297 14.3784 17.5147 14.6574 17.4827C15.5104 17.3847 16.0184 17.1187 16.5924 16.7817C16.8274 16.6437 17.1244 16.5817 17.3984 16.6067C17.7134 16.6317 17.9614 16.4347 17.9914 16.1607C18.0214 15.8867 17.8044 15.6427 17.5074 15.6147Z" fill="black"/>
<path fill-rule="evenodd" clip-rule="evenodd" d="M12.7554 16.3797C12.5424 16.3107 12.3314 16.1977 12.1084 16.0777C11.8124 15.9197 11.5064 15.7557 11.1374 15.6567C10.9614 15.6087 10.7764 15.5727 10.5834 15.5477L10.4904 7.5197L16.0114 10.0887L13.6124 16.3537C13.5904 16.4097 13.5864 16.4667 13.5864 16.5237C13.2794 16.5057 13.0004 16.4597 12.7554 16.3797ZM8.85039 15.6567C8.48239 15.7557 8.17539 15.9197 7.88039 16.0777C7.65739 16.1977 7.44639 16.3107 7.23239 16.3797C6.98739 16.4597 6.70839 16.5057 6.40139 16.5247C6.40139 16.4677 6.39739 16.4107 6.37639 16.3557L3.97639 10.0897L9.40939 7.5607L9.50139 15.5427C9.27539 15.5667 9.05539 15.6017 8.85039 15.6567ZM5.66239 5.2757C5.66239 4.8597 6.03239 4.5187 6.48539 4.5187H13.5134C13.9584 4.5187 14.3184 4.8507 14.3184 5.2607V8.1847L10.2374 6.2857C10.1544 6.2477 10.0644 6.2337 9.97339 6.2367C9.96239 6.2367 9.95239 6.2317 9.94039 6.2317H9.93439C9.79439 6.2327 9.66939 6.2857 9.57439 6.3677L5.66239 8.1887V5.2757ZM7.82639 3.2687C7.82639 2.8657 8.09239 2.5267 8.40739 2.5267H11.5734C11.8884 2.5267 12.1544 2.8657 12.1544 3.2687V3.5227H7.82639V3.2687ZM17.5074 15.6147C16.9854 15.5667 16.4544 15.6817 16.0114 15.9417C15.5104 16.2347 15.1844 16.3817 14.7184 16.4607L17.1904 10.0067C17.2804 9.7707 17.1664 9.5097 16.9234 9.3967L15.4014 8.6887V5.2757C15.4014 4.3117 14.5444 3.5227 13.4964 3.5227H13.2364V3.2687C13.2364 2.3107 12.4904 1.5307 11.5734 1.5307H8.40739C7.49039 1.5307 6.74439 2.3107 6.74439 3.2687V3.5227H6.46839C5.42539 3.5227 4.58039 4.3007 4.58039 5.2607V8.6927L3.06439 9.3987C2.82139 9.5107 2.70739 9.7727 2.79739 10.0077L5.26939 16.4607C4.80339 16.3817 4.47739 16.2347 3.97639 15.9417C3.53439 15.6817 3.00239 15.5677 2.48039 15.6147C2.18339 15.6427 1.96639 15.8867 1.99739 16.1607C2.02739 16.4347 2.28839 16.6317 2.59039 16.6067C2.86839 16.5817 3.16139 16.6437 3.39539 16.7817C3.97039 17.1187 4.47739 17.3847 5.33039 17.4827C6.19639 17.5817 6.95839 17.5267 7.59439 17.3187C7.90239 17.2187 8.16739 17.0767 8.42339 16.9397C8.67439 16.8047 8.91139 16.6777 9.15339 16.6127C9.40739 16.5447 9.69039 16.5077 9.99339 16.5047C10.2984 16.5077 10.5814 16.5447 10.8344 16.6127C11.0764 16.6777 11.3134 16.8047 11.5644 16.9397C11.8204 17.0767 12.0854 17.2187 12.3934 17.3187C12.8244 17.4597 13.3134 17.5297 13.8534 17.5297C14.1094 17.5297 14.3784 17.5147 14.6574 17.4827C15.5104 17.3847 16.0184 17.1187 16.5924 16.7817C16.8274 16.6437 17.1244 16.5817 17.3984 16.6067C17.7134 16.6317 17.9614 16.4347 17.9914 16.1607C18.0214 15.8867 17.8044 15.6427 17.5074 15.6147Z" fill="black"/>
</g>
<defs>
<clipPath id="clip0_5_1843">
<rect width="16" height="17" fill="white" transform="translate(2 1.5)"/>
</clipPath>
</defs>
</svg>
