<svg width="20" height="20" viewBox="0 0 20 20" fill="none" xmlns="http://www.w3.org/2000/svg">
<g clip-path="url(#clip0_5_1840)">
<path opacity="0.15" d="M14.5414 2.99937C15.9051 2.99937 17.0118 4.11867 17.0118 5.49781C17.0118 6.87695 15.9051 7.99625 14.5414 7.99625C13.1777 7.99625 12.071 6.87695 12.071 5.49781C12.071 4.11867 13.1876 2.99937 14.5414 2.99937Z" fill="black"/>
<path opacity="0.15" d="M14.5414 16.9906C13.1777 16.9906 12.071 15.8713 12.071 14.4922C12.071 13.1131 13.1777 11.9938 14.5414 11.9938C15.9051 11.9938 17.0118 13.1131 17.0118 14.4922C17.0118 15.8713 15.9051 16.9906 14.5414 16.9906Z" fill="black"/>
<path d="M14.5414 10.9944C13.3062 10.9944 12.239 11.654 11.6263 12.6334L8.13811 9.995L11.6263 7.35665C12.239 8.33604 13.3161 8.99563 14.5414 8.99563C16.4486 8.99563 18 7.42661 18 5.49781C18 3.56902 16.4486 2 14.5414 2C12.6343 2 11.0828 3.56902 11.0828 5.49781C11.0828 5.81761 11.1421 6.11743 11.2212 6.41724L7.30805 9.37539L2.79213 5.96752C2.57473 5.79763 2.25852 5.8476 2.10041 6.06746C1.94231 6.28732 1.98183 6.59713 2.19923 6.76702L6.47799 10.005L2.19923 13.243C1.98183 13.4129 1.93242 13.7227 2.10041 13.9425C2.19923 14.0725 2.34745 14.1424 2.49568 14.1424C2.5945 14.1424 2.70319 14.1124 2.79213 14.0425L7.30805 10.6346L11.2212 13.5928C11.1421 13.8826 11.0828 14.1924 11.0828 14.5022C11.0828 16.431 12.6343 18 14.5414 18C16.4486 18 18 16.431 18 14.5022C18 12.5734 16.4486 10.9944 14.5414 10.9944ZM14.5414 2.99938C15.9051 2.99938 17.0118 4.11868 17.0118 5.49781C17.0118 6.87695 15.9051 7.99625 14.5414 7.99625C13.1778 7.99625 12.071 6.87695 12.071 5.49781C12.071 4.11868 13.1876 2.99938 14.5414 2.99938ZM14.5414 16.9906C13.1778 16.9906 12.071 15.8713 12.071 14.4922C12.071 13.1131 13.1778 11.9938 14.5414 11.9938C15.9051 11.9938 17.0118 13.1131 17.0118 14.4922C17.0118 15.8713 15.9051 16.9906 14.5414 16.9906Z" fill="#231815"/>
</g>
<defs>
<clipPath id="clip0_5_1840">
<rect width="16" height="16" fill="white" transform="translate(2 2)"/>
</clipPath>
</defs>
</svg>
