<svg width="20" height="20" viewBox="0 0 20 20" fill="none" xmlns="http://www.w3.org/2000/svg">
<g clip-path="url(#clip0_5_1844)">
<path opacity="0.15" d="M15 13H13V15C13 16.1046 13.8954 17 15 17C16.1046 17 17 16.1046 17 15C17 13.8954 16.1046 13 15 13Z" fill="black"/>
<path opacity="0.15" d="M7 13H5C3.89543 13 3 13.8954 3 15C3 16.1046 3.89543 17 5 17C6.10457 17 7 16.1046 7 15V13Z" fill="black"/>
<path opacity="0.15" d="M5.00002 3C3.89545 3 3.00002 3.89543 2.99976 4.98383L3.00429 5.13199C3.07227 6.17946 3.94449 7 5.00002 7H7.00002V5C7.00002 3.89543 6.10459 3 5.00002 3Z" fill="black"/>
<path opacity="0.15" d="M15 3C13.8954 3 13 3.89543 13 5V7H15C16.1046 7 17 6.10457 17 5C17 3.89543 16.1046 3 15 3Z" fill="black"/>
<path d="M15 2C16.6569 2 18 3.34315 18 5C18 6.65685 16.6569 8 15 8H13V12H15C16.6569 12 18 13.3431 18 15C18 16.6569 16.6569 18 15 18C13.3431 18 12 16.6569 12 15V13H8V15C8 16.6569 6.65685 18 5 18C3.34315 18 2 16.6569 2 15C2 13.3431 3.34315 12 5 12H7V8H5C3.41651 8 2.10844 6.76944 2.00558 5.18054L2 5C2 3.34315 3.34315 2 5 2C6.65685 2 8 3.34315 8 5V7H12V5C12 3.34315 13.3431 2 15 2ZM15 13H13V15C13 16.1046 13.8954 17 15 17C16.1046 17 17 16.1046 17 15C17 13.8954 16.1046 13 15 13ZM7 13H5C3.89543 13 3 13.8954 3 15C3 16.1046 3.89543 17 5 17C6.10457 17 7 16.1046 7 15V13ZM12 8H8V12H12V8ZM5 3C3.89543 3 3 3.89543 2.99974 4.98383L3.00427 5.13199C3.07226 6.17946 3.94448 7 5 7H7V5C7 3.89543 6.10457 3 5 3ZM15 3C13.8954 3 13 3.89543 13 5V7H15C16.1046 7 17 6.10457 17 5C17 3.89543 16.1046 3 15 3Z" fill="black"/>
</g>
<defs>
<clipPath id="clip0_5_1844">
<rect width="16" height="16" fill="white" transform="translate(2 2)"/>
</clipPath>
</defs>
</svg>
