<svg width="20" height="20" viewBox="0 0 20 20" fill="none" xmlns="http://www.w3.org/2000/svg">
<g clip-path="url(#clip0_5_1841)">
<path opacity="0.15" d="M2.99738 8.98254C2.99738 5.6808 5.68025 2.99751 8.98148 2.99751C12.2827 2.99751 14.9656 5.6808 14.9656 8.98254C14.9656 10.6284 14.2974 12.1147 13.2202 13.202C12.1331 14.2893 10.6371 14.9676 8.98148 14.9676C5.68025 14.9676 2.99738 12.2843 2.99738 8.98254Z" fill="black"/>
<path d="M17.8579 17.1421L14.2574 13.5411C15.3146 12.3142 15.9629 10.7282 15.9629 8.98254C15.9629 5.13217 12.8312 2 8.98146 2C5.13168 2 2 5.13217 2 8.98254C2 12.8329 5.13168 15.9651 8.98146 15.9651C10.7268 15.9651 12.3326 15.3167 13.5593 14.2494L17.1597 17.8504C17.2595 17.9501 17.3891 18 17.5088 18C17.6285 18 17.7681 17.9501 17.8579 17.8504C18.0474 17.6509 18.0474 17.3317 17.8579 17.1421ZM2.99735 8.98254C2.99735 5.6808 5.68022 2.99751 8.98146 2.99751C12.2827 2.99751 14.9656 5.6808 14.9656 8.98254C14.9656 10.6284 14.2973 12.1147 13.2202 13.202C12.1331 14.2893 10.6371 14.9676 8.98146 14.9676C5.68022 14.9676 2.99735 12.2843 2.99735 8.98254Z" fill="black"/>
</g>
<defs>
<clipPath id="clip0_5_1841">
<rect width="16" height="16" fill="white" transform="translate(2 2)"/>
</clipPath>
</defs>
</svg>
