<svg width="20" height="20" viewBox="0 0 20 20" fill="none" xmlns="http://www.w3.org/2000/svg">
<g clip-path="url(#clip0_5_1839)">
<path opacity="0.15" d="M10 3C6.13401 3 3 6.13401 3 10C3 13.866 6.13401 17 10 17C13.866 17 17 13.866 17 10C17 6.13401 13.866 3 10 3Z" fill="black"/>
<path d="M10 2C14.4183 2 18 5.58172 18 10C18 14.4183 14.4183 18 10 18C5.58172 18 2 14.4183 2 10C2 5.58172 5.58172 2 10 2ZM10 3C6.13401 3 3 6.13401 3 10C3 13.866 6.13401 17 10 17C13.866 17 17 13.866 17 10C17 6.13401 13.866 3 10 3Z" fill="black"/>
<path d="M13.0219 6.34566C13.4128 6.21537 13.7847 6.58723 13.6544 6.97811L12.0644 11.7481C12.0146 11.8974 11.8974 12.0146 11.7481 12.0643L6.97813 13.6543C6.58725 13.7846 6.21538 13.4128 6.34568 13.0219L7.93568 8.25189C7.98544 8.10258 8.1026 7.98543 8.2519 7.93566L13.0219 6.34566ZM8.8053 8.80528L7.61059 12.3894L11.1947 11.1947L12.3894 7.61057L8.8053 8.80528Z" fill="black"/>
</g>
<defs>
<clipPath id="clip0_5_1839">
<rect width="16" height="16" fill="white" transform="translate(2 2)"/>
</clipPath>
</defs>
</svg>
