<svg width="20" height="20" viewBox="0 0 20 20" fill="none" xmlns="http://www.w3.org/2000/svg">
<g clip-path="url(#clip0_5_1848)">
<path opacity="0.15" d="M11.5 16.66C11.5 17.12 11.12 17.5 10.66 17.5H3.34C2.88 17.5 2.5 17.12 2.5 16.66V9.34C2.5 8.88 2.88 8.5 3.34 8.5H10.66C11.12 8.5 11.5 8.88 11.5 9.34V16.66Z" fill="black"/>
<path opacity="0.15" d="M14.5 13.66C14.5 14.12 14.12 14.5 13.66 14.5H12.5V9.34C12.5 8.33 11.67 7.5 10.66 7.5H5.5V6.34C5.5 5.88 5.88 5.5 6.34 5.5H13.66C14.12 5.5 14.5 5.88 14.5 6.34V13.66Z" fill="black"/>
<path opacity="0.15" d="M17.5 10.66C17.5 11.12 17.12 11.5 16.66 11.5H15.5V6.34C15.5 5.33 14.67 4.5 13.66 4.5H8.5V3.34C8.5 2.88 8.88 2.5 9.34 2.5H16.66C17.12 2.5 17.5 2.88 17.5 3.34V10.66Z" fill="black"/>
<path d="M16.66 1.5H9.34C8.33 1.5 7.5 2.33 7.5 3.34V4.5H6.34C5.33 4.5 4.5 5.33 4.5 6.34V7.5H3.34C2.33 7.5 1.5 8.33 1.5 9.34V16.66C1.5 17.67 2.33 18.5 3.34 18.5H10.66C11.67 18.5 12.5 17.67 12.5 16.66V15.5H13.66C14.67 15.5 15.5 14.67 15.5 13.66V12.5H16.66C17.67 12.5 18.5 11.67 18.5 10.66V3.34C18.5 2.32 17.68 1.5 16.66 1.5ZM11.5 16.66C11.5 17.12 11.12 17.5 10.66 17.5H3.34C2.88 17.5 2.5 17.12 2.5 16.66V9.34C2.5 8.88 2.88 8.5 3.34 8.5H10.66C11.12 8.5 11.5 8.88 11.5 9.34V16.66ZM14.5 13.66C14.5 14.12 14.12 14.5 13.66 14.5H12.5V9.34C12.5 8.33 11.67 7.5 10.66 7.5H5.5V6.34C5.5 5.88 5.88 5.5 6.34 5.5H13.66C14.12 5.5 14.5 5.88 14.5 6.34V13.66ZM17.5 10.66C17.5 11.12 17.12 11.5 16.66 11.5H15.5V6.34C15.5 5.33 14.67 4.5 13.66 4.5H8.5V3.34C8.5 2.88 8.88 2.5 9.34 2.5H16.66C17.12 2.5 17.5 2.88 17.5 3.34V10.66Z" fill="black"/>
</g>
<defs>
<clipPath id="clip0_5_1848">
<rect width="17" height="17" fill="white" transform="translate(1.5 1.5)"/>
</clipPath>
</defs>
</svg>
