<svg width="20" height="20" viewBox="0 0 20 20" fill="none" xmlns="http://www.w3.org/2000/svg">
<path d="M15.5 5H9.7L8 3.3C7.8 3.1 7.6 3 7.3 3H4C2.9 3 2 3.9 2 5V14.5C2 15.9 3.1 17 4.5 17H11C10.8 16.7 10.8 16.3 10.9 16H4.5C3.7 16 3 15.3 3 14.5V5C3 4.5 3.5 4 4 4H7.3L9.2 5.8C9.2 6 9.4 6 9.5 6H15.5C16.3 6 17 6.7 17 7.5V9.8C17.1 9.8 17.2 9.8 17.3 9.8C17.5 9.8 17.8 9.9 18 10V7.5C18 6.1 16.9 5 15.5 5Z" fill="black"/>
<path d="M18.8001 13.3L17.5001 13L18.1001 11.9C18.2001 11.8 18.2001 11.6 18.1001 11.5L17.5001 10.9C17.4001 10.8 17.4001 10.8 17.3001 10.8C17.2001 10.8 17.2001 10.8 17.1001 10.8L16.0001 11.5L15.7001 10.3C15.7001 10.2 15.5001 10.1 15.4001 10.1H14.6001C14.4001 10.1 14.3001 10.2 14.3001 10.3L14.0001 11.5L12.9001 10.8C12.8001 10.8 12.8001 10.8 12.7001 10.8C12.6001 10.8 12.5001 10.8 12.5001 10.9L11.9001 11.5C11.8001 11.6 11.8001 11.8 11.9001 11.9L12.5001 13L11.3001 13.3C11.2001 13.3 11.1001 13.5 11.1001 13.6V14.4C11.1001 14.6 11.2001 14.7 11.3001 14.7L12.5001 15L11.9001 16.1C11.8001 16.2 11.8001 16.4 11.9001 16.5L12.5001 17.1C12.6001 17.2 12.6001 17.2 12.7001 17.2C12.8001 17.2 12.8001 17.2 12.9001 17.2L14.0001 16.6L14.3001 17.8C14.3001 17.9 14.5001 18 14.6001 18H15.4001C15.6001 18 15.7001 17.9 15.7001 17.8L16.0001 16.6L17.1001 17.2C17.2001 17.2 17.2001 17.2 17.3001 17.2C17.4001 17.2 17.5001 17.2 17.5001 17.1L18.1001 16.5C18.2001 16.4 18.2001 16.2 18.1001 16.1L17.5001 15L18.7001 14.7C18.8001 14.7 18.9001 14.5 18.9001 14.4V13.6C19.0001 13.4 18.9001 13.3 18.8001 13.3ZM16.0001 15C15.7001 15.2 15.4001 15.4 15.0001 15.4C14.6001 15.4 14.3001 15.3 14.0001 15C13.8001 14.7 13.6001 14.4 13.6001 14C13.6001 13.6 13.7001 13.3 14.0001 13C14.3001 12.8 14.6001 12.6 15.0001 12.6C15.4001 12.6 15.7001 12.7 16.0001 13C16.2001 13.3 16.4001 13.6 16.4001 14C16.4001 14.4 16.2001 14.7 16.0001 15Z" fill="black"/>
<path opacity="0.15" d="M11 15.7C10.4 15.5 10 15 10 14.4V13.6C10 13 10.4 12.5 11 12.3C10.7 11.8 10.8 11.2 11.1 10.8L11.8 10.1C12 9.9 12.4 9.8 12.7 9.8C12.9 9.8 13.1 9.8 13.3 10C13.5 9.4 14 9 14.6 9H15.4C16 9 16.5 9.4 16.7 10C16.9 9.9 17.1 9.8 17.3 9.8C17.4 9.8 17.4 9.8 17.5 9.8V7.5C17.5 6.4 16.6 5.5 15.5 5.5H9.5L7.6 3.6C7.6 3.6 7.4 3.5 7.3 3.5H4C3.2 3.5 2.5 4.2 2.5 5V14.5C2.5 15.6 3.4 16.5 4.5 16.5H10.8C10.8 16.2 10.8 15.9 11 15.7Z" fill="black"/>
<path d="M3 8.5H17.5" stroke="black" stroke-miterlimit="10"/>
</svg>
