<svg width="20" height="20" viewBox="0 0 20 20" fill="none" xmlns="http://www.w3.org/2000/svg">
<g clip-path="url(#clip0_5_1847)">
<path opacity="0.15" d="M4.83762 3.00063H15.1561C15.6161 3.00063 15.996 3.38086 15.996 3.84115V6.02251C15.4461 6.02251 14.9062 6.1526 14.4163 6.44278C13.6864 6.88305 13.1664 7.5935 12.9965 8.51407V11.1757C12.9965 11.636 12.6165 12.0163 12.1566 12.0163H7.83719C7.37726 12.0163 6.99731 11.636 6.99731 11.1757L6.98732 8.41401C6.81734 7.6035 6.30741 6.88305 5.57752 6.44278C5.09758 6.1526 4.54766 6.02251 3.99774 6.02251V3.84115C3.99774 3.37086 4.37769 3.00063 4.83762 3.00063Z" fill="black"/>
<path opacity="0.15" d="M17.7158 10.025C17.4258 10.5053 16.9459 10.8455 16.396 10.9556L15.996 11.0356V15.1582C15.996 15.6185 15.6161 15.9987 15.1561 15.9987H4.83762C4.37768 15.9987 3.99774 15.6185 3.99774 15.1582V11.0356L3.59779 10.9556C3.06787 10.8455 2.59793 10.5253 2.30798 10.055C2.01802 9.58474 1.92803 9.01438 2.06801 8.46404C2.22799 7.82364 2.73791 7.2833 3.35783 7.09318C3.5678 7.02314 3.78777 6.99312 3.99774 6.99312C4.36768 6.99312 4.73763 7.09318 5.05758 7.2833C5.54751 7.57348 5.88747 8.05378 5.98745 8.49406V11.1557C5.98745 12.1664 6.81733 12.9969 7.82719 12.9969H12.1466C13.1564 12.9969 13.9863 12.1664 13.9863 11.1557L13.9763 8.59412C14.0863 8.05378 14.4262 7.57348 14.9162 7.2833C15.4261 6.98311 16.036 6.91307 16.6259 7.08318C17.2258 7.26329 17.7158 7.7536 17.8958 8.36398C18.0757 8.95435 18.0157 9.53471 17.7158 10.025Z" fill="black"/>
<path d="M18.8656 8.09381C18.5957 7.19325 17.8858 6.4728 16.9959 6.17261V3.84115C16.9959 2.83052 16.166 2 15.1562 2H4.83763C3.82778 2 2.9979 2.83052 2.9979 3.84115V6.17261C2.06803 6.4828 1.33813 7.26329 1.09817 8.22389C0.888198 9.05441 1.01818 9.89493 1.45812 10.5954C1.81806 11.1657 2.36799 11.606 2.9979 11.8261V15.1582C2.9979 16.1689 3.82778 16.9994 4.83763 16.9994H4.99761V17.4997C4.99761 17.7799 5.21758 18 5.49754 18C5.7775 18 5.99747 17.7799 5.99747 17.4997V16.9994H13.9963V17.4997C13.9963 17.7799 14.2163 18 14.4963 18C14.7762 18 14.9962 17.7799 14.9962 17.4997V16.9994H15.1562C16.166 16.9994 16.9959 16.1689 16.9959 15.1582V11.8261C17.6458 11.596 18.2057 11.1357 18.5757 10.5353C19.0156 9.80488 19.1156 8.93433 18.8656 8.09381ZM4.83763 3.00063H15.1562C15.6161 3.00063 15.996 3.38086 15.996 3.84115V6.02251C15.4461 6.02251 14.9062 6.1526 14.4163 6.44278C13.6864 6.88305 13.1664 7.5935 12.9965 8.51407V11.1757C12.9965 11.636 12.6165 12.0163 12.1566 12.0163H7.83721C7.37727 12.0163 6.99733 11.636 6.99733 11.1757L6.98733 8.41401C6.81735 7.6035 6.30742 6.88305 5.57753 6.44278C5.0976 6.1526 4.54768 6.02251 3.99775 6.02251V3.84115C3.99775 3.37086 4.3777 3.00063 4.83763 3.00063ZM17.7158 10.025C17.4258 10.5053 16.9459 10.8455 16.396 10.9556L15.996 11.0356V15.1582C15.996 15.6185 15.6161 15.9987 15.1562 15.9987H4.83763C4.3777 15.9987 3.99775 15.6185 3.99775 15.1582V11.0356L3.59781 10.9556C3.06789 10.8455 2.59795 10.5253 2.30799 10.055C2.01804 9.58474 1.92805 9.01438 2.06803 8.46404C2.22801 7.82364 2.73793 7.2833 3.35784 7.09318C3.56781 7.02314 3.78778 6.99312 3.99775 6.99312C4.3677 6.99312 4.73765 7.09318 5.0576 7.2833C5.54753 7.57348 5.88748 8.05378 5.98747 8.49406V11.1557C5.98747 12.1664 6.81735 12.9969 7.82721 12.9969H12.1466C13.1564 12.9969 13.9863 12.1664 13.9863 11.1557L13.9763 8.59412C14.0863 8.05378 14.4263 7.57348 14.9162 7.2833C15.4261 6.98311 16.036 6.91307 16.626 7.08318C17.2259 7.26329 17.7158 7.7536 17.8958 8.36398C18.0757 8.95435 18.0158 9.53471 17.7158 10.025Z" fill="black"/>
</g>
<defs>
<clipPath id="clip0_5_1847">
<rect width="18" height="16" fill="white" transform="translate(1 2)"/>
</clipPath>
</defs>
</svg>
