<svg width="20" height="20" viewBox="0 0 20 20" fill="none" xmlns="http://www.w3.org/2000/svg">
<g clip-path="url(#clip0_5_1850)">
<path opacity="0.15" d="M3.86001 6.28H3.15001C2.52001 6.28 2.01001 5.77 2.01001 5.13V2.99H5.01001V5.13C5.00001 5.77 4.49001 6.28 3.86001 6.28Z" fill="black"/>
<path opacity="0.15" d="M9 5.14C9 5.77 8.49 6.29 7.85 6.29H7.14C6.51 6.29 6 5.78 6 5.14V3H9V5.14Z" fill="black"/>
<path opacity="0.15" d="M12.86 6.28H12.15C11.52 6.28 11.01 5.77 11.01 5.13V2.99H14.01V5.13C14 5.77 13.49 6.28 12.86 6.28Z" fill="black"/>
<path opacity="0.15" d="M18 5.14C18 5.77 17.49 6.29 16.85 6.29H16.14C15.51 6.29 15 5.78 15 5.14V3H18V5.14Z" fill="black"/>
<path d="M16.49 7.96C16.21 7.96 15.99 8.18 15.99 8.46V16.19C15.99 16.61 15.61 16.96 15.15 16.96H4.82999C4.36999 16.96 3.98999 16.61 3.98999 16.19V8.46C3.98999 8.18 3.76999 7.96 3.48999 7.96C3.20999 7.96 2.98999 8.18 2.98999 8.46V16.19C2.98999 17.17 3.81999 17.96 4.82999 17.96H15.15C16.16 17.96 16.99 17.17 16.99 16.19V8.46C16.99 8.18 16.77 7.96 16.49 7.96Z" fill="#231815"/>
<path d="M12.49 15.96C12.77 15.96 12.99 15.74 12.99 15.46V11.92C12.99 10.84 12.16 9.96 11.15 9.96H8.82999C7.81999 9.96 6.98999 10.84 6.98999 11.92V15.46C6.98999 15.74 7.20999 15.96 7.48999 15.96C7.76999 15.96 7.98999 15.74 7.98999 15.46V11.92C7.98999 11.39 8.36999 10.96 8.82999 10.96H11.15C11.61 10.96 11.99 11.39 11.99 11.92V15.46C11.99 15.73 12.22 15.96 12.49 15.96Z" fill="#231815"/>
<path d="M18.16 2H15H14H10H6H5H1.84C1.38 2 1 2.38 1 2.84V5.14C1 6.32 1.96 7.29 3.14 7.29H3.85C4.51 7.29 5.1 6.98 5.5 6.5C5.89 6.98 6.48 7.29 7.14 7.29H7.85C9.03 7.29 10 6.33 10 5.14C10 6.32 10.96 7.29 12.14 7.29H12.85C13.51 7.29 14.1 6.98 14.5 6.5C14.89 6.98 15.48 7.29 16.14 7.29H16.85C18.03 7.29 19 6.33 19 5.14V2.84C19 2.38 18.62 2 18.16 2ZM3.86 6.28H3.15C2.52 6.28 2.01 5.77 2.01 5.13V2.99H5.01V5.13C5 5.77 4.49 6.28 3.86 6.28ZM9 5.14C9 5.77 8.49 6.29 7.85 6.29H7.14C6.51 6.29 6 5.78 6 5.14V3H9V5.14ZM12.86 6.28H12.15C11.52 6.28 11.01 5.77 11.01 5.13V2.99H14.01V5.13C14 5.77 13.49 6.28 12.86 6.28ZM18 5.14C18 5.77 17.49 6.29 16.85 6.29H16.14C15.51 6.29 15 5.78 15 5.14V3H18V5.14Z" fill="#231815"/>
</g>
<defs>
<clipPath id="clip0_5_1850">
<rect width="18" height="16" fill="white" transform="translate(1 2)"/>
</clipPath>
</defs>
</svg>
