<svg width="20" height="20" viewBox="0 0 20 20" fill="none" xmlns="http://www.w3.org/2000/svg">
<g clip-path="url(#clip0_5_1861)">
<path opacity="0.15" d="M17 12.16C17 12.62 16.62 13 16.16 13H7.84C7.38 13 7 12.62 7 12.16V3.84C7 3.38 7.38 3 7.84 3H16.16C16.62 3 17 3.38 17 3.84V12.16Z" fill="black"/>
<path d="M16.16 2H7.84C6.83 2 6 2.83 6 3.84V12.16C6 13.17 6.83 14 7.84 14H16.16C17.17 14 18 13.17 18 12.16V3.84C18 2.82 17.17 2 16.16 2ZM17 12.16C17 12.62 16.62 13 16.16 13H7.84C7.38 13 7 12.62 7 12.16V3.84C7 3.38 7.38 3 7.84 3H16.16C16.62 3 17 3.38 17 3.84V12.16Z" fill="black"/>
<path d="M13.5 14.94C13.22 14.94 13 15.16 13 15.44V16.16C13 16.62 12.62 17 12.16 17H3.84C3.38 17 3 16.62 3 16.16V7.84C3 7.38 3.38 7 3.84 7H4.58C4.86 7 5.08 6.78 5.08 6.5C5.08 6.22 4.86 6 4.58 6H3.84C2.83 6 2 6.83 2 7.84V16.16C2 17.17 2.83 18 3.84 18H12.16C13.17 18 14 17.17 14 16.16V15.44C14 15.17 13.77 14.94 13.5 14.94Z" fill="black"/>
<path d="M14.73 5.04C14.71 5.03 14.68 5.04 14.65 5.03C14.6 5.01 14.55 5 14.5 5H11.5C11.22 5 11 5.22 11 5.5C11 5.78 11.22 6 11.5 6H13.33L10.68 8.65C10.48 8.85 10.48 9.16 10.68 9.36C10.78 9.46 10.91 9.51 11.03 9.51C11.15 9.51 11.29 9.46 11.38 9.36L13.99 6.75V8.51C13.99 8.79 14.21 9.01 14.49 9.01C14.77 9.01 14.99 8.79 14.99 8.51V8.35C15.01 8.29 15.03 8.23 15.03 8.17V5.51C15.03 5.3 14.91 5.11 14.73 5.04Z" fill="black"/>
</g>
<defs>
<clipPath id="clip0_5_1861">
<rect width="16" height="16" fill="white" transform="translate(2 2)"/>
</clipPath>
</defs>
</svg>
