<svg width="20" height="20" viewBox="0 0 20 20" fill="none" xmlns="http://www.w3.org/2000/svg">
<g clip-path="url(#clip0_5_1857)">
<path opacity="0.15" d="M17.01 16.16C17.01 16.62 16.63 17 16.17 17H3.84C3.38 17 3 16.62 3 16.16V3.84C3 3.38 3.38 3 3.84 3H16.16C16.62 3 17 3.38 17 3.84V16.16H17.01Z" fill="black"/>
<path d="M16.17 2H3.84C2.83 2 2 2.83 2 3.84V16.16C2 17.17 2.83 18 3.84 18H16.16C17.17 18 18.0001 17.17 18.0001 16.16V3.84C18.01 2.83 17.18 2 16.17 2ZM17.01 16.16C17.01 16.62 16.63 17 16.17 17H3.84C3.38 17 3 16.62 3 16.16V3.84C3 3.38 3.38 3 3.84 3H16.16C16.62 3 17 3.38 17 3.84V16.16H17.01Z" fill="#231815"/>
<path d="M10.01 4.84C10.01 4.38 9.63 4 9.17 4H4.84C4.38 4 4 4.38 4 4.84V9.16C4 9.62 4.38 10 4.84 10H9.16C9.62 10 10 9.62 10 9.16V4.84H10.01ZM9.01 9H5.01V5H9.01V9Z" fill="#231815"/>
<path d="M15.17 10H10.84C10.38 10 10 10.38 10 10.84V15.16C10 15.62 10.38 16 10.84 16H15.16C15.62 16 16 15.62 16 15.16V10.84C16.01 10.38 15.63 10 15.17 10ZM15.01 15H11.01V11H15.01V15Z" fill="#231815"/>
</g>
<defs>
<clipPath id="clip0_5_1857">
<rect width="16" height="16" fill="white" transform="translate(2 2)"/>
</clipPath>
</defs>
</svg>
