<svg width="20" height="20" viewBox="0 0 20 20" fill="none" xmlns="http://www.w3.org/2000/svg">
<g clip-path="url(#clip0_5_1853)">
<path opacity="0.15" d="M16 16C16 16.55 15.55 17 15 17C14.73 17 14.48 16.9 14.29 16.71C14.1 16.52 14 16.27 14 16L14.01 12.59C14.01 12.41 13.92 12.25 13.77 12.16L12 11.1V5.42C12 4.09 13.08 3.01 14.41 3.01H16V16Z" fill="black"/>
<path d="M8.49085 2C8.21131 2 7.99168 2.21986 7.99168 2.49969V7.99625C7.99168 8.64585 7.67221 9.25547 7.13311 9.63523C7.00333 9.72517 6.92346 9.88507 6.92346 10.045V16.0712C6.92346 16.5809 6.50416 17.0006 5.99501 17.0006C5.48586 17.0006 5.06656 16.5809 5.06656 16.0712V10.055C5.06656 9.89507 4.98669 9.73517 4.85691 9.64522C4.3178 9.26546 3.99834 8.65584 3.99834 8.00625V2.50968C3.99834 2.22986 3.7787 2.00999 3.49917 2.00999C3.21963 2.00999 3 2.22986 3 2.50968V8.00625C3 8.89569 3.39933 9.73517 4.0782 10.3048V16.0712C4.0782 17.1305 4.93677 18 6.00499 18C7.07321 18 7.93178 17.1405 7.93178 16.0712V10.2948C8.60067 9.72517 9 8.8857 9 8.00625V2.50968C8.99002 2.21986 8.77038 2 8.49085 2Z" fill="#231815"/>
<path d="M16.5 2H14.41C12.53 2 11 3.53 11 5.41V11.37C11 11.55 11.09 11.71 11.24 11.8L13.01 12.86L13 15.99C13 16.52 13.21 17.03 13.58 17.41C13.96 17.79 14.46 18 15 18C16.1 18 17 17.1 17 16V2.5C17 2.22 16.78 2 16.5 2ZM16 16C16 16.55 15.55 17 15 17C14.73 17 14.48 16.9 14.29 16.71C14.1 16.52 14 16.27 14 16L14.01 12.59C14.01 12.41 13.92 12.25 13.77 12.16L12 11.1V5.42C12 4.09 13.08 3.01 14.41 3.01H16V16Z" fill="#231815"/>
<path d="M6 6.42C6.28 6.42 6.5 6.2 6.5 5.92V2.5C6.5 2.22 6.28 2 6 2C5.72 2 5.5 2.22 5.5 2.5V5.92C5.5 6.19 5.73 6.42 6 6.42Z" fill="#231815"/>
</g>
<defs>
<clipPath id="clip0_5_1853">
<rect width="14" height="16" fill="white" transform="translate(3 2)"/>
</clipPath>
</defs>
</svg>
