<svg width="20" height="20" viewBox="0 0 20 20" fill="none" xmlns="http://www.w3.org/2000/svg">
<g clip-path="url(#clip0_5_1864)">
<path opacity="0.15" d="M17.68 8.47L15.5 5.39C15.16 4.9 14.59 4.61 14 4.61H12.04V3.76C12.04 2.79 11.25 2 10.28 2H3.8C2.83 2 2.04 2.79 2.04 3.76V11.2H2V14.51C2 15.4 2.72 16.13 3.62 16.13H4.05C4.05 16.18 4.07 16.23 4.07 16.28C4.08 16.34 4.09 16.4 4.1 16.46C4.12 16.53 4.14 16.59 4.16 16.66C4.18 16.72 4.2 16.77 4.22 16.83C4.25 16.89 4.28 16.95 4.32 17.01C4.35 17.06 4.38 17.11 4.41 17.16C4.45 17.22 4.49 17.26 4.54 17.32C4.58 17.36 4.61 17.41 4.65 17.45C4.7 17.5 4.76 17.54 4.81 17.58C4.85 17.61 4.9 17.65 4.94 17.68C5 17.72 5.07 17.75 5.14 17.79C5.19 17.81 5.23 17.84 5.28 17.86C5.36 17.89 5.44 17.91 5.52 17.94C5.56 17.95 5.6 17.97 5.64 17.98C5.77 18.01 5.9 18.02 6.04 18.02C6.18 18.02 6.31 18.01 6.43 17.98C6.47 17.97 6.51 17.96 6.55 17.94C6.63 17.92 6.72 17.9 6.8 17.86C6.85 17.84 6.89 17.81 6.93 17.79C7 17.76 7.07 17.72 7.13 17.68C7.17 17.65 7.21 17.62 7.25 17.58C7.31 17.53 7.37 17.49 7.42 17.44C7.46 17.4 7.49 17.36 7.53 17.32C7.58 17.27 7.62 17.21 7.67 17.16C7.7 17.11 7.73 17.06 7.76 17.02C7.8 16.96 7.83 16.9 7.86 16.84C7.88 16.79 7.9 16.73 7.92 16.68C7.94 16.61 7.97 16.55 7.98 16.48C7.99 16.42 8 16.36 8.01 16.3C8.02 16.25 8.03 16.21 8.03 16.16C8.18 16.16 8.29 16.15 8.38 16.15L12.04 16.16C12.04 16.21 12.06 16.26 12.06 16.31C12.07 16.37 12.07 16.42 12.09 16.48C12.11 16.55 12.13 16.62 12.15 16.68C12.17 16.73 12.19 16.79 12.21 16.84C12.24 16.9 12.27 16.96 12.31 17.02C12.34 17.07 12.37 17.12 12.4 17.17C12.44 17.23 12.49 17.28 12.53 17.33C12.57 17.37 12.6 17.42 12.64 17.46C12.69 17.51 12.75 17.55 12.8 17.59C12.84 17.62 12.89 17.66 12.93 17.69C12.99 17.73 13.06 17.76 13.12 17.8C13.17 17.82 13.21 17.85 13.26 17.87C13.34 17.9 13.42 17.92 13.5 17.94C13.54 17.95 13.58 17.97 13.63 17.98C13.76 18.01 13.89 18.02 14.02 18.02C14.16 18.02 14.29 18.01 14.42 17.98C14.46 17.97 14.5 17.95 14.54 17.94C14.62 17.92 14.71 17.9 14.78 17.86C14.83 17.84 14.87 17.81 14.92 17.79C14.99 17.76 15.05 17.72 15.12 17.68C15.17 17.65 15.21 17.61 15.25 17.58C15.3 17.54 15.36 17.5 15.41 17.45C15.45 17.41 15.49 17.36 15.52 17.32C15.56 17.27 15.61 17.22 15.65 17.16C15.68 17.11 15.71 17.06 15.74 17.01C15.77 16.95 15.81 16.89 15.84 16.83C15.86 16.78 15.88 16.72 15.9 16.66C15.92 16.6 15.95 16.53 15.96 16.46C15.97 16.4 15.98 16.34 15.99 16.28C16 16.23 16.01 16.18 16.01 16.13H16.38C17.27 16.13 18 15.4 18 14.51V11.39V11.2V9.53C18.02 9.15 17.9 8.78 17.68 8.47Z" fill="black"/>
<path d="M17.68 8.47L15.5 5.39C15.16 4.9 14.59 4.61 14 4.61H12.04V3.76C12.04 2.79 11.25 2 10.28 2H3.8C2.83 2 2.04 2.79 2.04 3.76V11.2H2V14.51C2 15.4 2.72 16.13 3.62 16.13H4.05C4.05 16.18 4.07 16.23 4.07 16.28C4.08 16.34 4.09 16.4 4.1 16.46C4.12 16.53 4.14 16.59 4.16 16.66C4.18 16.72 4.2 16.77 4.22 16.83C4.25 16.89 4.28 16.95 4.32 17.01C4.35 17.06 4.38 17.11 4.41 17.16C4.45 17.22 4.49 17.26 4.54 17.32C4.58 17.36 4.61 17.41 4.65 17.45C4.7 17.5 4.76 17.54 4.81 17.58C4.85 17.61 4.9 17.65 4.94 17.68C5 17.72 5.07 17.75 5.14 17.79C5.19 17.81 5.23 17.84 5.28 17.86C5.36 17.89 5.44 17.91 5.52 17.94C5.56 17.95 5.6 17.97 5.64 17.98C5.77 18.01 5.9 18.02 6.04 18.02C6.18 18.02 6.31 18.01 6.43 17.98C6.47 17.97 6.51 17.96 6.55 17.94C6.63 17.92 6.72 17.9 6.8 17.86C6.85 17.84 6.89 17.81 6.93 17.79C7 17.76 7.07 17.72 7.13 17.68C7.17 17.65 7.21 17.62 7.25 17.58C7.31 17.53 7.37 17.49 7.42 17.44C7.46 17.4 7.49 17.36 7.53 17.32C7.58 17.27 7.62 17.21 7.67 17.16C7.7 17.11 7.73 17.06 7.76 17.02C7.8 16.96 7.83 16.9 7.86 16.84C7.88 16.79 7.9 16.73 7.92 16.68C7.94 16.61 7.97 16.55 7.98 16.48C7.99 16.42 8 16.36 8.01 16.3C8.02 16.25 8.03 16.21 8.03 16.16C8.18 16.16 8.29 16.15 8.38 16.15L12.04 16.16C12.04 16.21 12.06 16.26 12.06 16.31C12.07 16.37 12.07 16.42 12.09 16.48C12.11 16.55 12.13 16.62 12.15 16.68C12.17 16.73 12.19 16.79 12.21 16.84C12.24 16.9 12.27 16.96 12.31 17.02C12.34 17.07 12.37 17.12 12.4 17.17C12.44 17.23 12.49 17.28 12.53 17.33C12.57 17.37 12.6 17.42 12.64 17.46C12.69 17.51 12.75 17.55 12.8 17.59C12.84 17.62 12.89 17.66 12.93 17.69C12.99 17.73 13.06 17.76 13.12 17.8C13.17 17.82 13.21 17.85 13.26 17.87C13.34 17.9 13.42 17.92 13.5 17.94C13.54 17.95 13.58 17.97 13.63 17.98C13.76 18.01 13.89 18.02 14.02 18.02C14.16 18.02 14.29 18.01 14.42 17.98C14.46 17.97 14.5 17.95 14.54 17.94C14.62 17.92 14.71 17.9 14.78 17.86C14.83 17.84 14.87 17.81 14.92 17.79C14.99 17.76 15.05 17.72 15.12 17.68C15.17 17.65 15.21 17.61 15.25 17.58C15.3 17.54 15.36 17.5 15.41 17.45C15.45 17.41 15.49 17.36 15.52 17.32C15.56 17.27 15.61 17.22 15.65 17.16C15.68 17.11 15.71 17.06 15.74 17.01C15.77 16.95 15.81 16.89 15.84 16.83C15.86 16.78 15.88 16.72 15.9 16.66C15.92 16.6 15.95 16.53 15.96 16.46C15.97 16.4 15.98 16.34 15.99 16.28C16 16.23 16.01 16.18 16.01 16.13H16.38C17.27 16.13 18 15.4 18 14.51V11.39V11.2V9.53C18.02 9.15 17.9 8.78 17.68 8.47ZM3.04 3.77C3.04 3.35 3.38 3.01 3.8 3.01H10.28C10.7 3.01 11.04 3.35 11.04 3.77V11.01H3.04V3.77ZM5.04 16C5.04 15.45 5.49 15 6.04 15C6.59 15 7.04 15.45 7.04 16C7.04 16.55 6.59 17 6.04 17C5.49 17 5.04 16.56 5.04 16ZM13.04 16C13.04 15.45 13.49 15 14.04 15C14.59 15 15.04 15.45 15.04 16C15.04 16.55 14.59 17 14.04 17C13.49 17 13.04 16.56 13.04 16ZM17.02 14.51C17.02 14.85 16.74 15.13 16.4 15.13H15.83C15.5 14.47 14.83 14 14.04 14C13.25 14 12.57 14.47 12.25 15.13L8.15 15.12L8.14 15.13C8.06 15.13 7.95 15.13 7.84 15.13C7.52 14.46 6.84 13.99 6.04 13.99C5.25 13.99 4.57 14.45 4.25 15.12L3.62 15.11C3.28 15.11 3 14.83 3 14.49V12.18H17.02V14.51ZM12.04 11.2V5.61H14C14.27 5.61 14.53 5.74 14.69 5.96L16.87 9.04C16.97 9.18 17.02 9.35 17.02 9.52V11.19H12.04V11.2Z" fill="black"/>
</g>
<defs>
<clipPath id="clip0_5_1864">
<rect width="16" height="16" fill="white" transform="translate(2 2)"/>
</clipPath>
</defs>
</svg>
