<svg width="20" height="20" viewBox="0 0 20 20" fill="none" xmlns="http://www.w3.org/2000/svg">
<g clip-path="url(#clip0_5_1860)">
<mask id="mask0_5_1860" style="mask-type:alpha" maskUnits="userSpaceOnUse" x="0" y="0" width="20" height="20">
<path d="M0 0H19.996V20H0V0Z" fill="white"/>
</mask>
<g mask="url(#mask0_5_1860)">
<path opacity="0.1" d="M17.8681 17.1458L15.1601 14.4338C15.6601 13.9878 15.9861 13.3218 15.9861 12.5628L15.7051 4.4198C15.7051 3.0858 14.7321 1.9998 13.5361 1.9998H6.45909C5.26409 1.9998 4.29209 3.0858 4.29209 4.4028L4.01009 12.5798C4.01009 13.3368 4.34309 14.0058 4.85309 14.4498L2.16009 17.1458C1.96609 17.3408 1.96609 17.6578 2.16009 17.8538C2.25809 17.9508 2.38509 17.9998 2.51309 17.9998C2.64109 17.9998 2.76909 17.9508 2.86609 17.8538L3.71809 16.9998H16.3101L17.1631 17.8538C17.2601 17.9508 17.3881 17.9998 17.5151 17.9998C17.6431 17.9998 17.7711 17.9508 17.8681 17.8538C18.0631 17.6578 18.0631 17.3408 17.8681 17.1458Z" fill="black"/>
<path fill-rule="evenodd" clip-rule="evenodd" d="M7.82068 6.9998C7.36668 6.9998 6.99768 7.3688 6.99768 7.8228V8.1768C6.99768 8.6308 7.36668 8.9998 7.82068 8.9998H12.1757C12.6287 8.9998 12.9977 8.6308 12.9977 8.1768V7.8228C12.9977 7.3688 12.6287 6.9998 12.1757 6.9998H7.82068ZM12.1757 9.9998H7.82068C6.81368 9.9998 5.99768 9.1838 5.99768 8.1768V7.8228C5.99768 6.8158 6.81368 5.9998 7.82068 5.9998H12.1757C13.1817 5.9998 13.9977 6.8158 13.9977 7.8228V8.1768C13.9977 9.1838 13.1817 9.9998 12.1757 9.9998Z" fill="black"/>
<path fill-rule="evenodd" clip-rule="evenodd" d="M11.4979 4.9998H8.49792C8.22192 4.9998 7.99792 4.7758 7.99792 4.4998C7.99792 4.2238 8.22192 3.9998 8.49792 3.9998H11.4979C11.7739 3.9998 11.9979 4.2238 11.9979 4.4998C11.9979 4.7758 11.7739 4.9998 11.4979 4.9998Z" fill="black"/>
<path fill-rule="evenodd" clip-rule="evenodd" d="M6.99792 12.4998C6.99792 12.7758 6.77392 12.9998 6.49792 12.9998C6.22192 12.9998 5.99792 12.7758 5.99792 12.4998C5.99792 12.2238 6.22192 11.9998 6.49792 11.9998C6.77392 11.9998 6.99792 12.2238 6.99792 12.4998Z" fill="black"/>
<path fill-rule="evenodd" clip-rule="evenodd" d="M13.9979 12.4998C13.9979 12.7758 13.7739 12.9998 13.4979 12.9998C13.2219 12.9998 12.9979 12.7758 12.9979 12.4998C12.9979 12.2238 13.2219 11.9998 13.4979 11.9998C13.7739 11.9998 13.9979 12.2238 13.9979 12.4998Z" fill="black"/>
<path fill-rule="evenodd" clip-rule="evenodd" d="M4.71709 15.9998L5.77709 14.9378C5.93609 14.9768 6.09909 14.9998 6.26809 14.9998H13.7281C13.9061 14.9998 14.0771 14.9718 14.2431 14.9298L15.3121 15.9998H4.71709ZM5.29809 4.4198C5.29809 3.6368 5.81909 2.9998 6.45909 2.9998H13.5361C14.1771 2.9998 14.6981 3.6368 14.6991 4.4368L14.9801 12.5798C14.9801 13.1738 14.6551 13.6828 14.1981 13.8938C14.1951 13.8958 14.1911 13.8958 14.1871 13.8978C14.0451 13.9618 13.8901 13.9998 13.7281 13.9998H6.26809C6.13209 13.9998 6.00209 13.9688 5.87909 13.9228C5.84409 13.9038 5.80909 13.8918 5.77209 13.8828C5.32809 13.6648 5.01609 13.1668 5.01609 12.5968L5.29809 4.4198ZM17.8681 17.1458L15.1601 14.4338C15.6601 13.9878 15.9861 13.3218 15.9861 12.5628L15.7051 4.4198C15.7051 3.0858 14.7321 1.9998 13.5361 1.9998H6.45909C5.26409 1.9998 4.29209 3.0858 4.29209 4.4028L4.01009 12.5798C4.01009 13.3368 4.34309 14.0058 4.85309 14.4498L2.16009 17.1458C1.96609 17.3408 1.96609 17.6578 2.16009 17.8538C2.25809 17.9508 2.38509 17.9998 2.51309 17.9998C2.64109 17.9998 2.76909 17.9508 2.86609 17.8538L3.71809 16.9998H16.3101L17.1631 17.8538C17.2601 17.9508 17.3881 17.9998 17.5151 17.9998C17.6431 17.9998 17.7711 17.9508 17.8681 17.8538C18.0631 17.6578 18.0631 17.3408 17.8681 17.1458Z" fill="black"/>
</g>
</g>
<defs>
<clipPath id="clip0_5_1860">
<rect width="16" height="16" fill="white" transform="translate(2 2)"/>
</clipPath>
</defs>
</svg>
