<svg width="20" height="20" viewBox="0 0 20 20" fill="none" xmlns="http://www.w3.org/2000/svg">
<g clip-path="url(#clip0_5_1866)">
<path opacity="0.15" d="M17.2217 4.29578C16.8965 4.43913 16.5626 4.56301 16.2217 4.66658C16.0308 4.72456 15.8233 4.66485 15.6939 4.5147C14.8783 3.56854 13.5677 3.23767 12.4097 3.6836C11.248 4.13097 10.4842 5.26614 10.501 6.53353V7.31316C10.501 7.58077 10.2851 7.79967 10.0143 7.80676C7.40446 7.87503 4.91992 6.76483 3.22023 4.81259L3.18739 4.93168L3.10633 5.2525C2.77778 6.64678 2.74829 8.09026 3.18073 9.43109C3.72924 11.1318 4.98274 12.5101 7.11683 13.4671C7.47025 13.6255 7.514 14.1039 7.19504 14.3224C6.06567 15.0958 4.79078 15.6103 3.45969 15.8398C9.8987 18.2221 16.4556 14.0822 16.4556 6.51174C16.4549 6.3245 16.4371 6.13773 16.4023 5.95386C16.372 5.79436 16.4231 5.63039 16.5389 5.51522C16.8763 5.17943 17.1676 4.80238 17.4068 4.3944L17.544 4.14598L17.2217 4.29578Z" fill="black"/>
<path d="M9.50105 6.81687L9.50366 6.33215C9.56439 4.74585 10.5586 3.3365 12.0464 2.76355C13.4964 2.20519 15.1246 2.55308 16.2226 3.62669C16.9286 3.38138 17.5974 3.03629 18.2087 2.60122C18.5845 2.33374 19.0948 2.67125 18.9874 3.1163C18.724 4.20743 18.1854 5.21018 17.4252 6.02816C17.4449 6.18761 17.455 6.34841 17.4556 6.51014C17.4556 15.5293 8.83883 20.1566 1.25421 15.9053C0.798177 15.6497 0.997386 14.9615 1.52132 14.9825C3.04669 15.0438 4.55482 14.6885 5.88961 13.9615C3.97966 12.9095 2.78726 11.4651 2.2279 9.73078C1.69573 8.08071 1.77387 6.33638 2.22106 4.67762C2.32249 4.30139 2.42473 3.99592 2.50959 3.77572L2.58798 3.58447C2.74461 3.22891 3.2361 3.1822 3.45852 3.50174C4.79904 5.42761 6.91718 6.62829 9.21317 6.80069L9.50105 6.81687ZM17.2217 4.29578C16.8965 4.43913 16.5626 4.56301 16.2217 4.66658C16.0308 4.72456 15.8234 4.66485 15.6939 4.5147C14.8783 3.56854 13.5677 3.23767 12.4097 3.6836C11.248 4.13097 10.4842 5.26614 10.501 6.53353V7.31316C10.501 7.58077 10.2852 7.79967 10.0143 7.80676C7.40448 7.87503 4.91993 6.76483 3.22024 4.81259L3.1874 4.93168L3.10634 5.2525C2.77779 6.64678 2.7483 8.09026 3.18074 9.43109C3.72925 11.1318 4.98275 12.5101 7.11684 13.4671C7.47026 13.6255 7.51401 14.1039 7.19505 14.3224C6.06569 15.0958 4.79079 15.6103 3.4597 15.8398C9.89871 18.2221 16.4556 14.0822 16.4556 6.51174C16.455 6.3245 16.4371 6.13773 16.4023 5.95386C16.3721 5.79436 16.4231 5.63039 16.5389 5.51522C16.8763 5.17943 17.1676 4.80238 17.4068 4.3944L17.544 4.14598L17.2217 4.29578Z" fill="black"/>
</g>
<defs>
<clipPath id="clip0_5_1866">
<rect width="18" height="15" fill="white" transform="translate(1 2.5)"/>
</clipPath>
</defs>
</svg>
