<svg width="20" height="20" viewBox="0 0 20 20" fill="none" xmlns="http://www.w3.org/2000/svg">
<g clip-path="url(#clip0_67_1136)">
<path opacity="0.15" d="M10.9499 4.1L12.1499 6.6C12.3499 7 12.7499 7.2 13.0499 7.2L15.8499 7.6C16.7499 7.7 17.0499 8.8 16.4499 9.5L14.4499 11.5C14.1499 11.8 14.0499 12.1 14.1499 12.5L14.6499 15.3C14.8499 16.2 13.8499 16.9 13.0499 16.4L10.5499 15C10.2499 14.8 9.84994 14.8 9.54994 15L7.04994 16.3C6.24994 16.7 5.34994 16 5.44994 15.2L5.94994 12.4C6.04994 12 5.84994 11.7 5.64994 11.4L3.64994 9.4C2.94994 8.9 3.24994 7.8 4.14994 7.6L6.94994 7.2C7.34994 7.2 7.64994 7 7.74994 6.6L8.94994 4.1C9.44994 3.3 10.5499 3.3 10.9499 4.1Z" fill="black"/>
<path d="M10.9499 4.1L12.1499 6.6C12.3499 7 12.7499 7.2 13.0499 7.2L15.8499 7.6C16.7499 7.7 17.0499 8.8 16.4499 9.5L14.4499 11.5C14.1499 11.8 14.0499 12.1 14.1499 12.5L14.6499 15.3C14.8499 16.2 13.8499 16.9 13.0499 16.4L10.5499 15C10.2499 14.8 9.84994 14.8 9.54994 15L7.04994 16.3C6.24994 16.7 5.34994 16 5.44994 15.2L5.94994 12.4C6.04994 12 5.84994 11.7 5.64994 11.4L3.64994 9.4C2.94994 8.9 3.24994 7.8 4.14994 7.6L6.94994 7.2C7.34994 7.2 7.64994 7 7.74994 6.6L8.94994 4.1C9.44994 3.3 10.5499 3.3 10.9499 4.1Z" stroke="black" stroke-miterlimit="10"/>
</g>
<defs>
<clipPath id="clip0_67_1136">
<rect width="14.5" height="14" fill="white" transform="translate(2.75 3)"/>
</clipPath>
</defs>
</svg>
