<svg width="20" height="20" viewBox="0 0 20 20" fill="none" xmlns="http://www.w3.org/2000/svg">
<g clip-path="url(#clip0_5_1858)">
<path opacity="0.15" d="M17.9837 10.3106C17.9877 10.2896 17.9917 10.2676 17.9927 10.2446C18.0047 10.0996 17.9697 9.9706 17.9307 9.8256L16.6467 3.8276C16.5217 3.2486 16.1577 2.7236 15.6477 2.3856C15.2617 2.1306 14.8207 2.0006 14.3637 2.0036L3.13069 1.9996C2.50669 1.9996 1.99969 2.5126 1.99969 3.1416L2.00569 10.8466C2.00569 11.4756 2.51269 11.9886 3.13569 11.9886L3.78769 11.9916C4.96369 11.9986 6.04269 12.3146 6.90969 12.9056C7.23369 13.1256 7.38869 13.2916 7.46169 13.3916C7.98169 14.0996 8.08769 14.9136 8.21069 15.8556L8.2257 15.9706C8.3747 17.1086 9.3847 17.9996 10.5247 17.9996C11.6157 17.9996 12.5557 17.2366 12.8117 16.1336C12.9247 15.6076 12.9817 15.0716 12.9817 14.5396C12.9817 14.0626 12.8657 13.4526 12.7597 12.9996H15.6007C15.6077 12.9996 15.7097 12.9916 15.7177 12.9916C16.5137 12.9586 17.2377 12.5246 17.6517 11.8296C17.9117 11.3946 18.0297 10.8936 17.9937 10.3826C17.9917 10.3576 17.9887 10.3346 17.9837 10.3106Z" fill="black"/>
<path fill-rule="evenodd" clip-rule="evenodd" d="M16.7637 11.3276C16.5267 11.7256 16.1187 11.9736 15.6007 11.9996H12.1017C11.9407 11.9996 11.7887 12.0736 11.6917 12.1986C11.5947 12.3246 11.5637 12.4866 11.6077 12.6376C11.6107 12.6496 11.9547 13.8296 11.9547 14.5396C11.9547 15.0026 11.9057 15.4706 11.8087 15.9206C11.6607 16.5566 11.1327 16.9996 10.5247 16.9996C9.9027 16.9996 9.3277 16.4816 9.2447 15.8436L9.22969 15.7286C9.10069 14.7436 8.96769 13.7236 8.29769 12.8106C8.11969 12.5686 7.85969 12.3316 7.49869 12.0866C7.04769 11.7786 6.54369 11.5456 6.01269 11.3656V3.0136H5.01269V11.1106C4.61769 11.0416 4.21269 10.9946 3.79369 10.9916L3.13569 10.9886C3.08769 10.9886 3.03269 10.9296 3.03269 10.8456L3.02769 3.1416C3.02769 3.0576 3.08169 2.9996 3.13069 2.9996L14.3707 3.0036C14.5827 2.9906 14.8587 3.0726 15.0697 3.2126C15.3587 3.4036 15.5717 3.7106 15.6417 4.0356L16.9237 10.0206C16.9257 10.0306 16.9657 10.4036 16.9687 10.4516C16.9917 10.7626 16.9197 11.0656 16.7637 11.3276ZM17.9837 10.3106C17.9877 10.2896 17.9917 10.2676 17.9927 10.2446C18.0047 10.0996 17.9697 9.9706 17.9307 9.8256L16.6467 3.8276C16.5217 3.2486 16.1577 2.7236 15.6477 2.3856C15.2617 2.1306 14.8207 2.0006 14.3637 2.0036L3.13069 1.9996C2.50669 1.9996 1.99969 2.5126 1.99969 3.1416L2.00569 10.8466C2.00569 11.4756 2.51269 11.9886 3.13569 11.9886L3.78769 11.9916C4.96369 11.9986 6.04269 12.3146 6.90969 12.9056C7.23369 13.1256 7.38869 13.2916 7.46169 13.3916C7.98169 14.0996 8.08769 14.9136 8.21069 15.8556L8.2257 15.9706C8.3747 17.1086 9.3847 17.9996 10.5247 17.9996C11.6157 17.9996 12.5557 17.2366 12.8117 16.1336C12.9247 15.6076 12.9817 15.0716 12.9817 14.5396C12.9817 14.0626 12.8657 13.4526 12.7597 12.9996H15.6007C15.6077 12.9996 15.7097 12.9916 15.7177 12.9916C16.5137 12.9586 17.2377 12.5246 17.6517 11.8296C17.9117 11.3946 18.0297 10.8936 17.9937 10.3826C17.9917 10.3576 17.9887 10.3346 17.9837 10.3106Z" fill="black"/>
</g>
<defs>
<clipPath id="clip0_5_1858">
<rect width="16" height="16" fill="white" transform="translate(2 2)"/>
</clipPath>
</defs>
</svg>
