<svg width="20" height="20" viewBox="0 0 20 20" fill="none" xmlns="http://www.w3.org/2000/svg">
<g clip-path="url(#clip0_5_1863)">
<path opacity="0.15" d="M16 9.99314C16 6.41439 13.01 3.26549 10.5083 1.26619L10.3189 1.11624C10.1296 0.956295 9.86046 0.966292 9.68106 1.11624L9.50166 1.26619C6.99003 3.27549 4 6.42439 4 10.0031C4 13.142 6.42193 15.7211 9.48173 15.9711V18.5002C9.48173 18.7801 9.701 19 9.98007 19C10.2591 19 10.4784 18.7801 10.4784 18.5002V15.9711C13.5681 15.7311 16 13.142 16 9.99314Z" fill="black"/>
<path d="M16 9.99314C16 6.41439 13.01 3.26549 10.5083 1.26619L10.3189 1.11624C10.1296 0.956295 9.86046 0.966292 9.68106 1.11624L9.50166 1.26619C6.99003 3.27549 4 6.42439 4 10.0031C4 13.142 6.42193 15.7211 9.48173 15.9711V18.5002C9.48173 18.7801 9.701 19 9.98007 19C10.2591 19 10.4784 18.7801 10.4784 18.5002V15.9711C13.5681 15.7311 16 13.142 16 9.99314ZM10.4884 14.9414V12.9021L12.7907 10.5929C12.99 10.393 12.99 10.0831 12.7907 9.88318C12.5914 9.68325 12.2824 9.68325 12.0831 9.88318L10.4884 11.4826V10.9928C10.4884 10.9828 10.4884 10.9628 10.4884 10.9528V6.47437C10.4884 6.19447 10.2691 5.97454 9.99003 5.97454C9.71096 5.97454 9.49169 6.19447 9.49169 6.47437V9.75323L7.75747 8.01383C7.55814 7.8139 7.24917 7.8139 7.04983 8.01383C6.8505 8.21376 6.8505 8.52365 7.04983 8.72359L9.48173 11.1627V14.9114C6.9701 14.6515 4.99668 12.5522 4.99668 9.96315C4.99668 6.84424 7.67774 3.99524 10 2.11589C12.3123 3.99524 15.0033 6.84424 15.0033 9.96315C15.0033 12.5922 13.01 14.7015 10.4884 14.9414Z" fill="black"/>
</g>
<defs>
<clipPath id="clip0_5_1863">
<rect width="12" height="18" fill="white" transform="translate(4 1)"/>
</clipPath>
</defs>
</svg>
