<svg width="20" height="20" viewBox="0 0 20 20" fill="none" xmlns="http://www.w3.org/2000/svg">
<path opacity="0.15" d="M7.5 8.5H4.5C3.9 8.5 3.5 8.1 3.5 7.5V4.5C3.5 3.9 3.9 3.5 4.5 3.5H7.5C8.1 3.5 8.5 3.9 8.5 4.5V7.5C8.5 8.1 8.1 8.5 7.5 8.5Z" fill="black"/>
<path opacity="0.15" d="M15.5 8.5H12.5C11.9 8.5 11.5 8.1 11.5 7.5V4.5C11.5 3.9 11.9 3.5 12.5 3.5H15.5C16.1 3.5 16.5 3.9 16.5 4.5V7.5C16.5 8.1 16.1 8.5 15.5 8.5Z" fill="black"/>
<path opacity="0.15" d="M7.5 16.5H4.5C3.9 16.5 3.5 16.1 3.5 15.5V12.5C3.5 11.9 3.9 11.5 4.5 11.5H7.5C8.1 11.5 8.5 11.9 8.5 12.5V15.5C8.5 16.1 8.1 16.5 7.5 16.5Z" fill="black"/>
<path opacity="0.15" d="M15.5 16.5H12.5C11.9 16.5 11.5 16.1 11.5 15.5V12.5C11.5 11.9 11.9 11.5 12.5 11.5H15.5C16.1 11.5 16.5 11.9 16.5 12.5V15.5C16.5 16.1 16.1 16.5 15.5 16.5Z" fill="black"/>
<path d="M7.5 8.5H4.5C3.9 8.5 3.5 8.1 3.5 7.5V4.5C3.5 3.9 3.9 3.5 4.5 3.5H7.5C8.1 3.5 8.5 3.9 8.5 4.5V7.5C8.5 8.1 8.1 8.5 7.5 8.5Z" stroke="black" stroke-miterlimit="10"/>
<path d="M15.5 8.5H12.5C11.9 8.5 11.5 8.1 11.5 7.5V4.5C11.5 3.9 11.9 3.5 12.5 3.5H15.5C16.1 3.5 16.5 3.9 16.5 4.5V7.5C16.5 8.1 16.1 8.5 15.5 8.5Z" stroke="black" stroke-miterlimit="10"/>
<path d="M7.5 16.5H4.5C3.9 16.5 3.5 16.1 3.5 15.5V12.5C3.5 11.9 3.9 11.5 4.5 11.5H7.5C8.1 11.5 8.5 11.9 8.5 12.5V15.5C8.5 16.1 8.1 16.5 7.5 16.5Z" stroke="black" stroke-miterlimit="10"/>
<path d="M15.5 16.5H12.5C11.9 16.5 11.5 16.1 11.5 15.5V12.5C11.5 11.9 11.9 11.5 12.5 11.5H15.5C16.1 11.5 16.5 11.9 16.5 12.5V15.5C16.5 16.1 16.1 16.5 15.5 16.5Z" stroke="black" stroke-miterlimit="10"/>
</svg>
