<svg width="20" height="20" viewBox="0 0 20 20" fill="none" xmlns="http://www.w3.org/2000/svg">
<g clip-path="url(#clip0_5_1859)">
<path opacity="0.15" d="M18.4541 9.6174C18.4911 9.1074 18.3721 8.6064 18.1121 8.1704C17.6981 7.4754 16.9751 7.0414 16.2461 7.0164C16.2161 7.0114 16.0921 7.0004 16.0621 7.0004H13.2211C13.3261 6.5474 13.4421 5.9374 13.4421 5.4604C13.4421 4.9304 13.3861 4.3944 13.2711 3.8574C13.0161 2.7634 12.0771 2.0004 10.9861 2.0004C9.84612 2.0004 8.83612 2.8914 8.68612 4.0294L8.67212 4.1394C8.54912 5.0834 8.44312 5.8984 7.92312 6.6084C7.84912 6.7084 7.69312 6.8744 7.37112 7.0944C6.50412 7.6854 5.42512 8.0014 4.24812 8.0084L3.59812 8.0114C2.97412 8.0114 2.46712 8.5244 2.46712 9.1534L2.46112 16.8584C2.46112 17.4884 2.96812 18.0004 3.59112 18.0004L14.8171 17.9954C15.2831 17.9904 15.7201 17.8704 16.1081 17.6144C16.6181 17.2774 16.9821 16.7514 17.1081 16.1714L18.4041 10.1234C18.4301 10.0304 18.4651 9.9024 18.4541 9.7584C18.4531 9.7344 18.4491 9.7114 18.4441 9.6894C18.4491 9.6664 18.4531 9.6424 18.4541 9.6174Z" fill="black"/>
<path fill-rule="evenodd" clip-rule="evenodd" d="M17.4121 9.8654C17.4091 9.8754 17.3861 9.9684 17.3841 9.9794L16.1021 15.9654C16.0321 16.2894 15.8191 16.5964 15.5321 16.7864C15.3191 16.9274 15.0681 17.0114 14.8241 16.9954L5.50012 16.9994V8.8844C6.40412 8.7224 7.24212 8.4034 7.96012 7.9134C8.32012 7.6684 8.58112 7.4314 8.75912 7.1894C9.43012 6.2744 9.56212 5.2534 9.69112 4.2654L9.70512 4.1564C9.78912 3.5184 10.3631 3.0004 10.9861 3.0004C11.5941 3.0004 12.1211 3.4444 12.2671 4.0704C12.3661 4.5304 12.4151 4.9984 12.4151 5.4604C12.4151 6.1704 12.0711 7.3504 12.0681 7.3634C12.0241 7.5134 12.0551 7.6764 12.1521 7.8014C12.2491 7.9264 12.4011 8.0004 12.5621 8.0004L16.1351 8.0084C16.5791 8.0264 16.9871 8.2744 17.2251 8.6724C17.3811 8.9354 17.4521 9.2384 17.4301 9.5484C17.4271 9.5914 17.4291 9.6324 17.4361 9.6734C17.4161 9.7344 17.4071 9.7994 17.4121 9.8654ZM3.48812 16.8584L3.49412 9.1534C3.49412 9.0704 3.54812 9.0114 3.59812 9.0114L4.25512 9.0084C4.33812 9.0074 4.41712 8.9934 4.50012 8.9904V16.9994H4.83912L3.59112 17.0004C3.54312 17.0004 3.48812 16.9414 3.48812 16.8584ZM18.4541 9.6174C18.4911 9.1074 18.3721 8.6064 18.1121 8.1704C17.6981 7.4754 16.9751 7.0414 16.2461 7.0164C16.2161 7.0114 16.0921 7.0004 16.0621 7.0004H13.2211C13.3261 6.5474 13.4421 5.9374 13.4421 5.4604C13.4421 4.9304 13.3861 4.3944 13.2711 3.8574C13.0161 2.7634 12.0771 2.0004 10.9861 2.0004C9.84612 2.0004 8.83612 2.8914 8.68612 4.0294L8.67212 4.1394C8.54912 5.0834 8.44312 5.8984 7.92312 6.6084C7.84912 6.7084 7.69312 6.8744 7.37112 7.0944C6.50412 7.6854 5.42512 8.0014 4.24812 8.0084L3.59812 8.0114C2.97412 8.0114 2.46712 8.5244 2.46712 9.1534L2.46112 16.8584C2.46112 17.4884 2.96812 18.0004 3.59112 18.0004L14.8171 17.9954C15.2831 17.9904 15.7201 17.8704 16.1081 17.6144C16.6181 17.2774 16.9821 16.7514 17.1081 16.1714L18.4041 10.1234C18.4301 10.0304 18.4651 9.9024 18.4541 9.7584C18.4531 9.7344 18.4491 9.7114 18.4441 9.6894C18.4491 9.6664 18.4531 9.6424 18.4541 9.6174Z" fill="black"/>
</g>
<defs>
<clipPath id="clip0_5_1859">
<rect width="17" height="16" fill="white" transform="translate(1.5 2)"/>
</clipPath>
</defs>
</svg>
