<svg width="20" height="20" viewBox="0 0 20 20" fill="none" xmlns="http://www.w3.org/2000/svg">
<g clip-path="url(#clip0_5_1865)">
<path opacity="0.15" d="M15.5 6.75H4.5C3.67157 6.75 3 7.42157 3 8.25V15.5C3 16.3284 3.67157 17 4.5 17H15.5C16.3284 17 17 16.3284 17 15.5V8.25C17 7.42157 16.3284 6.75 15.5 6.75Z" fill="black"/>
<path d="M15.5 5.75C16.8807 5.75 18 6.86929 18 8.25V15.5C18 16.8807 16.8807 18 15.5 18H4.5C3.11929 18 2 16.8807 2 15.5V8.25C2 6.86929 3.11929 5.75 4.5 5.75H15.5ZM15.5 6.75H4.5C3.67157 6.75 3 7.42157 3 8.25V15.5C3 16.3284 3.67157 17 4.5 17H15.5C16.3284 17 17 16.3284 17 15.5V8.25C17 7.42157 16.3284 6.75 15.5 6.75Z" fill="black"/>
<path d="M6.60355 2.14645C6.40829 1.95118 6.09171 1.95118 5.89645 2.14645C5.70118 2.34171 5.70118 2.65829 5.89645 2.85355L9.64645 6.60355C9.84171 6.79882 10.1583 6.79882 10.3536 6.60355L14.1036 2.85355C14.2988 2.65829 14.2988 2.34171 14.1036 2.14645C13.9083 1.95118 13.5917 1.95118 13.3964 2.14645L10 5.54289L6.60355 2.14645Z" fill="black"/>
</g>
<defs>
<clipPath id="clip0_5_1865">
<rect width="16" height="16" fill="white" transform="translate(2 2)"/>
</clipPath>
</defs>
</svg>
