<svg width="20" height="20" viewBox="0 0 20 20" fill="none" xmlns="http://www.w3.org/2000/svg">
<g clip-path="url(#clip0_5_1868)">
<path opacity="0.15" d="M13.305 2.0212C12.055 2.0212 10.879 2.5892 10.003 3.5982C9.12701 2.5892 7.95001 2.0212 6.70001 2.0212C4.11001 2.0212 2.00201 4.4682 2.00201 7.4762C2.00201 9.2552 2.75401 10.5192 3.30401 11.4412C4.94501 14.1982 9.00901 17.5742 9.18201 17.7172C9.42201 17.9152 9.70601 18.0212 10.002 18.0212C10.298 18.0212 10.583 17.9152 10.821 17.7172C10.863 17.6832 15.04 14.2312 16.7 11.4412C17.25 10.5192 18.002 9.2552 18.002 7.4762C18.002 4.4682 15.895 2.0212 13.305 2.0212Z" fill="black"/>
<path fill-rule="evenodd" clip-rule="evenodd" d="M15.942 10.9242C14.366 13.5722 10.315 16.9202 10.273 16.9552C10.11 17.0912 9.89401 17.0912 9.73001 16.9552C9.56301 16.8172 5.61901 13.5402 4.06201 10.9242C3.51701 10.0102 2.90101 8.9742 2.90101 7.4762C2.90101 4.9992 4.60401 2.9842 6.70001 2.9842C7.75401 2.9842 8.74501 3.5002 9.46301 4.4042L7.57301 8.5232C7.46501 8.7562 7.55101 9.0392 7.76701 9.1602L10.974 10.9682L9.73701 13.6642C9.62901 13.9032 9.71901 14.1912 9.94201 14.3092C10.006 14.3412 10.074 14.3582 10.14 14.3582C10.306 14.3582 10.466 14.2592 10.545 14.0882L11.973 10.9732C12.081 10.7382 11.995 10.4552 11.779 10.3342L8.57201 8.5282L10.351 4.6492C10.355 4.6442 10.361 4.6422 10.364 4.6372C11.089 3.5852 12.162 2.9842 13.305 2.9842C15.4 2.9842 17.103 4.9992 17.103 7.4762C17.103 8.9742 16.487 10.0102 15.942 10.9242ZM13.305 2.0212C12.055 2.0212 10.879 2.5892 10.003 3.5982C9.12701 2.5892 7.95001 2.0212 6.70001 2.0212C4.11001 2.0212 2.00201 4.4682 2.00201 7.4762C2.00201 9.2552 2.75401 10.5192 3.30401 11.4412C4.94501 14.1982 9.00901 17.5742 9.18201 17.7172C9.42201 17.9152 9.70601 18.0212 10.002 18.0212C10.298 18.0212 10.583 17.9152 10.821 17.7172C10.863 17.6832 15.04 14.2312 16.7 11.4412C17.25 10.5192 18.002 9.2552 18.002 7.4762C18.002 4.4682 15.895 2.0212 13.305 2.0212Z" fill="black"/>
</g>
<defs>
<clipPath id="clip0_5_1868">
<rect width="16" height="16" fill="white" transform="translate(2 2)"/>
</clipPath>
</defs>
</svg>
