<svg width="20" height="20" viewBox="0 0 20 20" fill="none" xmlns="http://www.w3.org/2000/svg">
<path opacity="0.15" d="M14.5 16.5H5.5C4.4 16.5 3.5 15.6 3.5 14.5V5.5C3.5 4.4 4.4 3.5 5.5 3.5H14.5C15.6 3.5 16.5 4.4 16.5 5.5V14.5C16.5 15.6 15.6 16.5 14.5 16.5Z" fill="black"/>
<path d="M14.5 16.5H5.5C4.4 16.5 3.5 15.6 3.5 14.5V5.5C3.5 4.4 4.4 3.5 5.5 3.5H14.5C15.6 3.5 16.5 4.4 16.5 5.5V14.5C16.5 15.6 15.6 16.5 14.5 16.5Z" stroke="black" stroke-linecap="round" stroke-linejoin="round"/>
<path d="M10.4002 10.6C10.4002 10.7 10.3002 10.9 10.2002 11C10.1002 11.1 10.0002 11.1 9.8002 11.1H9.7002C9.5002 11.1 9.4002 11.1 9.3002 11C9.2002 10.9 9.2002 10.8 9.2002 10.7C9.2002 10.7 9.2002 10.7 9.2002 10.6C9.2002 10.4 9.3002 10.2 9.4002 10C9.5002 9.8 9.6002 9.6 9.7002 9.5C9.8002 9.4 10.0002 9.3 10.1002 9.1C10.2002 9 10.3002 8.8 10.4002 8.7C10.5002 8.6 10.5002 8.4 10.5002 8.3C10.5002 8.1 10.4002 7.9 10.3002 7.8C10.2002 7.7 10.0002 7.5 9.8002 7.5C9.6002 7.5 9.4002 7.6 9.2002 7.7C9.0002 7.8 8.9002 7.8 8.7002 7.8C8.6002 7.8 8.5002 7.8 8.4002 7.7C8.3002 7.6 8.2002 7.5 8.2002 7.4C8.2002 7.3 8.3002 7.2 8.4002 7.1C8.9002 6.7 9.4002 6.5 9.9002 6.5C10.4002 6.5 10.9002 6.6 11.2002 6.9C11.5002 7.2 11.7002 7.6 11.7002 8.2C11.7002 8.4 11.7002 8.6 11.6002 8.8C11.6002 8.9 11.5002 9.1 11.4002 9.3C11.2002 9.4 11.1002 9.6 11.0002 9.7C10.9002 9.8 10.7002 10 10.6002 10.1C10.5002 10.3 10.4002 10.5 10.4002 10.6ZM9.8002 13.5C9.6002 13.5 9.4002 13.4 9.2002 13.3C9.0002 13.1 9.0002 12.9 9.0002 12.7C9.0002 12.4 9.0002 12.2 9.2002 12.1C9.4002 11.9 9.5002 11.9 9.8002 11.9C10.0002 11.9 10.2002 12 10.4002 12.1C10.6002 12.3 10.6002 12.5 10.6002 12.7C10.6002 12.9 10.5002 13.1 10.4002 13.3C10.2002 13.4 10.0002 13.5 9.8002 13.5Z" fill="black"/>
</svg>
