<svg width="20" height="20" viewBox="0 0 20 20" fill="none" xmlns="http://www.w3.org/2000/svg">
<g clip-path="url(#clip0_5_1870)">
<path d="M17.5 11.99C17.22 11.99 17 12.21 17 12.49V16.15C17 16.61 16.62 16.99 16.16 16.99H3.84C3.38 16.99 3 16.61 3 16.15V12.49C3 12.21 2.78 11.99 2.5 11.99C2.22 11.99 2 12.21 2 12.49V16.15C2 17.16 2.83 17.99 3.84 17.99H16.16C17.17 17.99 18 17.16 18 16.15V12.49C18 12.21 17.78 11.99 17.5 11.99Z" fill="black"/>
<path d="M5.95002 7.26L9.50002 3.71V14.78C9.50002 15.06 9.72002 15.28 10 15.28C10.28 15.28 10.5 15.06 10.5 14.78V3.72L14.04 7.26C14.14 7.36 14.27 7.41 14.39 7.41C14.51 7.41 14.65 7.36 14.74 7.26C14.94 7.06 14.94 6.75 14.74 6.55L10.35 2.16C10.26 2.06 10.13 2 9.99002 2C9.89002 2 9.80002 2.04 9.72002 2.09C9.69002 2.11 9.66002 2.12 9.63002 2.15L5.23002 6.55C5.03002 6.75 5.03002 7.06 5.23002 7.26C5.43002 7.46 5.75002 7.45 5.95002 7.26Z" fill="black"/>
</g>
<defs>
<clipPath id="clip0_5_1870">
<rect width="16" height="16" fill="white" transform="translate(2 2)"/>
</clipPath>
</defs>
</svg>
