<svg width="20" height="20" viewBox="0 0 20 20" fill="none" xmlns="http://www.w3.org/2000/svg">
<g clip-path="url(#clip0_5_1871)">
<path opacity="0.15" d="M16.1982 2C17.1922 2 18.0022 2.92571 18.0022 4.06286V15.9383C18.0022 17.0743 17.1922 18 16.1982 18H3.8062C2.8112 18 2.0022 17.0743 2.0022 15.9383V4.06286C2.0022 2.92571 2.8112 2 3.8062 2H16.1982ZM8.2207 6.5684C8.0677 6.4784 7.8777 6.4784 7.7247 6.5684C7.5707 6.6604 7.4767 6.8294 7.4767 7.0134V12.9874C7.4767 13.1714 7.5707 13.3404 7.7247 13.4324C7.8007 13.4774 7.8867 13.5004 7.9727 13.5004C8.0577 13.5004 8.1437 13.4774 8.2207 13.4324L13.2277 10.4444C13.3817 10.3534 13.4767 10.1834 13.4767 10.0004C13.4767 9.8174 13.3817 9.6484 13.2277 9.5564L8.2207 6.5684Z" fill="black"/>
<path fill-rule="evenodd" clip-rule="evenodd" d="M3.8062 3.14286C3.3632 3.14286 3.0022 3.55543 3.0022 4.06286V15.9383C3.0022 16.4446 3.3632 16.8571 3.8062 16.8571H16.1982C16.6412 16.8571 17.0022 16.4446 17.0022 15.9383V4.06286C17.0022 3.55543 16.6412 3.14286 16.1982 3.14286H3.8062ZM16.1982 18H3.8062C2.8112 18 2.0022 17.0743 2.0022 15.9383V4.06286C2.0022 2.92571 2.8112 2 3.8062 2H16.1982C17.1922 2 18.0022 2.92571 18.0022 4.06286V15.9383C18.0022 17.0743 17.1922 18 16.1982 18Z" fill="black"/>
<path fill-rule="evenodd" clip-rule="evenodd" d="M8.46869 7.9014V12.0994L11.9877 10.0004L8.46869 7.9014ZM7.97268 13.5004C7.88668 13.5004 7.80068 13.4774 7.72468 13.4324C7.57068 13.3404 7.47668 13.1714 7.47668 12.9874V7.0134C7.47668 6.8294 7.57068 6.6604 7.72468 6.5684C7.87768 6.4784 8.06769 6.4784 8.22069 6.5684L13.2277 9.5564C13.3817 9.6484 13.4767 9.8174 13.4767 10.0004C13.4767 10.1834 13.3817 10.3534 13.2277 10.4444L8.22069 13.4324C8.14369 13.4774 8.05768 13.5004 7.97268 13.5004Z" fill="black"/>
</g>
<defs>
<clipPath id="clip0_5_1871">
<rect width="16" height="16" fill="white" transform="translate(2 2)"/>
</clipPath>
</defs>
</svg>
