<svg width="20" height="20" viewBox="0 0 20 20" fill="none" xmlns="http://www.w3.org/2000/svg">
<g clip-path="url(#clip0_5_1875)">
<path opacity="0.15" d="M5.26 16.51C4.87 16.9 4.29 16.94 3.97 16.62L3.55 16.2C3.4 16.05 3.32 15.84 3.33 15.6C3.34 15.35 3.46 15.1 3.65 14.91L6.52 12.04L8.13 13.65L5.26 16.51Z" fill="black"/>
<path opacity="0.1" d="M16.86 6.92L9.98003 13.8L6.34003 10.16L13.22 3.28H16.9L16.86 6.92Z" fill="black"/>
<path d="M17.65 2.54C17.49 2.38 17.28 2.29 17.05 2.29H13.15C12.93 2.29 12.71 2.38 12.56 2.54L5.50002 9.6L4.10002 8.2C3.90002 8 3.59002 8 3.39002 8.2C3.19002 8.4 3.19002 8.71 3.39002 8.91L5.81002 11.33L2.94002 14.2C2.16002 14.98 2.12002 16.19 2.84002 16.91L3.26002 17.33C3.60002 17.67 4.05002 17.84 4.52002 17.84C5.03002 17.84 5.56002 17.63 5.97002 17.23L8.84002 14.36L11.43 16.95C11.53 17.05 11.66 17.1 11.78 17.1C11.9 17.1 12.04 17.05 12.13 16.95C12.33 16.75 12.33 16.44 12.13 16.24L10.55 14.66L17.61 7.6C17.77 7.44 17.85 7.24 17.86 7.01L17.9 3.14C17.9 2.91 17.81 2.7 17.65 2.54ZM5.26002 16.51C4.87002 16.9 4.29002 16.94 3.97002 16.62L3.55002 16.2C3.40002 16.05 3.32002 15.84 3.33002 15.6C3.34002 15.35 3.46002 15.1 3.65002 14.91L6.52002 12.04L8.13002 13.65L5.26002 16.51ZM16.86 6.92L9.98002 13.8L6.34002 10.16L13.22 3.28H16.9L16.86 6.92Z" fill="#040000"/>
<path d="M9.15 11.03C9.25 11.13 9.38 11.18 9.5 11.18C9.62 11.18 9.76 11.13 9.85 11.03L14.83 6.05C15.03 5.85 15.03 5.54 14.83 5.34C14.63 5.14 14.32 5.14 14.12 5.34L9.14 10.32C8.96 10.52 8.96 10.83 9.15 11.03Z" fill="#040000"/>
</g>
<defs>
<clipPath id="clip0_5_1875">
<rect width="16" height="16" fill="white" transform="translate(2 2)"/>
</clipPath>
</defs>
</svg>
