<svg width="20" height="20" viewBox="0 0 20 20" fill="none" xmlns="http://www.w3.org/2000/svg">
<g clip-path="url(#clip0_5_1877)">
<path opacity="0.15" d="M7.617 10.0821C7.834 10.0821 8.026 10.2211 8.093 10.4271L8.579 11.9291C8.606 12.0141 8.61 12.1041 8.591 12.1911C8.527 12.4681 8.527 12.4681 3.556 14.2091C3.262 14.3081 3 14.6771 3 14.9861V16.5571C3 16.8051 3.196 17.0071 3.438 17.0071H16.562C16.804 17.0071 17 16.8051 17 16.5571V14.9861C17 14.6771 16.738 14.3081 16.45 14.2111C16.448 14.2111 16.446 14.2101 16.444 14.2091C11.467 12.4671 11.467 12.4671 11.408 12.1831C11.392 12.1071 11.394 12.0291 11.414 11.9551L11.821 10.4191C11.879 10.2011 12.078 10.0491 12.304 10.0491H13.849C14.09 9.9871 14.082 9.9261 14.075 9.8661C13.94 9.0081 13.804 8.1341 13.671 7.2601L13.611 6.8431C13.459 5.7731 13.315 4.7631 12.564 4.0231C11.899 3.3691 10.964 2.9931 10 2.9931C8.701 2.9931 7.471 3.6891 6.866 4.7671C6.569 5.2951 6.506 5.8551 6.433 6.5041L6.389 6.8781C6.303 7.5661 6.19 8.2481 6.077 8.9321L5.923 9.8811C5.91 9.9871 5.904 10.0361 6.073 10.0821H7.617Z" fill="black"/>
<path fill-rule="evenodd" clip-rule="evenodd" d="M11.897 12.0811H11.907H11.897ZM7.617 10.0821C7.834 10.0821 8.026 10.2211 8.093 10.4271L8.579 11.9291C8.606 12.0141 8.61 12.1041 8.591 12.1911C8.527 12.4681 8.527 12.4681 3.556 14.2091C3.262 14.3081 3 14.6771 3 14.9861V16.5571C3 16.8051 3.196 17.0071 3.438 17.0071H16.562C16.804 17.0071 17 16.8051 17 16.5571V14.9861C17 14.6771 16.738 14.3081 16.45 14.2111C16.448 14.2111 16.446 14.2101 16.444 14.2091C11.467 12.4671 11.467 12.4671 11.408 12.1831C11.392 12.1071 11.394 12.0291 11.414 11.9551L11.821 10.4191C11.879 10.2011 12.078 10.0491 12.304 10.0491H13.849C14.09 9.9871 14.082 9.9261 14.075 9.8661C13.94 9.0081 13.804 8.1341 13.671 7.2601L13.611 6.8431C13.459 5.7731 13.315 4.7631 12.564 4.0231C11.899 3.3691 10.964 2.9931 10 2.9931C8.701 2.9931 7.471 3.6891 6.866 4.7671C6.569 5.2951 6.506 5.8551 6.433 6.5041L6.389 6.8781C6.303 7.5661 6.19 8.2481 6.077 8.9321L5.923 9.8811C5.91 9.9871 5.904 10.0361 6.073 10.0821H7.617ZM3.438 18.0001C2.646 18.0001 2 17.3521 2 16.5571V14.9861C2 14.2551 2.541 13.5011 3.23 13.2701C4.633 12.7791 6.61 12.0851 7.48 11.7771L7.253 11.0751H6.013C5.976 11.0751 5.939 11.0711 5.903 11.0631C5.212 10.9081 4.849 10.4151 4.934 9.7441L5.091 8.7711C5.202 8.1011 5.313 7.4301 5.397 6.7551L5.439 6.3931C5.517 5.7021 5.598 4.9861 5.993 4.2831C6.771 2.8961 8.344 2.0001 10 2.0001C11.226 2.0001 12.417 2.4801 13.268 3.3181C14.258 4.2921 14.433 5.5191 14.601 6.7051L14.66 7.1121C14.792 7.9851 14.928 8.8571 15.064 9.7291C15.105 10.0511 15.08 10.7901 14.02 11.0301C13.983 11.0381 13.946 11.0421 13.909 11.0421H12.689L12.497 11.7691C13.354 12.0721 15.354 12.7741 16.774 13.2711C17.461 13.5041 18 14.2571 18 14.9861V16.5571C18 17.3521 17.355 18.0001 16.562 18.0001H3.438Z" fill="black"/>
</g>
<defs>
<clipPath id="clip0_5_1877">
<rect width="16" height="16" fill="white" transform="translate(2 2)"/>
</clipPath>
</defs>
</svg>
