<svg width="20" height="20" viewBox="0 0 20 20" fill="none" xmlns="http://www.w3.org/2000/svg">
<g clip-path="url(#clip0_5_1874)">
<path opacity="0.15" d="M10.0025 17.0012C7.24251 17.0012 5.00251 14.764 5.00251 11.9975C4.90251 8.0824 8.90251 4.08739 10.0025 3.06866C11.0825 4.05743 14.9825 7.90262 14.9925 11.8177L15.0025 12.0175C15.0025 14.7541 12.7625 17.0012 10.0025 17.0012Z" fill="black"/>
<path d="M15.9925 11.8077C15.9825 7.41323 11.8225 3.34831 10.5425 2.20974C10.2325 1.93009 9.76249 1.93009 9.45249 2.20974C8.14249 3.39825 3.88248 7.61298 4.00248 12.0075C4.00248 15.3134 6.69248 18 10.0025 18C13.3125 18 16.0025 15.3134 16.0025 12.0075L15.9925 11.8077ZM10.0025 17.0012C7.24248 17.0012 5.00248 14.764 5.00248 11.9975C4.90248 8.0824 8.90248 4.08739 10.0025 3.06866C11.0825 4.05743 14.9825 7.90262 14.9925 11.8177L15.0025 12.0175C15.0025 14.7541 12.7625 17.0012 10.0025 17.0012Z" fill="black"/>
<path d="M10.0025 15C8.3525 15 7.0025 13.65 7.0025 12C7.0025 11.72 6.7825 11.5 6.5025 11.5C6.2225 11.5 6.0025 11.72 6.0025 12C6.0025 14.21 7.7925 16 10.0025 16C10.2825 16 10.5025 15.78 10.5025 15.5C10.5025 15.22 10.2825 15 10.0025 15Z" fill="black"/>
</g>
<defs>
<clipPath id="clip0_5_1874">
<rect width="12" height="16" fill="white" transform="translate(4 2)"/>
</clipPath>
</defs>
</svg>
