<svg width="20" height="20" viewBox="0 0 20 20" fill="none" xmlns="http://www.w3.org/2000/svg">
<g clip-path="url(#clip0_5_1873)">
<path opacity="0.15" d="M7.15997 2.96C7.15997 2.5 7.53997 2.12 7.99997 2.12H10.88C11.34 2.12 11.72 2.5 11.72 2.96V4.41C11.02 4.12 10.25 3.96 9.43997 3.96C8.62997 3.96 7.86997 4.12 7.15997 4.41V2.96Z" fill="black"/>
<path opacity="0.15" d="M11.71 16.95C11.71 17.41 11.33 17.79 10.87 17.79H7.99002C7.53002 17.79 7.15002 17.41 7.15002 16.95V15.5C7.85002 15.79 8.62002 15.95 9.43002 15.95C10.24 15.95 11 15.79 11.71 15.5V16.95Z" fill="black"/>
<path opacity="0.15" d="M9.42999 14.95C6.66999 14.95 4.42999 12.71 4.42999 9.95C4.42999 7.19 6.66999 4.95 9.42999 4.95C12.19 4.95 14.43 7.19 14.43 9.95C14.43 12.71 12.19 14.95 9.42999 14.95Z" fill="black"/>
<path opacity="0.15" d="M15.88 10.56H15.4C15.42 10.36 15.43 10.16 15.43 9.95C15.43 9.74 15.42 9.54 15.4 9.34H15.88V10.56Z" fill="black"/>
<path d="M11.93 9.51H9.90997V7.52C9.90997 7.24 9.68997 7.02 9.40997 7.02C9.12997 7.02 8.90997 7.24 8.90997 7.52V10.01C8.90997 10.29 9.12997 10.51 9.40997 10.51H11.93C12.21 10.51 12.43 10.29 12.43 10.01C12.43 9.73 12.21 9.51 11.93 9.51Z" fill="#040000"/>
<path d="M16.38 8.34H15.2C14.8 6.92 13.91 5.72 12.7 4.93V2.96C12.7 1.95 11.87 1.12 10.86 1.12H7.97998C6.96998 1.12 6.13998 1.95 6.13998 2.96V4.93C4.49998 6 3.41998 7.85 3.41998 9.95C3.41998 12.05 4.50998 13.9 6.13998 14.97V16.94C6.13998 17.95 6.96998 18.78 7.97998 18.78H10.86C11.87 18.78 12.7 17.95 12.7 16.94V14.97C13.9 14.18 14.8 12.98 15.2 11.56H16.38C16.66 11.56 16.88 11.34 16.88 11.06V8.84C16.88 8.57 16.66 8.34 16.38 8.34ZM7.15998 2.96C7.15998 2.5 7.53998 2.12 7.99998 2.12H10.88C11.34 2.12 11.72 2.5 11.72 2.96V4.41C11.02 4.12 10.25 3.96 9.43998 3.96C8.62998 3.96 7.86998 4.12 7.15998 4.41V2.96ZM11.71 16.95C11.71 17.41 11.33 17.79 10.87 17.79H7.98998C7.52998 17.79 7.14998 17.41 7.14998 16.95V15.5C7.84998 15.79 8.61998 15.95 9.42998 15.95C10.24 15.95 11 15.79 11.71 15.5V16.95ZM9.42998 14.95C6.66998 14.95 4.42998 12.71 4.42998 9.95C4.42998 7.19 6.66998 4.95 9.42998 4.95C12.19 4.95 14.43 7.19 14.43 9.95C14.43 12.71 12.19 14.95 9.42998 14.95ZM15.88 10.56H15.4C15.42 10.36 15.43 10.16 15.43 9.95C15.43 9.74 15.42 9.54 15.4 9.34H15.88V10.56Z" fill="#040000"/>
</g>
<defs>
<clipPath id="clip0_5_1873">
<rect width="15" height="18" fill="white" transform="translate(2.5 1)"/>
</clipPath>
</defs>
</svg>
