<svg width="20" height="20" viewBox="0 0 20 20" fill="none" xmlns="http://www.w3.org/2000/svg">
<g clip-path="url(#clip0_5_1872)">
<path opacity="0.15" d="M3.67 5.5C3.3 5.5 3 5.8 3 6.17V15.83C3 16.2 3.3 16.5 3.67 16.5H16.33C16.7 16.5 17 16.2 17 15.83V6.17C17 5.8 16.7 5.5 16.33 5.5H3.67Z" fill="black"/>
<path fill-rule="evenodd" clip-rule="evenodd" d="M3.67 5.5C3.3 5.5 3 5.8 3 6.17V15.83C3 16.2 3.3 16.5 3.67 16.5H16.33C16.7 16.5 17 16.2 17 15.83V6.17C17 5.8 16.7 5.5 16.33 5.5H3.67ZM16.33 17.5H3.67C2.749 17.5 2 16.751 2 15.83V6.17C2 5.249 2.749 4.5 3.67 4.5H16.33C17.251 4.5 18 5.249 18 6.17V15.83C18 16.751 17.251 17.5 16.33 17.5Z" fill="black"/>
<path fill-rule="evenodd" clip-rule="evenodd" d="M18 13.5H13.9111C12.6842 13.5 11.5172 12.718 11.1453 11.474C10.5273 9.409 11.9682 7.5 13.8212 7.5H18V8.5H13.9042C13.0832 8.5 12.2902 9.012 12.0392 9.844C11.6222 11.224 12.5832 12.5 13.8212 12.5H18V13.5Z" fill="black"/>
<path fill-rule="evenodd" clip-rule="evenodd" d="M15 10.5C15 11.052 14.552 11.5 14 11.5C13.448 11.5 13 11.052 13 10.5C13 9.948 13.448 9.5 14 9.5C14.552 9.5 15 9.948 15 10.5Z" fill="black"/>
<path fill-rule="evenodd" clip-rule="evenodd" d="M6.4987 5.5C6.2857 5.5 6.08771 5.361 6.02171 5.14501C5.94171 4.87901 6.08971 4.59902 6.3527 4.51702L12.8066 2.52206C12.9346 2.48207 13.0746 2.49706 13.1926 2.56206C13.3106 2.62706 13.3966 2.73706 13.4336 2.86806L13.9816 4.86301C14.0556 5.13001 13.8996 5.408 13.6346 5.482C13.3696 5.554 13.0946 5.399 13.0206 5.13201L12.6086 3.63404L6.6447 5.478C6.5967 5.493 6.5467 5.5 6.4987 5.5Z" fill="black"/>
</g>
<defs>
<clipPath id="clip0_5_1872">
<rect width="16" height="15" fill="white" transform="translate(2 2.5)"/>
</clipPath>
</defs>
</svg>
