<svg width="20" height="20" viewBox="0 0 20 20" fill="none" xmlns="http://www.w3.org/2000/svg">
<g clip-path="url(#clip0_5_1876)">
<path opacity="0.15" d="M17 16.16C17 16.62 16.62 17 16.16 17H3.84C3.38 17 3 16.62 3 16.16V7H17V17.16V16.16Z" fill="black"/>
<path opacity="0.15" d="M3 6V3.84C3 3.38 3.38 3 3.84 3H16.16C16.62 3 17 3.38 17 3.84V6H3Z" fill="black"/>
<path d="M16.16 2H3.84C2.83 2 2 2.83 2 3.84V16.16C2 17.17 2.83 18 3.84 18H16.16C17.17 18 18 17.17 18 16.16V3.84C18 2.82 17.18 2 16.16 2ZM17 16.16C17 16.62 16.62 17 16.16 17H3.84C3.38 17 3 16.62 3 16.16V7H17V17.16V16.16ZM3 6V3.84C3 3.38 3.38 3 3.84 3H16.16C16.62 3 17 3.38 17 3.84V6H3Z" fill="black"/>
<path d="M4.5 5.5C5.05228 5.5 5.5 5.05228 5.5 4.5C5.5 3.94772 5.05228 3.5 4.5 3.5C3.94772 3.5 3.5 3.94772 3.5 4.5C3.5 5.05228 3.94772 5.5 4.5 5.5Z" fill="black"/>
<path d="M6.5 5.5C7.05228 5.5 7.5 5.05228 7.5 4.5C7.5 3.94772 7.05228 3.5 6.5 3.5C5.94772 3.5 5.5 3.94772 5.5 4.5C5.5 5.05228 5.94772 5.5 6.5 5.5Z" fill="black"/>
<path d="M8.5 5.5C9.05228 5.5 9.5 5.05228 9.5 4.5C9.5 3.94772 9.05228 3.5 8.5 3.5C7.94772 3.5 7.5 3.94772 7.5 4.5C7.5 5.05228 7.94772 5.5 8.5 5.5Z" fill="black"/>
</g>
<defs>
<clipPath id="clip0_5_1876">
<rect width="16" height="16" fill="white" transform="translate(2 2)"/>
</clipPath>
</defs>
</svg>
