<svg width="20" height="20" viewBox="0 0 20 20" fill="none" xmlns="http://www.w3.org/2000/svg">
<g clip-path="url(#clip0_5_1878)">
<path opacity="0.15" d="M8.3263 10.1694L3.32505 15.1706C2.90662 15.589 2.90662 16.2665 3.32505 16.6849C3.74348 17.1034 4.42094 17.1034 4.83938 16.6849L9.84062 11.6837C9.84062 11.6837 9.9004 11.604 9.91036 11.594C10.0598 11.4147 10.3089 11.3549 10.528 11.4645C11.1856 11.7933 11.8531 11.9626 12.5305 11.9626C15.0013 11.9626 17.0137 9.95019 17.0137 7.47945C17.0137 7.03113 16.944 6.58282 16.7945 6.14446L14.0548 8.87422C13.8556 9.07348 13.5467 9.07348 13.3475 8.87422L11.1258 6.65255C11.0361 6.56289 10.9764 6.43338 10.9764 6.30386C10.9764 6.17435 11.0262 6.04483 11.1258 5.95517L13.8655 3.21544C13.4272 3.066 12.9689 2.99627 12.5206 2.99627C10.0498 2.99627 8.03738 5.00872 8.03738 7.47945C8.03738 8.15691 8.20675 8.83437 8.53551 9.49191C8.6451 9.70112 8.58533 9.96015 8.406 10.0996L8.3263 10.1694Z" fill="black"/>
<path d="M4.07223 18C3.52428 18 2.99626 17.7808 2.60772 17.3923C2.21918 17.0037 2 16.4857 2 15.9278C2 15.3798 2.21918 14.8518 2.60772 14.4633L7.47945 9.59153C7.18057 8.90411 7.03113 8.19676 7.03113 7.47945C7.03113 4.46077 9.4919 2 12.5106 2C13.3375 2 14.1644 2.19925 14.9614 2.59776C15.1009 2.6675 15.2005 2.80697 15.2304 2.96638C15.2603 3.12578 15.2005 3.28518 15.0909 3.39477L12.1818 6.30386L13.6961 7.81818L16.6052 4.90909C16.7148 4.7995 16.8742 4.73973 17.0336 4.76961C17.193 4.7995 17.3225 4.89913 17.4022 5.03861C17.8007 5.82565 18 6.64259 18 7.47945C18 10.4981 15.5392 12.9589 12.5205 12.9589C11.8032 12.9589 11.0959 12.8095 10.4085 12.5205L5.52677 17.4022C5.14819 17.7808 4.63014 18 4.07223 18ZM8.32628 10.1694L3.32503 15.1706C2.9066 15.589 2.9066 16.2665 3.32503 16.6849C3.74346 17.1034 4.42092 17.1034 4.83935 16.6849L9.8406 11.6837C9.8406 11.6837 9.90037 11.604 9.91034 11.594C10.0598 11.4147 10.3088 11.3549 10.528 11.4645C11.1856 11.7933 11.8531 11.9626 12.5305 11.9626C15.0012 11.9626 17.0137 9.95019 17.0137 7.47945C17.0137 7.03113 16.944 6.58281 16.7945 6.14446L14.0548 8.87422C13.8555 9.07347 13.5467 9.07347 13.3474 8.87422L11.1258 6.65255C11.0361 6.56289 10.9763 6.43337 10.9763 6.30386C10.9763 6.17435 11.0262 6.04483 11.1258 5.95517L13.8655 3.21544C13.4271 3.066 12.9689 2.99626 12.5205 2.99626C10.0498 2.99626 8.03736 5.00872 8.03736 7.47945C8.03736 8.15691 8.20672 8.83437 8.53549 9.49191C8.64508 9.70112 8.5853 9.96015 8.40598 10.0996L8.32628 10.1694Z" fill="black"/>
</g>
<defs>
<clipPath id="clip0_5_1878">
<rect width="16" height="16" fill="white" transform="translate(2 2)"/>
</clipPath>
</defs>
</svg>
