<svg width="72" height="48" viewBox="0 0 72 48" fill="none" xmlns="http://www.w3.org/2000/svg">
<g clip-path="url(#clip0_1_12)">
<mask id="path-1-inside-1_1_12" fill="white">
<path d="M0 9.6C0 6.23968 0 4.55953 0.653961 3.27606C1.2292 2.14708 2.14708 1.2292 3.27606 0.653961C4.55953 0 6.23969 0 9.6 0H62.4C65.7603 0 67.4405 0 68.7239 0.653961C69.8529 1.2292 70.7708 2.14708 71.346 3.27606C72 4.55953 72 6.23969 72 9.6V36H0V9.6Z"/>
</mask>
<path d="M0 9.6C0 6.23968 0 4.55953 0.653961 3.27606C1.2292 2.14708 2.14708 1.2292 3.27606 0.653961C4.55953 0 6.23969 0 9.6 0H62.4C65.7603 0 67.4405 0 68.7239 0.653961C69.8529 1.2292 70.7708 2.14708 71.346 3.27606C72 4.55953 72 6.23969 72 9.6V36H0V9.6Z" fill="white" fill-opacity="0.5"/>
<path d="M-1 6C-1 2.13401 2.13401 -1 6 -1H66C69.866 -1 73 2.13401 73 6H71C71 3.23858 68.7614 1 66 1H6C3.23858 1 1 3.23858 1 6H-1ZM72 36H0H72ZM-1 36V6C-1 2.13401 2.13401 -1 6 -1V1C3.23858 1 1 3.23858 1 6V36H-1ZM66 -1C69.866 -1 73 2.13401 73 6V36H71V6C71 3.23858 68.7614 1 66 1V-1Z" fill="#50555B" fill-opacity="0.5" mask="url(#path-1-inside-1_1_12)"/>
<mask id="path-3-inside-2_1_12" fill="white">
<path d="M2 8.4C2 6.15979 2 5.03968 2.43597 4.18404C2.81947 3.43139 3.43139 2.81947 4.18404 2.43597C5.03968 2 6.15979 2 8.4 2H63.6C65.8402 2 66.9603 2 67.816 2.43597C68.5686 2.81947 69.1805 3.43139 69.564 4.18404C70 5.03968 70 6.15979 70 8.4V35H2V8.4Z"/>
</mask>
<path d="M1.5 6C1.5 3.51472 3.51472 1.5 6 1.5H66C68.4853 1.5 70.5 3.51472 70.5 6H69.5C69.5 4.067 67.933 2.5 66 2.5H6C4.067 2.5 2.5 4.067 2.5 6H1.5ZM70 35H2H70ZM1.5 35V6C1.5 3.51472 3.51472 1.5 6 1.5V2.5C4.067 2.5 2.5 4.067 2.5 6V35H1.5ZM66 1.5C68.4853 1.5 70.5 3.51472 70.5 6V35H69.5V6C69.5 4.067 67.933 2.5 66 2.5V1.5Z" fill="#50555B" fill-opacity="0.25" mask="url(#path-3-inside-2_1_12)"/>
<path d="M0.5 36.5H71.5V38.4C71.5 40.0884 71.4996 41.3246 71.4199 42.3001C71.3407 43.2697 71.1856 43.9374 70.9005 44.4969C70.3732 45.5318 69.5318 46.3732 68.4969 46.9005C67.9374 47.1856 67.2697 47.3407 66.3001 47.4199C65.3246 47.4996 64.0884 47.5 62.4 47.5H9.6C7.91159 47.5 6.67536 47.4996 5.69993 47.4199C4.73034 47.3407 4.06255 47.1856 3.50305 46.9005C2.46816 46.3732 1.62677 45.5318 1.09946 44.4969C0.814384 43.9374 0.659303 43.2697 0.580085 42.3001C0.500389 41.3246 0.5 40.0884 0.5 38.4V36.5Z" fill="white" fill-opacity="0.5" stroke="#2C2F32"/>
<path d="M2 38H70V39.6C70 41.8402 70 42.9603 69.564 43.816C69.1805 44.5686 68.5686 45.1805 67.816 45.564C66.9603 46 65.8402 46 63.6 46H8.4C6.15979 46 5.03968 46 4.18404 45.564C3.43139 45.1805 2.81947 44.5686 2.43597 43.816C2 42.9603 2 41.8402 2 39.6V38Z" fill="#50555B" fill-opacity="0.15"/>
</g>
<defs>
<clipPath id="clip0_1_12">
<rect width="72" height="48" fill="white"/>
</clipPath>
</defs>
</svg>
