<svg width="160" height="118" viewBox="0 0 160 118" fill="none" xmlns="http://www.w3.org/2000/svg">
<mask id="mask0_1314_5482" style="mask-type:alpha" maskUnits="userSpaceOnUse" x="0" y="0" width="160" height="118">
<rect width="160" height="118" fill="url(#paint0_linear_1314_5482)"/>
</mask>
<g mask="url(#mask0_1314_5482)">
<mask id="mask1_1314_5482" style="mask-type:alpha" maskUnits="userSpaceOnUse" x="0" y="0" width="160" height="116">
<path fill-rule="evenodd" clip-rule="evenodd" d="M160 0H0V116H11.0557C10.3695 115.233 9.78083 114.376 9.30792 113.448C8 110.881 8 107.521 8 100.8V39.2C8 32.4794 8 29.1191 9.30792 26.5521C10.4584 24.2942 12.2942 22.4584 14.5521 21.3079C17.1191 20 20.4794 20 27.2 20H132.8C139.521 20 142.881 20 145.448 21.3079C147.706 22.4584 149.542 24.2942 150.692 26.5521C152 29.1191 152 32.4794 152 39.2V100.8C152 107.521 152 110.881 150.692 113.448C150.219 114.376 149.63 115.233 148.944 116H160V0Z" fill="#D9D9D9"/>
</mask>
<g mask="url(#mask1_1314_5482)">
<path d="M144 28V102C144 104.817 143.999 106.869 143.867 108.487C143.736 110.092 143.48 111.181 143.019 112.086C142.156 113.779 140.779 115.156 139.086 116.019C138.181 116.48 137.092 116.736 135.487 116.867C133.869 116.999 131.817 117 129 117H31C28.1832 117 26.1308 116.999 24.5135 116.867C22.9078 116.736 21.8192 116.48 20.9141 116.019C19.2206 115.156 17.8438 113.779 16.9809 112.086C16.5198 111.181 16.2641 110.092 16.1329 108.487C16.0008 106.869 16 104.817 16 102V12.8002C16 10.5435 16.0008 8.9111 16.1057 7.62725C16.2096 6.35507 16.4108 5.51344 16.763 4.82226C17.4341 3.50513 18.5049 2.43427 19.8221 1.76315C20.5132 1.41098 21.3549 1.20981 22.627 1.10587C23.9109 1.00098 25.5433 1.0002 27.8 1.0002H62.0234C63.5386 1.0002 64.1331 1.00662 64.6818 1.13834C65.192 1.26082 65.6797 1.46284 66.127 1.73697C66.6081 2.03178 67.0331 2.44766 68.1045 3.51898L74.4811 9.89547L74.5721 9.98646C75.5228 10.9373 76.1202 11.5349 76.8278 11.9685C77.4541 12.3523 78.1369 12.6351 78.8511 12.8066C79.6581 13.0003 80.5031 13.0002 81.8477 13L81.9764 13H129C131.817 13 133.869 13.0008 135.487 13.1329C137.092 13.2641 138.181 13.5198 139.086 13.981C140.779 14.8438 142.156 16.2206 143.019 17.9141C143.48 18.8192 143.736 19.9078 143.867 21.5135C143.999 23.1308 144 25.1833 144 28Z" stroke="url(#paint1_linear_1314_5482)" stroke-width="2"/>
<mask id="mask2_1314_5482" style="mask-type:alpha" maskUnits="userSpaceOnUse" x="19" y="4" width="122" height="110">
<path fill-rule="evenodd" clip-rule="evenodd" d="M141 102V28C141 25.1337 140.997 23.2246 140.877 21.7577C140.761 20.3376 140.556 19.6877 140.346 19.2761C139.771 18.1471 138.853 17.2292 137.724 16.654C137.312 16.4442 136.662 16.239 135.242 16.123C133.775 16.0031 131.866 16 129 16H81.9764C81.8835 16 81.7906 16.0001 81.6976 16.0003C80.5118 16.002 79.3173 16.0038 78.1508 15.7237C77.1305 15.4788 76.155 15.0747 75.2603 14.5265C74.2375 13.8997 73.3941 13.0538 72.5568 12.2141C72.4911 12.1482 72.4255 12.0825 72.3599 12.0168L65.9832 5.64032C64.8108 4.46803 64.6675 4.36104 64.5596 4.29489C64.3806 4.18524 64.1855 4.10443 63.9815 4.05544C63.8584 4.02589 63.6813 4.00018 62.0234 4.00018H27.8C25.4938 4.00018 24.0047 4.00329 22.8713 4.09589C21.7847 4.18468 21.3818 4.33539 21.184 4.43616C20.4314 4.81965 19.8195 5.43157 19.436 6.18422C19.3352 6.382 19.1845 6.78487 19.0957 7.87153C19.0031 9.00488 19 10.494 19 12.8002V102C19 104.866 19.0031 106.775 19.123 108.242C19.239 109.662 19.4442 110.312 19.654 110.724C20.2292 111.853 21.1471 112.771 22.2761 113.346C22.6877 113.556 23.3376 113.761 24.7577 113.877C26.2246 113.997 28.1337 114 31 114H129C131.866 114 133.775 113.997 135.242 113.877C136.662 113.761 137.312 113.556 137.724 113.346C138.853 112.771 139.771 111.853 140.346 110.724C140.556 110.312 140.761 109.662 140.877 108.242C140.997 106.775 141 104.866 141 102Z" fill="#50555B"/>
</mask>
<g mask="url(#mask2_1314_5482)">
<path fill-rule="evenodd" clip-rule="evenodd" d="M18.998 4H19.998V28H18.998V4ZM21.998 4H22.998V28H21.998V4ZM25.998 4H24.998V28H25.998V4ZM27.998 4H28.998V28H27.998V4ZM31.998 4H30.998V28H31.998V4ZM33.998 4H34.998V28H33.998V4ZM37.998 4H36.998V28H37.998V4ZM39.998 4H40.998V28H39.998V4ZM43.998 4H42.998V28H43.998V4ZM45.998 4H46.998V28H45.998V4ZM49.998 4H48.998V28H49.998V4ZM51.998 4H52.998V28H51.998V4ZM55.998 4H54.998V28H55.998V4ZM57.998 4H58.998V28H57.998V4ZM61.998 4H60.998V28H61.998V4ZM63.998 4H64.998V28H63.998V4ZM67.998 4H66.998V28H67.998V4ZM69.998 4H70.998V28H69.998V4ZM73.998 4H72.998V28H73.998V4ZM75.998 4H76.998V28H75.998V4ZM79.998 4H78.998V28H79.998V4ZM81.998 4H82.998V28H81.998V4ZM85.998 4H84.998V28H85.998V4ZM87.998 4H88.998V28H87.998V4ZM91.998 4H90.998V28H91.998V4ZM93.998 4H94.998V28H93.998V4ZM97.998 4H96.998V28H97.998V4ZM99.998 4H100.998V28H99.998V4ZM103.998 4H102.998V28H103.998V4ZM105.998 4H106.998V28H105.998V4ZM109.998 4H108.998V28H109.998V4ZM111.998 4H112.998V28H111.998V4ZM115.998 4H114.998V28H115.998V4ZM118.998 4H117.998V28H118.998V4ZM120.998 4H121.998V28H120.998V4ZM124.998 4H123.998V28H124.998V4ZM126.998 4H127.998V28H126.998V4ZM130.998 4H129.998V28H130.998V4ZM132.998 4H133.998V28H132.998V4ZM136.998 4H135.998V28H136.998V4ZM138.998 4H139.998V28H138.998V4Z" fill="url(#paint2_linear_1314_5482)"/>
</g>
</g>
</g>
<defs>
<linearGradient id="paint0_linear_1314_5482" x1="80" y1="0" x2="80" y2="118" gradientUnits="userSpaceOnUse">
<stop stop-color="#D9D9D9"/>
<stop offset="1" stop-color="#D9D9D9" stop-opacity="0"/>
</linearGradient>
<linearGradient id="paint1_linear_1314_5482" x1="78.7998" y1="0.000198364" x2="78.7998" y2="115.2" gradientUnits="userSpaceOnUse">
<stop stop-color="#50555B" stop-opacity="0.5"/>
<stop offset="1" stop-color="#50555B" stop-opacity="0"/>
</linearGradient>
<linearGradient id="paint2_linear_1314_5482" x1="139.68" y1="4" x2="139.68" y2="28" gradientUnits="userSpaceOnUse">
<stop stop-color="#50555B" stop-opacity="0.25"/>
<stop offset="1" stop-color="#50555B" stop-opacity="0.05"/>
</linearGradient>
</defs>
</svg>
