<svg width="160" height="118" viewBox="0 0 160 118" fill="none" xmlns="http://www.w3.org/2000/svg">
<mask id="mask0_1314_5483" style="mask-type:alpha" maskUnits="userSpaceOnUse" x="0" y="0" width="160" height="118">
<rect width="160" height="118" fill="url(#paint0_linear_1314_5483)"/>
</mask>
<g mask="url(#mask0_1314_5483)">
<rect x="11" y="23" width="138" height="94" rx="9" fill="url(#paint1_linear_1314_5483)" stroke="url(#paint2_linear_1314_5483)" stroke-width="2"/>
<rect x="14.25" y="26.25" width="131.5" height="87.5" rx="5.75" stroke="url(#paint3_linear_1314_5483)" stroke-width="0.5"/>
</g>
<mask id="mask1_1314_5483" style="mask-type:alpha" maskUnits="userSpaceOnUse" x="54" y="44" width="52" height="52">
<path fill-rule="evenodd" clip-rule="evenodd" d="M99.271 87.4525C92.1981 83.6724 87.3857 76.2163 87.3857 67.6362C87.3857 60.3265 90.8786 53.8327 96.2863 49.7325C91.8295 46.1465 86.1651 44.0003 79.9995 44.0003C65.6404 44.0003 54 55.6407 54 69.9998C54 84.359 65.6404 95.9993 79.9995 95.9993C87.6418 95.9993 94.514 92.7021 99.271 87.4525ZM98.6723 64.473C101.474 65.9279 103.959 67.9076 105.998 70.2819C105.999 70.188 106 70.094 106 69.9998C106 62.891 103.147 56.4486 98.5231 51.755C95.0475 54.2363 92.4207 57.8301 91.1629 62.0163C91.1632 62.0163 91.1636 62.0164 91.164 62.0165C91.1639 62.0165 91.1639 62.0165 91.1639 62.0165C90.7038 63.5478 90.4268 65.1584 90.3585 66.8228C92.8974 65.5485 95.7044 64.7295 98.6723 64.473Z" fill="#D9D9D9"/>
</mask>
<g mask="url(#mask1_1314_5483)">
<mask id="mask2_1314_5483" style="mask-type:alpha" maskUnits="userSpaceOnUse" x="55" y="45" width="42" height="50">
<path fill-rule="evenodd" clip-rule="evenodd" d="M80.0005 45.5C66.4698 45.5 55.501 56.4688 55.501 69.9995C55.501 83.5302 66.4698 94.499 80.0005 94.499C86.5341 94.499 92.4691 91.943 96.8628 87.7729C90.261 83.5095 85.8867 76.0845 85.8867 67.6359C85.8867 60.5469 88.9675 54.177 93.8584 49.793C89.9172 47.0845 85.1455 45.5 80.0005 45.5Z" fill="#2C2F32"/>
</mask>
<g mask="url(#mask2_1314_5483)">
<mask id="path-6-outside-1_1314_5483" maskUnits="userSpaceOnUse" x="63.6377" y="60.7273" width="26" height="36" fill="black">
<rect fill="white" x="63.6377" y="60.7273" width="26" height="36"/>
<path fill-rule="evenodd" clip-rule="evenodd" d="M87.3873 67.6363C87.3873 65.5957 87.6595 63.6187 88.1696 61.7395C87.9098 61.7314 87.649 61.7273 87.3873 61.7273C78.8306 61.7273 71.2975 66.1098 66.9102 72.7527C68.8928 72.1737 70.9793 71.8384 73.1351 71.7813C67.9456 76.0623 64.6377 82.5423 64.6377 89.795C64.6377 90.1989 64.648 90.6004 64.6682 90.9992C68.7859 94.0109 73.8225 95.8407 79.2789 95.9895C78.22 93.3436 77.6375 90.4555 77.6375 87.4314C77.6375 79.6469 81.4972 72.764 87.4072 68.5918C87.394 68.2749 87.3873 67.9564 87.3873 67.6363Z"/>
</mask>
<path d="M88.1696 61.7395L88.6521 61.8705L88.8179 61.2596L88.1852 61.2398L88.1696 61.7395ZM66.9102 72.7527L66.493 72.4772L65.7416 73.6149L67.0504 73.2327L66.9102 72.7527ZM73.1351 71.7813L73.4533 72.167L74.5733 71.2431L73.1219 71.2815L73.1351 71.7813ZM64.6682 90.9992L64.1689 91.0246L64.181 91.2623L64.3731 91.4028L64.6682 90.9992ZM79.2789 95.9895L79.2653 96.4894L80.0258 96.5101L79.7431 95.8038L79.2789 95.9895ZM87.4072 68.5918L87.6956 69.0003L87.9182 68.8431L87.9068 68.5709L87.4072 68.5918ZM87.687 61.6086C87.1655 63.53 86.8873 65.551 86.8873 67.6363H87.8873C87.8873 65.6403 88.1535 63.7073 88.6521 61.8705L87.687 61.6086ZM87.3873 62.2273C87.6438 62.2273 87.8994 62.2313 88.1539 62.2393L88.1852 61.2398C87.9202 61.2315 87.6542 61.2273 87.3873 61.2273V62.2273ZM67.3274 73.0283C71.6261 66.5196 79.0056 62.2273 87.3873 62.2273V61.2273C78.6556 61.2273 70.9689 65.7001 66.493 72.4772L67.3274 73.0283ZM73.1219 71.2815C70.9226 71.3397 68.7935 71.6819 66.7701 72.2728L67.0504 73.2327C68.9921 72.6656 71.0359 72.3371 73.1483 72.2812L73.1219 71.2815ZM65.1377 89.795C65.1377 82.6979 68.374 76.3571 73.4533 72.167L72.8169 71.3956C67.5173 75.7675 64.1377 82.3868 64.1377 89.795H65.1377ZM65.1676 90.9738C65.1477 90.5834 65.1377 90.1904 65.1377 89.795H64.1377C64.1377 90.2073 64.1482 90.6173 64.1689 91.0246L65.1676 90.9738ZM79.2925 95.4897C73.9409 95.3438 69.0019 93.5494 64.9634 90.5956L64.3731 91.4028C68.5699 94.4724 73.7042 96.3377 79.2653 96.4894L79.2925 95.4897ZM77.1375 87.4314C77.1375 90.5202 77.7325 93.4713 78.8147 96.1753L79.7431 95.8038C78.7074 93.2159 78.1375 90.3908 78.1375 87.4314H77.1375ZM87.1189 68.1833C81.0818 72.4451 77.1375 79.4776 77.1375 87.4314H78.1375C78.1375 79.8162 81.9125 73.0828 87.6956 69.0003L87.1189 68.1833ZM86.8873 67.6363C86.8873 67.9634 86.8941 68.2889 86.9077 68.6127L87.9068 68.5709C87.8938 68.261 87.8873 67.9494 87.8873 67.6363H86.8873Z" fill="#2C2F32" fill-opacity="0.5" mask="url(#path-6-outside-1_1314_5483)"/>
</g>
<mask id="mask3_1314_5483" style="mask-type:alpha" maskUnits="userSpaceOnUse" x="92" y="53" width="13" height="14">
<path fill-rule="evenodd" clip-rule="evenodd" d="M92.1279 64.4183C94.338 63.5965 96.6328 63.1432 98.9769 62.9407C100.854 63.9154 102.627 65.049 104.24 66.4219C103.537 61.6097 101.434 57.2527 98.3573 53.7744C95.1587 56.4273 92.8955 60.1635 92.1279 64.4183Z" fill="#2C2F32"/>
</mask>
<g mask="url(#mask3_1314_5483)">
<path d="M91.1633 62.0162C93.8329 62.4289 96.3602 63.2721 98.6722 64.4727C95.7041 64.7291 92.897 65.5481 90.3579 66.8226C90.4262 65.1582 90.7032 63.5476 91.1633 62.0162Z" stroke="#2C2F32" stroke-opacity="0.5" stroke-linejoin="round"/>
</g>
</g>
<path d="M99.2719 87.4522C92.1991 83.6721 87.3867 76.216 87.3867 67.6359C87.3867 60.3262 90.8795 53.8323 96.2872 49.7322C91.8305 46.1462 86.1661 44 80.0005 44C65.6414 44 54.001 55.6404 54.001 69.9995C54.001 84.3587 65.6414 95.999 80.0005 95.999C87.6428 95.999 94.5149 92.7018 99.2719 87.4522Z" stroke="url(#paint4_linear_1314_5483)"/>
<path d="M98.6723 64.4726C101.474 65.9275 103.959 67.9073 105.998 70.2816C105.999 70.1877 106 70.0937 106 69.9995C106 62.8907 103.147 56.4482 98.5233 51.7547C93.7763 55.1436 90.6132 60.608 90.3581 66.8225C92.8971 65.548 95.7042 64.729 98.6723 64.4726Z" stroke="url(#paint5_linear_1314_5483)"/>
<defs>
<linearGradient id="paint0_linear_1314_5483" x1="80" y1="0" x2="80" y2="118" gradientUnits="userSpaceOnUse">
<stop stop-color="#D9D9D9"/>
<stop offset="1" stop-color="#D9D9D9" stop-opacity="0"/>
</linearGradient>
<linearGradient id="paint1_linear_1314_5483" x1="80" y1="22" x2="80" y2="118" gradientUnits="userSpaceOnUse">
<stop stop-color="#50555B" stop-opacity="0"/>
<stop offset="1" stop-color="#50555B" stop-opacity="0.05"/>
</linearGradient>
<linearGradient id="paint2_linear_1314_5483" x1="80" y1="22" x2="80" y2="118" gradientUnits="userSpaceOnUse">
<stop stop-color="#50555B" stop-opacity="0.5"/>
<stop offset="1" stop-color="#50555B" stop-opacity="0.25"/>
</linearGradient>
<linearGradient id="paint3_linear_1314_5483" x1="80" y1="26" x2="80" y2="114" gradientUnits="userSpaceOnUse">
<stop stop-color="#50555B" stop-opacity="0.5"/>
<stop offset="1" stop-color="#50555B" stop-opacity="0.25"/>
</linearGradient>
<linearGradient id="paint4_linear_1314_5483" x1="80.0004" y1="44" x2="80.0004" y2="95.999" gradientUnits="userSpaceOnUse">
<stop stop-color="#2C2F32" stop-opacity="0.5"/>
<stop offset="1" stop-color="#2C2F32" stop-opacity="0.25"/>
</linearGradient>
<linearGradient id="paint5_linear_1314_5483" x1="80.0004" y1="44" x2="80.0004" y2="95.999" gradientUnits="userSpaceOnUse">
<stop stop-color="#2C2F32" stop-opacity="0.5"/>
<stop offset="1" stop-color="#2C2F32" stop-opacity="0.25"/>
</linearGradient>
</defs>
</svg>
