<?xml version="1.0" encoding="UTF-8"?>
<svg xmlns="http://www.w3.org/2000/svg" viewBox="0 0 1897.11 753.38">
  <defs>
    <style>
      .cls-1 {
        fill: none;
        stroke: #5c11a6;
        stroke-miterlimit: 10;
        stroke-width: 18px;
      }
    </style>
  </defs>
  <g id="E">
    <polygon id="E-2" data-name="E" class="cls-1" points="1836.56 9.37 1019.16 14.37 1114.16 85.37 926.18 744.37 1312.16 744.37 1451.16 599.37 1147.16 599.37 1190.16 453.37 1376.16 455.37 1502.16 319.37 1237.16 314.37 1273.16 189.37 1536.16 189.37 1569.16 92.37 1836.56 9.37"/>
  </g>
  <g id="A">
    <path class="cls-1" d="m856.16,11.37l-375,5,170,56-180,273-327,111,447-23,95.39-189.79c.16-.32.64-.21.65.14l7.45,220.15-291.25,9.5-111.75,185.5-239.5,84.5,366,1,89.5-154.5,170-3,4,156,186.68,1.12-12.18-732.62Z"/>
  </g>
</svg>