<svg width="16" height="16" viewBox="0 0 16 16" fill="none" xmlns="http://www.w3.org/2000/svg">
<path fill-rule="evenodd" clip-rule="evenodd" d="M7 1.49756C7 1.22142 6.77614 0.997559 6.5 0.997559C6.22386 0.997559 6 1.22142 6 1.49756C6 2.20805 6.29638 2.84931 6.77225 3.30446C5.7072 3.68859 4.78629 4.41816 4.12102 5.37153L2.85355 4.10406C2.65829 3.9088 2.34171 3.9088 2.14645 4.10406C1.95118 4.29932 1.95118 4.6159 2.14645 4.81117L3.56066 6.22538C3.57474 6.23946 3.58944 6.25252 3.60469 6.26456C3.28955 6.93379 3.08634 7.67605 3.02202 8.46191H1.5C1.22386 8.46191 1 8.68577 1 8.96191C1 9.23806 1.22386 9.46191 1.5 9.46191H3.01589C3.07164 10.2651 3.27234 11.0241 3.58953 11.7079C3.57964 11.7163 3.57001 11.7252 3.56066 11.7346L2.14645 13.1488C1.95118 13.3441 1.95118 13.6606 2.14645 13.8559C2.34171 14.0512 2.65829 14.0512 2.85355 13.8559L4.10262 12.6068C5.10623 14.0617 6.70241 15.0024 8.5 15.0024C10.2976 15.0024 11.8938 14.0617 12.8974 12.6068L14.1464 13.8559C14.3417 14.0512 14.6583 14.0512 14.8536 13.8559C15.0488 13.6606 15.0488 13.3441 14.8536 13.1488L13.4393 11.7346C13.43 11.7252 13.4204 11.7163 13.4105 11.7079C13.7277 11.0241 13.9284 10.2651 13.9841 9.46191H15.5C15.7761 9.46191 16 9.23806 16 8.96191C16 8.68577 15.7761 8.46191 15.5 8.46191H13.978C13.9137 7.67604 13.7104 6.93378 13.3953 6.26456C13.4106 6.25251 13.4253 6.23946 13.4393 6.22538L14.8536 4.81117C15.0488 4.6159 15.0488 4.29932 14.8536 4.10406C14.6583 3.9088 14.3417 3.9088 14.1464 4.10406L12.879 5.37153C12.2137 4.41816 11.2928 3.68859 10.2277 3.30446C10.7036 2.84931 11 2.20805 11 1.49756C11 1.22142 10.7761 0.997559 10.5 0.997559C10.2239 0.997559 10 1.22142 10 1.49756C10 2.32599 9.32843 2.99756 8.5 2.99756C7.67157 2.99756 7 2.32599 7 1.49756ZM8 13.9713V7.44337C6.67089 7.34539 5.51624 6.86152 4.79376 6.16354C4.29622 6.96032 4 7.93258 4 9.00244C4 11.6484 5.81178 13.6973 8 13.9713ZM13 9.00244C13 11.6484 11.1882 13.6973 9 13.9713V7.44338C10.3291 7.34545 11.4838 6.86162 12.2063 6.16367C12.7038 6.96043 13 7.93264 13 9.00244ZM5.87283 5.75095C5.68616 5.6265 5.53386 5.49758 5.41184 5.36767C6.22996 4.51399 7.32815 4.00244 8.5 4.00244C9.67191 4.00244 10.7701 4.51404 11.5883 5.36779C11.4663 5.49766 11.314 5.62654 11.1274 5.75095C10.4988 6.17 9.57286 6.46168 8.50011 6.46168C7.42736 6.46168 6.5014 6.17 5.87283 5.75095Z" fill="#50555B"/>
</svg>
