<svg width="16" height="16" viewBox="0 0 16 16" fill="none" xmlns="http://www.w3.org/2000/svg">
<path d="M8 8.5H8.20711L8.35355 8.35355L9.20711 7.5H11.7929L12.6464 8.35355L12.7929 8.5H13H13.5C14.0523 8.5 14.5 8.94772 14.5 9.5V13.5C14.5 14.0523 14.0523 14.5 13.5 14.5H7.5C6.94772 14.5 6.5 14.0523 6.5 13.5V9.5C6.5 8.94772 6.94772 8.5 7.5 8.5H8Z" stroke="#000000"/>
<path fill-rule="evenodd" clip-rule="evenodd" d="M5 13H4.2C3.62345 13 3.25117 12.9992 2.96784 12.9761C2.69617 12.9539 2.59545 12.9162 2.54601 12.891C2.35785 12.7951 2.20487 12.6422 2.10899 12.454C2.0838 12.4045 2.04612 12.3038 2.02393 12.0322C2.00078 11.7488 2 11.3766 2 10.8V4.2C2 3.62345 2.00078 3.25117 2.02393 2.96784C2.04612 2.69617 2.0838 2.59545 2.10899 2.54601C2.20487 2.35785 2.35785 2.20487 2.54601 2.10899C2.59545 2.0838 2.69617 2.04612 2.96784 2.02393C3.25117 2.00078 3.62345 2 4.2 2H7.67452C8.2113 2 8.3167 2.00643 8.40502 2.02763C8.50705 2.05213 8.6046 2.09253 8.69407 2.14736C8.77151 2.19482 8.85059 2.2648 9.23015 2.64437L11.3556 4.76985C11.7352 5.14941 11.8052 5.22849 11.8526 5.30593C11.9075 5.3954 11.9479 5.49295 11.9724 5.59498C11.9883 5.66145 11.9959 5.73759 11.9987 6H12.9991C12.9965 5.71454 12.9861 5.53399 12.9447 5.36154C12.8957 5.15746 12.8149 4.96237 12.7053 4.78343C12.5816 4.5816 12.4086 4.40865 12.0627 4.06274L9.93726 1.93726C9.59136 1.59135 9.4184 1.4184 9.21657 1.29472C9.03763 1.18506 8.84254 1.10425 8.63846 1.05526C8.40829 1 8.1637 1 7.67452 1H4.2C3.0799 1 2.51984 1 2.09202 1.21799C1.71569 1.40973 1.40973 1.71569 1.21799 2.09202C1 2.51984 1 3.0799 1 4.2V10.8C1 11.9201 1 12.4802 1.21799 12.908C1.40973 13.2843 1.71569 13.5903 2.09202 13.782C2.51984 14 3.0799 14 4.2 14H5V13Z" fill="#000000"/>
<circle cx="10.5" cy="11.5" r="1" stroke="#000000"/>
</svg>
