<svg width="24" height="24" viewBox="0 0 24 24" fill="none" xmlns="http://www.w3.org/2000/svg">
<path fill-rule="evenodd" clip-rule="evenodd" d="M11.354 16.65C11.5538 16.85 11.5538 17.1602 11.354 17.3602V17.3502C11.1542 17.5502 10.8446 17.5502 10.6448 17.3502L6.14984 12.8502C6.0999 12.8102 6.06995 12.75 6.03998 12.69C6.01001 12.63 6 12.5601 6 12.5001C6 12.4401 6.01001 12.3702 6.03998 12.3102C6.05996 12.2702 6.09658 12.2168 6.14984 12.15L10.6448 7.65C10.8446 7.45 11.1542 7.45 11.354 7.65C11.5538 7.85 11.5538 8.1602 11.354 8.3602L7.71808 12.0001L17.5005 12C17.7802 12 18 12.22 18 12.5C18 12.78 17.7802 13 17.5005 13L7.70807 13.0001L11.354 16.65Z" fill="#50555B"/>
</svg>
