<svg width="16" height="16" viewBox="0 0 16 16" fill="none" xmlns="http://www.w3.org/2000/svg">
<path d="M5.32217 2.11513C5.31227 2.10523 5.30246 2.0954 5.29273 2.08565C5.14901 1.94166 5.0223 1.81471 4.86953 1.7211C4.73533 1.63886 4.58902 1.57825 4.43597 1.5415C4.26175 1.49967 4.08238 1.49984 3.87894 1.50002C3.86516 1.50004 3.85128 1.50005 3.83728 1.50005L2.60004 1.50003L2.58076 1.50003C2.31719 1.50001 2.0898 1.5 1.90251 1.5153C1.70484 1.53145 1.50822 1.5671 1.31903 1.6635C1.03678 1.80731 0.807307 2.03678 0.663494 2.31902C0.567095 2.50822 0.531436 2.70483 0.515285 2.9025C0.499983 3.08979 0.499991 3.31718 0.5 3.58076L0.5 3.60003V11.4L0.5 11.4193C0.499991 11.6828 0.499983 11.9102 0.515285 12.0975C0.531435 12.2952 0.567093 12.4918 0.66349 12.681C0.8073 12.9632 1.03677 13.1927 1.31902 13.3365C1.5082 13.4329 1.70481 13.4686 1.90249 13.4847C2.08977 13.5 2.31715 13.5 2.58072 13.5H2.6H12.4H12.4193C12.6829 13.5 12.9102 13.5 13.0975 13.4847C13.2952 13.4686 13.4918 13.4329 13.681 13.3365C13.9632 13.1927 14.1927 12.9632 14.3365 12.681C14.4329 12.4918 14.4686 12.2952 14.4847 12.0975C14.5 11.9102 14.5 11.6829 14.5 11.4193V11.4V5.60001V5.58073C14.5 5.31716 14.5 5.08978 14.4847 4.90249C14.4686 4.70482 14.4329 4.50821 14.3365 4.31902C14.1927 4.03678 13.9632 3.8073 13.681 3.66349C13.4918 3.5671 13.2952 3.53144 13.0975 3.51529C12.9102 3.49999 12.6828 3.5 12.4193 3.50001L12.4 3.50001L7.16275 3.50006C6.89435 3.50006 6.84165 3.49684 6.79749 3.48624C6.74647 3.47399 6.6977 3.45379 6.65296 3.42638C6.61424 3.40265 6.5747 3.36766 6.38492 3.17787L5.32217 2.11513Z" stroke="#50555B"/>
<path d="M9.85992 8.15C9.66033 7.95 9.35097 7.95 9.15139 8.15L8.00377 9.3V6.5C8.00377 6.22 7.78422 6 7.5048 6C7.22538 6 7.00584 6.22 7.00584 6.5V9.29L5.85822 8.14C5.65863 7.94 5.34928 7.94 5.14969 8.14C4.9501 8.34 4.9501 8.65 5.14969 8.85L7.14555 10.85C7.24534 10.95 7.37507 11 7.49482 11C7.61458 11 7.75429 10.95 7.8441 10.85L9.83996 8.85C10.0395 8.65 10.0595 8.35 9.85992 8.15Z" fill="#50555B"/>
</svg>
