<svg width="16" height="16" viewBox="0 0 16 16" fill="none" xmlns="http://www.w3.org/2000/svg">
<path fill-rule="evenodd" clip-rule="evenodd" d="M4 0.5C4 0.223858 3.77614 0 3.5 0C3.22386 0 3 0.223858 3 0.5L3.00164 10.632C3.01476 11.3774 3.10623 11.676 3.26713 11.9768C3.44144 12.3028 3.69723 12.5586 4.02315 12.7329C4.34908 12.9072 4.67237 13 5.56389 13H11V12L5.39444 11.999C4.86535 11.9923 4.68178 11.9511 4.49475 11.8511C4.3431 11.7699 4.23005 11.6569 4.14895 11.5052C4.0177 11.2598 4.01064 10.9795 4.00376 10.7064L4.00376 10.7063L4.00376 10.7063C4.00291 10.6726 4.00207 10.639 4.00099 10.6056L4 0.5ZM12 5.56389V15.5C12 15.7761 12.2239 16 12.5 16C12.7761 16 13 15.7761 13 15.5V5.56389C13 4.67237 12.9072 4.34908 12.7329 4.02315C12.5586 3.69723 12.3028 3.44144 11.9768 3.26713C11.6509 3.09283 11.3276 3 10.4361 3H5V4L10.6056 4.00099C11.1346 4.00766 11.3182 4.04892 11.5052 4.14895C11.676 4.24025 11.7938 4.38068 11.8793 4.55111C11.9678 4.74093 12 4.9622 12 5.56389ZM0.5 3H2V4H0.5C0.223858 4 0 3.77614 0 3.5C0 3.22386 0.223858 3 0.5 3ZM14 12H15.5C15.7761 12 16 12.2239 16 12.5C16 12.7761 15.7761 13 15.5 13H14V12Z" fill="#50555B"/>
</svg>
