<svg width="16" height="16" viewBox="0 0 16 16" fill="none" xmlns="http://www.w3.org/2000/svg">
<g opacity="0.8">
<path fill-rule="evenodd" clip-rule="evenodd" d="M9.97448 3.65813C10.0618 3.39616 9.92022 3.113 9.65825 3.02567C9.39628 2.93835 9.11312 3.07993 9.02579 3.3419L6.02579 12.3419C5.93847 12.6039 6.08005 12.887 6.34202 12.9744C6.60399 13.0617 6.88715 12.9201 6.97448 12.6581L9.97448 3.65813ZM3.77735 3.08391C4.00711 3.23708 4.0692 3.54752 3.91603 3.77728L1.10093 7.99993L3.91603 12.2226C4.0692 12.4523 4.00711 12.7628 3.77735 12.916C3.54759 13.0691 3.23715 13.007 3.08397 12.7773L0.0839748 8.27728C-0.0279916 8.10933 -0.0279916 7.89053 0.0839748 7.72258L3.08397 3.22258C3.23715 2.99282 3.54759 2.93073 3.77735 3.08391ZM12.2227 3.08391C11.9929 3.23708 11.9309 3.54752 12.084 3.77728L14.8991 7.99993L12.084 12.2226C11.9309 12.4523 11.9929 12.7628 12.2227 12.916C12.4525 13.0691 12.7629 13.007 12.9161 12.7773L15.9161 8.27728C16.0281 8.10933 16.0281 7.89053 15.9161 7.72258L12.9161 3.22258C12.7629 2.99282 12.4525 2.93073 12.2227 3.08391Z" fill="#F7F8F8"/>
</g>
</svg>
