<svg width="16" height="16" viewBox="0 0 16 16" fill="none" xmlns="http://www.w3.org/2000/svg">
<path fill-rule="evenodd" clip-rule="evenodd" d="M12.7257 16L10 10L16 12.7257L13.2743 13.2743L12.7257 16Z" fill="#000"/>
<path fill-rule="evenodd" clip-rule="evenodd" d="M6.2 4H10.8C11.3766 4 11.7488 4.00078 12.0322 4.02393C12.3038 4.04612 12.4045 4.0838 12.454 4.10899C12.6422 4.20487 12.7951 4.35785 12.891 4.54601C12.9162 4.59545 12.9539 4.69617 12.9761 4.96784C12.9992 5.25117 13 5.62345 13 6.2V9.16619L14 9.62047V6.2C14 5.0799 14 4.51984 13.782 4.09202C13.5903 3.71569 13.2843 3.40973 12.908 3.21799C12.4802 3 11.9201 3 10.8 3H6.2C5.0799 3 4.51984 3 4.09202 3.21799C3.71569 3.40973 3.40973 3.71569 3.21799 4.09202C3 4.51984 3 5.07989 3 6.2V10.8C3 11.9201 3 12.4802 3.21799 12.908C3.40973 13.2843 3.71569 13.5903 4.09202 13.782C4.51984 14 5.07989 14 6.2 14H9.62047L9.16619 13H6.2C5.62345 13 5.25117 12.9992 4.96784 12.9761C4.69617 12.9539 4.59545 12.9162 4.54601 12.891C4.35785 12.7951 4.20487 12.6422 4.10899 12.454C4.0838 12.4045 4.04612 12.3038 4.02393 12.0322C4.00078 11.7488 4 11.3766 4 10.8V6.2C4 5.62345 4.00078 5.25117 4.02393 4.96784C4.04612 4.69617 4.0838 4.59545 4.10899 4.54601C4.20487 4.35785 4.35785 4.20487 4.54601 4.10899C4.59545 4.0838 4.69617 4.04612 4.96784 4.02393C5.25117 4.00078 5.62345 4 6.2 4Z" fill="#000"/>
<path fill-rule="evenodd" clip-rule="evenodd" d="M0 1C0 0.447715 0.447715 0 1 0V1H0ZM2 0H3V1H2V0ZM5 0H4V1H5V0ZM6 0H7V1H6V0ZM11 1C11 0.447715 10.5523 0 10 0V1H11ZM8 0H9V1H8V0ZM1 2H0V3H1V2ZM0 4H1V5H0V4ZM1 6H0V7H1V6ZM0 10H1V11C0.447715 11 0 10.5523 0 10ZM3 10H2V11H3V10ZM0 8H1V9H0V8ZM11 2H10V3H11V2Z" fill="#000"/>
</svg>
