<svg width="29" height="14" viewBox="0 0 29 14" fill="none" xmlns="http://www.w3.org/2000/svg">
<path d="M4.49905 0C3.39448 0 2.49905 0.895431 2.49905 2V4.46619L2.49905 7L2.49915 9.53378V12C2.49915 13.1046 3.39458 14 4.49915 14H27C28.1046 14 29 13.1046 29 12V2C29 0.89543 28.1046 0 27 0H4.49905Z" fill="#0072EF"/>
<path d="M11.7748 10.3052H10.2361L8.85133 7.77018C8.46666 7.06814 8.04353 6.21991 7.72619 5.44968L7.69735 5.45942C7.73581 6.32719 7.75503 7.25343 7.75503 8.32595V10.3052H6.40875V3.73364H8.12054L9.46685 6.14187C9.85152 6.83412 10.2362 7.65315 10.5247 8.39417H10.5535C10.4573 7.52638 10.4285 6.63912 10.4285 5.65439V3.73364H11.7748V10.3052Z" fill="white"/>
<path d="M17.1792 10.3051H13.044V3.73358H17.0446V4.95236H14.5154V6.31735H16.9003V7.52632H14.5154V9.08633H17.1792V10.3051Z" fill="white"/>
<path d="M24.353 10.3051H22.7662L22.2181 7.47764C22.0931 6.81466 21.9873 6.20041 21.9104 5.44964H21.8911C21.7758 6.19063 21.6699 6.81466 21.5161 7.47764L20.9006 10.3051H19.2947L17.756 3.73367H19.3235L19.8139 6.44411C19.9582 7.22412 20.0928 8.07239 20.1986 8.73538H20.2178C20.3236 8.02366 20.4774 7.23384 20.641 6.42465L21.1891 3.73367H22.747L23.2663 6.50263C23.4105 7.27292 23.5163 7.97489 23.6125 8.70617H23.6317C23.7279 7.97493 23.8721 7.2047 24.0067 6.42469L24.5357 3.73367H26.0262L24.353 10.3051Z" fill="white"/>
</svg>
