<svg width="16" height="16" viewBox="0 0 16 16" fill="none" xmlns="http://www.w3.org/2000/svg">
<path d="M7.50425 0.134915L1.49575 3.63273C1.18839 3.81262 1 4.14241 1 4.50219L1 11.4978C1 11.8576 1.18839 12.1874 1.49575 12.3673L7.50425 15.8651C7.81161 16.045 8.18839 16.045 8.49575 15.8651L14.5042 12.3673C14.8116 12.1874 15 11.8576 15 11.4978V4.50219C15 4.14241 14.8116 3.81262 14.5042 3.63273L8.49575 0.134915C8.18839 -0.0449715 7.81161 -0.0449715 7.50425 0.134915ZM14.0085 4.50219V11.4978L8 14.9956L1.9915 11.4978L1.9915 4.50219L8 1.00437L14.0085 4.50219ZM5.0255 8C5.0255 9.65896 6.35411 10.9981 8 10.9981C9.64589 10.9981 10.9745 9.65896 10.9745 8C10.9745 6.34104 9.64589 5.00187 8 5.00187C6.35411 5.00187 5.0255 6.34104 5.0255 8ZM9.983 8C9.983 9.09931 9.09065 9.99875 8 9.99875C6.90935 9.99875 6.017 9.09931 6.017 8C6.017 6.90069 6.90935 6.00125 8 6.00125C9.09065 6.00125 9.983 6.90069 9.983 8Z" fill="#000"/>
</svg>
