<svg width="16" height="16" viewBox="0 0 16 16" fill="none" xmlns="http://www.w3.org/2000/svg">
<path fill-rule="evenodd" clip-rule="evenodd" d="M3.5 3H7.5C9.26027 3 10.7211 4.30601 10.9644 6H12.5C14.43 6 16 7.57 16 9.5C16 11.43 14.43 13 12.5 13H8.5C6.73973 13 5.27892 11.694 5.0356 10H3.5C1.57 10 0 8.43 0 6.5C0 4.57 1.57 3 3.5 3ZM6.05008 10C6.28192 11.1407 7.29122 12 8.5 12H12.5C13.88 12 15 10.88 15 9.5C15 8.12 13.88 7 12.5 7H10.9644C10.7211 8.69399 9.26027 10 7.5 10H6.05008ZM9.94992 7C9.71808 8.14068 8.70878 9 7.5 9H6.05008C6.28192 7.85932 7.29122 7 8.5 7H9.94992ZM9.94992 6H8.5C6.73973 6 5.27892 7.30601 5.0356 9H3.5C2.12 9 1 7.88 1 6.5C1 5.12 2.12 4 3.5 4H7.5C8.70878 4 9.71808 4.85932 9.94992 6Z" fill="#000"/>
</svg>
