<svg width="16" height="16" viewBox="0 0 16 16" fill="none" xmlns="http://www.w3.org/2000/svg">
<path d="M2.5 4.5C2.5 3.39543 3.39543 2.5 4.5 2.5C5.60457 2.5 6.5 3.39543 6.5 4.5V6.5H4.5C3.39543 6.5 2.5 5.60457 2.5 4.5Z" stroke="#50555B"/>
<path d="M13.5 4.5C13.5 3.39543 12.6046 2.5 11.5 2.5C10.3954 2.5 9.5 3.39543 9.5 4.5V6.5H11.5C12.6046 6.5 13.5 5.60457 13.5 4.5Z" stroke="#50555B"/>
<path d="M2.5 11.5C2.5 12.6046 3.39543 13.5 4.5 13.5C5.60457 13.5 6.5 12.6046 6.5 11.5V9.5H4.5C3.39543 9.5 2.5 10.3954 2.5 11.5Z" stroke="#50555B"/>
<path d="M13.5 11.5C13.5 12.6046 12.6046 13.5 11.5 13.5C10.3954 13.5 9.5 12.6046 9.5 11.5V9.5H11.5C12.6046 9.5 13.5 10.3954 13.5 11.5Z" stroke="#50555B"/>
<rect x="6.5" y="6.5" width="3" height="3" stroke="#50555B"/>
</svg>
