<svg width="16" height="16" viewBox="0 0 16 16" fill="none" xmlns="http://www.w3.org/2000/svg">
<path fill-rule="evenodd" clip-rule="evenodd" d="M8 15C11.866 15 15 11.866 15 8C15 4.13401 11.866 1 8 1C4.13401 1 1 4.13401 1 8C1 11.866 4.13401 15 8 15ZM8 14C11.3137 14 14 11.3137 14 8C14 4.68629 11.3137 2 8 2C4.68629 2 2 4.68629 2 8C2 11.3137 4.68629 14 8 14ZM7.5 9C7.5 9.28 7.72 9.5 8 9.5C8.28 9.5 8.5 9.28 8.5 9V8.79C8.5 8.59 8.61 8.41 8.78 8.34C9.67 7.96 10.15 7.03 9.95 6.07C9.79 5.31 9.18 4.7 8.42 4.54C7.82 4.42 7.21 4.56 6.74 4.95C6.27 5.33 6 5.89 6 6.5C6 6.78 6.22 7 6.5 7C6.78 7 7 6.78 7 6.5C7 6.19 7.14 5.91 7.37 5.72C7.61 5.52 7.91 5.45 8.22 5.52C8.6 5.6 8.9 5.9 8.98 6.28C9.08 6.76 8.84 7.23 8.39 7.42C7.85 7.65 7.5 8.19 7.5 8.79V9ZM8 10.5C8.27614 10.5 8.5 10.7239 8.5 11C8.5 11.2761 8.27614 11.5 8 11.5C7.72386 11.5 7.5 11.2761 7.5 11C7.5 10.7239 7.72386 10.5 8 10.5Z" fill="#50555B"/>
</svg>
