<svg width="16" height="16" viewBox="0 0 16 16" fill="none" xmlns="http://www.w3.org/2000/svg">
<path fill-rule="evenodd" clip-rule="evenodd" d="M2.5 3H4.5C4.77614 3 5 3.22386 5 3.5V5.5C5 5.77614 4.77614 6 4.5 6H2.5C2.22386 6 2 5.77614 2 5.5V3.5C2 3.22386 2.22386 3 2.5 3ZM1 3.5C1 2.67157 1.67157 2 2.5 2H4.5C5.32843 2 6 2.67157 6 3.5V5.5C6 6.32843 5.32843 7 4.5 7H2.5C1.67157 7 1 6.32843 1 5.5V3.5ZM8.5 4C8.22386 4 8 4.22386 8 4.5C8 4.77614 8.22386 5 8.5 5H14.5C14.7761 5 15 4.77614 15 4.5C15 4.22386 14.7761 4 14.5 4H8.5Z" fill="#F7F8F8"/>
<path fill-rule="evenodd" clip-rule="evenodd" d="M2.5 10H4.5C4.77614 10 5 10.2239 5 10.5V12.5C5 12.7761 4.77614 13 4.5 13H2.5C2.22386 13 2 12.7761 2 12.5V10.5C2 10.2239 2.22386 10 2.5 10ZM1 10.5C1 9.67157 1.67157 9 2.5 9H4.5C5.32843 9 6 9.67157 6 10.5V12.5C6 13.3284 5.32843 14 4.5 14H2.5C1.67157 14 1 13.3284 1 12.5V10.5ZM8.5 11C8.22386 11 8 11.2239 8 11.5C8 11.7761 8.22386 12 8.5 12H14.5C14.7761 12 15 11.7761 15 11.5C15 11.2239 14.7761 11 14.5 11H8.5Z" fill="#F7F8F8"/>
<rect x="3" y="7" width="1" height="2" fill="#F7F8F8"/>
</svg>
