<svg width="16" height="16" viewBox="0 0 16 16" fill="none" xmlns="http://www.w3.org/2000/svg">
<path fill-rule="evenodd" clip-rule="evenodd" d="M3.8373 2.00019L1.80004 2.00015L1.77691 2.00015L1.7769 2.00015C1.65779 2.0001 1.51553 2.00004 1.39021 2.01028C1.24499 2.02214 1.03699 2.05258 0.819043 2.16363C0.536795 2.30744 0.307319 2.53691 0.163506 2.81916C0.0524544 3.0371 0.0220104 3.2451 0.0101455 3.39032C-9.37238e-05 3.51564 -3.93644e-05 3.6579 6.17358e-06 3.77701L1.2134e-05 3.80015V12.4001L9.51144e-06 12.432L9.50983e-06 12.4321C-2.04111e-05 12.6844 -4.95493e-05 12.9302 0.0169574 13.1384C0.0356342 13.367 0.0797018 13.6367 0.217999 13.9081C0.409746 14.2844 0.715707 14.5904 1.09203 14.7822C1.36345 14.9205 1.63319 14.9645 1.86178 14.9832C2.06994 15.0002 2.31572 15.0002 2.5681 15.0001H2.56813L2.60001 15.0001H12.4L12.4319 15.0001H12.4319C12.4852 15.0001 12.5382 15.0002 12.5906 15H5V14.0001H2.60001C2.03996 14.0001 1.75993 14.0001 1.54602 13.8911C1.35786 13.7953 1.20488 13.6423 1.10901 13.4541C1.00001 13.2402 1.00001 12.9602 1.00001 12.4001V3.80015C1.00001 3.52012 1.00001 3.38011 1.05451 3.27315C1.10245 3.17907 1.17894 3.10258 1.27302 3.05464C1.37998 3.00015 1.52 3.00015 1.80003 3.00015L3.83729 3.00019C4.08187 3.00019 4.20416 3.0002 4.31925 3.02783C4.42128 3.05232 4.51882 3.09273 4.60829 3.14756C4.70921 3.2094 4.79568 3.29587 4.96863 3.46882L6.03138 4.53157L6.03139 4.53157C6.20433 4.70452 6.29081 4.791 6.39173 4.85284C6.4812 4.90767 6.57874 4.94807 6.68078 4.97257C6.79587 5.0002 6.91817 5.0002 7.16276 5.0002L12.4 5.00015C12.9601 5.00015 13.2401 5.00015 13.454 5.10914C13.6422 5.20501 13.7951 5.35799 13.891 5.54616C14 5.76007 14 6.0401 14 6.60015V7H15V6.60015L15 6.56827C15 6.31588 15.0001 6.07008 14.9831 5.86192C14.9644 5.63332 14.9203 5.36359 14.782 5.09216C14.5903 4.71584 14.2843 4.40988 13.908 4.21813C13.6366 4.07983 13.3668 4.03577 13.1382 4.01709C12.9301 4.00009 12.6843 4.00012 12.4319 4.00015L12.4 4.00015L7.16275 4.0002C7.03175 4.0002 6.96637 3.99996 6.91888 3.99779L6.91529 3.99762L6.91263 3.9952C6.87752 3.96316 6.83112 3.91709 6.73849 3.82446L5.67574 2.76171L5.63971 2.72556C5.50578 2.59091 5.33715 2.42137 5.1308 2.29492C4.95186 2.18526 4.75677 2.10445 4.55271 2.05546C4.31738 1.99896 4.07825 1.99959 3.88834 2.0001L3.88834 2.0001L3.8373 2.00019Z" fill="#F7F8F8"/>
<path d="M9.16865 7.50021L7.80003 7.50017C7.79471 7.50017 7.78939 7.50017 7.78408 7.50017C7.65789 7.50015 7.53499 7.50013 7.43091 7.50864C7.31661 7.51797 7.18174 7.54 7.04602 7.60915C6.85786 7.70502 6.70487 7.858 6.609 8.04617C6.53985 8.18188 6.51781 8.31675 6.50847 8.43105C6.49997 8.53513 6.49998 8.65803 6.5 8.78422C6.5 8.78953 6.5 8.79485 6.5 8.80017V13.2002L6.5 13.2161C6.49998 13.3423 6.49997 13.4652 6.50847 13.5693C6.51781 13.6836 6.53984 13.8184 6.60899 13.9541C6.70487 14.1423 6.85785 14.2953 7.04601 14.3912C7.18172 14.4603 7.31659 14.4823 7.43089 14.4917C7.53497 14.5002 7.65787 14.5002 7.78406 14.5002L7.8 14.5002H13.2L13.2159 14.5002C13.3421 14.5002 13.465 14.5002 13.5691 14.4917C13.6834 14.4823 13.8183 14.4603 13.954 14.3912C14.1422 14.2953 14.2951 14.1423 14.391 13.9541C14.4602 13.8184 14.4822 13.6836 14.4915 13.5693C14.5 13.4652 14.5 13.3423 14.5 13.2161L14.5 13.2002V9.80017L14.5 9.78423C14.5 9.65803 14.5 9.53513 14.4915 9.43105C14.4822 9.31675 14.4602 9.18188 14.391 9.04617C14.2951 8.858 14.1421 8.70502 13.954 8.60915C13.8183 8.54 13.6834 8.51797 13.5691 8.50863C13.465 8.50013 13.3421 8.50015 13.2159 8.50016L13.2 8.50017L10.8314 8.50021C10.7659 8.50021 10.7332 8.50009 10.7094 8.499C10.7088 8.49898 10.7082 8.49895 10.7076 8.49892C10.7072 8.49853 10.7068 8.49813 10.7063 8.49771C10.6888 8.48169 10.6655 8.45866 10.6192 8.41234L10.0879 7.88097C10.082 7.87511 10.076 7.86907 10.0698 7.86289C10.0029 7.79557 9.91857 7.7108 9.81539 7.64757C9.72592 7.59274 9.62838 7.55234 9.52635 7.52784C9.40869 7.49959 9.28912 7.49991 9.19417 7.50016C9.18545 7.50018 9.17694 7.50021 9.16865 7.50021Z" stroke="#F7F8F8"/>
</svg>
