<?xml version="1.0" standalone="no"?><!DOCTYPE svg PUBLIC "-//W3C//DTD SVG 1.1//EN" "http://www.w3.org/Graphics/SVG/1.1/DTD/svg11.dtd"><svg t="1760932160880" class="icon" viewBox="0 0 1024 1024" version="1.1" xmlns="http://www.w3.org/2000/svg" p-id="1091" xmlns:xlink="http://www.w3.org/1999/xlink" width="16" height="16"><path d="M776.704 988.16H247.296c-84.48 0-153.6-69.632-153.6-154.624V190.464C93.696 105.472 162.816 35.84 247.296 35.84h378.88c40.96 0 79.36 18.944 104.448 50.688L901.12 304.64c18.432 23.552 28.672 53.248 28.672 82.944v445.952c0.512 84.992-68.608 154.624-153.088 154.624z" fill="#E9F6F3" p-id="1092"></path><path d="M776.704 1024H247.296c-104.448 0-189.44-85.504-189.44-190.464V190.464C57.856 85.504 142.848 0 247.296 0h378.88c52.224 0 100.352 23.552 132.608 65.024l170.496 217.6c23.552 29.696 36.352 67.072 36.352 104.96v445.952c0.512 104.96-84.48 190.464-188.928 190.464zM247.296 72.192c-65.024 0-117.76 53.248-117.76 118.272v643.072c0 65.536 52.736 118.272 117.76 118.272h528.896c65.024 0 117.76-53.248 117.76-118.272V387.584c0-21.504-7.168-43.008-20.992-60.928l-170.496-217.6c-18.432-23.552-46.592-36.864-76.288-36.864h-378.88z" fill="#A3DBCC" p-id="1093"></path><path d="M742.4 736.256h-143.872c77.824-37.376 143.872-109.568 143.872-201.728 0-126.976-103.424-230.4-230.4-230.4s-230.4 103.424-230.4 230.4 103.424 230.4 230.4 230.4h230.4v-28.672z m-63.488-201.728c0 34.304-28.672 63.488-63.488 63.488-34.304 0-63.488-28.672-63.488-63.488 0-34.816 28.672-63.488 63.488-63.488s63.488 29.184 63.488 63.488zM512 367.616c34.304 0 63.488 28.672 63.488 63.488 0 34.304-28.672 63.488-63.488 63.488-34.816 0-63.488-28.672-63.488-63.488s28.672-63.488 63.488-63.488z m-167.424 166.912c0-34.304 28.672-63.488 63.488-63.488 34.304 0 63.488 28.672 63.488 63.488 0 34.816-28.672 63.488-63.488 63.488s-63.488-28.672-63.488-63.488z m103.936 103.936c0-34.304 28.672-63.488 63.488-63.488s63.488 28.672 63.488 63.488c0 34.304-28.672 63.488-63.488 63.488-34.816 0-63.488-29.184-63.488-63.488z" fill="#20A884" p-id="1094"></path></svg>