<svg width="10" height="10" viewBox="0 0 10 10" fill="none" xmlns="http://www.w3.org/2000/svg">
<path fill-rule="evenodd" clip-rule="evenodd" d="M8.6415 2.53786C8.83951 2.73587 8.93851 2.83487 8.9756 2.94904C9.00823 3.04946 9.00823 3.15763 8.9756 3.25805C8.93851 3.37222 8.83951 3.47122 8.6415 3.66923L4.56576 7.74497C4.36775 7.94297 4.26875 8.04198 4.15458 8.07907C4.05416 8.1117 3.94599 8.1117 3.84557 8.07907C3.7314 8.04198 3.6324 7.94297 3.43439 7.74497L1.35865 5.66923C1.16065 5.47122 1.06164 5.37222 1.02455 5.25805C0.991918 5.15763 0.991918 5.04946 1.02455 4.94904C1.06164 4.83487 1.16065 4.73587 1.35865 4.53786L1.6415 4.25502C1.83951 4.05701 1.93851 3.958 2.05267 3.92091C2.1531 3.88828 2.26127 3.88828 2.36169 3.92091C2.47585 3.958 2.57486 4.05701 2.77287 4.25502L4.00008 5.48222L7.22728 2.25502C7.42529 2.05701 7.5243 1.958 7.63846 1.92091C7.73888 1.88828 7.84706 1.88828 7.94748 1.92091C8.06164 1.958 8.16065 2.05701 8.35865 2.25502L8.6415 2.53786Z" fill="#F7F8F8" fill-opacity="0.15"/>
</svg>
