<svg width="18" height="18" viewBox="0 0 18 18" fill="none" xmlns="http://www.w3.org/2000/svg">
<path fill-rule="evenodd" clip-rule="evenodd" d="M9.70725 9.00013L12.8532 5.85413C13.0492 5.65813 13.0492 5.34213 12.8532 5.14613C12.6582 4.95113 12.3422 4.95113 12.1462 5.14613L9.00025 8.29313L5.85325 5.14613C5.65825 4.95113 5.34225 4.95113 5.14625 5.14613C4.95125 5.34213 4.95125 5.65813 5.14625 5.85413L8.29325 9.00013L5.14625 12.1461C4.95125 12.3421 4.95125 12.6581 5.14625 12.8541C5.24425 12.9511 5.37225 13.0001 5.50025 13.0001C5.62825 13.0001 5.75625 12.9511 5.85325 12.8541L9.00025 9.70713L12.1462 12.8541C12.2442 12.9511 12.3722 13.0001 12.5002 13.0001C12.6282 13.0001 12.7562 12.9511 12.8532 12.8541C13.0492 12.6581 13.0492 12.3421 12.8532 12.1461L9.70725 9.00013Z" fill="#F7F8F8"/>
</svg>
