<svg width="16" height="16" viewBox="0 0 16 16" fill="none" xmlns="http://www.w3.org/2000/svg">
<path fill-rule="evenodd" clip-rule="evenodd" d="M3.4 2H4.6C5.03654 2 5.3038 2.00078 5.50377 2.01712C5.59692 2.02473 5.65327 2.03429 5.6875 2.04235C5.70378 2.04618 5.7138 2.04939 5.71921 2.05133C5.72441 2.05318 5.72659 2.05429 5.727 2.0545C5.82108 2.10243 5.89757 2.17892 5.9455 2.273C5.94571 2.27341 5.94682 2.27559 5.94867 2.28079C5.95061 2.2862 5.95382 2.29622 5.95765 2.3125C5.96571 2.34673 5.97527 2.40308 5.98288 2.49623C5.99922 2.6962 6 2.96346 6 3.4V4.6C6 5.03654 5.99922 5.3038 5.98288 5.50377C5.97527 5.59692 5.96571 5.65327 5.95765 5.6875C5.95382 5.70378 5.95061 5.7138 5.94867 5.71921C5.94682 5.72441 5.94571 5.72659 5.9455 5.727C5.89757 5.82108 5.82108 5.89757 5.727 5.9455C5.72659 5.94571 5.72441 5.94682 5.71921 5.94867C5.7138 5.95061 5.70378 5.95382 5.6875 5.95765C5.65327 5.96571 5.59692 5.97527 5.50377 5.98288C5.3038 5.99922 5.03654 6 4.6 6H3.4C2.96346 6 2.6962 5.99922 2.49623 5.98288C2.40308 5.97527 2.34673 5.96571 2.3125 5.95765C2.29622 5.95382 2.2862 5.95061 2.28079 5.94867C2.27559 5.94682 2.27341 5.94571 2.273 5.9455C2.17892 5.89757 2.10243 5.82108 2.0545 5.727C2.05429 5.72659 2.05318 5.72441 2.05133 5.71921C2.04939 5.7138 2.04618 5.70378 2.04235 5.6875C2.03429 5.65327 2.02473 5.59692 2.01712 5.50377C2.00078 5.3038 2 5.03654 2 4.6V3.4C2 2.96346 2.00078 2.6962 2.01712 2.49623C2.02473 2.40308 2.03429 2.34673 2.04235 2.3125C2.04618 2.29622 2.04939 2.2862 2.05133 2.28079C2.05318 2.27559 2.05429 2.27341 2.0545 2.273C2.10243 2.17892 2.17892 2.10243 2.273 2.0545C2.27341 2.05429 2.27559 2.05318 2.28079 2.05133C2.2862 2.04939 2.29622 2.04618 2.3125 2.04235C2.34673 2.03429 2.40308 2.02473 2.49623 2.01712C2.6962 2.00078 2.96346 2 3.4 2ZM1 3.4C1 2.55992 1 2.13988 1.16349 1.81901C1.3073 1.53677 1.53677 1.3073 1.81901 1.16349C2.13988 1 2.55992 1 3.4 1H4.6C5.44008 1 5.86012 1 6.18099 1.16349C6.46323 1.3073 6.6927 1.53677 6.83651 1.81901C7 2.13988 7 2.55992 7 3.4V4.6C7 5.44008 7 5.86012 6.83651 6.18099C6.6927 6.46323 6.46323 6.6927 6.18099 6.83651C5.86012 7 5.44008 7 4.6 7H3.4C2.55992 7 2.13988 7 1.81901 6.83651C1.53677 6.6927 1.3073 6.46323 1.16349 6.18099C1 5.86012 1 5.44008 1 4.6V3.4ZM11.4 2H12.6C13.0365 2 13.3038 2.00078 13.5038 2.01712C13.5969 2.02473 13.6533 2.03429 13.6875 2.04235C13.7038 2.04618 13.7138 2.04939 13.7192 2.05133C13.7244 2.05318 13.7266 2.05429 13.727 2.0545C13.8211 2.10243 13.8976 2.17892 13.9455 2.273C13.9457 2.27341 13.9468 2.27559 13.9487 2.28079C13.9506 2.2862 13.9538 2.29622 13.9577 2.3125C13.9657 2.34673 13.9753 2.40308 13.9829 2.49623C13.9992 2.6962 14 2.96346 14 3.4V4.6C14 5.03654 13.9992 5.3038 13.9829 5.50377C13.9753 5.59692 13.9657 5.65327 13.9577 5.6875C13.9538 5.70378 13.9506 5.7138 13.9487 5.71921C13.9468 5.72441 13.9457 5.72659 13.9455 5.727C13.8976 5.82108 13.8211 5.89757 13.727 5.9455C13.7266 5.94571 13.7244 5.94682 13.7192 5.94867C13.7138 5.95061 13.7038 5.95382 13.6875 5.95765C13.6533 5.96571 13.5969 5.97527 13.5038 5.98288C13.3038 5.99922 13.0365 6 12.6 6H11.4C10.9635 6 10.6962 5.99922 10.4962 5.98288C10.4031 5.97527 10.3467 5.96571 10.3125 5.95765C10.2962 5.95382 10.2862 5.95061 10.2808 5.94867C10.2756 5.94682 10.2734 5.94571 10.273 5.9455C10.1789 5.89757 10.1024 5.82108 10.0545 5.727C10.0543 5.72659 10.0532 5.72441 10.0513 5.71921C10.0494 5.7138 10.0462 5.70378 10.0423 5.6875C10.0343 5.65327 10.0247 5.59692 10.0171 5.50377C10.0008 5.3038 10 5.03654 10 4.6V3.4C10 2.96346 10.0008 2.6962 10.0171 2.49623C10.0247 2.40308 10.0343 2.34673 10.0423 2.3125C10.0462 2.29622 10.0494 2.2862 10.0513 2.28079C10.0532 2.27559 10.0543 2.27341 10.0545 2.273C10.1024 2.17892 10.1789 2.10243 10.273 2.0545C10.2734 2.05429 10.2756 2.05318 10.2808 2.05133C10.2862 2.04939 10.2962 2.04618 10.3125 2.04235C10.3467 2.03429 10.4031 2.02473 10.4962 2.01712C10.6962 2.00078 10.9635 2 11.4 2ZM9 3.4C9 2.55992 9 2.13988 9.16349 1.81901C9.3073 1.53677 9.53677 1.3073 9.81901 1.16349C10.1399 1 10.5599 1 11.4 1H12.6C13.4401 1 13.8601 1 14.181 1.16349C14.4632 1.3073 14.6927 1.53677 14.8365 1.81901C15 2.13988 15 2.55992 15 3.4V4.6C15 5.44008 15 5.86012 14.8365 6.18099C14.6927 6.46323 14.4632 6.6927 14.181 6.83651C13.8601 7 13.4401 7 12.6 7H11.4C10.5599 7 10.1399 7 9.81901 6.83651C9.53677 6.6927 9.3073 6.46323 9.16349 6.18099C9 5.86012 9 5.44008 9 4.6V3.4ZM4.6 10H3.4C2.96346 10 2.6962 10.0008 2.49623 10.0171C2.40308 10.0247 2.34673 10.0343 2.3125 10.0423C2.29622 10.0462 2.2862 10.0494 2.28079 10.0513C2.27559 10.0532 2.27341 10.0543 2.273 10.0545C2.17892 10.1024 2.10243 10.1789 2.0545 10.273C2.05429 10.2734 2.05318 10.2756 2.05133 10.2808C2.04939 10.2862 2.04618 10.2962 2.04235 10.3125C2.03429 10.3467 2.02473 10.4031 2.01712 10.4962C2.00078 10.6962 2 10.9635 2 11.4V12.6C2 13.0365 2.00078 13.3038 2.01712 13.5038C2.02473 13.5969 2.03429 13.6533 2.04235 13.6875C2.04618 13.7038 2.04939 13.7138 2.05133 13.7192C2.05318 13.7244 2.05429 13.7266 2.0545 13.727C2.10243 13.8211 2.17892 13.8976 2.273 13.9455C2.27341 13.9457 2.27559 13.9468 2.28079 13.9487C2.2862 13.9506 2.29622 13.9538 2.3125 13.9577C2.34673 13.9657 2.40308 13.9753 2.49623 13.9829C2.6962 13.9992 2.96346 14 3.4 14H4.6C5.03654 14 5.3038 13.9992 5.50377 13.9829C5.59692 13.9753 5.65327 13.9657 5.6875 13.9577C5.70378 13.9538 5.7138 13.9506 5.71921 13.9487C5.72441 13.9468 5.72659 13.9457 5.727 13.9455C5.82108 13.8976 5.89757 13.8211 5.9455 13.727C5.94571 13.7266 5.94682 13.7244 5.94867 13.7192C5.95061 13.7138 5.95382 13.7038 5.95765 13.6875C5.96571 13.6533 5.97527 13.5969 5.98288 13.5038C5.99922 13.3038 6 13.0365 6 12.6V11.4C6 10.9635 5.99922 10.6962 5.98288 10.4962C5.97527 10.4031 5.96571 10.3467 5.95765 10.3125C5.95382 10.2962 5.95061 10.2862 5.94867 10.2808C5.94682 10.2756 5.94571 10.2734 5.9455 10.273C5.89757 10.1789 5.82108 10.1024 5.727 10.0545C5.72659 10.0543 5.72441 10.0532 5.71921 10.0513C5.7138 10.0494 5.70378 10.0462 5.6875 10.0423C5.65327 10.0343 5.59692 10.0247 5.50377 10.0171C5.3038 10.0008 5.03654 10 4.6 10ZM1.16349 9.81901C1 10.1399 1 10.5599 1 11.4V12.6C1 13.4401 1 13.8601 1.16349 14.181C1.3073 14.4632 1.53677 14.6927 1.81901 14.8365C2.13988 15 2.55992 15 3.4 15H4.6C5.44008 15 5.86012 15 6.18099 14.8365C6.46323 14.6927 6.6927 14.4632 6.83651 14.181C7 13.8601 7 13.4401 7 12.6V11.4C7 10.5599 7 10.1399 6.83651 9.81901C6.6927 9.53677 6.46323 9.3073 6.18099 9.16349C5.86012 9 5.44008 9 4.6 9H3.4C2.55992 9 2.13988 9 1.81901 9.16349C1.53677 9.3073 1.3073 9.53677 1.16349 9.81901ZM11.4 10H12.6C13.0365 10 13.3038 10.0008 13.5038 10.0171C13.5969 10.0247 13.6533 10.0343 13.6875 10.0423C13.7038 10.0462 13.7138 10.0494 13.7192 10.0513C13.7244 10.0532 13.7266 10.0543 13.727 10.0545C13.8211 10.1024 13.8976 10.1789 13.9455 10.273C13.9457 10.2734 13.9468 10.2756 13.9487 10.2808C13.9506 10.2862 13.9538 10.2962 13.9577 10.3125C13.9657 10.3467 13.9753 10.4031 13.9829 10.4962C13.9992 10.6962 14 10.9635 14 11.4V12.6C14 13.0365 13.9992 13.3038 13.9829 13.5038C13.9753 13.5969 13.9657 13.6533 13.9577 13.6875C13.9538 13.7038 13.9506 13.7138 13.9487 13.7192C13.9475 13.7225 13.9466 13.7246 13.9461 13.7258C13.9458 13.7265 13.9456 13.7268 13.9455 13.727C13.8976 13.8211 13.8211 13.8976 13.727 13.9455C13.7266 13.9457 13.7244 13.9468 13.7192 13.9487C13.7138 13.9506 13.7038 13.9538 13.6875 13.9577C13.6533 13.9657 13.5969 13.9753 13.5038 13.9829C13.3038 13.9992 13.0365 14 12.6 14H11.4C10.9635 14 10.6962 13.9992 10.4962 13.9829C10.4031 13.9753 10.3467 13.9657 10.3125 13.9577C10.2962 13.9538 10.2862 13.9506 10.2808 13.9487C10.2756 13.9468 10.2734 13.9457 10.273 13.9455C10.1789 13.8976 10.1024 13.8211 10.0545 13.727C10.0543 13.7266 10.0532 13.7244 10.0513 13.7192C10.0494 13.7138 10.0462 13.7038 10.0423 13.6875C10.0343 13.6533 10.0247 13.5969 10.0171 13.5038C10.0008 13.3038 10 13.0365 10 12.6V11.4C10 10.9635 10.0008 10.6962 10.0171 10.4962C10.0247 10.4031 10.0343 10.3467 10.0423 10.3125C10.0462 10.2962 10.0494 10.2862 10.0513 10.2808C10.0532 10.2756 10.0543 10.2734 10.0545 10.273C10.1024 10.1789 10.1789 10.1024 10.273 10.0545C10.2734 10.0543 10.2756 10.0532 10.2808 10.0513C10.2862 10.0494 10.2962 10.0462 10.3125 10.0423C10.3467 10.0343 10.4031 10.0247 10.4962 10.0171C10.6962 10.0008 10.9635 10 11.4 10ZM9 11.4C9 10.5599 9 10.1399 9.16349 9.81901C9.3073 9.53677 9.53677 9.3073 9.81901 9.16349C10.1399 9 10.5599 9 11.4 9H12.6C13.4401 9 13.8601 9 14.181 9.16349C14.4632 9.3073 14.6927 9.53677 14.8365 9.81901C15 10.1399 15 10.5599 15 11.4V12.6C15 13.4401 15 13.8601 14.8365 14.181C14.6927 14.4632 14.4632 14.6927 14.181 14.8365C13.8601 15 13.4401 15 12.6 15H11.4C10.5599 15 10.1399 15 9.81901 14.8365C9.53677 14.6927 9.3073 14.4632 9.16349 14.181C9 13.8601 9 13.4401 9 12.6V11.4Z" fill="#F7F8F8"/>
</svg>
