<svg width="16" height="16" viewBox="0 0 16 16" fill="none" xmlns="http://www.w3.org/2000/svg">
<path fill-rule="evenodd" clip-rule="evenodd" d="M12.39 10.89H10.39C10.11 10.89 9.89 11.11 9.89 11.39C9.89 11.67 10.11 11.89 10.39 11.89H11.11C10.23 12.6 9.15 13 8 13C5.24 13 3 10.76 3 8C3 7.72 2.78 7.5 2.5 7.5C2.22 7.5 2 7.72 2 8C2 11.31 4.69 14 8 14C9.44 14 10.81 13.49 11.89 12.56V13.39C11.89 13.67 12.11 13.89 12.39 13.89C12.67 13.89 12.89 13.67 12.89 13.39V11.39C12.89 11.11 12.67 10.89 12.39 10.89ZM8 2C6.56 2 5.2 2.51 4.11 3.44V2.61C4.11 2.33 3.89 2.11 3.61 2.11C3.33 2.11 3.11 2.33 3.11 2.61V4.61C3.11 4.89 3.33 5.11 3.61 5.11H5.61C5.89 5.11 6.11 4.89 6.11 4.61C6.11 4.33 5.89 4.11 5.61 4.11H4.89C5.77 3.4 6.85 3 8 3C10.76 3 13 5.24 13 8C13 8.28 13.22 8.5 13.5 8.5C13.78 8.5 14 8.28 14 8C14 4.69 11.31 2 8 2Z" fill="#F7F8F8" fill-opacity="0.8"/>
</svg>
