<svg width="24" height="24" viewBox="0 0 24 24" fill="none" xmlns="http://www.w3.org/2000/svg">
<path fill-rule="evenodd" clip-rule="evenodd" d="M17 6H16V6.99992V7.99992V9H17V7.99992H18.5C18.7761 7.99992 19 7.77606 19 7.49992C19 7.22378 18.7761 6.99992 18.5 6.99992H17V6ZM5.5 6.99992H15V7.99992H5.5C5.22386 7.99992 5 7.77606 5 7.49992C5 7.22378 5.22386 6.99992 5.5 6.99992Z" fill="#F7F8F8"/>
<path fill-rule="evenodd" clip-rule="evenodd" d="M8 10H7V11H5.5C5.22386 11 5 11.2239 5 11.5C5 11.7762 5.22386 12 5.5 12H7V13H8V12V11V10ZM18.5 12H9V11H18.5C18.7761 11 19 11.2239 19 11.5C19 11.7762 18.7761 12 18.5 12Z" fill="#F7F8F8"/>
<path fill-rule="evenodd" clip-rule="evenodd" d="M13 14H12V14.9999V15.9999V17H13V15.9999H18.5C18.7761 15.9999 19 15.7761 19 15.4999C19 15.2238 18.7761 14.9999 18.5 14.9999H13V14ZM5.5 14.9999H11V15.9999H5.5C5.22386 15.9999 5 15.7761 5 15.4999C5 15.2238 5.22386 14.9999 5.5 14.9999Z" fill="#F7F8F8"/>
</svg>
